<?xml version="1.0" encoding="utf-8"?>
<!-- Generator: Adobe Illustrator 16.0.0, SVG Export Plug-In . SVG Version: 6.00 Build 0)  -->
<!DOCTYPE svg PUBLIC "-//W3C//DTD SVG 1.1//EN" "http://www.w3.org/Graphics/SVG/1.1/DTD/svg11.dtd">
<svg version="1.1" id="Layer_1" xmlns="http://www.w3.org/2000/svg" xmlns:xlink="http://www.w3.org/1999/xlink" x="0px" y="0px"
	 width="1000px" height="400px" viewBox="0 0 1000 400" enable-background="new 0 0 1000 400" xml:space="preserve">
<polygon fill="#124C52" points="-0.18,187.877 105.403,409.761 -3.163,407.934 "/>
<polygon fill="#124C52" points="118.885,410.674 175.544,310.515 200.035,353.648 220.871,330.619 269.854,413.963 "/>
<polygon fill="#124C52" points="755.068,420.926 785.043,358.053 798.567,374.136 837.682,321.863 872.042,379.984 
	1012.409,195.387 1018.259,429.333 "/>
<polygon fill="#D4E1DD" points="-1.701,182.394 42.165,274.51 40.337,297.539 15.846,290.96 -4.99,321.3 "/>
<polygon fill="#D4E1DD" points="152.149,349.886 175.544,307.113 190.896,335.11 190.531,354.553 172.985,345.22 163.115,363.884 
	"/>
<polygon fill="#D4E1DD" points="205.152,346.693 220.871,329.259 234.762,352.379 234.762,365.645 229.278,356.928 220.14,367.539 
	209.904,351.242 203.69,355.032 "/>
<polygon fill="#D4E1DD" points="824.938,335.931 837.376,317.781 847.551,335.931 845.666,353.666 830.969,338.404 826.069,343.354 
	"/>
<polygon fill="#D4E1DD" points="951.364,273.98 1011.679,192.563 1016.796,289.894 993.768,282.862 980.974,303.587 
	961.234,281.382 952.827,295.075 "/>
<polygon fill="#124C52" points="571.619,409.949 609.898,373.171 635.585,399.512 663.79,386.093 722.215,417.902 "/>
<polygon fill="#124C52" points="314.856,405.038 382.883,357.904 431.863,379.9 474.72,361.832 530.502,423.891 "/>
<polygon fill="#D4E1DD" points="351.591,378.132 382.883,357.224 404.652,366.285 390.367,369.77 381.523,385.797 369.958,376.041 
	"/>
<polygon fill="#D4E1DD" points="460.435,367.002 475.196,361.152 481.523,369.135 479.415,376.954 471.682,369.846 464.653,375.532 
	"/>
</svg>
