<?xml version="1.0" encoding="utf-8"?>
<!-- Generator: Adobe Illustrator 16.0.0, SVG Export Plug-In . SVG Version: 6.00 Build 0)  -->
<!DOCTYPE svg PUBLIC "-//W3C//DTD SVG 1.1//EN" "http://www.w3.org/Graphics/SVG/1.1/DTD/svg11.dtd">
<svg version="1.1" id="Layer_1" xmlns="http://www.w3.org/2000/svg" xmlns:xlink="http://www.w3.org/1999/xlink" x="0px" y="0px"
	 width="600px" height="600px" viewBox="0 0 600 600" enable-background="new 0 0 600 600" xml:space="preserve">
<polygon id="XMLID_9_" fill="#9D6AAD" points="-1395.488,1536.312 -1171.413,1536.312 -1152.795,1517.693 -1127.707,1181.646 
	-1439.062,1181.646 -1414.106,1517.693 "/>
<path id="XMLID_1_" fill="#9B64A9" d="M-3168.42,2232.57h-231.47c-8.583,0-15.845-6.47-16.505-15.053l-26.145-308.583
	c-0.792-9.507,6.866-17.693,16.506-17.693h283.758c9.771,0,17.429,8.187,16.505,17.693l-26.145,308.583
	C-3152.575,2226.101-3159.837,2232.57-3168.42,2232.57z"/>
<polygon id="XMLID_130_" fill="#AC83BB" points="-463.271,1205.81 -456.404,1306.03 -442.804,1505.018 -244.344,1505.018 
	-230.744,1306.03 -223.877,1205.81 "/>
<path id="XMLID_3_" fill="#8C57A3" d="M-3110.454,1917.914h-347.535c-6.074,0-11.091-5.018-11.091-11.092v-18.882
	c0-6.074,5.018-11.092,11.091-11.092h347.535c6.074,0,11.091,5.018,11.091,11.092v18.882
	C-3099.362,1912.896-3104.247,1917.914-3110.454,1917.914z"/>
<path id="XMLID_58_" fill="#9B64A9" d="M-2221.809,2232.57h-231.47c-8.583,0-15.845-6.47-16.505-15.053l-26.145-308.583
	c-0.792-9.507,6.866-17.693,16.505-17.693h283.759c9.771,0,17.43,8.187,16.506,17.693l-26.145,308.583
	C-2205.964,2226.101-2213.094,2232.57-2221.809,2232.57z"/>
<path id="XMLID_57_" fill="#8C57A3" d="M-2163.71,1917.914h-347.536c-6.073,0-11.091-5.018-11.091-11.092v-18.882
	c0-6.074,5.018-11.092,11.091-11.092h347.535c6.074,0,11.092,5.018,11.092,11.092v18.882
	C-2152.619,1912.896-2157.637,1917.914-2163.71,1917.914z"/>
<path id="XMLID_61_" fill="#8C57A3" d="M-2189.854,1936.664c1.188,6.338,1.716,12.808,1.716,19.41
	c0,70.378-66.813,127.553-149.34,127.553s-149.34-57.043-149.34-127.553c0-6.603,0.528-13.072,1.717-19.41h-27.597
	c-0.924,6.338-1.452,12.808-1.452,19.41c0,83.318,79.093,150.924,176.673,150.924c97.579,0,176.672-67.605,176.672-150.924
	c0-6.603-0.528-13.072-1.453-19.41H-2189.854z"/>
<circle id="XMLID_59_" fill="#784B8F" cx="-2501.21" cy="1939.305" r="19.938"/>
<circle id="XMLID_60_" fill="#784B8F" cx="-2173.878" cy="1939.305" r="19.938"/>
<path id="XMLID_62_" fill="#AA7CB7" d="M-3197.205,2186.884h-173.899c-5.546,0-10.432-4.093-10.696-9.111l-9.507-126.101
	c-0.396-6.073,4.226-11.091,10.432-11.091h193.574c6.206,0,10.827,5.018,10.431,11.091l-9.507,126.101
	C-3186.906,2182.791-3191.659,2186.884-3197.205,2186.884z"/>
<path id="XMLID_125_" fill="#9B64A9" d="M-3168.42,1355.149h-231.47c-8.583,0-15.845-6.47-16.505-15.053l-26.145-308.583
	c-0.792-9.507,6.866-17.693,16.506-17.693h283.758c9.771,0,17.429,8.187,16.505,17.693l-26.145,308.583
	C-3152.575,1348.68-3159.837,1355.149-3168.42,1355.149z"/>
<path id="XMLID_124_" fill="#8C57A3" d="M-3110.454,1040.361h-347.535c-6.074,0-11.091-5.018-11.091-11.092v-18.882
	c0-6.074,5.018-11.092,11.091-11.092h347.535c6.074,0,11.091,5.018,11.091,11.092v18.882
	C-3099.362,1035.476-3104.247,1040.361-3110.454,1040.361z"/>
<path id="XMLID_123_" fill="#8C57A3" d="M-3287.39,1098.195l-155.15,80.942c-7.395,3.829-16.373,0.924-20.202-6.339l0,0
	c-3.829-7.394-0.924-16.373,6.338-20.202l155.149-80.941c7.395-3.829,16.373-0.925,20.203,6.338l0,0
	C-3277.223,1085.255-3279.996,1094.366-3287.39,1098.195z"/>
<circle id="XMLID_122_" fill="#844C9E" cx="-3278.543" cy="1075.616" r="23.768"/>
<path id="XMLID_121_" fill="#AA7CB7" d="M-3197.205,1309.331h-173.899c-5.546,0-10.167-2.245-10.432-5.149l-5.018-68.398
	c-0.264-3.169,4.357-5.81,10.299-5.81h184.331c5.942,0,10.431,2.641,10.299,5.81l-5.018,68.398
	C-3187.038,1307.086-3191.659,1309.331-3197.205,1309.331z"/>
<path id="XMLID_81_" fill="#9B64A9" d="M-3168.42,3071.171h-231.47c-8.583,0-15.845-6.47-16.505-15.053l-26.145-308.583
	c-0.792-9.507,6.866-17.693,16.506-17.693h283.758c9.771,0,17.429,8.187,16.505,17.693l-26.145,308.583
	C-3152.575,3064.701-3159.837,3071.171-3168.42,3071.171z"/>
<path id="XMLID_80_" fill="#8C57A3" d="M-3110.454,2756.382h-347.535c-6.074,0-11.091-5.018-11.091-11.091v-18.883
	c0-6.074,5.018-11.091,11.091-11.091h347.535c6.074,0,11.091,5.018,11.091,11.091v18.883
	C-3099.362,2751.496-3104.247,2756.382-3110.454,2756.382z"/>
<path id="XMLID_77_" fill="#AA7CB7" d="M-3197.205,3025.352h-173.899c-5.546,0-10.828-5.941-11.62-13.336l-25.484-212.984
	c-1.452-11.884,3.301-21.787,10.563-21.787h227.113c7.262,0,12.016,9.903,10.563,21.787l-25.484,212.984
	C-3186.51,3019.542-3191.659,3025.352-3197.205,3025.352z"/>
<path id="XMLID_79_" fill="#8C57A3" d="M-3287.39,2814.217l-155.15,80.941c-7.395,3.829-16.373,0.925-20.202-6.338l0,0
	c-3.829-7.395-0.924-16.373,6.338-20.202l155.149-80.942c7.395-3.829,16.373-0.924,20.203,6.338l0,0
	C-3277.223,2801.276-3279.996,2810.387-3287.39,2814.217z"/>
<circle id="XMLID_78_" fill="#844C9E" cx="-3278.543" cy="2791.637" r="23.768"/>
<path id="XMLID_5_" fill="#8C57A3" d="M-3287.39,1975.616l-155.15,80.942c-7.395,3.829-16.373,0.924-20.202-6.339l0,0
	c-3.829-7.394-0.924-16.373,6.338-20.202l155.149-80.942c7.395-3.829,16.373-0.924,20.203,6.339l0,0
	C-3277.223,1962.676-3279.996,1971.787-3287.39,1975.616z"/>
<circle id="XMLID_4_" fill="#844C9E" cx="-3278.543" cy="1953.037" r="23.768"/>
<polygon id="XMLID_8_" fill="#8C57A3" points="-1174.846,1552.685 -1392.319,1552.685 -1395.488,1536.312 -1171.545,1536.312 "/>
<g id="XMLID_2_">
	<path id="XMLID_12_" fill="#9D6AAD" d="M-1120.048,1202.377h-19.41c0.396-4.622,0.528-9.243,0.528-13.864
		c0-85.3-64.7-154.357-144.586-154.357s-144.586,69.058-144.586,154.357c0,4.753,0.264,9.374,0.528,13.864h-19.41
		c-0.396-4.622-0.528-9.243-0.528-13.864c0-96.655,73.416-174.956,163.997-174.956s163.997,78.301,163.997,174.956
		C-1119.52,1193.134-1119.652,1197.755-1120.048,1202.377z"/>
	<path id="XMLID_10_" fill="#9D6AAD" d="M-1240.207,1012.104h-86.62c-3.433,0-6.206,2.773-6.206,6.206v19.675
		c0,3.433,2.772,6.206,6.206,6.206h86.62c3.433,0,6.206-2.773,6.206-6.206v-19.675
		C-1234.001,1014.877-1236.773,1012.104-1240.207,1012.104z"/>
</g>
<polygon id="XMLID_16_" fill="#AC83BB" points="-1171.149,1306.03 -1164.283,1205.81 -1403.807,1205.81 -1396.941,1306.03 "/>
<path id="XMLID_13_" fill="#8C57A3" d="M-1105.523,1166.726h-81.338c-6.338-14.261-27.069-24.692-51.497-24.692
	c-7.79,0-15.316,1.057-22.051,3.037l-22.976-22.976l-22.976,22.976c-6.734-1.98-14.128-3.037-22.051-3.037
	c-24.428,0-45.026,10.432-51.496,24.692h-81.338l5.018,52.948h147.887l24.956,24.956l24.956-24.956h147.888L-1105.523,1166.726z"/>
<path id="XMLID_208_" fill="#C1DBD6" d="M-1283.385,1215.185l-16.505-16.505c-8.451-8.451-8.451-22.051,0-30.502l16.505-16.505
	l16.505,16.505c8.451,8.451,8.451,22.051,0,30.502L-1283.385,1215.185z"/>
<polygon id="XMLID_15_" fill="#2ABCB6" points="-1396.941,1306.03 -1383.208,1505.018 -1184.881,1505.018 -1171.149,1306.03 "/>
<path id="XMLID_14_" fill="#99A8A5" d="M-1283.385,1151.54v63.513l16.505-16.505c8.451-8.451,8.451-22.052,0-30.502
	L-1283.385,1151.54z"/>
<polygon id="XMLID_138_" fill="#9D6AAD" points="-454.952,1536.312 -230.876,1536.312 -212.258,1517.693 -187.302,1181.646 
	-498.525,1181.646 -473.569,1517.693 "/>
<polygon id="XMLID_137_" fill="#8C57A3" points="-234.309,1552.685 -451.783,1552.685 -454.952,1536.312 -231.14,1536.312 "/>
<g id="XMLID_134_">
	<path id="XMLID_136_" fill="#9D6AAD" d="M-179.511,1202.377h-19.411c0.396-4.622,0.528-9.243,0.528-13.864
		c0-85.3-64.701-154.357-144.586-154.357c-79.885,0-144.586,69.058-144.586,154.357c0,4.753,0.264,9.374,0.528,13.864h-19.41
		c-0.396-4.622-0.528-9.243-0.528-13.864c0-96.655,73.416-174.956,163.996-174.956c90.581,0,163.997,78.301,163.997,174.956
		C-178.983,1193.134-179.248,1197.755-179.511,1202.377z"/>
	<path id="XMLID_135_" fill="#9D6AAD" d="M-299.67,1012.104h-86.62c-3.433,0-6.206,2.773-6.206,6.206v19.675
		c0,3.433,2.773,6.206,6.206,6.206h86.62c3.433,0,6.206-2.773,6.206-6.206v-19.675
		C-293.464,1014.877-296.237,1012.104-299.67,1012.104z"/>
</g>
<polygon id="XMLID_165_" fill="#AC83BB" points="-463.271,1205.81 -456.404,1306.03 -442.804,1505.018 -244.344,1505.018 
	-230.744,1306.03 -223.877,1205.81 "/>
<path id="XMLID_132_" fill="#8C57A3" d="M-165.119,1166.726h-81.338c-6.338-14.261-27.068-24.692-51.496-24.692
	c-7.791,0-15.317,1.057-22.051,3.037l-22.976-22.976l-22.975,22.976c-6.734-1.98-14.128-3.037-22.051-3.037
	c-24.428,0-45.026,10.432-51.497,24.692h-81.338l5.018,52.948h147.888l24.956,24.956l24.956-24.956h147.887L-165.119,1166.726z"/>
<path id="XMLID_131_" fill="#C1DBD6" d="M-342.98,1215.185l-16.505-16.505c-8.451-8.451-8.451-22.051,0-30.502l16.505-16.505
	l16.505,16.505c8.451,8.451,8.451,22.051,0,30.502L-342.98,1215.185z"/>
<path id="XMLID_129_" fill="#99A8A5" d="M-342.98,1151.54v63.513l16.505-16.505c8.451-8.451,8.451-22.052,0-30.502L-342.98,1151.54z
	"/>
<polygon id="XMLID_84_" fill="#9D6AAD" points="-1412.126,2541.153 -1188.05,2541.153 -1169.432,2522.535 -1144.476,2186.488 
	-1455.7,2186.488 -1430.744,2522.535 "/>
<polygon id="XMLID_83_" fill="#8C57A3" points="-1191.483,2557.526 -1408.957,2557.526 -1412.126,2541.153 -1188.314,2541.153 "/>
<g id="XMLID_75_">
	<path id="XMLID_82_" fill="#9D6AAD" d="M-1136.686,2207.219h-19.41c0.396-4.622,0.528-9.243,0.528-13.865
		c0-85.299-64.701-154.357-144.586-154.357c-79.886,0-144.586,69.059-144.586,154.357c0,4.754,0.264,9.375,0.528,13.865h-19.41
		c-0.396-4.622-0.528-9.243-0.528-13.865c0-96.654,73.416-174.956,163.997-174.956c90.581,0,163.997,78.302,163.997,174.956
		C-1136.158,2198.107-1136.29,2202.729-1136.686,2207.219z"/>
	<path id="XMLID_76_" fill="#9D6AAD" d="M-1256.844,2017.077h-86.62c-3.433,0-6.206,2.773-6.206,6.206v19.675
		c0,3.433,2.773,6.206,6.206,6.206h86.62c3.433,0,6.206-2.773,6.206-6.206v-19.675
		C-1250.638,2019.851-1253.411,2017.077-1256.844,2017.077z"/>
</g>
<polygon id="XMLID_74_" fill="#2ABCB6" points="-1187.786,2310.871 -1180.92,2210.783 -1420.444,2210.783 -1413.578,2310.871 "/>
<path id="XMLID_73_" fill="#8C57A3" d="M-1122.161,2171.699h-81.338c-6.338-14.261-27.068-24.692-51.497-24.692
	c-7.791,0-15.317,1.057-22.051,3.037l-22.975-22.976l-22.975,22.976c-6.734-1.98-14.129-3.037-22.051-3.037
	c-24.428,0-45.026,10.432-51.497,24.692h-81.338l5.018,52.948h147.888l24.956,24.956l24.956-24.956h147.887L-1122.161,2171.699z"/>
<path id="XMLID_72_" fill="#C1DBD6" d="M-1300.022,2220.026l-16.505-16.505c-8.451-8.451-8.451-22.051,0-30.502l16.505-16.506
	l16.505,16.506c8.451,8.451,8.451,22.051,0,30.502L-1300.022,2220.026z"/>
<polygon id="XMLID_71_" fill="#2ABCB6" points="-1413.578,2310.871 -1399.846,2509.859 -1201.519,2509.859 -1187.786,2310.871 "/>
<path id="XMLID_70_" fill="#99A8A5" d="M-1300.022,2156.514v63.513l16.505-16.505c8.451-8.451,8.451-22.052,0-30.502
	L-1300.022,2156.514z"/>
<polygon id="XMLID_24_" fill="#9D6AAD" points="-1395.488,641.989 -1171.413,641.989 -1152.795,623.371 -1127.707,287.324 
	-1439.062,287.324 -1414.106,623.371 "/>
<polygon id="XMLID_23_" fill="#8C57A3" points="-1174.846,658.362 -1392.319,658.362 -1395.488,641.989 -1171.545,641.989 "/>
<g id="XMLID_20_">
	<path id="XMLID_22_" fill="#9D6AAD" d="M-1120.048,308.055h-19.41c0.396-4.621,0.528-9.243,0.528-13.865
		c0-85.299-64.7-154.357-144.586-154.357s-144.586,69.058-144.586,154.357c0,4.754,0.264,9.375,0.528,13.865h-19.41
		c-0.396-4.621-0.528-9.243-0.528-13.865c0-96.655,73.416-174.956,163.997-174.956s163.997,78.301,163.997,174.956
		C-1119.52,298.812-1119.652,303.434-1120.048,308.055z"/>
	<path id="XMLID_21_" fill="#9D6AAD" d="M-1240.207,117.782h-86.62c-3.433,0-6.206,2.773-6.206,6.206v19.674
		c0,3.433,2.772,6.206,6.206,6.206h86.62c3.433,0,6.206-2.773,6.206-6.206v-19.674
		C-1234.001,120.555-1236.773,117.782-1240.207,117.782z"/>
</g>
<polygon id="XMLID_19_" fill="#AC83BB" points="-1171.149,411.708 -1164.283,311.488 -1403.807,311.488 -1396.941,411.708 "/>
<path id="XMLID_18_" fill="#8C57A3" d="M-1105.523,272.403h-81.338c-6.338-14.261-27.069-24.692-51.497-24.692
	c-7.79,0-15.316,1.056-22.051,3.037l-22.976-22.975l-22.976,22.975c-6.734-1.98-14.128-3.037-22.051-3.037
	c-24.428,0-45.026,10.431-51.496,24.692h-81.338l5.018,52.948h147.887l24.956,24.957l24.956-24.957h147.888L-1105.523,272.403z"/>
<path id="XMLID_17_" fill="#C1DBD6" d="M-1283.385,320.73l-16.505-16.505c-8.451-8.451-8.451-22.051,0-30.502l16.505-16.505
	l16.505,16.505c8.451,8.451,8.451,22.051,0,30.502L-1283.385,320.73z"/>
<polygon id="XMLID_11_" fill="#AC83BB" points="-1396.941,411.708 -1383.208,610.563 -1184.881,610.563 -1171.149,411.708 "/>
<path id="XMLID_7_" fill="#99A8A5" d="M-1283.385,257.218v63.512l16.505-16.505c8.451-8.451,8.451-22.051,0-30.502
	L-1283.385,257.218z"/>
<polygon id="XMLID_193_" fill="#2ABCB6" points="-443.992,1487.324 -442.804,1505.018 -244.344,1505.018 -243.156,1487.324 "/>
<g id="XMLID_358_">
	<polygon id="XMLID_357_" fill="#9D6AAD" points="187.962,553.917 412.038,553.917 430.656,535.299 455.611,199.252 
		144.388,199.252 169.344,535.299 	"/>
	<polygon id="XMLID_356_" fill="#8C57A3" points="408.604,570.29 191.131,570.29 187.962,553.917 411.773,553.917 	"/>
	<g id="XMLID_353_">
		<path id="XMLID_355_" fill="#9D6AAD" d="M463.402,219.982h-19.41c0.396-4.622,0.528-9.243,0.528-13.864
			c0-85.299-64.701-154.357-144.586-154.357c-79.886,0-144.586,69.058-144.586,154.357c0,4.753,0.264,9.375,0.528,13.864h-19.41
			c-0.396-4.622-0.528-9.243-0.528-13.864c0-96.655,73.416-175.088,163.997-175.088c90.581,0,163.997,78.301,163.997,174.956
			C463.931,210.739,463.666,215.361,463.402,219.982z"/>
		<path id="XMLID_354_" fill="#9D6AAD" d="M343.244,29.709h-86.62c-3.433,0-6.206,2.773-6.206,6.206V55.59
			c0,3.433,2.773,6.206,6.206,6.206h86.62c3.433,0,6.206-2.773,6.206-6.206V35.916C349.45,32.482,346.677,29.709,343.244,29.709z"/>
	</g>
	<polygon id="XMLID_352_" fill="#AC83BB" points="412.17,323.636 419.036,223.416 179.644,223.416 186.51,323.636 	"/>
	<path id="XMLID_351_" fill="#8C57A3" d="M477.795,184.331h-81.338c-6.338-14.261-27.068-24.692-51.497-24.692
		c-7.79,0-15.316,1.056-22.051,3.037l-22.975-22.976l-22.976,22.976c-6.734-1.981-14.128-3.037-22.051-3.037
		c-24.428,0-45.026,10.431-51.497,24.692h-81.206l5.018,52.949H275.11l24.956,24.956l24.956-24.956h147.888L477.795,184.331z"/>
	<path id="XMLID_350_" fill="#C1DBD6" d="M299.934,232.791l-16.505-16.505c-8.451-8.451-8.451-22.051,0-30.502l16.505-16.505
		l16.505,16.505c8.45,8.451,8.45,22.051,0,30.502L299.934,232.791z"/>
	<polygon id="XMLID_349_" fill="#AC83BB" points="186.51,323.636 200.11,522.623 398.569,522.623 412.17,323.636 	"/>
	<path id="XMLID_348_" fill="#99A8A5" d="M299.934,169.278v63.512l16.505-16.505c8.45-8.451,8.45-22.051,0-30.502L299.934,169.278z"
		/>
	<polygon fill="#34BEC2" points="195.454,455.5 200.11,523.623 398.569,523.623 403.226,455.5 	"/>
</g>
</svg>
