<?xml version="1.0" encoding="utf-8"?>
<!-- Generator: Adobe Illustrator 19.0.0, SVG Export Plug-In . SVG Version: 6.00 Build 0)  -->
<svg version="1.1" id="Layer_1" xmlns="http://www.w3.org/2000/svg" xmlns:xlink="http://www.w3.org/1999/xlink" x="0px" y="0px"
	 viewBox="0 0 322.5 454.4" style="enable-background:new 0 0 322.5 454.4;" xml:space="preserve">
<style type="text/css">
	.st0{fill:#9D6AAD;}
	.st1{fill:#9B64A9;}
	.st2{fill:#AC83BB;}
	.st3{fill:#8C57A3;}
	.st4{fill:#784B8F;}
	.st5{fill:#AA7CB7;}
	.st6{fill:#844C9E;}
	.st7{fill:#C1DBD6;}
	.st8{fill:#2ABCB6;}
	.st9{fill:#99A8A5;}
</style>
<polygon id="XMLID_9_" class="st0" points="-1122.8,1163.5 -953.1,1163.5 -939,1149.4 -920,894.9 -1155.8,894.9 -1136.9,1149.4 "/>
<path id="XMLID_1_" class="st1" d="M-2465.5,1690.8h-175.3c-6.5,0-12-4.9-12.5-11.4l-19.8-233.7c-0.6-7.2,5.2-13.4,12.5-13.4h214.9
	c7.4,0,13.2,6.2,12.5,13.4l-19.8,233.7C-2453.5,1685.9-2459,1690.8-2465.5,1690.8z"/>
<polygon id="XMLID_130_" class="st2" points="-416.8,913.2 -411.6,989.1 -401.3,1139.8 -251,1139.8 -240.7,989.1 -235.5,913.2 "/>
<path id="XMLID_3_" class="st3" d="M-2421.6,1452.5h-263.2c-4.6,0-8.4-3.8-8.4-8.4v-14.3c0-4.6,3.8-8.4,8.4-8.4h263.2
	c4.6,0,8.4,3.8,8.4,8.4v14.3C-2413.2,1448.7-2416.9,1452.5-2421.6,1452.5z"/>
<path id="XMLID_58_" class="st1" d="M-1748.6,1690.8h-175.3c-6.5,0-12-4.9-12.5-11.4l-19.8-233.7c-0.6-7.2,5.2-13.4,12.5-13.4h214.9
	c7.4,0,13.2,6.2,12.5,13.4l-19.8,233.7C-1736.6,1685.9-1742,1690.8-1748.6,1690.8z"/>
<path id="XMLID_57_" class="st3" d="M-1704.6,1452.5h-263.2c-4.6,0-8.4-3.8-8.4-8.4v-14.3c0-4.6,3.8-8.4,8.4-8.4h263.2
	c4.6,0,8.4,3.8,8.4,8.4v14.3C-1696.2,1448.7-1700,1452.5-1704.6,1452.5z"/>
<path id="XMLID_61_" class="st3" d="M-1724.4,1466.7c0.9,4.8,1.3,9.7,1.3,14.7c0,53.3-50.6,96.6-113.1,96.6
	c-62.5,0-113.1-43.2-113.1-96.6c0-5,0.4-9.9,1.3-14.7h-20.9c-0.7,4.8-1.1,9.7-1.1,14.7c0,63.1,59.9,114.3,133.8,114.3
	s133.8-51.2,133.8-114.3c0-5-0.4-9.9-1.1-14.7H-1724.4z"/>
<circle id="XMLID_59_" class="st4" cx="-1960.2" cy="1468.7" r="15.1"/>
<circle id="XMLID_60_" class="st4" cx="-1712.3" cy="1468.7" r="15.1"/>
<path id="XMLID_62_" class="st5" d="M-2487.3,1656.2H-2619c-4.2,0-7.9-3.1-8.1-6.9l-7.2-95.5c-0.3-4.6,3.2-8.4,7.9-8.4h146.6
	c4.7,0,8.2,3.8,7.9,8.4l-7.2,95.5C-2479.5,1653.1-2483.1,1656.2-2487.3,1656.2z"/>
<path id="XMLID_125_" class="st1" d="M-2465.5,1026.3h-175.3c-6.5,0-12-4.9-12.5-11.4l-19.8-233.7c-0.6-7.2,5.2-13.4,12.5-13.4
	h214.9c7.4,0,13.2,6.2,12.5,13.4l-19.8,233.7C-2453.5,1021.4-2459,1026.3-2465.5,1026.3z"/>
<path id="XMLID_124_" class="st3" d="M-2421.6,787.9h-263.2c-4.6,0-8.4-3.8-8.4-8.4v-14.3c0-4.6,3.8-8.4,8.4-8.4h263.2
	c4.6,0,8.4,3.8,8.4,8.4v14.3C-2413.2,784.2-2416.9,787.9-2421.6,787.9z"/>
<path id="XMLID_123_" class="st3" d="M-2555.6,831.7l-117.5,61.3c-5.6,2.9-12.4,0.7-15.3-4.8l0,0c-2.9-5.6-0.7-12.4,4.8-15.3
	l117.5-61.3c5.6-2.9,12.4-0.7,15.3,4.8l0,0C-2547.9,821.9-2550,828.8-2555.6,831.7z"/>
<circle id="XMLID_122_" class="st6" cx="-2548.9" cy="814.6" r="18"/>
<path id="XMLID_121_" class="st5" d="M-2487.3,991.6H-2619c-4.2,0-7.7-1.7-7.9-3.9l-3.8-51.8c-0.2-2.4,3.3-4.4,7.8-4.4h139.6
	c4.5,0,7.9,2,7.8,4.4l-3.8,51.8C-2479.6,989.9-2483.1,991.6-2487.3,991.6z"/>
<path id="XMLID_81_" class="st1" d="M-2465.5,2325.9h-175.3c-6.5,0-12-4.9-12.5-11.4l-19.8-233.7c-0.6-7.2,5.2-13.4,12.5-13.4h214.9
	c7.4,0,13.2,6.2,12.5,13.4l-19.8,233.7C-2453.5,2321-2459,2325.9-2465.5,2325.9z"/>
<path id="XMLID_80_" class="st3" d="M-2421.6,2087.5h-263.2c-4.6,0-8.4-3.8-8.4-8.4v-14.3c0-4.6,3.8-8.4,8.4-8.4h263.2
	c4.6,0,8.4,3.8,8.4,8.4v14.3C-2413.2,2083.8-2416.9,2087.5-2421.6,2087.5z"/>
<path id="XMLID_77_" class="st5" d="M-2487.3,2291.2H-2619c-4.2,0-8.2-4.5-8.8-10.1l-19.3-161.3c-1.1-9,2.5-16.5,8-16.5h172
	c5.5,0,9.1,7.5,8,16.5l-19.3,161.3C-2479.2,2286.8-2483.1,2291.2-2487.3,2291.2z"/>
<path id="XMLID_79_" class="st3" d="M-2555.6,2131.3l-117.5,61.3c-5.6,2.9-12.4,0.7-15.3-4.8l0,0c-2.9-5.6-0.7-12.4,4.8-15.3
	l117.5-61.3c5.6-2.9,12.4-0.7,15.3,4.8v0C-2547.9,2121.5-2550,2128.4-2555.6,2131.3z"/>
<circle id="XMLID_78_" class="st6" cx="-2548.9" cy="2114.2" r="18"/>
<path id="XMLID_5_" class="st3" d="M-2555.6,1496.2l-117.5,61.3c-5.6,2.9-12.4,0.7-15.3-4.8l0,0c-2.9-5.6-0.7-12.4,4.8-15.3
	l117.5-61.3c5.6-2.9,12.4-0.7,15.3,4.8l0,0C-2547.9,1486.4-2550,1493.3-2555.6,1496.2z"/>
<circle id="XMLID_4_" class="st6" cx="-2548.9" cy="1479.1" r="18"/>
<polygon id="XMLID_8_" class="st3" points="-955.7,1175.9 -1120.4,1175.9 -1122.8,1163.5 -953.2,1163.5 "/>
<g id="XMLID_2_">
	<path id="XMLID_12_" class="st0" d="M-914.2,910.6h-14.7c0.3-3.5,0.4-7,0.4-10.5c0-64.6-49-116.9-109.5-116.9
		c-60.5,0-109.5,52.3-109.5,116.9c0,3.6,0.2,7.1,0.4,10.5h-14.7c-0.3-3.5-0.4-7-0.4-10.5c0-73.2,55.6-132.5,124.2-132.5
		s124.2,59.3,124.2,132.5C-913.8,903.6-913.9,907.1-914.2,910.6z"/>
	<path id="XMLID_10_" class="st0" d="M-1005.2,766.5h-65.6c-2.6,0-4.7,2.1-4.7,4.7v14.9c0,2.6,2.1,4.7,4.7,4.7h65.6
		c2.6,0,4.7-2.1,4.7-4.7v-14.9C-1000.5,768.6-1002.6,766.5-1005.2,766.5z"/>
</g>
<polygon id="XMLID_16_" class="st2" points="-952.9,989.1 -947.7,913.2 -1129.1,913.2 -1123.9,989.1 "/>
<path id="XMLID_13_" class="st3" d="M-903.2,883.6h-61.6c-4.8-10.8-20.5-18.7-39-18.7c-5.9,0-11.6,0.8-16.7,2.3l-17.4-17.4
	l-17.4,17.4c-5.1-1.5-10.7-2.3-16.7-2.3c-18.5,0-34.1,7.9-39,18.7h-61.6l3.8,40.1h112l18.9,18.9l18.9-18.9h112L-903.2,883.6z"/>
<path id="XMLID_208_" class="st7" d="M-1037.9,920.3l-12.5-12.5c-6.4-6.4-6.4-16.7,0-23.1l12.5-12.5l12.5,12.5
	c6.4,6.4,6.4,16.7,0,23.1L-1037.9,920.3z"/>
<polygon id="XMLID_15_" class="st8" points="-1123.9,989.1 -1113.5,1139.8 -963.3,1139.8 -952.9,989.1 "/>
<path id="XMLID_14_" class="st9" d="M-1037.9,872.1v48.1l12.5-12.5c6.4-6.4,6.4-16.7,0-23.1L-1037.9,872.1z"/>
<polygon id="XMLID_138_" class="st0" points="-410.5,1163.5 -240.8,1163.5 -226.7,1149.4 -207.8,894.9 -443.5,894.9 -424.6,1149.4 
	"/>
<polygon id="XMLID_137_" class="st3" points="-243.4,1175.9 -408.1,1175.9 -410.5,1163.5 -241,1163.5 "/>
<g id="XMLID_134_">
	<path id="XMLID_136_" class="st0" d="M-201.9,910.6h-14.7c0.3-3.5,0.4-7,0.4-10.5c0-64.6-49-116.9-109.5-116.9
		s-109.5,52.3-109.5,116.9c0,3.6,0.2,7.1,0.4,10.5h-14.7c-0.3-3.5-0.4-7-0.4-10.5c0-73.2,55.6-132.5,124.2-132.5
		s124.2,59.3,124.2,132.5C-201.5,903.6-201.7,907.1-201.9,910.6z"/>
	<path id="XMLID_135_" class="st0" d="M-292.9,766.5h-65.6c-2.6,0-4.7,2.1-4.7,4.7v14.9c0,2.6,2.1,4.7,4.7,4.7h65.6
		c2.6,0,4.7-2.1,4.7-4.7v-14.9C-288.2,768.6-290.3,766.5-292.9,766.5z"/>
</g>
<polygon id="XMLID_165_" class="st2" points="-416.8,913.2 -411.6,989.1 -401.3,1139.8 -251,1139.8 -240.7,989.1 -235.5,913.2 "/>
<path id="XMLID_132_" class="st3" d="M-191,883.6h-61.6c-4.8-10.8-20.5-18.7-39-18.7c-5.9,0-11.6,0.8-16.7,2.3l-17.4-17.4
	l-17.4,17.4c-5.1-1.5-10.7-2.3-16.7-2.3c-18.5,0-34.1,7.9-39,18.7h-61.6l3.8,40.1h112l18.9,18.9l18.9-18.9h112L-191,883.6z"/>
<path id="XMLID_131_" class="st7" d="M-325.7,920.3l-12.5-12.5c-6.4-6.4-6.4-16.7,0-23.1l12.5-12.5l12.5,12.5
	c6.4,6.4,6.4,16.7,0,23.1L-325.7,920.3z"/>
<path id="XMLID_129_" class="st9" d="M-325.7,872.1v48.1l12.5-12.5c6.4-6.4,6.4-16.7,0-23.1L-325.7,872.1z"/>
<polygon id="XMLID_84_" class="st0" points="-1135.4,1924.5 -965.7,1924.5 -951.6,1910.4 -932.7,1655.9 -1168.4,1655.9 
	-1149.5,1910.4 "/>
<polygon id="XMLID_83_" class="st3" points="-968.3,1936.9 -1133,1936.9 -1135.4,1924.5 -965.9,1924.5 "/>
<g id="XMLID_75_">
	<path id="XMLID_82_" class="st0" d="M-926.8,1671.6h-14.7c0.3-3.5,0.4-7,0.4-10.5c0-64.6-49-116.9-109.5-116.9
		s-109.5,52.3-109.5,116.9c0,3.6,0.2,7.1,0.4,10.5h-14.7c-0.3-3.5-0.4-7-0.4-10.5c0-73.2,55.6-132.5,124.2-132.5
		s124.2,59.3,124.2,132.5C-926.4,1664.7-926.5,1668.2-926.8,1671.6z"/>
	<path id="XMLID_76_" class="st0" d="M-1017.8,1527.6h-65.6c-2.6,0-4.7,2.1-4.7,4.7v14.9c0,2.6,2.1,4.7,4.7,4.7h65.6
		c2.6,0,4.7-2.1,4.7-4.7v-14.9C-1013.1,1529.7-1015.2,1527.6-1017.8,1527.6z"/>
</g>
<polygon id="XMLID_74_" class="st8" points="-965.5,1750.1 -960.3,1674.3 -1141.7,1674.3 -1136.5,1750.1 "/>
<path id="XMLID_73_" class="st3" d="M-915.8,1644.7h-61.6c-4.8-10.8-20.5-18.7-39-18.7c-5.9,0-11.6,0.8-16.7,2.3l-17.4-17.4
	l-17.4,17.4c-5.1-1.5-10.7-2.3-16.7-2.3c-18.5,0-34.1,7.9-39,18.7h-61.6l3.8,40.1h112l18.9,18.9l18.9-18.9h112L-915.8,1644.7z"/>
<path id="XMLID_72_" class="st7" d="M-1050.5,1681.3l-12.5-12.5c-6.4-6.4-6.4-16.7,0-23.1l12.5-12.5l12.5,12.5
	c6.4,6.4,6.4,16.7,0,23.1L-1050.5,1681.3z"/>
<polygon id="XMLID_71_" class="st8" points="-1136.5,1750.1 -1126.1,1900.8 -975.9,1900.8 -965.5,1750.1 "/>
<path id="XMLID_70_" class="st9" d="M-1050.5,1633.2v48.1l12.5-12.5c6.4-6.4,6.4-16.7,0-23.1L-1050.5,1633.2z"/>
<polygon id="XMLID_24_" class="st0" points="-1122.8,486.2 -953.1,486.2 -939,472.1 -920,217.6 -1155.8,217.6 -1136.9,472.1 "/>
<polygon id="XMLID_23_" class="st3" points="-955.7,498.6 -1120.4,498.6 -1122.8,486.2 -953.2,486.2 "/>
<g id="XMLID_20_">
	<path id="XMLID_22_" class="st0" d="M-914.2,233.3h-14.7c0.3-3.5,0.4-7,0.4-10.5c0-64.6-49-116.9-109.5-116.9
		c-60.5,0-109.5,52.3-109.5,116.9c0,3.6,0.2,7.1,0.4,10.5h-14.7c-0.3-3.5-0.4-7-0.4-10.5c0-73.2,55.6-132.5,124.2-132.5
		s124.2,59.3,124.2,132.5C-913.8,226.3-913.9,229.8-914.2,233.3z"/>
	<path id="XMLID_21_" class="st0" d="M-1005.2,89.2h-65.6c-2.6,0-4.7,2.1-4.7,4.7v14.9c0,2.6,2.1,4.7,4.7,4.7h65.6
		c2.6,0,4.7-2.1,4.7-4.7V93.9C-1000.5,91.3-1002.6,89.2-1005.2,89.2z"/>
</g>
<polygon id="XMLID_19_" class="st2" points="-952.9,311.8 -947.7,235.9 -1129.1,235.9 -1123.9,311.8 "/>
<path id="XMLID_18_" class="st3" d="M-903.2,206.3h-61.6c-4.8-10.8-20.5-18.7-39-18.7c-5.9,0-11.6,0.8-16.7,2.3l-17.4-17.4
	l-17.4,17.4c-5.1-1.5-10.7-2.3-16.7-2.3c-18.5,0-34.1,7.9-39,18.7h-61.6l3.8,40.1h112l18.9,18.9l18.9-18.9h112L-903.2,206.3z"/>
<path id="XMLID_17_" class="st7" d="M-1037.9,242.9l-12.5-12.5c-6.4-6.4-6.4-16.7,0-23.1l12.5-12.5l12.5,12.5
	c6.4,6.4,6.4,16.7,0,23.1L-1037.9,242.9z"/>
<polygon id="XMLID_11_" class="st2" points="-1123.9,311.8 -1113.5,462.4 -963.3,462.4 -952.9,311.8 "/>
<path id="XMLID_7_" class="st9" d="M-1037.9,194.8v48.1l12.5-12.5c6.4-6.4,6.4-16.7,0-23.1L-1037.9,194.8z"/>
<polygon id="XMLID_193_" class="st8" points="-402.2,1126.4 -401.3,1139.8 -251,1139.8 -250.1,1126.4 "/>
<g id="XMLID_358_">
	<polygon id="XMLID_357_" class="st0" points="76.4,419.5 246.1,419.5 260.2,405.4 279.1,150.9 43.4,150.9 62.3,405.4 	"/>
	<polygon id="XMLID_356_" class="st3" points="243.5,431.9 78.8,431.9 76.4,419.5 245.9,419.5 	"/>
	<g id="XMLID_353_">
		<path id="XMLID_355_" class="st0" d="M285,166.6h-14.7c0.3-3.5,0.4-7,0.4-10.5c0-64.6-49-116.9-109.5-116.9S51.7,91.5,51.7,156.1
			c0,3.6,0.2,7.1,0.4,10.5H37.4c-0.3-3.5-0.4-7-0.4-10.5C37,82.9,92.6,23.5,161.2,23.5s124.2,59.3,124.2,132.5
			C285.4,159.6,285.2,163.1,285,166.6z"/>
		<path id="XMLID_354_" class="st0" d="M194,22.5h-65.6c-2.6,0-4.7,2.1-4.7,4.7v14.9c0,2.6,2.1,4.7,4.7,4.7H194
			c2.6,0,4.7-2.1,4.7-4.7V27.2C198.7,24.6,196.6,22.5,194,22.5z"/>
	</g>
	<polygon id="XMLID_352_" class="st2" points="246.2,245.1 251.4,169.2 70.1,169.2 75.3,245.1 	"/>
	<path id="XMLID_351_" class="st3" d="M295.9,139.6h-61.6c-4.8-10.8-20.5-18.7-39-18.7c-5.9,0-11.6,0.8-16.7,2.3l-17.4-17.4
		l-17.4,17.4c-5.1-1.5-10.7-2.3-16.7-2.3c-18.5,0-34.1,7.9-39,18.7H26.6l3.8,40.1h112l18.9,18.9l18.9-18.9h112L295.9,139.6z"/>
	<path id="XMLID_350_" class="st7" d="M161.2,176.3l-12.5-12.5c-6.4-6.4-6.4-16.7,0-23.1l12.5-12.5l12.5,12.5
		c6.4,6.4,6.4,16.7,0,23.1L161.2,176.3z"/>
	<polygon id="XMLID_349_" class="st2" points="75.3,245.1 85.6,395.8 235.9,395.8 246.2,245.1 	"/>
	<path id="XMLID_348_" class="st9" d="M161.2,128.2v48.1l12.5-12.5c6.4-6.4,6.4-16.7,0-23.1L161.2,128.2z"/>
</g>
</svg>
