<?xml version="1.0" encoding="utf-8"?>
<!-- Generator: Adobe Illustrator 16.0.0, SVG Export Plug-In . SVG Version: 6.00 Build 0)  -->
<!DOCTYPE svg PUBLIC "-//W3C//DTD SVG 1.1//EN" "http://www.w3.org/Graphics/SVG/1.1/DTD/svg11.dtd">
<svg version="1.1" id="Layer_1" xmlns="http://www.w3.org/2000/svg" xmlns:xlink="http://www.w3.org/1999/xlink" x="0px" y="0px"
	 width="600px" height="500px" viewBox="0 0 600 500" enable-background="new 0 0 600 500" xml:space="preserve">
<polygon id="XMLID_9_" fill="#9D6AAD" points="-1112.907,1280.26 -926.177,1280.26 -910.663,1264.745 -889.756,984.705 
	-1149.219,984.705 -1128.422,1264.745 "/>
<path id="XMLID_1_" fill="#9B64A9" d="M-2590.35,1860.476h-192.892c-7.152,0-13.204-5.392-13.754-12.544l-21.787-257.152
	c-0.66-7.923,5.722-14.745,13.754-14.745h236.466c8.143,0,14.524,6.822,13.754,14.745l-21.787,257.152
	C-2577.146,1855.084-2583.198,1860.476-2590.35,1860.476z"/>
<polygon id="XMLID_130_" fill="#AC83BB" points="-336.059,1004.842 -330.337,1088.358 -319.003,1254.182 -153.62,1254.182 
	-142.287,1088.358 -136.565,1004.842 "/>
<path id="XMLID_3_" fill="#8C57A3" d="M-2542.045,1598.262h-289.612c-5.062,0-9.243-4.182-9.243-9.243v-15.735
	c0-5.062,4.182-9.243,9.243-9.243h289.612c5.062,0,9.243,4.182,9.243,9.243v15.735
	C-2532.802,1594.08-2536.873,1598.262-2542.045,1598.262z"/>
<path id="XMLID_58_" fill="#9B64A9" d="M-1801.508,1860.476h-192.892c-7.152,0-13.204-5.392-13.754-12.544l-21.787-257.152
	c-0.66-7.923,5.722-14.745,13.754-14.745h236.466c8.143,0,14.524,6.822,13.754,14.745l-21.787,257.152
	C-1788.303,1855.084-1794.245,1860.476-1801.508,1860.476z"/>
<path id="XMLID_57_" fill="#8C57A3" d="M-1753.092,1598.262h-289.613c-5.062,0-9.243-4.182-9.243-9.243v-15.735
	c0-5.062,4.182-9.243,9.243-9.243h289.613c5.062,0,9.243,4.182,9.243,9.243v15.735
	C-1743.849,1594.08-1748.03,1598.262-1753.092,1598.262z"/>
<path id="XMLID_61_" fill="#8C57A3" d="M-1774.879,1613.887c0.99,5.281,1.43,10.673,1.43,16.175
	c0,58.649-55.678,106.294-124.45,106.294s-124.45-47.535-124.45-106.294c0-5.502,0.44-10.894,1.431-16.175h-22.997
	c-0.771,5.281-1.21,10.673-1.21,16.175c0,69.433,65.911,125.771,147.227,125.771c81.316,0,147.228-56.338,147.228-125.771
	c0-5.502-0.44-10.894-1.21-16.175H-1774.879z"/>
<circle id="XMLID_59_" fill="#784B8F" cx="-2034.342" cy="1616.087" r="16.615"/>
<circle id="XMLID_60_" fill="#784B8F" cx="-1761.565" cy="1616.087" r="16.615"/>
<path id="XMLID_62_" fill="#AA7CB7" d="M-2614.338,1822.403h-144.916c-4.622,0-8.693-3.411-8.913-7.593l-7.923-105.083
	c-0.33-5.062,3.521-9.243,8.693-9.243h161.312c5.171,0,9.022,4.182,8.692,9.243l-7.922,105.083
	C-2605.755,1818.992-2609.717,1822.403-2614.338,1822.403z"/>
<path id="XMLID_125_" fill="#9B64A9" d="M-2590.35,1129.291h-192.892c-7.152,0-13.204-5.392-13.754-12.544l-21.787-257.152
	c-0.66-7.922,5.722-14.744,13.754-14.744h236.466c8.143,0,14.524,6.822,13.754,14.744l-21.787,257.152
	C-2577.146,1123.899-2583.198,1129.291-2590.35,1129.291z"/>
<path id="XMLID_124_" fill="#8C57A3" d="M-2542.045,866.968h-289.612c-5.062,0-9.243-4.182-9.243-9.243v-15.735
	c0-5.062,4.182-9.243,9.243-9.243h289.612c5.062,0,9.243,4.182,9.243,9.243v15.735
	C-2532.802,862.896-2536.873,866.968-2542.045,866.968z"/>
<path id="XMLID_123_" fill="#8C57A3" d="M-2689.492,915.163l-129.291,67.451c-6.162,3.191-13.645,0.771-16.836-5.281l0,0
	c-3.19-6.162-0.77-13.645,5.282-16.836l129.291-67.451c6.162-3.191,13.645-0.771,16.836,5.281l0,0
	C-2681.019,904.38-2683.33,911.972-2689.492,915.163z"/>
<circle id="XMLID_122_" fill="#844C9E" cx="-2682.119" cy="896.347" r="19.806"/>
<path id="XMLID_121_" fill="#AA7CB7" d="M-2614.338,1091.109h-144.916c-4.622,0-8.473-1.871-8.693-4.292l-4.181-56.998
	c-0.221-2.641,3.631-4.841,8.583-4.841h153.609c4.952,0,8.693,2.2,8.583,4.841l-4.182,56.998
	C-2605.865,1089.238-2609.717,1091.109-2614.338,1091.109z"/>
<path id="XMLID_81_" fill="#9B64A9" d="M-2590.35,2559.309h-192.892c-7.152,0-13.204-5.391-13.754-12.543l-21.787-257.152
	c-0.66-7.923,5.722-14.745,13.754-14.745h236.466c8.143,0,14.524,6.822,13.754,14.745l-21.787,257.152
	C-2577.146,2553.918-2583.198,2559.309-2590.35,2559.309z"/>
<path id="XMLID_80_" fill="#8C57A3" d="M-2542.045,2296.985h-289.612c-5.062,0-9.243-4.182-9.243-9.243v-15.734
	c0-5.062,4.182-9.243,9.243-9.243h289.612c5.062,0,9.243,4.181,9.243,9.243v15.734
	C-2532.802,2292.914-2536.873,2296.985-2542.045,2296.985z"/>
<path id="XMLID_77_" fill="#AA7CB7" d="M-2614.338,2521.127h-144.916c-4.622,0-9.023-4.951-9.684-11.113l-21.237-177.487
	c-1.21-9.903,2.751-18.155,8.803-18.155h189.26c6.052,0,10.013,8.252,8.803,18.155l-21.237,177.487
	C-2605.425,2516.285-2609.717,2521.127-2614.338,2521.127z"/>
<path id="XMLID_79_" fill="#8C57A3" d="M-2689.492,2345.181l-129.291,67.452c-6.162,3.19-13.645,0.77-16.836-5.282l0,0
	c-3.19-6.162-0.77-13.645,5.282-16.835l129.291-67.452c6.162-3.19,13.645-0.771,16.836,5.282l0,0
	C-2681.019,2334.397-2683.33,2341.989-2689.492,2345.181z"/>
<circle id="XMLID_78_" fill="#844C9E" cx="-2682.119" cy="2326.365" r="19.806"/>
<path id="XMLID_5_" fill="#8C57A3" d="M-2689.492,1646.347l-129.291,67.452c-6.162,3.19-13.645,0.77-16.836-5.282l0,0
	c-3.19-6.162-0.77-13.645,5.282-16.835l129.291-67.452c6.162-3.19,13.645-0.771,16.836,5.282l0,0
	C-2681.019,1635.563-2683.33,1643.156-2689.492,1646.347z"/>
<circle id="XMLID_4_" fill="#844C9E" cx="-2682.119" cy="1627.531" r="19.806"/>
<polygon id="XMLID_8_" fill="#8C57A3" points="-929.038,1293.904 -1110.267,1293.904 -1112.907,1280.26 -926.288,1280.26 "/>
<g id="XMLID_2_">
	<path id="XMLID_12_" fill="#9D6AAD" d="M-883.374,1001.98h-16.175c0.33-3.852,0.44-7.702,0.44-11.554
		c0-71.083-53.917-128.631-120.488-128.631s-120.489,57.548-120.489,128.631c0,3.962,0.22,7.812,0.44,11.554h-16.175
		c-0.33-3.852-0.44-7.702-0.44-11.554c0-80.546,61.179-145.797,136.664-145.797c75.484,0,136.664,65.251,136.664,145.797
		C-882.934,994.278-883.044,998.129-883.374,1001.98z"/>
	<path id="XMLID_10_" fill="#9D6AAD" d="M-983.506,843.42h-72.183c-2.861,0-5.171,2.311-5.171,5.172v16.396
		c0,2.86,2.311,5.171,5.171,5.171h72.183c2.861,0,5.172-2.311,5.172-5.171v-16.396C-978.334,845.73-980.645,843.42-983.506,843.42z"
		/>
</g>
<polygon id="XMLID_16_" fill="#AC83BB" points="-925.958,1088.358 -920.235,1004.842 -1119.839,1004.842 -1114.118,1088.358 "/>
<path id="XMLID_13_" fill="#8C57A3" d="M-871.27,972.271h-67.782c-5.281-11.884-22.557-20.577-42.914-20.577
	c-6.492,0-12.764,0.881-18.376,2.531l-19.146-19.146l-19.146,19.146c-5.612-1.65-11.774-2.531-18.376-2.531
	c-20.356,0-37.522,8.693-42.914,20.577h-67.782l4.181,44.124h123.24l20.796,20.796l20.797-20.796h123.239L-871.27,972.271z"/>
<path id="XMLID_208_" fill="#C1DBD6" d="M-1019.487,1012.654l-13.754-13.755c-7.042-7.042-7.042-18.376,0-25.418l13.754-13.754
	l13.754,13.754c7.042,7.042,7.042,18.376,0,25.418L-1019.487,1012.654z"/>
<polygon id="XMLID_15_" fill="#2ABCB6" points="-1114.118,1088.358 -1102.674,1254.182 -937.401,1254.182 -925.958,1088.358 "/>
<path id="XMLID_14_" fill="#99A8A5" d="M-1019.487,959.617v52.927l13.754-13.754c7.042-7.043,7.042-18.376,0-25.419
	L-1019.487,959.617z"/>
<polygon id="XMLID_138_" fill="#9D6AAD" points="-329.126,1280.26 -142.396,1280.26 -126.882,1264.745 -106.085,984.705 
	-365.438,984.705 -344.641,1264.745 "/>
<polygon id="XMLID_137_" fill="#8C57A3" points="-145.257,1293.904 -326.485,1293.904 -329.126,1280.26 -142.617,1280.26 "/>
<g id="XMLID_134_">
	<path id="XMLID_136_" fill="#9D6AAD" d="M-99.593,1001.98h-16.175c0.33-3.852,0.44-7.702,0.44-11.554
		c0-71.083-53.917-128.631-120.488-128.631s-120.489,57.548-120.489,128.631c0,3.962,0.22,7.812,0.44,11.554h-16.175
		c-0.33-3.852-0.44-7.702-0.44-11.554c0-80.546,61.18-145.797,136.664-145.797c75.484,0,136.664,65.251,136.664,145.797
		C-99.153,994.278-99.373,998.129-99.593,1001.98z"/>
	<path id="XMLID_135_" fill="#9D6AAD" d="M-199.725,843.42h-72.183c-2.861,0-5.171,2.311-5.171,5.172v16.396
		c0,2.86,2.311,5.171,5.171,5.171h72.183c2.861,0,5.172-2.311,5.172-5.171v-16.396C-194.553,845.73-196.864,843.42-199.725,843.42z"
		/>
</g>
<polygon id="XMLID_165_" fill="#AC83BB" points="-336.059,1004.842 -330.337,1088.358 -319.003,1254.182 -153.62,1254.182 
	-142.287,1088.358 -136.565,1004.842 "/>
<path id="XMLID_132_" fill="#8C57A3" d="M-87.599,972.271h-67.782c-5.282-11.884-22.557-20.577-42.914-20.577
	c-6.492,0-12.764,0.881-18.376,2.531l-19.146-19.146l-19.146,19.146c-5.612-1.65-11.774-2.531-18.376-2.531
	c-20.356,0-37.522,8.693-42.914,20.577h-67.782l4.182,44.124h123.239l20.797,20.796l20.796-20.796h123.24L-87.599,972.271z"/>
<path id="XMLID_131_" fill="#C1DBD6" d="M-235.816,1012.654l-13.754-13.755c-7.042-7.042-7.042-18.376,0-25.418l13.754-13.754
	l13.754,13.754c7.042,7.042,7.042,18.376,0,25.418L-235.816,1012.654z"/>
<path id="XMLID_129_" fill="#99A8A5" d="M-235.816,959.617v52.927l13.754-13.754c7.042-7.043,7.042-18.376,0-25.419
	L-235.816,959.617z"/>
<polygon id="XMLID_84_" fill="#9D6AAD" points="-1126.771,2117.628 -940.042,2117.628 -924.527,2102.113 -903.73,1822.073 
	-1163.083,1822.073 -1142.287,2102.113 "/>
<polygon id="XMLID_83_" fill="#8C57A3" points="-942.903,2131.272 -1124.131,2131.272 -1126.771,2117.628 -940.262,2117.628 "/>
<g id="XMLID_75_">
	<path id="XMLID_82_" fill="#9D6AAD" d="M-897.238,1839.349h-16.175c0.33-3.852,0.44-7.702,0.44-11.554
		c0-71.083-53.917-128.631-120.489-128.631s-120.488,57.548-120.488,128.631c0,3.961,0.22,7.812,0.44,11.554h-16.175
		c-0.331-3.852-0.44-7.702-0.44-11.554c0-80.546,61.18-145.797,136.664-145.797c75.484,0,136.664,65.251,136.664,145.797
		C-896.798,1831.756-896.908,1835.607-897.238,1839.349z"/>
	<path id="XMLID_76_" fill="#9D6AAD" d="M-997.37,1680.898h-72.183c-2.861,0-5.172,2.311-5.172,5.171v16.396
		c0,2.861,2.311,5.172,5.172,5.172h72.183c2.861,0,5.171-2.311,5.171-5.172v-16.396
		C-992.198,1683.209-994.509,1680.898-997.37,1680.898z"/>
</g>
<polygon id="XMLID_74_" fill="#2ABCB6" points="-939.822,1925.727 -934.1,1842.319 -1133.704,1842.319 -1127.982,1925.727 "/>
<path id="XMLID_73_" fill="#8C57A3" d="M-885.134,1809.749h-67.782c-5.282-11.884-22.557-20.576-42.914-20.576
	c-6.492,0-12.764,0.88-18.376,2.53l-19.146-19.146l-19.146,19.146c-5.611-1.65-11.773-2.53-18.375-2.53
	c-20.357,0-37.522,8.692-42.914,20.576h-67.782l4.182,44.124h123.239l20.797,20.797l20.797-20.797h123.239L-885.134,1809.749z"/>
<path id="XMLID_72_" fill="#C1DBD6" d="M-1033.352,1850.022l-13.754-13.755c-7.042-7.042-7.042-18.376,0-25.418l13.754-13.754
	l13.754,13.754c7.042,7.042,7.042,18.376,0,25.418L-1033.352,1850.022z"/>
<polygon id="XMLID_71_" fill="#2ABCB6" points="-1127.982,1925.727 -1116.538,2091.55 -951.266,2091.55 -939.822,1925.727 "/>
<path id="XMLID_70_" fill="#99A8A5" d="M-1033.352,1797.095v52.927l13.754-13.754c7.042-7.042,7.042-18.376,0-25.418
	L-1033.352,1797.095z"/>
<polygon id="XMLID_24_" fill="#9D6AAD" points="-1112.907,534.991 -926.177,534.991 -910.663,519.477 -889.756,239.437 
	-1149.219,239.437 -1128.422,519.477 "/>
<polygon id="XMLID_23_" fill="#8C57A3" points="-929.038,548.636 -1110.267,548.636 -1112.907,534.991 -926.288,534.991 "/>
<g id="XMLID_20_">
	<path id="XMLID_22_" fill="#9D6AAD" d="M-883.374,256.712h-16.175c0.33-3.851,0.44-7.702,0.44-11.554
		c0-71.083-53.917-128.631-120.488-128.631s-120.489,57.548-120.489,128.631c0,3.961,0.22,7.812,0.44,11.554h-16.175
		c-0.33-3.851-0.44-7.702-0.44-11.554c0-80.545,61.179-145.796,136.664-145.796c75.484,0,136.664,65.251,136.664,145.796
		C-882.934,249.01-883.044,252.861-883.374,256.712z"/>
	<path id="XMLID_21_" fill="#9D6AAD" d="M-983.506,98.151h-72.183c-2.861,0-5.171,2.311-5.171,5.172v16.395
		c0,2.861,2.311,5.172,5.171,5.172h72.183c2.861,0,5.172-2.311,5.172-5.172v-16.395C-978.334,100.462-980.645,98.151-983.506,98.151
		z"/>
</g>
<polygon id="XMLID_19_" fill="#AC83BB" points="-925.958,343.09 -920.235,259.573 -1119.839,259.573 -1114.118,343.09 "/>
<path id="XMLID_18_" fill="#8C57A3" d="M-871.27,227.002h-67.782c-5.281-11.884-22.557-20.576-42.914-20.576
	c-6.492,0-12.764,0.88-18.376,2.531l-19.146-19.146l-19.146,19.146c-5.612-1.651-11.774-2.531-18.376-2.531
	c-20.356,0-37.522,8.692-42.914,20.576h-67.782l4.181,44.125h123.24l20.796,20.797l20.797-20.797h123.239L-871.27,227.002z"/>
<path id="XMLID_17_" fill="#C1DBD6" d="M-1019.487,267.275l-13.754-13.754c-7.042-7.042-7.042-18.376,0-25.418l13.754-13.754
	l13.754,13.754c7.042,7.042,7.042,18.376,0,25.418L-1019.487,267.275z"/>
<polygon id="XMLID_11_" fill="#AC83BB" points="-1114.118,343.09 -1102.674,508.803 -937.401,508.803 -925.958,343.09 "/>
<path id="XMLID_7_" fill="#99A8A5" d="M-1019.487,214.349v52.927l13.754-13.754c7.042-7.042,7.042-18.376,0-25.418
	L-1019.487,214.349z"/>
<polygon id="XMLID_193_" fill="#2ABCB6" points="-319.994,1239.437 -319.003,1254.182 -153.62,1254.182 -152.63,1239.437 "/>
<g id="XMLID_358_">
	<polygon id="XMLID_357_" fill="#9D6AAD" points="55.776,300.374 185.81,472.808 210.941,476.332 484.026,300.524 303.419,61.025 
		59.299,275.242 	"/>
	<polygon id="XMLID_356_" fill="#8C57A3" points="171.218,479.669 45.015,312.313 55.776,300.374 185.657,472.604 	"/>
	<g id="XMLID_353_">
		<path id="XMLID_355_" fill="#9D6AAD" d="M472.594,318.551l-11.265-14.938c3.786-2.378,7.42-4.956,10.976-7.638
			c65.642-49.5,81.237-139.366,34.879-200.842c-46.357-61.475-137.047-71.189-202.688-21.689c-3.657,2.758-7.062,5.644-10.363,8.452
			l-11.264-14.936c3.327-2.988,6.807-5.771,10.363-8.453c74.38-56.09,177.341-45.109,229.905,24.596
			c52.566,69.706,34.913,171.641-39.466,227.73C480.012,313.592,476.303,316.071,472.594,318.551z"/>
		<path id="XMLID_354_" fill="#9D6AAD" d="M549.288,115.666l-50.268-66.658c-1.991-2.641-5.735-3.167-8.378-1.174l-15.14,11.417
			c-2.642,1.992-3.165,5.736-1.174,8.377l50.267,66.658c1.992,2.642,5.734,3.166,8.377,1.174l15.141-11.417
			C550.754,122.051,551.28,118.308,549.288,115.666z"/>
	</g>
	<path id="XMLID_351_" fill="#8C57A3" d="M508.38,308.937l-47.2-62.592c7.296-13.153,3.292-35.16-10.883-53.958
		c-4.521-5.995-9.701-11.173-15.133-15.206l4.346-31.015l-31.012-4.347c-2.384-6.332-5.862-12.635-10.46-18.731
		c-14.175-18.798-34.156-28.597-48.885-25.3l-47.124-62.491l-37.835,34.588l85.82,113.806l-4.721,33.687l33.687,4.723
		l85.819,113.806L508.38,308.937z"/>
	<path id="XMLID_350_" fill="#C1DBD6" d="M367.874,200.187l3.124-22.28c1.6-11.407,12.065-19.299,23.472-17.7l22.28,3.123
		l-3.123,22.28c-1.6,11.408-12.064,19.3-23.473,17.701L367.874,200.187z"/>
	<path id="XMLID_348_" fill="#99A8A5" d="M416.75,163.33l-48.876,36.857l22.28,3.123c11.408,1.6,21.873-6.292,23.473-17.701
		L416.75,163.33z"/>
</g>
</svg>
