<?xml version="1.0" encoding="utf-8"?>
<!-- Generator: Adobe Illustrator 16.0.0, SVG Export Plug-In . SVG Version: 6.00 Build 0)  -->
<!DOCTYPE svg PUBLIC "-//W3C//DTD SVG 1.1//EN" "http://www.w3.org/Graphics/SVG/1.1/DTD/svg11.dtd">
<svg version="1.1" id="Layer_1" xmlns="http://www.w3.org/2000/svg" xmlns:xlink="http://www.w3.org/1999/xlink" x="0px" y="0px"
	 width="500px" height="350px" viewBox="0 0 500 350" enable-background="new 0 0 500 350" xml:space="preserve">
<path fill="#3F274C" d="M289.33,108.182l-21.487-14.462c0,0-83.471,14.875-100,76.033s7.438,101.24,7.438,101.24l22.728,15.289
	l16.942-2.893l75.62-174.793"/>
<path fill="#8C59A4" d="M231.066,303.637c-16.942-13.224-43.388-46.281-45.868-63.224s-12.81-63.224,24.38-103.306
	c37.19-40.083,116.942-4.132,116.942-4.132s78.512,153.306,65.702,171.075s-15.288,17.769-43.388,26.446s-49.587,6.611-70.661,0.413
	S231.066,303.637,231.066,303.637z"/>
<path fill="#8C59A4" d="M199.661,285.868c0,0-23.967,10.331-55.372-2.479S79,246.611,73.628,219.752s-11.983-44.628-2.066-66.942
	s21.9-47.107,38.843-61.57s35.124-30.579,44.215-35.124s17.356-7.438,26.86-18.595s26.033-31.818,26.033-31.818l8.265,7.851
	l0.827,13.636c0,0-5.785,11.57-5.372,16.116s4.545,7.852,19.008,18.595s39.669,32.645,39.669,32.645s-60.331,19.834-72.728,37.19
	s-27.686,50.826-28.925,73.967s5.785,35.95,9.917,46.281s10.744,21.9,11.57,24.38S199.661,285.868,199.661,285.868z"/>
<path fill="#F8BD4A" d="M201.727,149.917c23.141-36.364,59.505-45.455,78.926-48.347s75.619,11.57,83.884,11.57
	s16.116-10.744,16.116-10.744l14.049,2.066l0.827,11.157c0,0-8.265,14.876-8.265,23.141s37.603,57.024,33.884,96.694
	s-18.596,67.355-29.339,75.62s-62.396,33.472-109.917-1.239s-72.313-54.545-84.297-88.017s-7.438-41.736-6.612-48.761
	S201.727,149.917,201.727,149.917z"/>
<path fill="#E96754" d="M231.479,146.198c19.835-17.355,33.058-25.62,74.38-24.793s61.157,21.901,67.769,33.058
	s40.496,62.809,28.926,92.975s-35.124,56.611-64.05,52.479s-77.271-26.033-93.801-47.521
	c-16.529-21.487-35.537-42.975-33.884-65.702S231.479,146.198,231.479,146.198z"/>
<polygon fill="#F8BD4A" points="274.041,175.95 265.777,164.38 268.256,151.983 275.281,158.182 "/>
<polygon fill="#F8BD4A" points="301.728,180.083 290.157,167.273 294.289,154.05 305.446,160.248 "/>
<polygon fill="#F8BD4A" points="260.405,204.05 241.396,200.744 241.396,188.761 251.728,189.174 "/>
<polygon fill="#F8BD4A" points="281.479,196.611 264.537,189.587 263.298,182.148 275.281,181.322 "/>
<path fill="#F8BD4A" d="M283.546,219.339c-1.653,0-30.992,2.479-30.992,2.479l-3.719,17.355l25.207,5.785L283.546,219.339z"/>
<polygon fill="#F8BD4A" points="312.471,217.272 312.471,248.678 332.306,249.091 332.306,241.239 "/>
<polygon fill="#F8BD4A" points="343.876,217.272 343.876,227.604 370.735,228.017 355.033,215.62 "/>
<polygon fill="#F8BD4A" points="333.546,189.587 342.637,174.711 355.859,176.363 353.793,185.454 "/>
<polygon fill="#F8BD4A" points="345.529,199.917 367.43,197.438 376.521,206.529 360.405,209.008 "/>
</svg>
