<?xml version="1.0" encoding="utf-8"?>
<!-- Generator: Adobe Illustrator 16.0.0, SVG Export Plug-In . SVG Version: 6.00 Build 0)  -->
<!DOCTYPE svg PUBLIC "-//W3C//DTD SVG 1.1//EN" "http://www.w3.org/Graphics/SVG/1.1/DTD/svg11.dtd">
<svg version="1.1" id="Layer_1" xmlns="http://www.w3.org/2000/svg" xmlns:xlink="http://www.w3.org/1999/xlink" x="0px" y="0px"
	 width="500px" height="350px" viewBox="0 0 500 350" enable-background="new 0 0 500 350" xml:space="preserve">
<path fill="#E96754" d="M178.543,282.074c-0.767-29.131-19.165-32.576-18.013-52.895c0.768-24.912,18.013-37.945,18.013-37.945
	s-41.779,3.836-49.828,56.346c0,0-4.601-44.08-16.481-64.395c-11.883-18.781-16.484-14.947-16.484-14.947
	s10.352,13.029-11.113,45.994c-22.613,35.646-3.451,51.361-3.451,51.361s-33.729-7.283-38.327-45.229c0,0-0.768,2.301-1.917,4.215
	c-5.362,11.883-0.382,39.098,0.382,64.01c-62.858-39.096-20.314-95.439-19.165-139.904c1.535-60.56-14.564-82.023-14.564-82.023
	s49.061,42.929,61.326,62.861c-2.684-53.657,23.763-80.488,60.944-95.82c-14.18,22.231-11.501,41.397-8.049,59.792
	c5.365,29.514,21.464,45.23,21.464,45.23s14.183-14.182,20.7-30.663c10.731-27.597,8.814-39.862,8.814-39.862
	C196.174,84.298,249.069,234.93,178.543,282.074z"/>
<path fill="#E96754" d="M458.682,258.334c-0.767-29.133-19.165-32.578-18.013-52.896c0.767-24.912,18.013-37.945,18.013-37.945
	s-41.778,3.836-49.828,56.346c0,0-4.601-44.08-16.481-64.395c-11.883-18.78-16.484-14.947-16.484-14.947
	s10.353,13.031-11.112,45.996c-22.613,35.646-3.451,51.359-3.451,51.359s-33.729-7.282-38.327-45.227c0,0-0.767,2.299-1.917,4.216
	c-5.363,11.88-0.382,39.095,0.383,64.008c-62.858-39.096-20.315-95.438-19.166-139.904c1.535-60.56-14.563-82.023-14.563-82.023
	s49.062,42.928,61.326,62.86c-2.685-53.656,23.764-80.488,60.944-95.82c-14.181,22.231-11.501,41.396-8.05,59.792
	c5.365,29.513,21.464,45.229,21.464,45.229s14.183-14.182,20.7-30.663c10.73-27.597,8.813-39.861,8.813-39.861
	C476.312,60.557,529.207,211.189,458.682,258.334z"/>
<path fill="#F8BD4A" d="M303.223,334.817c-0.767-29.133-19.165-32.579-18.013-52.896c0.768-24.913,18.013-37.946,18.013-37.946
	s-41.778,3.837-49.828,56.347c0,0-4.601-44.08-16.48-64.395c-11.884-18.78-16.484-14.947-16.484-14.947s10.351,13.029-11.113,45.995
	c-22.614,35.645-3.451,51.359-3.451,51.359s-33.729-7.282-38.327-45.227c0,0-0.768,2.298-1.917,4.215
	c-5.362,11.881-0.382,39.096,0.382,64.008c-62.858-39.095-20.314-95.438-19.165-139.903c1.534-60.559-14.564-82.022-14.564-82.022
	s49.061,42.928,61.325,62.859c-2.683-53.656,23.764-80.488,60.945-95.819c-14.18,22.231-11.501,41.396-8.05,59.792
	c5.366,29.513,21.465,45.23,21.465,45.23s14.182-14.182,20.698-30.663c10.73-27.597,8.815-39.862,8.815-39.862
	C320.854,137.041,373.748,287.673,303.223,334.817z"/>
</svg>
