<?xml version="1.0" encoding="utf-8"?>
<!-- Generator: Adobe Illustrator 16.0.0, SVG Export Plug-In . SVG Version: 6.00 Build 0)  -->
<!DOCTYPE svg PUBLIC "-//W3C//DTD SVG 1.1//EN" "http://www.w3.org/Graphics/SVG/1.1/DTD/svg11.dtd">
<svg version="1.1" id="Layer_1" xmlns="http://www.w3.org/2000/svg" xmlns:xlink="http://www.w3.org/1999/xlink" x="0px" y="0px"
	 width="600px" height="500px" viewBox="0 0 600 500" enable-background="new 0 0 600 500" xml:space="preserve">
<g id="XMLID_10_">
	<g id="XMLID_22_">
		<path id="XMLID_25_" fill="none" stroke="#5F6060" stroke-width="14" stroke-miterlimit="10" d="M62.831,95.156
			c-17.662,0-19.238,2.362-10.012,4.95"/>
		
			<path id="XMLID_24_" fill="none" stroke="#5F6060" stroke-width="14" stroke-miterlimit="10" stroke-dasharray="40.2239,25.1399" d="
			M80.718,104.605c52.875,5.513,156.262,4.388,220.276-38.812c104.06-70.312,249.409,47.025,148.275,148.274
			c-101.141,101.251-207.676,3.038-339.526,27.113C-22.106,265.257-6.693,385.292,80.381,421.517
			c102.038,42.302,187.087,42.976,277.426,15.638c35.099-10.575,59.848-16.651,76.947-20.024"/>
		<path id="XMLID_23_" fill="none" stroke="#5F6060" stroke-width="14" stroke-miterlimit="10" d="M448.817,414.656
			c17.438-2.702,22.389-1.464,22.389-1.464"/>
	</g>
</g>
<rect id="XMLID_1_" x="47.27" y="48.712" transform="matrix(-0.7071 -0.7071 0.7071 -0.7071 32.0398 226.1185)" fill="#EE695B" width="31.161" height="115.424"/>
<rect id="XMLID_2_" x="47.318" y="48.654" transform="matrix(-0.7071 0.7071 -0.7071 -0.7071 182.5868 137.1006)" fill="#EE695B" width="31.162" height="115.422"/>
<rect id="XMLID_4_" x="458.615" y="92.267" transform="matrix(-0.7072 -0.7071 0.7071 -0.7072 703.4883 591.3185)" fill="#EE695B" width="31.163" height="115.422"/>
<rect id="XMLID_3_" x="458.597" y="92.293" transform="matrix(-0.7071 0.7071 -0.7071 -0.7071 915.538 -79.2284)" fill="#EE695B" width="31.162" height="115.426"/>
<rect id="XMLID_6_" x="153.354" y="386.661" transform="matrix(-0.7071 -0.7071 0.7071 -0.7071 -25.8484 878.0367)" fill="#EE695B" width="31.161" height="115.422"/>
<rect id="XMLID_5_" x="153.351" y="386.615" transform="matrix(-0.7071 0.7071 -0.7071 -0.7071 602.5588 639.0839)" fill="#EE695B" width="31.16" height="115.423"/>
<rect id="XMLID_7_" x="478.855" y="269.067" fill="#E1615A" width="65.249" height="81.335"/>
<polygon id="XMLID_8_" fill="#C35151" points="543.991,269.067 529.931,279.528 529.931,360.864 543.991,350.402 "/>
<polygon id="XMLID_11_" fill="#EE695B" points="564.243,320.93 595.066,280.09 595.066,279.528 529.931,279.528 529.931,360.864 
	595.066,360.864 "/>
<rect id="XMLID_9_" x="463.67" y="265.69" fill="#C2C1C0" width="15.072" height="154.124"/>
</svg>
