<?xml version="1.0" encoding="utf-8"?>
<!-- Generator: Adobe Illustrator 16.0.0, SVG Export Plug-In . SVG Version: 6.00 Build 0)  -->
<!DOCTYPE svg PUBLIC "-//W3C//DTD SVG 1.1//EN" "http://www.w3.org/Graphics/SVG/1.1/DTD/svg11.dtd">
<svg version="1.1" id="Layer_1" xmlns="http://www.w3.org/2000/svg" xmlns:xlink="http://www.w3.org/1999/xlink" x="0px" y="0px"
	 width="500px" height="350px" viewBox="0 0 500 350" enable-background="new 0 0 500 350" xml:space="preserve">
<path fill="#36BFC3" d="M38.11,156.598c0,0,18.416-90.088,41.333-98.682c22.917-8.594,22.917,5.729,22.917,3.819
	s-14.323,16.232,0,19.098c14.323,2.864,41.059-29.601,65.886,2.864s0.955,22.917-10.504,32.465
	c-11.458,9.549,15.278,30.556,21.962,27.691c6.684-2.864,1.91-21.007,18.143-10.503c16.233,10.503,31.511,16.233,11.458,33.421
	c-20.052,17.188-20.052,33.42-42.014,18.142c-21.961-15.277-9.549-10.503-28.646,4.774c-19.098,15.278-18.143,11.458-25.782-6.684
	c-7.639-18.143-3.819-36.285-24.826-24.827C67.029,169.635,61.3,186.821,61.3,186.821L38.11,156.598z"/>
<g id="XMLID_358_">
	<polygon id="XMLID_357_" fill="#9D6BAE" points="4.798,196.803 28.48,220.484 32.416,220.484 70.57,187.605 37.677,154.713 
		4.798,192.866 	"/>
	<polygon id="XMLID_356_" fill="#8C59A4" points="26.387,221.853 3.403,198.868 4.798,196.803 28.453,220.457 	"/>
	<g id="XMLID_353_">
		<path id="XMLID_355_" fill="#9D6BAE" d="M69.202,190.62l-2.051-2.052c0.53-0.446,1.033-0.921,1.521-1.409
			c9.015-9.016,9.476-23.151,1.032-31.595c-8.442-8.443-22.58-7.982-31.594,1.033c-0.502,0.501-0.963,1.018-1.41,1.521l-2.051-2.051
			c0.446-0.531,0.921-1.033,1.41-1.521c10.215-10.216,26.264-10.747,35.837-1.172c9.573,9.573,9.057,25.607-1.158,35.822
			C70.235,189.699,69.718,190.159,69.202,190.62z"/>
		<path id="XMLID_354_" fill="#9D6BAE" d="M76.612,157.811l-9.154-9.154c-0.363-0.362-0.949-0.362-1.312,0l-2.08,2.08
			c-0.363,0.363-0.363,0.949,0,1.312l9.155,9.154c0.363,0.363,0.949,0.363,1.312,0l2.08-2.08
			C76.975,158.76,76.975,158.174,76.612,157.811z"/>
	</g>
	<path id="XMLID_351_" fill="#8C59A4" d="M74.491,188.373l-8.597-8.597c0.837-2.177-0.251-5.47-2.833-8.052
		c-0.823-0.822-1.73-1.508-2.651-2.01v-4.856h-4.856c-0.502-0.92-1.172-1.814-2.009-2.651c-2.582-2.582-5.861-3.657-8.053-2.833
		l-8.583-8.583l-5.065,6.125l15.629,15.63v5.275h5.276l15.63,15.631L74.491,188.373z"/>
	<path id="XMLID_350_" fill="#C2DCD7" d="M50.571,174.697v-3.489c0-1.786,1.438-3.225,3.225-3.225h3.488v3.49
		c0,1.786-1.438,3.224-3.224,3.224H50.571z"/>
	<path id="XMLID_348_" fill="#99A8A5" d="M57.284,167.983l-6.713,6.714h3.489c1.786,0,3.224-1.438,3.224-3.224V167.983z"/>
</g>
<g id="Layer_2">
	
		<image display="none" overflow="visible" enable-background="new    " width="641" height="760" xlink:href="D0CBCBF21560E00A.jpg"  transform="matrix(0.655 0 0 0.655 83.5283 -19.2437)">
	</image>
	<polygon opacity="0.81" fill="#EF695B" enable-background="new    " points="205.858,86.182 205.858,198.195 216.975,270.002 
		322.72,287.64 413.166,287.64 475.609,241.079 493.917,166.097 435.736,98.804 456.384,186.91 423.699,234.81 349.888,229.71 
		260.192,158.739 230.434,73.81 220.82,56.423 234.279,31.429 199.672,40.122 188.972,38.2 171.584,21.816 171.584,45.222 
		126.444,78.575 126.444,97.049 132.296,107.415 	"/>
	<polygon opacity="0.79" fill="#F47E7B" enable-background="new    " points="310.348,270.085 289.449,270.085 283.347,318.067 
		267.968,333.448 321.8,325.758 	"/>
	<polygon opacity="0.79" fill="#EF695B" enable-background="new    " points="216.056,263.397 208.282,310.878 191.981,324.42 
		240.13,324.42 245.815,263.397 	"/>
	<polygon opacity="0.72" fill="#EF695B" enable-background="new    " points="430.889,97.467 397.953,90.528 379.229,114.269 
		394.358,158.739 428.548,114.269 	"/>
	<polygon opacity="0.87" fill="#F5A84A" enable-background="new    " points="299.814,175.96 310.181,124.634 326.732,120.455 
		372.959,152.22 347.296,143.275 346.877,156.567 331.329,144.446 333.42,156.567 317.035,143.275 325.479,167.099 306.502,164.592 
			"/>
	<polygon opacity="0.87" fill="#F5A84A" enable-background="new    " points="265.793,152.721 261.53,114.269 267.968,100.727 
		319.96,88.522 290.787,105.324 302.741,109.922 283.014,117.947 287.611,122.545 277.496,129.316 280.087,135.668 	"/>
	<polygon fill="#F5A84A" points="230.267,72.055 242.555,83.005 236.536,89.525 245.815,98.637 242.805,107.498 250.663,112.597 
		245.815,122.963 255.261,127.644 250.998,137.09 258.521,142.774 258.521,153.056 263.536,153.056 267.466,162.668 
		281.927,165.846 281.927,173.953 293.463,177.632 294.632,184.487 303.66,188.165 303.66,191.509 317.035,191.509 317.035,202.376 
		326.23,199.867 326.23,209.063 336.262,209.063 339.939,220.097 351.476,217.672 350.221,230.547 358.246,223.44 363.263,228.957 
		369.531,221.769 372.959,229.627 380.9,223.44 385.163,230.462 393.104,221.351 398.119,230.462 405.058,228.038 407.315,231.967 
		411.077,228.038 421.525,235.645 421.525,223.44 428.38,226.115 426.708,217.672 435.152,216.335 433.479,204.047 443.26,204.047 
		443.26,192.345 451.536,192.345 449.027,183.901 456.384,185.238 449.446,179.305 453.375,172.366 439.331,157.068 
		448.776,152.554 441.421,146.536 445.852,140.434 438.077,132.659 442.926,127.811 435.736,118.95 439.331,112.597 
		430.889,102.398 435.736,98.804 458.223,184.736 423.365,238.153 350.221,230.547 255.511,155.062 	"/>
	<polygon opacity="0.93" fill="#F5A84A" enable-background="new    " points="205.858,120.455 271.227,202.794 287.945,281.788 
		216.975,270.002 205.858,198.195 	"/>
	<polyline fill="#F5A84A" points="394.525,158.907 415.758,131.405 401.463,143.275 401.463,114.603 394.525,138.427 
		387.671,124.634 385.665,133.077 393.69,156.734 	"/>
	<polygon fill="#F5A84A" points="381.402,120.622 385.665,114.603 390.179,120.622 402.801,108.25 407.817,131.823 417.429,128.73 
		428.548,114.269 400.712,102.398 391.015,110.758 385.665,106.16 379.229,114.269 	"/>
	<polygon fill="#F5A84A" points="183.873,41.627 173.256,29.841 173.256,45.222 	"/>
	<polygon fill="#F5A84A" points="211.792,42.964 228.595,37.531 220.235,53.581 	"/>
	<polygon fill="#F5A84A" points="185.294,45.222 190.142,43.884 187.718,20.061 174.928,9.695 183.873,21.816 	"/>
	<polygon fill="#F5A84A" points="204.185,45.222 209.034,23.153 222.827,9.695 213.464,21.816 209.368,45.222 	"/>
	<polygon fill="#FFFFFF" points="182.368,63.445 198.334,57.259 190.142,66.956 184.959,66.956 	"/>
	<polygon fill="#FFFFFF" points="166.402,51.993 170.749,58.011 168.492,62.776 164.897,61.438 164.897,57.342 	"/>
	<polygon fill="#FFFFFF" points="141.491,88.689 145.503,93.204 139.987,93.455 	"/>
	<polygon fill="#FFFFFF" points="129.705,87.352 133.968,85.429 133.968,92.033 	"/>
</g>
</svg>
