<?xml version="1.0" encoding="utf-8"?>
<!-- Generator: Adobe Illustrator 16.0.0, SVG Export Plug-In . SVG Version: 6.00 Build 0)  -->
<!DOCTYPE svg PUBLIC "-//W3C//DTD SVG 1.1//EN" "http://www.w3.org/Graphics/SVG/1.1/DTD/svg11.dtd">
<svg version="1.1" id="Layer_1" xmlns="http://www.w3.org/2000/svg" xmlns:xlink="http://www.w3.org/1999/xlink" x="0px" y="0px"
	 width="600px" height="400px" viewBox="0 0 600 400" enable-background="new 0 0 600 400" xml:space="preserve">
<path fill="#EF695B" enable-background="new    " d="M121.982,270.142c-8.7-11.021-15.661-7.539-13.921-45.823
	c1.74-38.283,1.16-62.645,36.543-86.427c35.383-23.782,48.723-61.485,42.343-68.445c-6.38-6.96-34.222-4.64-34.222-4.64
	s35.963-23.203,57.424-18.562c21.462,4.641,40.603,22.042,40.603,22.042s7.541-30.163,4.061-35.963s28.423,0,29.583,17.402
	s59.744,4.64,69.604-2.9c9.86-7.541,22.622-19.142,22.622-19.142s1.74,44.083-18.562,54.524
	c-20.301,10.441-33.062,29.582-33.062,29.582s64.965,0,76.565-14.501c11.603-14.501,16.242-27.842,16.242-27.842
	s6.96,51.624-35.963,78.307c-42.924,26.682-52.205,38.283-52.205,38.283s48.145,27.263,92.229-2.32
	c44.083-29.583,46.403-52.205,46.403-52.205s-9.28,79.467-33.642,102.669c-24.363,23.201-89.329,43.503-89.329,43.503
	s46.984,6.959,69.606-0.58c22.622-7.541,49.304-27.262,49.304-27.262s-42.343,71.924-84.688,87.007
	c-42.343,15.081-122.388,51.043-182.713,24.361C136.483,334.526,121.982,270.142,121.982,270.142z"/>
<path id="body_1_" fill="#C2DCD7" d="M285.749,369.038c4.202-11.314,1.68-58.446,2.844-86.894
	c1.295-30.84,3.231-61.228,8.985-92.455c8.148,9.569,14.031,21.918,20.754,32.651c6.723,10.731,24.828,39.891,29.548,28.771
	c3.621-8.533-28.641-60.904-41.572-81.657c-4.007-6.4-4.462-8.21-11.895-9.31c-6.596-0.97-30.066-0.776-32.264-3.297
	c-2.586-3.104-2.133-12.801-2.133-12.801h-10.992c0,0-0.452,8.082-2.132,11.961c-1.037,2.328-28.125,3.621-34.138,3.944
	c-9.373,0.452-11.572,5.042-17.455,12.348c-15.388,19.073-18.038,19.913-33.426,38.984c-9.375,11.509-30.258,32.586-20.366,39.827
	c9.893,7.24,45.581-45.257,62.002-61.421c13.189,55.667,18.75,165.642,10.863,170.943c-32.974,22.112,5.172,22.241,20.947,5.043
	c7.111-7.693-2.329-74.545,2.909-76.678c3.041-1.229,26.443-0.517,27.802,0.517c4.009,3.168,3.427,73.122-3.491,77.066
	C231.762,384.556,279.411,386.172,285.749,369.038z"/>
<path id="face_1_" fill="#C2DCD7" d="M199.759,77.711c-2.974,19.008-3.17,43.77,13.319,57.153c8.34,6.789,22.758,8.922,33.167,9.957
	c20.107,1.939,42.929-0.776,54.502-19.719c4.591-7.5,6.659-16.551,7.822-25.472c0.518-4.138,0.906-8.211,1.165-12.091"/>
<path fill="#F4A84A" d="M253.099,263.717c-0.195,0-36.982-1.615-39.117-0.646c-4.009,1.682-1.68,1.682-1.615,2.975
	c0.257,12.801,3.232,42.67,2.716,47.973c-0.258,2.521,21.463,2.974,23.597,0.516c0.712-0.776,0.258-8.47,0.323-14.87
	c0-1.682,0.389-4.979,0.455-9.244c6.141-0.131,6.141-0.131,12.283-0.325c1.94-0.064,12.414,0.583,12.414,0.583
	s-0.388,9.761-0.388,11.185c-0.194,18.555,0.129-11.768-0.065,6.788c0,2.65,0.195,5.818,2.393,7.241
	c1.292,0.84,2.91,0.84,4.461,0.84c4.267,0,8.534-0.065,12.801-0.065c1.228,0,4.138-0.194,4.978-1.034
	c0.84-0.841,1.099-2.198,1.099-3.361c0.906-27.802,0.129-12.931,1.035-40.732c0.065-2.067,0.582-7.369-0.906-8.792
	c-1.099-1.099-3.23,1.488-4.783,1.423C273.011,263.976,270.49,262.684,253.099,263.717z"/>
<path fill="#177371" d="M175.383,195.445c1.489,2.586,6.66,12.09,13.579,10.863c1.423-0.26,9.051-8.793,11.184-10.863
	c4.073,22.305,10.41,65.235,12.219,71.571c2.394,8.147,70.989,6.983,78.425-0.969c4.977-5.302,3.427-49.395,6.466-72.929
	c4.461,5.367,7.565,12.996,12.736,16.358c1.294,0.84,12.995-9.762,14.547-12.868c0.971-2.002-2.715-5.171-6.013-10.343
	c-2.457-3.814-12.543-21.142-16.422-23.34c-9.374-5.236-32.714-5.689-35.172-6.724c-1.616-0.71-4.526,7.629-13.254,6.789
	c-6.206-0.581-6.594-7.563-10.408-7.047c-12.544,1.617-33.104,2.78-38.082,6.077c-8.275,5.43-8.339,5.625-14.87,13.125
	C190.19,175.079,173.833,192.859,175.383,195.445z"/>
<g>
	<path display="none" fill="#177371" d="M235.06,194.604c0.195,0.065,0.324,0.065,0.517,0.13c0,0.388,0,0.775,0,1.164
		c0,3.361-1.164,4.072-4.396,2.716c-0.453-0.194-1.035-0.194-1.294-0.518c-0.517-0.711-1.422-1.747-1.228-2.329
		c0.388-1.099,1.358-2.327,2.846-1.615c1.616,0.841,1.551-0.065,1.68-1.228c0.84-5.238,1.811-10.41,2.717-15.647
		c0.906-5.043,3.297-10.021,0.646-15.194c-0.258-0.452-0.193-1.099-0.129-1.616c0.064-1.164-0.517-1.292-1.489-1.1
		c-1.938,0.324-3.879,0.453-5.753,0.905c-1.938,0.452-4.009,0.841-5.688,1.875c-0.972,0.582-1.489,0.97-2.588,0.582
		c-2.003-0.582-4.203,0.452-4.59,2.003c-1.098,4.009-2.328,7.952-2.004,12.284c0.13,1.875-0.517,3.88-0.582,5.819
		c-0.259,6.4-0.323,12.801-0.712,19.137c-0.258,4.01-0.969,7.953-1.551,11.896c-0.516,3.427-1.875,6.918-1.617,10.281
		c0.454,5.883,1.874,11.701,2.973,17.521c0.842,4.396,1.747,8.793,2.781,13.188c0.193,0.906,1.034,2.329,1.615,2.329
		c1.941,0.13,3.879-0.258,5.82-0.454c1.228-0.13,1.874-0.776,1.938-2.134c0.323-4.332,0.775-8.728,1.165-13.059
		c0.129-1.618,0.645-2.587,2.585-2.91c10.152-1.81,20.431-2.585,30.709-2.78c2.91-0.065,5.756-0.258,8.664-0.386
		c1.553-0.066,2.393,0.516,1.876,2.261c-0.388,1.423-0.646,2.847-0.969,4.332c-0.907,4.268-0.907,8.471,0.84,12.607
		c0.517,1.228,1.099,1.617,2.52,1.1c1.747-0.583,3.622-0.906,5.496-1.165c5.173-0.775,6.917-3.49,5.43-8.47
		c-0.322-1.163-0.582-2.069,1.164-2.393c0.518-0.064,1.163-1.099,1.295-1.809c1.163-5.236,2.327-10.474,3.296-15.774
		c0.323-1.682,0.258-3.557,0.065-5.238c-0.452-3.555-1.423-7.048-1.746-10.603c-0.193-2.263-1.034-4.85,1.229-6.788
		c0.258-0.194,0.065-0.905,0.129-1.357c0.129-7.112-0.064-14.224,0.517-21.335c0.388-4.848,1.488-9.697,2.91-14.353
		c1.292-4.396,1.615-4.396-3.039-5.366c-0.064,0-0.13-0.065-0.259-0.065c-4.719-0.518-9.44-1.035-14.159-1.487
		c-0.324,0-1.035,0.84-0.969,1.035c1.292,2.779-0.387,4.784-1.681,6.853c-0.775,1.229-2.004,2.522-2.004,3.814
		c0.065,3.815,0.517,7.629,1.099,11.379c0.582,3.75,1.551,7.435,2.328,11.184c0.517,2.715,0,5.625,2.263,7.889
		c0.258,0.257-0.258,1.681-0.777,2.133c-0.711,0.581-1.81,0.84-2.714,0.84c-0.324,0-0.711-1.356-0.776-2.133
		c-0.389-4.072-0.518-8.211-1.1-12.22c-0.776-5.366-2.068-10.667-2.909-16.034c-0.258-1.875-0.906-2.393-2.65-2.133
		c-3.75,0.582-7.565,1.034-11.315,1.616c-3.621,0.517-7.177,0.581-10.151-2.068c-0.387-0.324-0.969-0.453-1.488-0.712
		c-1.163-0.711-1.745-0.194-1.937,0.97c-0.324,1.357-0.647,2.715-0.907,4.072C237.516,182.126,236.289,188.333,235.06,194.604z
		 M262.667,154.001c4.849,2.846,10.733,5.172,16.1,3.426c5.365-1.811,8.533-9.634,4.267-13.383c1.874-2.715,6.205-1.81,8.857,0.194
		c2.586,2.004,4.72,4.914,7.887,5.82c2.588,0.711,5.366,0,7.954,0.646c4.008,0.905,6.724,4.849,7.758,8.792
		c1.033,3.943,0.84,8.146,1.228,12.22c2.329,24.503,24.827,42.282,32.197,65.816c1.099,3.361,1.811,7.112,0.646,10.475
		c-1.164,3.36-4.849,6.075-8.21,4.977c-2.199-0.711-3.751-2.716-5.044-4.59c-9.374-13.449-17.587-27.672-24.504-42.541
		c-2.844,6.466-2.844,13.835-3.167,20.882c-0.324,7.047-1.036,14.547-5.045,20.366s-12.348,9.311-18.49,5.689
		c1.875,2.715,0.583,6.724-2.004,8.857c-2.521,2.133-5.948,2.844-9.245,3.359c-18.362,3.17-37.11,4.14-55.731,2.847
		c0.064,9.31,0.064,18.557,0.129,27.866c0.065,16.226,0.129,32.392,0.194,48.619c0,3.36,0.065,6.916,1.939,9.697
		c1.811,2.78,6.077,4.268,8.6,2.004c1.681-1.488,1.939-4.009,2.068-6.271c1.292-22.111,2.584-44.287,3.943-66.399
		c9.957,0.517,19.914,1.035,29.871,1.551c1.68,0.066,3.426,0.195,4.784,1.165c2.391,1.745,2.391,5.301,2.198,8.276
		c-1.423,17.197-2.845,34.395-4.268,51.593c-0.258,3.168-0.387,6.725,1.682,9.116c3.102,3.62,9.503,2.134,12.413-1.746
		c2.91-3.814,3.231-8.922,3.426-13.708c1.164-24.697,2.327-49.393,3.491-74.091c0.065,29.481-0.259,58.964-0.906,88.444
		c-0.129,6.466-0.387,13.188-3.555,18.813c-3.169,5.626-10.151,9.699-16.164,7.241c-4.848-1.938-7.436-7.499-7.629-12.8
		c-0.194-5.236,1.552-10.344,2.975-15.389c5.042-17.779,6.853-36.462,5.237-54.89c-0.259-2.716-0.646-5.562-2.458-7.565
		c-2.067-2.328-5.495-2.844-8.599-3.168c-6.466-0.711-14.095-1.035-18.298,3.943c-2.843,3.362-3.167,8.146-3.36,12.607
		c-0.517,13.771-1.099,27.543-1.617,41.378c-0.195,5.108-0.84,10.927-5.107,13.771c-2.328,1.552-5.301,1.746-7.952,2.716
		c-2.649,0.971-5.301,3.362-4.784,6.077c0.582,3.232,5.303,4.203,8.082,2.391c2.781-1.809,4.074-5.171,5.107-8.275
		c0.711,6.983-1.68,15.002-7.953,18.232c-6.271,3.233-15.839-1.875-14.546-8.857c0.711-4.009,4.332-6.724,6.596-10.086
		c3.554-5.301,3.748-12.091,3.683-18.49c-0.453-50.429-5.818-100.793-16.164-150.189c-14.417,17.263-28.899,34.46-43.317,51.723
		c-2.521,3.039-5.171,6.144-8.792,7.694c-4.591,1.938-12.931,0.065-10.604-6.336c2.134-5.69,5.755-11.121,9.31-15.97
		c7.306-10.28,16.164-19.331,24.761-28.448c7.889-8.34,15.647-16.875,22.048-26.507c4.396-6.659,8.147-13.964,13.77-19.655
		c5.625-5.69,13.772-9.762,21.593-7.953c-4.784,1.552-8.145,6.66-7.627,11.704c0.907-2.328,2.974-4.138,5.367-4.785
		c-1.293,1.164-2.135,2.78-2.33,4.525c4.656,1.034,9.763,1.293,14.096-0.711 M159.48,220.4c1.357,3.361,2.65,6.595,4.073,9.826
		c0.065,0.195,1.035,0.325,1.293,0.066c1.486-1.229,3.039-2.457,4.332-3.88c2.262-2.456,4.396-5.043,6.529-7.628
		c2.911-3.556,5.885-7.113,8.729-10.798c2.716-3.557,5.174-7.37,8.017-10.861c2.199-2.781,4.333-6.014,7.241-7.565
		c3.169-1.681,2.716-3.491,2.133-5.883c-0.129-0.518-0.064-1.1-0.064-1.617c-0.129-2.974-0.323-5.948-0.517-8.857
		c0-0.389-0.129-0.841-0.323-1.034c-0.196-0.129-0.777,0.065-0.971,0.259c-2.457,2.457-4.848,4.979-7.24,7.499
		c-2.327,2.458-4.525,4.914-6.853,7.306c-2.716,2.78-5.754,5.237-8.146,8.275c-5.884,7.436-11.445,15.129-17.133,22.693
		C160.062,218.849,159.868,219.689,159.48,220.4z M255.231,257.964c2.199-0.259,5.366-0.517,8.534-0.904
		c3.298-0.454,3.427-0.518,2.65-3.621c-0.969-4.009-0.776-8.019,0-12.026c0.516-2.845,0.194-3.362-2.779-3.232
		c-3.427,0.065-6.854,0.195-10.28,0.517c-7.306,0.711-14.547,1.487-21.853,2.328c-0.518,0.065-1.357,0.453-1.488,0.84
		c-0.776,2.78-2.521,5.302-2.069,8.405c0.195,1.293-0.128,2.651-0.387,3.943c-0.387,1.681,0.195,2.263,1.875,2.198
		c1.422-0.064,2.845-0.064,4.203,0.065C240.555,256.865,247.408,257.382,255.231,257.964z M304.301,180.769
		c0,2.134,0.13,4.073,2.007,5.496c0.388,0.323,0.453,1.1,0.646,1.681c0.388,1.163,0.646,2.392,1.228,3.491
		c2.133,4.332,4.332,8.663,6.529,12.994c4.073,7.952,8.147,15.842,12.156,23.793c0.646,1.292,1.552,1.811,2.78,0.841
		c2.327-1.81,4.654-3.621,6.854-5.561c0.386-0.324,0.645-1.292,0.451-1.745c-0.776-1.746-1.745-3.491-2.715-5.173
		c-3.169-5.819-6.466-11.639-9.634-17.456c-1.938-3.621-3.749-7.371-5.689-10.991c-3.812-6.918-7.627-13.835-11.508-20.753
		c-0.194-0.387-0.452-0.775-0.645-1.163c-0.26,0.453-0.647,0.841-0.712,1.292C305.401,171.91,304.885,176.307,304.301,180.769z
		 M249.8,265.787c0,0.194,0.065,0.323,0.065,0.517c6.595-0.97,13.254-1.939,19.849-2.844c1.357-0.195,1.489-0.518,0.84-1.811
		c-1.164-2.327-2.974-2.457-5.237-2.262c-4.784,0.387-9.632,0.84-14.481,0.711c-7.437-0.195-14.936-0.84-22.371-1.358
		c-1.486-0.13-2.132,0.519-2.391,1.875c-0.065,0.518-0.259,1.035-0.454,1.552c-1.163,3.361-1.098,3.361,2.393,3.622
		c0.129,0,0.323,0,0.452,0C235.642,265.787,242.753,265.787,249.8,265.787z M285.749,355.849c-1.036,0.646-2.393,2.005-4.009,2.328
		c-3.814,0.842-7.759,1.357-11.703,1.553c-1.875,0.129-3.298,0.129-4.072,2.133c-0.969,2.392-2.069,4.654-3.168,6.982
		c-0.711,1.487-0.129,1.81,1.357,1.938c5.366,0.324,10.668,0.777,16.034,1.358c1.681,0.194,2.392-0.259,2.714-1.94
		C283.809,365.225,284.907,360.245,285.749,355.849z M245.726,158.656c0,0.194,0,0.453,0,0.646c-0.84-0.065-1.68-0.194-2.585-0.258
		c-0.453,0-0.842,0.129-1.294,0.194c0.194,0.388,0.323,0.84,0.647,1.163c2.263,2.393,4.461,4.784,6.788,7.112
		c0.387,0.388,1.098,0.518,1.68,0.712c2.199,0.97,4.203-0.065,6.337-0.453c3.879-0.711,7.498-1.616,7.888-6.529
		c0-0.065,0.064-0.129,0.064-0.194c0.969-2.393,0.969-2.329-1.745-2.329C257.558,158.721,251.611,158.656,245.726,158.656z
		 M348.591,245.55c-0.97-3.427-2.005-6.787-3.04-10.214c-0.065-0.258-0.841-0.517-1.034-0.388c-2.392,1.746-5.173,1.551-7.823,1.81
		c-1.875,0.194-2.586,1.229-1.81,2.909c1.68,3.558,3.49,7.049,5.431,10.54c0.324,0.518,1.294,0.97,1.939,1.034
		C345.035,251.174,348.526,249.43,348.591,245.55z M249.348,157.041c2.327,0.129,7.37-0.258,10.474-0.194
		c1.163,0,0.906-0.776,0.711-3.491c-0.195-2.91,0.129-4.397-0.324-6.918c-0.194-1.163-3.167-0.581-4.268-0.646
		c-1.875-0.065-3.684-0.388-5.559-0.453c-0.389,0-1.1,0.518-1.229,0.971c-0.71,2.779-1.292,5.56-2.003,8.34
		C246.633,156.522,247.021,156.912,249.348,157.041z M141.635,243.481c-0.71,2.586,1.875,2.649,2.781,3.943
		c0.839,1.294,2.003,1.357,3.038,0.711c1.1-0.711,2.133-1.681,2.909-2.779c1.165-1.617,1.94-3.492,3.104-5.042
		c0.387-0.584,1.356-0.842,2.134-1.101c0.583-0.258,1.228-0.323,1.809-0.453c-0.582-0.581-1.097-1.292-1.745-1.81
		c-0.842-0.646-1.812-1.164-2.846-1.617c-0.387-0.194-0.969-0.258-1.357-0.064c-1.617,0.777-3.168,1.618-4.72,2.393
		C144.157,238.761,142.217,240.637,141.635,243.481z M296.092,199.776c0.13,0,0.259,0.064,0.39,0.064c0,0.259-0.065,0.452,0,0.711
		c0.063,0.517,0.258,0.97,0.387,1.424c0.323-0.389,0.775-0.776,0.904-1.23c0.842-2.39,2.004-4.783,2.391-7.305
		c0.973-5.495,1.683-11.056,2.33-16.551c0.452-3.492,0.711-6.983,0.97-10.474c0.065-0.452-0.259-0.904-0.453-1.423
		c-0.387,0.388-0.777,0.711-1.099,1.1c-0.194,0.323-0.259,0.711-0.324,1.099c-0.58,2.975-1.099,5.883-1.617,8.858
		C298.742,183.936,297.449,191.889,296.092,199.776z M304.497,200.357c-0.324-1.099-0.776-2.067-0.776-3.103
		c0-0.583,0.646-1.229,0.971-1.81c0.387,0.452,1.034,0.842,1.163,1.356c0.323,1.294,0.453,2.587,0.516,3.944
		c0,0.583-0.322,1.554-0.645,1.618c-2.199,0.258-0.904,1.421-0.582,2.197c0.323,0.842,0.969,1.617,1.227,2.521
		c0.196,0.582,0,1.293,0,1.94c-0.645-0.26-1.615-0.39-1.808-0.842c-1.036-2.004-1.877-4.073-2.781-6.142
		c-0.258-0.583-0.581-1.165-0.905-1.746c-0.194,0.775-0.517,1.487-0.581,2.264c-0.066,0.453,0.13,0.905,0.259,1.356
		c1.163,3.039,2.262,6.077,3.555,9.115c0.454,1.1,1.229,2.134,1.874,3.168c0.325-1.229,0.647-2.391,0.971-3.621
		c1.034-4.072,0.066-8.533,2.263-12.413c0.194-0.323-0.064-0.905-0.258-1.293c-1.294-2.714-2.65-5.431-4.073-8.081
		c-0.129-0.323-0.518-0.518-0.776-0.712c-0.194,0.258-0.518,0.582-0.646,0.905C302.169,194.151,301.07,197.448,304.497,200.357z
		 M286.976,143.399c2.846,3.814,3.751,8.792,2.198,12.09c-1.292,2.779-1.292,2.779,1.683,3.75c0.323,0.065,0.581,0.258,0.904,0.323
		c3.751,1.035,3.88,1.035,4.009-2.715c0.13-3.297-0.194-6.53-2.974-8.857C290.985,146.437,289.045,145.016,286.976,143.399z
		 M268.42,372.916c0,0.066-0.064,0.195-0.064,0.26c-1.94,0.129-3.944,0-5.82,0.389c-0.904,0.129-1.615,1.163-2.457,1.744
		c0.841,0.583,1.681,1.616,2.585,1.682c4.138,0.322,8.211,0.452,12.349,0.452c1.552,0,3.104-0.452,4.592-0.84
		c0.388-0.129,0.711-0.775,0.905-1.228c0.064-0.066-0.388-0.646-0.646-0.646C276.05,374.081,272.235,373.499,268.42,372.916z
		 M216.439,378.672c1.875-0.582,3.686-0.841,5.238-1.682c0.775-0.388,1.099-1.682,1.616-2.586c-0.711-0.195-1.487-0.581-2.2-0.581
		c-3.49,0.063-6.981,0.257-10.472,0.452c-0.647,0.064-1.293,0.322-1.876,0.516c0.454,0.646,0.776,1.747,1.358,1.94
		C212.043,377.571,214.241,378.09,216.439,378.672z M334.755,233.137c0,0,0.517,0.13,0.582,0c1.165-2.004,3.427-1.81,5.174-2.649
		c0.322-0.194,0.774-0.777,0.711-0.972c-0.518-1.162-0.97-2.52-1.876-3.296c-0.388-0.323-1.939,0.453-2.78,1.035
		c-1.356,0.905-2.456,2.198-3.814,3.039c-2.648,1.682-2.715,1.617-1.356,4.525c0.195,0.388,0.712,0.646,1.035,0.97
		c0.259-0.388,0.776-0.841,0.776-1.228C333.203,233.524,333.009,232.62,334.755,233.137z M302.493,240.702
		c-0.712-1.746-1.552-3.557-2.198-5.366c-1.099-3.104-2.068-6.207-3.168-9.245c-0.129-0.453-0.646-0.713-0.97-1.1
		c-0.196,0.453-0.454,0.906-0.518,1.359c-0.389,4.331,1.358,8.21,3.103,12.025c0.517,1.099,1.294,2.133,2.005,3.102
		c0.194,0.324,0.776,0.387,1.164,0.517C302.04,241.671,302.233,241.284,302.493,240.702z M299.453,218.395
		c-0.323,0.13-0.582,0.195-0.905,0.325c0.453,0.97,0.905,1.939,1.357,2.911c0.129,0.323,0.258,0.71,0.258,1.033
		c-0.517,5.043,1.294,9.568,3.04,14.159c0.064,0.259,0.388,0.387,0.646,0.582c0.193-0.323,0.451-0.646,0.516-1.033
		c0.13-2.329,0.323-4.657,0.323-6.984c0-0.388-0.388-0.839-0.58-1.228c-0.711-1.164-1.487-2.328-2.069-3.557
		C301.136,222.533,300.295,220.465,299.453,218.395z M161.938,232.104c-1.421-3.104-2.651-5.819-3.944-8.47
		c-0.129-0.195-1.098-0.326-1.292-0.132c-1.036,1.358-2.458,2.716-1.294,4.722c0.907,1.616,1.682,3.296,2.716,4.849
		c0.258,0.389,1.228,0.582,1.681,0.452C160.58,233.267,161.227,232.62,161.938,232.104z M290.403,231.067
		c-0.323,0.842-0.712,1.357-0.712,1.875c0.389,5.366,2.263,10.151,5.688,14.354c0.26,0.258,0.777,0.322,1.165,0.451
		c0.129-0.387,0.323-0.839,0.323-1.227c0-0.453-0.257-0.905-0.452-1.293c-1.357-3.169-2.716-6.337-4.009-9.44
		c-0.453-1.098-0.841-2.198-1.293-3.231C290.985,232.104,290.791,231.778,290.403,231.067z M258.076,170.166
		c0.065,0.129,0.065,0.258,0.129,0.452c2.133-0.258,4.267-0.517,6.4-0.712c4.073-0.387,5.238-3.62,6.531-6.658
		c0.194-0.453,0.065-1.292-0.259-1.746c-0.387-0.582-1.034-1.163-1.679-1.357c-0.326-0.066-1.036,0.775-1.295,1.292
		c-0.582,1.357-0.969,2.78-1.423,4.202c-0.581,2.134-1.939,3.233-4.138,3.557C260.921,169.389,259.499,169.842,258.076,170.166z
		 M305.854,222.083c-0.129-0.452-0.129-0.907-0.259-1.229c-1.552-3.168-3.168-6.336-4.654-9.57c-0.712-1.486-1.099-3.039-1.681-4.59
		c-0.129-0.324-0.646-0.581-0.969-0.84c-0.195,0.323-0.647,0.645-0.647,0.905c0.195,1.164,0.259,2.457,0.776,3.556
		c1.745,4.073,3.621,8.081,5.431,12.09c0.323,0.776,0.713,1.487,1.035,2.263C305.144,223.827,305.532,222.922,305.854,222.083z
		 M277.213,262.489c0.324,0,0.646,0,0.906,0c3.167-0.064,4.009-0.904,3.556-4.331c-0.389-2.846-2.393-0.647-3.622-0.84
		c-0.452-0.065-0.906,0.129-1.357,0.192c-2.328,0.453-2.715,1.099-2.263,4.268c0.258,1.938,1.746,0.259,2.521,0.711
		C277.02,262.555,277.084,262.489,277.213,262.489z M219.542,157.428c-0.194-0.97-0.387-2.521-0.839-4.007
		c-0.129-0.453-1.099-1.165-1.295-1.099c-2.197,1.099-4.332,2.262-6.464,3.49c-0.129,0.065,0,1.1,0.129,1.1
		c1.745,0.258,3.492,0.646,5.237,0.517c1.488-0.065,2.458-0.129,2.393,1.746c0,0.258,0.194,0.518,0.324,0.776
		c0.194-0.259,0.452-0.583,0.517-0.841C219.608,158.786,219.542,158.333,219.542,157.428z M249.671,171.781
		c0.129-0.065,0.518-0.129,0.841-0.258c-0.258-0.324-0.454-0.776-0.778-0.971c-3.037-1.486-5.43-3.556-7.11-6.465
		c-0.389-0.647-0.971-1.229-1.552-1.746c-0.388-0.323-0.905-0.452-1.422-0.646c-0.065,0.581-0.324,1.163-0.195,1.681
		C240.362,167.579,244.822,171.265,249.671,171.781z M223.356,259.84c-0.386-0.13-0.905-0.452-1.357-0.452
		c-1.164,0-2.328,0.128-3.426,0.322c-0.583,0.065-1.101,0.389-1.618,0.582c0.324,0.388,0.712,0.777,0.971,1.228
		c0.323,0.518,0.387,1.293,0.776,1.552c1.098,0.518,2.327,0.841,3.491,1.229C222.517,262.877,222.906,261.52,223.356,259.84z
		 M303.721,160.596c-0.065,1.164,2.392,3.232,3.428,2.78c0.193-0.065,0.322-0.711,0.193-0.841c-2.069-3.039-4.654-5.56-7.953-7.242
		c-0.192-0.129-0.774,0.065-0.774,0.13c-0.066,0.969-0.13,2.003-0.13,2.974c0.582,0,1.228,0.128,1.811-0.065
		C302.364,157.817,303.785,158.786,303.721,160.596z M315.294,162.666c0.129-0.065,0.323-0.129,0.453-0.194
		c-0.711-1.939-1.424-3.878-2.263-5.754c-0.13-0.323-0.777-0.388-1.165-0.647c-0.064,0.194-0.323,0.452-0.258,0.582
		c0.906,2.068-0.775,4.655,1.229,6.53c0.582,0.582,0.97,1.423,1.422,2.134C314.972,164.41,315.1,163.57,315.294,162.666z
		 M203.509,173.656c0.066,0,0.129,0,0.129,0c0,1.163-0.065,2.328,0,3.491c0,0.323,0.258,0.646,0.452,0.97
		c0.195-0.324,0.454-0.582,0.517-0.905c0.518-2.521,1.035-5.043,1.423-7.564c0.066-0.453-0.258-1.034-0.388-1.552
		c-0.582,0.387-1.489,0.646-1.617,1.164C203.702,170.682,203.638,172.233,203.509,173.656z M151.334,232.038
		c-0.388-1.099-0.712-1.874-0.971-2.586c-0.646,0.454-1.356,0.841-1.938,1.422c-0.453,0.389-0.841,0.906-1.165,1.423
		c-0.387,0.646-0.711,1.293-1.1,2.005c0.777-0.194,1.488-0.39,2.265-0.583c0.516-0.129,1.098-0.194,1.551-0.452
		C150.493,232.942,150.879,232.491,151.334,232.038z M288.657,240.702c-0.13,3.555,1.357,6.077,2.909,8.599
		c0.129,0.194,0.777,0.129,1.229,0.129c0.064-0.388,0.258-0.841,0.064-1.164C291.566,245.873,290.209,243.546,288.657,240.702z
		 M208.94,160.208c-0.518-0.453-0.711-0.646-0.906-0.841c-0.84,1.164-1.681,2.328-2.392,3.491c-0.064,0.065,0.518,0.517,0.841,0.84
		C207.26,162.601,208.1,161.437,208.94,160.208z M295.058,195.057c-0.453-0.905-0.645-1.422-0.906-1.94
		c-0.646,0.905-1.356,1.811-1.938,2.78c-0.065,0.064,1.098,1.034,1.162,0.969C294.022,196.349,294.541,195.703,295.058,195.057z
		 M209.457,202.88c-0.258-1.165-0.455-1.941-0.583-2.716c-0.324,0.774-0.905,1.551-0.969,2.393c-0.066,1.098,0.258,2.261,0.452,3.36
		C208.745,204.754,209.132,203.72,209.457,202.88z M208.421,186.199c-0.193,0-0.452-0.065-0.645-0.065
		c-0.258,2.328-0.517,4.656-0.777,6.982c0.258,0,0.517,0.065,0.84,0.065C208.035,190.918,208.229,188.527,208.421,186.199z
		 M296.157,220.4c-0.454-0.711-0.777-1.295-1.165-1.876c-0.518,0.452-1.035,0.97-1.616,1.424c0.581,0.582,1.229,1.098,1.811,1.681
		C295.511,221.241,295.769,220.917,296.157,220.4z"/>
	<path fill="#177371" d="M225.167,111.524c0.066,0.194,0.066,0.452,0.066,0.712c0,1.357-0.71,2.715-1.68,3.621
		c-0.907,0.84-2.07,1.423-3.233,1.486c-3.621,0.195-5.301-4.332-3.75-7.176c0.969-1.747,3.232-2.78,5.172-2.328
		C223.423,108.163,224.844,109.714,225.167,111.524z"/>
	<path fill="#177371" d="M282.903,117.214c-2.199-0.388-4.008-2.199-2.909-4.914c0.452-1.164,1.421-2.199,2.392-2.91
		c0.776-0.516,1.746-0.905,2.715-0.71c1.035,0.129,1.939,0.84,2.586,1.615c1.423,1.747,1.229,4.203-0.452,5.755
		C286.136,117.15,284.391,117.472,282.903,117.214z"/>
</g>
<path fill="#177371" d="M260.728,85.728c-4.979-4.203-14.807-4.396-20.495-1.422c-1.811,0.97-3.104,2.585-3.88,4.526
	c-1.292,3.426-0.839,7.047-0.323,10.604c-7.694-1.746-14.807-6.013-19.978-12.026c-1.551-1.81-3.944-4.591-6.658-3.686
	c-2.458,0.84-3.814,4.591-4.527,6.854c-3.425,10.344-2.39,21.271-1.616,31.938c-1.099-2.521-1.616-4.203-2.327-6.271
	c-0.841-2.521-1.487-5.625-1.875-8.275c-0.84-5.367-1.228-10.733-1.034-16.229c0.388-9.633,2.391-19.848,7.821-28.06
	c0.713-1.035,1.424-2.003,2.2-2.974c9.827-11.508,24.245-18.167,38.855-22.176c14.611-4.009,29.74-5.819,44.417-9.568
	c-3.298,9.892,0.194,20.689,4.913,29.999c4.72,9.31,10.732,18.167,12.736,28.382c2.393,12.026,0.129,20.754-6.983,35.495
	c2.587-8.082,1.489-19.396-0.517-23.21c-2.067-4.009-4.009-6.466-7.887-8.793c-2.263-1.357-3.945-2.068-6.725-1.681
	c-4.525,0.582-5.69,7.047-5.884,10.732c0,0.646,0,3.556,0.259,4.137C281.286,103.96,263.959,88.443,260.728,85.728z"/>
<path fill="#2CBBB6" d="M217.086,351.323l20.689,6.4l0.583,7.823c0.128,2.392-17.522,9.827-23.856,12.93
	c-8.082,3.881-19.011-0.065-12.739-10.021C204.09,364.835,215.018,356.56,217.086,351.323z"/>
<path opacity="0.47" fill="#EE6A5C" enable-background="new    " d="M211.009,120.77c-2.522,0-4.462,0.453-4.462,2.134
	c0,1.681,2.133,2.716,4.462,2.716c2.328,0,5.235-0.905,4.849-2.457C215.47,121.675,213.53,120.77,211.009,120.77z"/>
<path opacity="0.47" fill="#EE6A5C" enable-background="new    " d="M294.347,120.123c-2.198,0-3.881,0.517-3.881,2.521
	s1.877,3.167,3.881,3.167s4.591-1.099,4.268-2.846C298.227,121.223,296.545,120.123,294.347,120.123z"/>
<g>
	<g>
		<path fill="#177371" d="M252.192,110.75c0,1.487,0.26,3.167,0,4.59c0.13,0.775-0.194,1.357-0.97,1.746
			c-0.388-0.065-0.71-0.065-1.099,0c-0.258,0.065-0.517,0.129-0.71,0.323c-1.035,0.841-0.711,2.521,0.387,3.104
			c0.841,0.453,1.552-0.841,0.712-1.228c-0.194-0.646-0.064-0.905,0.388-0.776c0.258,0,0.517,0.065,0.84,0.065
			c0.259,0,0.517-0.065,0.777-0.194c0.453-0.259,0.776-0.712,0.969-1.229c0.582-1.875,0.13-4.461,0.066-6.4
			C253.681,109.779,252.192,109.779,252.192,110.75L252.192,110.75z"/>
	</g>
</g>
<g>
	<g>
		<path fill="#177371" d="M242.301,130.668c1.295-5.779,17.327-4.938,20.042-0.579c0.388,0.683-0.839,1.261-1.227,0.579
			c-2.069-3.363-16.357-4.465-17.392,0.263C243.529,131.719,242.106,131.404,242.301,130.668L242.301,130.668z"/>
	</g>
</g>
<path opacity="0.93" fill="#F5A84A" enable-background="new    " d="M134.743,210.978c0,0,4.64-36.542,31.322-55.104
	c26.682-18.562,55.684-2.9,77.726-22.622s28.423-49.884,28.423-49.884s4.64,46.403-20.882,67.866
	c-25.522,21.462-63.805,6.96-78.886,20.882C157.365,186.035,134.743,210.978,134.743,210.978z"/>
<path opacity="0.93" fill="#F5A84A" enable-background="new    " d="M330.056,137.33c0,0-2.488,19.602-16.802,29.558
	c-14.311,9.957-29.866,1.556-41.69,12.134c-11.823,10.579-15.247,26.757-15.247,26.757s-2.488-24.89,11.201-36.402
	c13.69-11.511,34.226-3.734,42.313-11.201C317.922,150.709,330.056,137.33,330.056,137.33z"/>
<path opacity="0.93" fill="#F5A84A" enable-background="new    " d="M174.604,333.97c0,0,4.64-36.541,31.322-55.103
	c26.683-18.562,55.685-2.901,77.727-22.623s28.423-49.884,28.423-49.884s4.64,46.404-20.882,67.865
	c-25.522,21.463-63.806,6.962-78.887,20.883C197.225,309.028,174.604,333.97,174.604,333.97z"/>
<path opacity="0.93" fill="#F5A84A" enable-background="new    " d="M509.724,23.605c0,0-4.77,33.174-32.207,50.023
	c-27.432,16.85-57.251,2.631-79.915,20.535c-22.665,17.904-29.227,45.283-29.227,45.283s-4.77-42.123,21.472-61.607
	c26.243-19.479,65.606-6.318,81.11-18.955C486.465,46.249,509.724,23.605,509.724,23.605z"/>
<path opacity="0.93" fill="#F5A84A" enable-background="new    " d="M398.821,223.562c0,0,3.172-28.263,21.412-42.62
	c18.24-14.357,38.065-2.244,53.133-17.498c15.067-15.253,19.43-38.583,19.43-38.583s3.172,35.892-14.274,52.491
	c-17.446,16.6-43.617,5.384-53.927,16.151C414.286,204.271,398.821,223.562,398.821,223.562z"/>
</svg>
