<?xml version="1.0" encoding="utf-8"?>
<!-- Generator: Adobe Illustrator 16.0.0, SVG Export Plug-In . SVG Version: 6.00 Build 0)  -->
<!DOCTYPE svg PUBLIC "-//W3C//DTD SVG 1.1//EN" "http://www.w3.org/Graphics/SVG/1.1/DTD/svg11.dtd">
<svg version="1.1" id="Layer_1" xmlns="http://www.w3.org/2000/svg" xmlns:xlink="http://www.w3.org/1999/xlink" x="0px" y="0px"
	 width="800px" height="350px" viewBox="0 0 800 350" enable-background="new 0 0 800 350" xml:space="preserve">
<g>
	<path fill="#231F20" d="M305.81,23.957c2.403,0.195,4.61,0.853,6.627,1.973c2.015,1.121,3.688,2.87,5.021,5.241
		c0.911,1.627,1.317,3.415,1.219,5.365c0,0.193-0.017,0.34-0.048,0.437c-0.065,0.262-0.161,0.504-0.291,0.733
		c-0.13,0.228-0.345,0.375-0.634,0.439c-0.553,0.128-1.026-0.098-1.415-0.684c-0.356-0.617-0.739-1.218-1.146-1.804
		c-0.407-0.584-0.818-1.187-1.243-1.804c-0.583-0.845-1.282-1.527-2.094-2.048c-0.812-0.517-1.708-0.907-2.681-1.169
		c-0.554-0.161-1.08-0.161-1.584,0c-0.501,0.163-1.016,0.343-1.535,0.536c-1.363,0.554-2.479,1.352-3.34,2.39
		c-0.862,1.042-1.633,2.161-2.315,3.363c-0.683,1.203-1.226,2.438-1.633,3.706c-0.405,1.267-0.738,2.584-0.999,3.948
		c-0.262,1.364-0.471,2.723-0.634,4.069c-0.164,1.351-0.327,2.708-0.488,4.071c-0.098,0.846-0.17,1.674-0.22,2.486
		c-0.046,0.812-0.106,1.645-0.171,2.487c-0.032,0.846-0.065,1.682-0.096,2.51c-0.034,0.829-0.048,1.667-0.048,2.512
		c-0.035,1.722,0.016,3.429,0.145,5.119c0.13,1.69,0.344,3.378,0.633,5.07c0.13,0.778,0.262,1.568,0.393,2.363
		c0.126,0.796,0.324,1.569,0.583,2.313c0.293,0.911,0.657,1.764,1.097,2.562c0.438,0.795,1.048,1.486,1.828,2.07
		c0.258,0.164,0.511,0.308,0.755,0.438c0.244,0.129,0.496,0.227,0.756,0.292c0.453,0.129,0.884,0.145,1.29,0.046
		c0.407-0.096,0.807-0.355,1.196-0.778c1.039-1.104,1.885-2.298,2.534-3.584c0.65-1.284,1.152-2.657,1.51-4.118
		c0.389-1.562,0.683-3.187,0.878-4.875c0.063-0.425,0.172-0.807,0.318-1.146c0.145-0.344,0.348-0.674,0.606-1.002
		c0.326-0.355,0.71-0.495,1.146-0.414c0.439,0.082,0.755,0.334,0.952,0.755c0,0.065,0.009,0.108,0.025,0.12
		c0.016,0.018,0.023,0.057,0.023,0.12c0.034,0.782,0.146,1.554,0.343,2.317c0.194,0.763,0.227,1.552,0.098,2.364
		c-0.163,1.138-0.384,2.267-0.659,3.387c-0.275,1.12-0.643,2.203-1.097,3.242c-0.421,1.008-0.925,1.943-1.509,2.803
		c-0.585,0.862-1.218,1.7-1.901,2.51c-0.358,0.425-0.724,0.822-1.097,1.196c-0.373,0.375-0.74,0.756-1.095,1.146
		c-0.654,0.682-1.384,1.16-2.196,1.436c-0.811,0.276-1.659,0.497-2.536,0.657c-1.625,0.262-3.143,0.189-4.559-0.218
		c-1.414-0.407-2.802-1.031-4.167-1.876c-1.819-1.105-3.187-2.503-4.095-4.193c-0.909-1.689-1.591-3.526-2.046-5.51
		c-0.26-1.234-0.502-2.469-0.732-3.705c-0.229-1.235-0.374-2.487-0.438-3.752c-0.163-1.95-0.25-3.893-0.27-5.826
		c-0.016-1.934,0.042-3.877,0.172-5.827c0.128-2.146,0.307-4.257,0.534-6.336c0.228-2.082,0.554-4.162,0.976-6.24
		c0.324-1.789,0.673-3.552,1.048-5.291c0.371-1.739,0.95-3.437,1.731-5.094c0.844-1.756,1.835-3.348,2.974-4.777
		c1.137-1.429,2.502-2.697,4.095-3.804c1.363-0.943,2.826-1.617,4.386-2.022C302.25,24.258,303.956,24.022,305.81,23.957z"/>
	<path fill="#231F20" d="M353.973,64.321c-0.033,1.559-0.083,2.949-0.147,4.169c-0.067,1.219-0.244,2.396-0.538,3.532
		c-0.259,0.975-0.535,1.944-0.825,2.901c-0.293,0.96-0.667,1.909-1.121,2.85c-0.456,0.879-0.929,1.739-1.416,2.586
		c-0.488,0.847-0.974,1.688-1.461,2.534c-0.521,0.846-1.138,1.592-1.854,2.241c-0.714,0.653-1.46,1.253-2.242,1.806
		c-0.066,0.065-0.122,0.105-0.17,0.12c-0.051,0.015-0.108,0.057-0.173,0.123c-1.039,0.909-2.177,1.487-3.412,1.73
		c-1.237,0.244-2.502,0.364-3.801,0.364c-0.555,0-1.107-0.055-1.659-0.17c-0.555-0.115-1.106-0.219-1.659-0.316
		c-2.764-0.554-5.045-1.658-6.85-3.315c-1.803-1.659-3.242-3.72-4.312-6.19c-0.976-2.179-1.609-4.403-1.9-6.682
		c-0.293-2.274-0.325-4.581-0.097-6.921c0.162-1.753,0.421-3.475,0.779-5.167c0.354-1.689,0.826-3.362,1.415-5.02
		c0.843-2.469,1.932-4.769,3.266-6.9c1.334-2.126,3.004-4.052,5.022-5.776c2.664-2.274,5.767-3.492,9.31-3.655
		c1.656-0.099,3.145,0.19,4.459,0.855c1.317,0.663,2.494,1.631,3.533,2.897c1.171,1.463,2.072,3.033,2.707,4.705
		c0.635,1.674,1.16,3.386,1.583,5.142c0.258,1.071,0.462,2.143,0.608,3.216c0.146,1.073,0.301,2.161,0.466,3.267
		c0.161,0.945,0.299,1.87,0.412,2.779C354.013,62.941,354.038,63.703,353.973,64.321z M330.818,69.146
		c0.032,1.169,0.244,2.526,0.635,4.071c0.39,1.544,1.072,3.063,2.046,4.556c1.041,1.562,2.297,2.717,3.777,3.462
		c1.479,0.746,3.176,1.042,5.095,0.878c0.455-0.065,0.893-0.18,1.314-0.341c0.425-0.163,0.846-0.343,1.27-0.537
		c0.845-0.423,1.504-1.007,1.973-1.754c0.469-0.748,0.917-1.527,1.342-2.341c0.65-1.333,1.105-2.696,1.364-4.095
		c0.26-1.396,0.455-2.812,0.584-4.24c0.127-1.236,0.192-2.454,0.192-3.656c0-1.204-0.129-2.405-0.389-3.608
		c-0.164-0.844-0.308-1.691-0.439-2.535c-0.128-0.844-0.291-1.688-0.487-2.535c-0.26-1.2-0.577-2.388-0.949-3.558
		c-0.375-1.17-0.89-2.275-1.537-3.315c-0.586-0.975-1.251-1.854-2-2.632c-0.748-0.781-1.673-1.398-2.778-1.854
		c-0.941-0.355-1.722-0.445-2.339-0.269c-0.618,0.179-1.237,0.675-1.854,1.489c-1.724,2.241-3.104,4.729-4.143,7.456
		c-0.844,2.31-1.487,4.688-1.925,7.142C331.135,63.387,330.883,66.125,330.818,69.146z"/>
	<path fill="#231F20" d="M364.891,71.631c0.193-0.649,0.39-1.306,0.583-1.972c0.195-0.666,0.374-1.324,0.535-1.975
		c0.261-1.104,0.552-2.185,0.878-3.242c0.328-1.055,0.717-2.102,1.172-3.142c0.456-1.139,0.934-2.284,1.437-3.437
		c0.504-1.153,1.034-2.299,1.585-3.437c0.487-1.006,0.999-1.997,1.537-2.974c0.537-0.975,1.08-1.933,1.631-2.877
		c0.455-0.781,0.911-1.542,1.365-2.29c0.454-0.747,0.943-1.496,1.46-2.243c0.327-0.49,0.689-0.954,1.099-1.391
		c0.408-0.437,0.806-0.886,1.195-1.34c0.229-0.261,0.447-0.496,0.657-0.706c0.21-0.211,0.429-0.447,0.657-0.708
		c0.423-0.52,0.991-0.78,1.706-0.78c0.358,0.034,0.691,0.066,1,0.097c0.308,0.034,0.625,0.048,0.951,0.048
		c0.39,0.034,0.7,0.171,0.925,0.416c0.229,0.244,0.438,0.497,0.635,0.755c0.261,0.326,0.465,0.666,0.61,1.024
		c0.144,0.356,0.268,0.731,0.364,1.12c0.358,1.592,0.562,3.177,0.61,4.753c0.048,1.576,0.007,3.177-0.122,4.801
		c-0.099,1.365-0.203,2.73-0.318,4.095c-0.114,1.364-0.201,2.73-0.268,4.096c-0.164,2.373-0.276,4.744-0.34,7.118
		c-0.067,2.37-0.049,4.745,0.047,7.118c0.063,1.137,0.121,2.274,0.17,3.412c0.049,1.138,0.171,2.275,0.366,3.413
		c0.065,0.357,0.121,0.692,0.17,0.999c0.051,0.308,0.106,0.625,0.171,0.951c0.064,0.262,0.107,0.511,0.121,0.755
		s-0.074,0.497-0.268,0.756c0,0.033-0.009,0.048-0.027,0.048s-0.023,0.018-0.023,0.048c0.065,0.554-0.059,0.96-0.366,1.218
		c-0.309,0.261-0.673,0.489-1.098,0.682c-0.422,0.163-0.828,0.334-1.217,0.512c-0.391,0.18-0.813,0.35-1.269,0.512
		c-0.649,0.227-1.339,0.227-2.07,0c-0.731-0.228-1.31-0.617-1.732-1.17c-0.099-0.129-0.153-0.276-0.171-0.439
		c-0.017-0.161-0.056-0.323-0.121-0.488c-0.035-0.129-0.049-0.251-0.049-0.364c0-0.114-0.017-0.236-0.045-0.366
		c-0.682-3.542-0.976-7.148-0.879-10.822c0-0.715-0.009-1.424-0.023-2.123c-0.018-0.699,0.005-1.405,0.071-2.121
		c0.066-1.136,0.153-2.274,0.269-3.415c0.115-1.136,0.218-2.274,0.318-3.41c0.097-0.942,0.201-1.886,0.317-2.828
		c0.114-0.941,0.252-1.885,0.414-2.827c0.096-0.745,0.22-1.494,0.364-2.243c0.147-0.747,0.285-1.496,0.415-2.241
		c0.229-1.397,0.473-2.786,0.735-4.169c0.259-1.38,0.42-2.786,0.487-4.215c0.031-0.195,0.038-0.389,0.023-0.584
		c-0.014-0.194-0.023-0.423-0.023-0.684c-1.008,0.717-1.821,1.529-2.438,2.438c-0.355,0.553-0.69,1.113-0.998,1.68
		c-0.312,0.57-0.629,1.129-0.952,1.681c-0.357,0.619-0.723,1.236-1.098,1.852c-0.373,0.62-0.738,1.237-1.095,1.854
		c-0.391,0.682-0.735,1.364-1.026,2.046c-0.455,0.976-0.9,1.945-1.339,2.902c-0.44,0.959-0.887,1.925-1.342,2.898
		c-0.196,0.457-0.375,0.937-0.537,1.439c-0.163,0.504-0.325,1-0.49,1.486c-0.422,1.269-0.835,2.535-1.242,3.805
		c-0.408,1.268-0.806,2.534-1.195,3.801c-0.229,0.651-0.405,1.309-0.536,1.975c-0.13,0.667-0.292,1.326-0.486,1.973
		c-0.265,0.943-0.426,1.909-0.49,2.898c-0.066,0.995-0.181,1.975-0.344,2.952c-0.062,0.455-0.153,0.908-0.269,1.362
		c-0.113,0.456-0.201,0.911-0.268,1.365c-0.066,0.423-0.117,0.837-0.146,1.244c-0.032,0.407-0.116,0.807-0.244,1.196
		c-0.164,0.651-0.39,1.235-0.683,1.753c-0.13,0.261-0.269,0.456-0.415,0.583c-0.144,0.13-0.365,0.276-0.657,0.44
		c-0.228,0.095-0.462,0.152-0.707,0.17c-0.246,0.018-0.497,0.024-0.756,0.024s-0.495-0.006-0.708-0.024
		c-0.211-0.018-0.397-0.121-0.558-0.317c-0.718-0.748-1.254-1.56-1.61-2.436c-0.52-1.3-0.909-2.609-1.169-3.925
		c-0.264-1.316-0.473-2.658-0.636-4.021c-0.163-1.562-0.342-3.122-0.535-4.68c-0.194-1.562-0.343-3.12-0.438-4.679
		c-0.099-1.852-0.154-3.714-0.17-5.583c-0.017-1.868-0.027-3.746-0.027-5.63c0-1.462,0.042-2.926,0.122-4.387
		c0.082-1.462,0.154-2.94,0.219-4.438c0.098-1.852,0.243-3.768,0.437-5.754c0.065-0.553,0.181-1.104,0.342-1.657
		c0.164-0.553,0.423-1.072,0.782-1.56c0.357-0.519,0.795-0.796,1.317-0.828c0.453-0.063,0.875-0.048,1.267,0.048
		c0.39,0.097,0.734,0.375,1.025,0.83c0.291,0.454,0.529,0.9,0.708,1.339c0.176,0.438,0.3,0.935,0.364,1.487
		c0.063,0.653,0.145,1.275,0.244,1.878c0.097,0.602,0.193,1.226,0.292,1.877c0.163,0.909,0.283,1.804,0.365,2.679
		c0.079,0.88,0.138,1.791,0.17,2.731c0.065,1.365,0.139,2.715,0.221,4.047c0.08,1.333,0.152,2.681,0.22,4.047
		c0.065,1.463,0.128,2.917,0.193,4.364c0.064,1.446,0.129,2.899,0.194,4.364c0.034,0.455,0.065,0.901,0.097,1.34
		c0.035,0.439,0.082,0.886,0.147,1.34h0.257V71.631z"/>
	<path fill="#231F20" d="M406.13,33.61c-0.161-0.032-0.378-0.063-0.655-0.099c-0.275-0.031-0.496-0.048-0.655-0.048h-7.267
		c-0.552,0-1.113,0.026-1.68,0.074c-0.57,0.046-1.146,0.057-1.732,0.025c-0.291,0-0.59-0.032-0.9-0.099
		c-0.309-0.063-0.608-0.146-0.903-0.242c-0.258-0.099-0.502-0.221-0.731-0.366c-0.226-0.146-0.47-0.284-0.731-0.415
		c0.097-0.715,0.52-1.121,1.268-1.22c0.879-0.099,1.755-0.188,2.632-0.269c0.879-0.082,1.739-0.17,2.585-0.269
		c1.397-0.13,2.778-0.227,4.145-0.291c1.362-0.065,2.73-0.065,4.095,0c0.062,0,0.193-0.01,0.391-0.026
		c0.191-0.017,0.323-0.039,0.389-0.072c0.064-0.455,0.129-0.91,0.193-1.364c0.065-0.454,0.129-0.909,0.193-1.365
		c0.164-0.944,0.319-1.813,0.467-2.608c0.146-0.795,0.299-1.665,0.462-2.607c0.063-0.489,0.146-0.975,0.243-1.462
		c0.098-0.49,0.18-0.976,0.244-1.462v-0.44c-0.098-1.267,0.424-2.046,1.562-2.339c0.552-0.161,1.095-0.252,1.631-0.268
		c0.536-0.018,1.033,0.189,1.489,0.609c0.39,0.325,0.707,0.682,0.951,1.072c0.244,0.389,0.316,0.879,0.22,1.46
		c-0.066,0.456-0.09,0.927-0.073,1.417c0.016,0.487,0.023,0.96,0.023,1.414c0,0.974-0.055,1.893-0.17,2.753
		c-0.116,0.86-0.17,1.779-0.17,2.752v2.292c0.39,0,0.777,0,1.169,0c0.39,0,0.78,0.017,1.169,0.048c1.464,0,2.908,0.056,4.34,0.171
		c1.43,0.115,2.86,0.349,4.29,0.708c0.322,0.063,0.641,0.164,0.951,0.292c0.308,0.129,0.623,0.261,0.949,0.389
		c0.099,0.067,0.188,0.138,0.271,0.221c0.079,0.081,0.188,0.154,0.317,0.218c-0.326,0.358-0.658,0.569-0.999,0.635
		c-0.343,0.065-0.692,0.097-1.047,0.097c-0.749,0.034-1.472,0.041-2.171,0.027c-0.7-0.017-1.423,0.007-2.171,0.072
		c-1.07,0.067-2.136,0.139-3.192,0.218c-1.057,0.084-2.12,0.157-3.191,0.219c-0.101,0.036-0.196,0.058-0.294,0.075
		s-0.229,0.057-0.39,0.12c0,0.195,0,0.562,0,1.098c0,0.535-0.009,1.179-0.027,1.924c-0.016,0.75-0.023,1.537-0.023,2.366
		c0,0.828-0.009,1.617-0.024,2.363c-0.018,0.745-0.023,1.389-0.023,1.925c0,0.537,0,0.902,0,1.097v6.828
		c0,0.778,0.016,1.915,0.047,3.41c0.032,1.497,0.072,3.187,0.12,5.071c0.047,1.883,0.105,3.85,0.171,5.898
		c0.064,2.048,0.155,4.007,0.268,5.875c0.116,1.871,0.229,3.559,0.344,5.071c0.114,1.509,0.252,2.639,0.414,3.388
		c0.228,1.17,0.479,2.339,0.757,3.509c0.273,1.169,0.626,2.324,1.048,3.461c0.062,0.195,0.113,0.398,0.145,0.61
		c0.033,0.209,0.083,0.413,0.146,0.607c0.098,0.261,0.193,0.513,0.291,0.755c0.099,0.244,0.212,0.48,0.344,0.708
		c0.259,0.454,0.51,0.892,0.755,1.315c0.243,0.423,0.495,0.861,0.755,1.317c0.228,0.391,0.271,0.724,0.122,0.998
		c-0.146,0.276-0.448,0.481-0.901,0.61c-0.813,0.162-1.585,0.188-2.316,0.073c-0.735-0.115-1.472-0.301-2.219-0.561
		c-1.138-0.357-2.087-0.9-2.851-1.633c-0.763-0.734-1.438-1.618-2.024-2.66c-0.877-1.59-1.552-3.223-2.022-4.899
		c-0.473-1.672-0.887-3.386-1.244-5.14c-0.098-0.456-0.18-1.276-0.242-2.461c-0.065-1.187-0.123-2.561-0.174-4.122
		c-0.045-1.562-0.088-3.216-0.119-4.974c-0.035-1.753-0.065-3.41-0.098-4.972c-0.035-1.562-0.049-2.934-0.049-4.12
		c0-1.187,0-2.006,0-2.462c0.032-1.234,0.049-2.445,0.049-3.631s0.032-2.38,0.098-3.583c0.032-0.391,0.074-0.966,0.119-1.731
		c0.048-0.763,0.108-1.625,0.174-2.584c0.062-0.96,0.126-1.959,0.191-2.998c0.066-1.038,0.131-2.039,0.196-2.997
		c0.064-0.958,0.119-1.821,0.17-2.586c0.05-0.762,0.091-1.34,0.121-1.729V33.61L406.13,33.61z"/>
	<path fill="#231F20" d="M435.479,82.065c0.101,0.844,0.18,1.642,0.247,2.389c0.062,0.651,0.113,1.268,0.145,1.852
		c0.032,0.584,0.018,0.993-0.047,1.219c-0.165,0.617-0.427,1.088-0.781,1.415c-0.358,0.324-0.845,0.453-1.462,0.389
		c-0.943-0.128-1.683-0.481-2.221-1.048c-0.535-0.569-0.98-1.225-1.339-1.973c-0.263-0.487-0.438-0.958-0.535-1.414
		c-0.1-0.423-0.196-0.83-0.292-1.221c-0.098-0.389-0.181-0.794-0.244-1.217c-0.163-1.723-0.337-3.428-0.512-5.119
		c-0.18-1.689-0.334-3.395-0.464-5.12c-0.13-1.525-0.252-3.038-0.366-4.533c-0.113-1.495-0.153-3.021-0.12-4.582
		c0.034-0.879,0.039-1.753,0.025-2.635c-0.018-0.876-0.025-1.753-0.025-2.63c0.034-0.553,0.058-1.098,0.073-1.635
		c0.017-0.536,0.04-1.08,0.074-1.634c0-0.552-0.01-1.088-0.027-1.607c-0.016-0.52-0.007-1.054,0.027-1.607
		c0.032-0.649,0.127-1.299,0.292-1.953c0.193-0.779,0.654-1.355,1.39-1.73c0.731-0.373,1.452-0.382,2.169-0.026
		c0.259,0.13,0.479,0.301,0.657,0.512c0.177,0.211,0.35,0.432,0.511,0.655c0.291,0.456,0.511,0.93,0.656,1.417
		c0.146,0.488,0.284,0.992,0.417,1.511c0.29,1.235,0.493,2.46,0.606,3.681c0.116,1.217,0.153,2.445,0.121,3.68
		c-0.032,0.843-0.039,1.665-0.023,2.461c0.015,0.797,0.023,1.616,0.023,2.461h0.049c0.064,0.974,0.098,1.943,0.098,2.9
		c0,0.959,0.032,1.925,0.098,2.898l0.733,10.238c0.033,0.357,0.047,0.691,0.047,0.999C435.479,81.375,435.479,81.709,435.479,82.065
		z M431.725,43.944c-0.193,0.099-0.423,0.164-0.683,0.195c-0.259,0.033-0.511,0.007-0.755-0.074c-0.243-0.08-0.471-0.26-0.683-0.536
		c-0.21-0.274-0.362-0.689-0.462-1.244c-0.098-0.553-0.071-1.017,0.072-1.389c0.147-0.373,0.336-0.689,0.562-0.951
		c0.26-0.291,0.584-0.537,0.974-0.732c0.097-0.064,0.316-0.032,0.657,0.099c0.342,0.129,0.69,0.276,1.048,0.439
		c0.389,0.161,0.738,0.536,1.046,1.12c0.309,0.584,0.479,1.105,0.511,1.559c0,0.228-0.07,0.415-0.218,0.56
		c-0.146,0.147-0.341,0.285-0.584,0.415c-0.244,0.132-0.496,0.238-0.755,0.318C432.195,43.808,431.952,43.879,431.725,43.944z"/>
	<path fill="#231F20" d="M448.397,71.631c0.193-0.649,0.39-1.306,0.583-1.972c0.194-0.666,0.373-1.324,0.535-1.975
		c0.263-1.104,0.552-2.185,0.881-3.242c0.326-1.055,0.714-2.102,1.169-3.142c0.456-1.139,0.934-2.284,1.438-3.437
		c0.503-1.153,1.033-2.299,1.584-3.437c0.487-1.006,0.999-1.997,1.535-2.974c0.535-0.977,1.081-1.933,1.633-2.877
		c0.455-0.781,0.91-1.542,1.362-2.29c0.456-0.747,0.946-1.496,1.463-2.243c0.326-0.49,0.689-0.954,1.099-1.391
		c0.408-0.437,0.805-0.886,1.195-1.34c0.227-0.261,0.445-0.496,0.657-0.706c0.211-0.211,0.429-0.447,0.657-0.708
		c0.424-0.52,0.992-0.78,1.706-0.78c0.358,0.034,0.69,0.066,1,0.097c0.308,0.034,0.625,0.048,0.951,0.048
		c0.39,0.034,0.697,0.171,0.925,0.416c0.229,0.244,0.438,0.497,0.635,0.755c0.261,0.326,0.464,0.666,0.61,1.024
		c0.146,0.356,0.268,0.731,0.364,1.12c0.356,1.592,0.563,3.177,0.61,4.753c0.047,1.578,0.006,3.177-0.122,4.801
		c-0.099,1.365-0.203,2.73-0.318,4.095c-0.114,1.364-0.201,2.73-0.268,4.096c-0.162,2.373-0.276,4.744-0.342,7.118
		c-0.066,2.37-0.048,4.745,0.048,7.118c0.064,1.137,0.121,2.274,0.171,3.412c0.049,1.138,0.171,2.275,0.366,3.413
		c0.064,0.357,0.12,0.692,0.17,0.999c0.051,0.308,0.106,0.625,0.17,0.951c0.065,0.262,0.108,0.511,0.122,0.755
		c0.016,0.244-0.074,0.497-0.269,0.756c0,0.033-0.009,0.048-0.026,0.048s-0.023,0.018-0.023,0.048
		c0.063,0.554-0.059,0.96-0.364,1.218c-0.312,0.261-0.676,0.489-1.1,0.682c-0.423,0.163-0.827,0.334-1.218,0.512
		c-0.39,0.18-0.812,0.35-1.269,0.512c-0.651,0.227-1.34,0.227-2.07,0c-0.735-0.228-1.31-0.617-1.732-1.17
		c-0.098-0.129-0.156-0.276-0.172-0.439c-0.015-0.161-0.056-0.323-0.119-0.488c-0.035-0.129-0.05-0.251-0.05-0.364
		c0-0.114-0.016-0.236-0.048-0.366c-0.68-3.542-0.973-7.148-0.877-10.822c0-0.715-0.009-1.424-0.025-2.123
		c-0.016-0.699,0.008-1.405,0.075-2.121c0.062-1.136,0.151-2.274,0.268-3.415c0.115-1.136,0.219-2.274,0.316-3.41
		c0.099-0.942,0.203-1.886,0.317-2.828c0.115-0.941,0.253-1.885,0.414-2.827c0.098-0.745,0.221-1.494,0.364-2.243
		c0.146-0.747,0.284-1.496,0.415-2.241c0.229-1.397,0.472-2.786,0.734-4.169c0.261-1.38,0.422-2.786,0.488-4.215
		c0.031-0.195,0.037-0.389,0.023-0.584c-0.015-0.194-0.023-0.423-0.023-0.684c-1.008,0.717-1.821,1.529-2.438,2.438
		c-0.354,0.553-0.689,1.113-0.999,1.68c-0.311,0.568-0.627,1.129-0.95,1.681c-0.357,0.619-0.723,1.236-1.098,1.852
		c-0.373,0.62-0.738,1.237-1.096,1.854c-0.392,0.682-0.735,1.364-1.026,2.046c-0.455,0.976-0.899,1.945-1.339,2.902
		c-0.44,0.959-0.89,1.925-1.342,2.898c-0.194,0.457-0.374,0.937-0.538,1.439c-0.16,0.504-0.325,1-0.488,1.486
		c-0.422,1.269-0.836,2.535-1.241,3.805c-0.408,1.268-0.806,2.534-1.195,3.801c-0.229,0.651-0.409,1.309-0.535,1.975
		c-0.131,0.667-0.294,1.326-0.49,1.973c-0.262,0.943-0.423,1.909-0.488,2.898c-0.064,0.995-0.179,1.975-0.341,2.952
		c-0.066,0.455-0.155,0.908-0.271,1.362c-0.114,0.456-0.201,0.911-0.268,1.365c-0.066,0.423-0.117,0.837-0.147,1.244
		c-0.034,0.407-0.114,0.807-0.242,1.196c-0.162,0.651-0.392,1.235-0.683,1.753c-0.131,0.261-0.27,0.456-0.415,0.583
		c-0.145,0.13-0.365,0.276-0.656,0.44c-0.229,0.095-0.467,0.152-0.708,0.17c-0.245,0.018-0.499,0.024-0.756,0.024
		c-0.26,0-0.495-0.006-0.707-0.024c-0.211-0.018-0.398-0.121-0.56-0.317c-0.719-0.748-1.255-1.56-1.609-2.436
		c-0.52-1.3-0.91-2.609-1.169-3.925c-0.263-1.316-0.473-2.658-0.638-4.021c-0.161-1.562-0.341-3.122-0.535-4.68
		c-0.192-1.562-0.341-3.12-0.437-4.679c-0.099-1.852-0.154-3.714-0.17-5.583c-0.019-1.868-0.027-3.746-0.027-5.63
		c0-1.462,0.041-2.926,0.123-4.387c0.079-1.462,0.153-2.94,0.218-4.438c0.098-1.852,0.243-3.768,0.437-5.754
		c0.065-0.553,0.181-1.104,0.342-1.657c0.164-0.553,0.425-1.072,0.783-1.56c0.356-0.519,0.794-0.796,1.313-0.828
		c0.457-0.063,0.878-0.048,1.27,0.048c0.39,0.097,0.733,0.375,1.024,0.83c0.291,0.454,0.527,0.9,0.707,1.339
		c0.179,0.438,0.3,0.935,0.364,1.487c0.064,0.653,0.146,1.275,0.245,1.878c0.099,0.602,0.193,1.226,0.289,1.877
		c0.165,0.909,0.284,1.804,0.368,2.679c0.079,0.88,0.138,1.791,0.17,2.731c0.063,1.365,0.139,2.715,0.22,4.047
		c0.079,1.333,0.153,2.681,0.221,4.047c0.063,1.463,0.128,2.917,0.193,4.364c0.063,1.446,0.129,2.899,0.193,4.364
		c0.035,0.455,0.065,0.901,0.098,1.34c0.035,0.439,0.082,0.886,0.146,1.34h0.259V71.631z"/>
	<path fill="#231F20" d="M494.61,57.01c-0.162,0.357-0.316,0.715-0.461,1.071c-0.146,0.358-0.287,0.716-0.414,1.074
		c-0.458,1.46-0.896,2.934-1.318,4.413c-0.424,1.477-0.861,2.947-1.315,4.412c-0.292,0.91-0.571,1.827-0.829,2.753
		c-0.262,0.927-0.586,1.826-0.975,2.706c-0.422,0.845-0.925,1.592-1.51,2.243c-0.586,0.649-1.316,1.154-2.195,1.509
		c-0.163,0.066-0.316,0.165-0.462,0.292c-0.146,0.129-0.303,0.245-0.464,0.343c-0.555,0.326-1.098,0.579-1.633,0.756
		c-0.536,0.179-1.132,0.219-1.779,0.12c-1.074-0.194-1.95-0.681-2.635-1.461c-0.552-0.651-1.022-1.35-1.412-2.098
		c-0.391-0.744-0.717-1.542-0.976-2.388c-0.391-1.269-0.683-2.542-0.878-3.826c-0.193-1.283-0.343-2.591-0.438-3.923
		c-0.099-1.17-0.196-2.347-0.292-3.534c-0.098-1.188-0.163-2.364-0.194-3.533c-0.033-1.234-0.016-2.471,0.047-3.706
		c0.066-1.234,0.129-2.469,0.194-3.706c0.065-1.462,0.163-2.899,0.293-4.313c0.129-1.414,0.243-2.854,0.341-4.313
		c0.064-0.553,0.261-1.088,0.587-1.607c0.323-0.52,0.811-0.845,1.463-0.975c0.225-0.065,0.442-0.128,0.654-0.194
		c0.212-0.064,0.432-0.129,0.657-0.195c1.138-0.129,1.968,0.326,2.487,1.366c0.227,0.423,0.423,0.853,0.584,1.29
		c0.16,0.438,0.244,0.917,0.244,1.437c-0.034,0.619,0.027,1.227,0.171,1.828c0.146,0.603,0.252,1.21,0.317,1.828
		c0.064,0.454,0.114,0.927,0.146,1.415c0.031,0.487,0.063,0.961,0.098,1.412c0.066,1.367,0.122,2.725,0.171,4.072
		c0.049,1.351,0.106,2.706,0.169,4.07c0.066,0.846,0.108,1.665,0.122,2.46c0.016,0.799,0.058,1.619,0.121,2.462
		c0.035,0.652,0.056,1.318,0.073,1.999c0.018,0.683,0.073,1.363,0.171,2.046c0.129,0.946,0.18,1.888,0.146,2.83
		c-0.032,0.941,0.083,1.885,0.342,2.825c0.099,0.489,0.261,0.927,0.488,1.316c0.261,0.49,0.554,0.49,0.881,0
		c0.193-0.323,0.382-0.649,0.559-0.975c0.179-0.323,0.316-0.664,0.415-1.024c0.263-1.04,0.513-2.07,0.755-3.094
		c0.244-1.025,0.496-2.056,0.756-3.097c0.357-1.332,0.699-2.647,1.025-3.948c0.324-1.298,0.681-2.6,1.071-3.9
		c0.293-0.879,0.625-1.731,0.999-2.561c0.374-0.828,0.738-1.665,1.098-2.51c0.162-0.424,0.349-0.828,0.56-1.217
		c0.212-0.391,0.397-0.8,0.562-1.221c0.716-1.723,1.724-3.347,3.023-4.875c0.227-0.226,0.422-0.518,0.583-0.876
		c0.391-0.91,1.071-1.366,2.047-1.366c0.49,0,0.975,0,1.464,0c0.486,0,0.972,0.019,1.46,0.048c0.455,0.033,0.763,0.129,0.928,0.293
		c0.162,0.163,0.31,0.453,0.438,0.878c0.13,0.456,0.188,0.895,0.171,1.317c-0.018,0.423-0.023,0.861-0.023,1.315
		c0,0.715,0.032,1.43,0.096,2.143c0.065,0.717,0.065,1.448,0,2.196c-0.063,1.461-0.161,2.924-0.29,4.387
		c-0.131,1.462-0.246,2.925-0.344,4.385c-0.065,0.975-0.114,1.959-0.146,2.952c-0.032,0.991-0.081,1.972-0.146,2.948
		c-0.034,0.651-0.066,1.3-0.099,1.95c-0.034,0.652-0.066,1.301-0.098,1.95c-0.033,0.618-0.064,1.235-0.098,1.853
		c-0.035,0.619-0.035,1.236,0,1.854c0.033,1.074,0.081,2.152,0.147,3.24c0.061,1.09,0.126,2.189,0.193,3.292
		c0,0.356,0.016,0.699,0.048,1.023c0.031,0.325,0.099,0.666,0.192,1.024c0.164,0.519,0.237,1.023,0.221,1.511
		c-0.016,0.488-0.043,0.992-0.074,1.511c-0.032,0.164-0.064,0.333-0.098,0.51c-0.034,0.182-0.128,0.351-0.292,0.514
		c-0.163,0.161-0.309,0.365-0.438,0.608c-0.13,0.244-0.276,0.479-0.438,0.706c-0.065,0.064-0.124,0.138-0.175,0.221
		c-0.046,0.08-0.104,0.153-0.17,0.218c-0.518,0.454-1.046,0.836-1.582,1.144c-0.536,0.31-1.178,0.446-1.926,0.416
		c-0.975-0.034-1.706-0.438-2.194-1.218c-0.162-0.26-0.308-0.536-0.438-0.826c-0.129-0.294-0.243-0.585-0.344-0.879
		c-0.485-1.59-0.844-3.187-1.068-4.777c-0.232-1.59-0.345-3.218-0.345-4.875c0-2.404,0.026-4.795,0.074-7.165
		c0.05-2.373,0.201-4.748,0.461-7.118c0.099-0.747,0.204-1.47,0.317-2.171c0.117-0.699,0.236-1.422,0.366-2.168
		c0.032-0.161,0.057-0.342,0.074-0.536c0.017-0.193,0.037-0.373,0.072-0.536c-0.035,0-0.056-0.007-0.072-0.024
		C494.662,57.014,494.643,57.01,494.61,57.01z"/>
	<path fill="#231F20" d="M540.096,69.489c-0.62,1.362-1.245,2.714-1.879,4.047c-0.635,1.333-1.308,2.666-2.024,3.995
		c-0.651,1.27-1.389,2.479-2.217,3.633c-0.828,1.153-1.714,2.267-2.659,3.341c-1.429,1.688-3.047,2.966-4.85,3.824
		c-1.805,0.862-3.876,1.162-6.215,0.901c-2.439-0.26-4.521-1.023-6.242-2.29c-1.722-1.268-3.151-2.973-4.287-5.121
		c-0.782-1.559-1.389-3.142-1.827-4.751c-0.439-1.609-0.739-3.274-0.901-4.997c-0.164-1.332-0.235-2.648-0.22-3.95
		c0.018-1.297,0.056-2.615,0.12-3.948c0.066-1.362,0.212-2.713,0.439-4.046c0.228-1.333,0.535-2.665,0.926-3.997
		c0.555-1.95,1.228-3.833,2.022-5.655c0.797-1.82,1.845-3.524,3.146-5.119c0.781-0.975,1.639-1.845,2.585-2.608
		c0.94-0.764,1.965-1.438,3.069-2.023c0.941-0.488,1.91-0.886,2.899-1.195c0.991-0.308,2.007-0.496,3.049-0.562
		c1.17-0.065,2.323,0,3.463,0.194c1.134,0.195,2.223,0.666,3.266,1.414c0.259,0.195,0.526,0.382,0.803,0.562
		c0.275,0.177,0.563,0.348,0.854,0.509c1.008,0.65,1.879,1.431,2.608,2.342c0.733,0.909,1.405,1.886,2.023,2.924
		c0.615,1.041,1.007,2.144,1.17,3.315c0.163,1.17,0.128,2.372-0.099,3.606c-0.779,4.032-2.678,7.493-5.703,10.385
		c-0.877,0.845-1.773,1.664-2.68,2.461c-0.911,0.799-1.869,1.535-2.879,2.219c-1.428,0.941-2.913,1.706-4.457,2.29
		c-1.546,0.584-3.194,0.909-4.949,0.973c-0.034,0-0.181,0.035-0.438,0.099c0.227,1.399,0.567,2.715,1.022,3.95
		s1.122,2.371,1.999,3.413c0.747,0.845,1.583,1.479,2.511,1.9c0.927,0.42,1.941,0.666,3.046,0.731
		c0.455,0.034,0.854-0.056,1.195-0.268c0.343-0.211,0.69-0.447,1.049-0.708c0.748-0.649,1.43-1.355,2.047-2.121
		s1.186-1.568,1.705-2.413c0.746-1.137,1.43-2.29,2.048-3.461c0.615-1.172,1.169-2.373,1.658-3.607
		c0.259-0.583,0.561-1.079,0.9-1.487c0.342-0.407,0.835-0.658,1.487-0.754c0.392,0.032,0.731,0.128,1.025,0.291
		c0.226,0.166,0.405,0.383,0.535,0.658C540.368,68.67,540.321,69.035,540.096,69.489z M517.572,69.441
		c0.424-0.065,0.806-0.115,1.145-0.147c0.345-0.034,0.673-0.099,0.999-0.195c1.14-0.26,2.218-0.642,3.242-1.146
		c1.024-0.503,1.99-1.097,2.902-1.78c0.744-0.552,1.461-1.114,2.142-1.681c0.682-0.568,1.351-1.162,1.998-1.778
		c1.367-1.237,2.439-2.635,3.217-4.194c0.781-1.56,1.319-3.233,1.61-5.021c0.162-0.812,0.162-1.583,0-2.315
		c-0.164-0.732-0.521-1.422-1.073-2.073c-1.042-1.234-2.267-2.039-3.679-2.412c-1.415-0.375-2.854-0.203-4.313,0.51
		c-1.27,0.617-2.363,1.421-3.292,2.414c-0.925,0.991-1.698,2.105-2.313,3.339c-1.043,2.081-1.789,4.307-2.243,6.68
		c-0.263,1.268-0.447,2.534-0.562,3.804c-0.114,1.267-0.138,2.551-0.071,3.85c0.031,0.357,0.071,0.707,0.119,1.045
		C517.449,68.685,517.506,69.052,517.572,69.441z"/>
	<path fill="#231F20" d="M217.591,154.187c-1.464-0.088-2.895-0.143-4.292-0.165c-1.396-0.022-2.805-0.078-4.226-0.169
		c-2.396-0.087-4.801-0.154-7.218-0.196c-2.419-0.045-4.846-0.112-7.285-0.2c-0.223,0-0.423-0.022-0.599-0.068
		c-0.178-0.042-0.376-0.021-0.599,0.068c-1.019,0.222-1.975,0.191-2.86-0.1c-0.888-0.288-1.774-0.7-2.662-1.231
		c-0.93-0.575-1.553-1.441-1.861-2.594c-0.179-0.62-0.2-1.131-0.067-1.529c0.133-0.401,0.509-0.71,1.131-0.933
		c0.754-0.309,1.507-0.565,2.261-0.764c0.754-0.2,1.507-0.345,2.262-0.433c2.261-0.177,4.535-0.322,6.82-0.43
		c2.283-0.112,4.578-0.21,6.884-0.299c2.307-0.091,4.613-0.178,6.919-0.269c2.307-0.087,4.611-0.179,6.917-0.267
		c1.154-0.043,2.295-0.054,3.429-0.034c1.129,0.024,2.272-0.011,3.425-0.1c3.592-0.223,7.152-0.267,10.677-0.132
		c3.526,0.132,7.086,0.312,10.677,0.531c1.332,0.09,2.771,0.113,4.324,0.067c1.554-0.043,2.973,0.158,4.26,0.597
		c0.353,0.092,0.608,0.233,0.764,0.433c0.156,0.198,0.455,0.324,0.898,0.366c-0.044,0.223-0.067,0.389-0.067,0.501
		c0,0.113-0.022,0.209-0.068,0.297l-2.592,4.391c-0.532,0.976-1.309,1.531-2.328,1.663c-1.553,0.178-3.083,0.367-4.591,0.567
		c-1.508,0.197-3.018,0.344-4.524,0.43c-2.395,0.089-4.747,0.145-7.053,0.168c-2.309,0.023-4.658,0.054-7.051,0.099
		c-0.134,0-0.267,0.012-0.398,0.035c-0.132,0.021-0.29,0.055-0.465,0.099c0,0.223-0.011,0.423-0.037,0.6
		c-0.023,0.175-0.01,0.354,0.037,0.532c0.487,2.662,0.797,5.333,0.931,8.015c0.134,2.683,0.242,5.401,0.331,8.149
		c0.089,2.395,0.19,4.758,0.301,7.089c0.112,2.327,0.21,4.687,0.299,7.081c0.134,3.418,0.276,6.809,0.433,10.18
		c0.154,3.372,0.274,6.783,0.364,10.244c0.088,2.354,0.166,4.68,0.233,6.984c0.067,2.311,0.102,4.66,0.102,7.055
		c0,0.975-0.035,1.938-0.102,2.895c-0.067,0.954-0.121,1.938-0.167,2.96c-0.044,0.356-0.078,0.733-0.1,1.131
		c-0.023,0.399-0.036,0.8-0.036,1.197c0,0.577-0.044,1.12-0.131,1.629c-0.088,0.513-0.29,1.012-0.599,1.497
		c-0.398,0.667-0.855,1.134-1.363,1.401c-0.509,0.266-1.164,0.331-1.963,0.196c-1.419-0.222-2.585-0.75-3.492-1.598
		c-0.911-0.84-1.676-1.86-2.295-3.057c-0.621-1.153-1.076-2.329-1.365-3.525c-0.288-1.198-0.543-2.416-0.766-3.658
		c-0.354-2.218-0.586-4.414-0.697-6.586c-0.112-2.175-0.145-4.37-0.1-6.588c0-0.755-0.021-1.474-0.067-2.161
		c-0.043-0.688-0.088-1.409-0.134-2.165l-0.398-9.179c-0.223-4.128-0.42-8.215-0.598-12.275c-0.179-4.059-0.335-8.15-0.465-12.274
		c-0.133-5.1,0.199-10.155,0.998-15.167c0.045-0.131,0.056-0.276,0.034-0.432C217.603,154.599,217.591,154.412,217.591,154.187z"/>
	<path fill="#231F20" d="M272.875,212.002c0.086-0.887,0.199-1.774,0.333-2.661c0.132-0.889,0.242-1.774,0.333-2.663
		c0.221-1.732,0.409-3.459,0.565-5.19c0.154-1.73,0.366-3.459,0.63-5.188c0.31-1.82,0.634-3.628,0.966-5.424
		c0.333-1.798,0.721-3.604,1.165-5.42c0.487-1.955,1.075-3.86,1.764-5.727c0.688-1.861,1.54-3.657,2.562-5.385
		c0.664-1.11,1.339-2.186,2.027-3.228c0.688-1.042,1.542-1.983,2.562-2.827c0.355-0.31,0.721-0.611,1.097-0.896
		c0.376-0.289,0.764-0.545,1.166-0.766c0.489-0.309,0.996-0.478,1.528-0.5s1.086,0.033,1.664,0.167
		c0.976,0.22,1.894,0.565,2.761,1.03c0.865,0.467,1.697,0.988,2.495,1.567c0.355,0.175,0.556,0.33,0.6,0.465
		c0.486,0.841,0.964,1.661,1.428,2.46c0.463,0.798,0.833,1.64,1.097,2.528c0.354,1.153,0.635,2.308,0.833,3.459
		c0.199,1.152,0.411,2.327,0.632,3.524c0.132,0.664,0.21,1.353,0.233,2.062c0.023,0.71,0.121,1.397,0.299,2.064
		c0.354,1.462,0.455,2.939,0.298,4.42c-0.156,1.488-0.121,2.964,0.1,4.429c0.091,0.264,0.103,0.541,0.036,0.829
		c-0.067,0.289-0.099,0.586-0.099,0.897c0.042,1.021,0.076,2.061,0.099,3.129c0.022,1.063,0.076,2.106,0.167,3.128
		c0.132,1.686,0.288,3.391,0.465,5.123c0.175,1.729,0.354,3.436,0.532,5.121c0.132,1.686,0.255,3.384,0.366,5.089
		c0.11,1.709,0.275,3.405,0.5,5.091c0.086,0.619,0.242,1.22,0.465,1.795c0.221,0.58,0.424,1.176,0.598,1.798
		c0.134,0.487,0.201,1.023,0.201,1.596c0,0.531-0.056,1.054-0.168,1.563c-0.11,0.511-0.275,1.011-0.5,1.499
		c-0.398,1.109-1.153,1.528-2.262,1.264c-3.371-0.888-5.788-2.817-7.252-5.788c-1.33-2.662-2.36-5.399-3.092-8.216
		c-0.735-2.819-1.231-5.688-1.499-8.616c-0.354-3.593-0.588-7.183-0.699-10.772c-0.112-3.594-0.055-7.188,0.165-10.78
		c0.134-2.084,0.145-4.159,0.036-6.219c-0.114-2.061-0.209-4.133-0.299-6.218c0-0.18-0.036-0.345-0.099-0.503
		c-0.067-0.154-0.145-0.408-0.233-0.762c-0.402,0.619-0.766,1.198-1.099,1.73c-0.333,0.53-0.611,1.043-0.832,1.529
		c-0.93,1.951-1.763,3.912-2.496,5.888c-0.731,1.975-1.32,4.026-1.761,6.153c-0.132,0.756-0.31,1.506-0.533,2.263
		s-0.423,1.506-0.599,2.261c-0.223,0.889-0.411,1.798-0.565,2.729c-0.156,0.934-0.324,1.843-0.5,2.731
		c-0.489,2.259-0.887,4.52-1.197,6.783c-0.354,2.087-0.657,4.156-0.897,6.219c-0.245,2.063-0.523,4.136-0.833,6.22
		c-0.178,1.196-0.39,2.373-0.632,3.528c-0.245,1.151-0.589,2.307-1.032,3.458c-0.4,1.064-0.976,1.983-1.731,2.759
		c-0.755,0.776-1.529,1.521-2.328,2.23c-0.489,0.441-1.03,0.829-1.629,1.163s-1.209,0.657-1.831,0.966
		c-0.843,0.398-1.542,0.501-2.094,0.3c-0.554-0.203-1.098-0.677-1.63-1.434c-0.621-0.931-1.153-1.904-1.596-2.923
		c-0.444-1.023-0.753-2.086-0.933-3.195c-0.221-1.42-0.398-2.817-0.532-4.193c-0.132-1.372-0.288-2.77-0.465-4.188
		c-0.088-0.975-0.199-1.955-0.333-2.928c-0.133-0.976-0.267-1.951-0.399-2.929c-0.398-3.282-0.744-6.541-1.031-9.777
		c-0.29-3.237-0.457-6.521-0.5-9.849c-0.088-5.274-0.156-10.532-0.197-15.766c-0.045-5.232-0.09-10.489-0.134-15.768
		c-0.043-3.767-0.043-7.519,0-11.241c0.043-3.726,0.067-7.474,0.067-11.243c0-0.842,0.255-1.595,0.766-2.262
		c0.509-0.667,1.231-1.064,2.164-1.197c1.331-0.132,2.504,0.178,3.525,0.933c0.8,0.53,1.387,1.175,1.763,1.928
		c0.377,0.755,0.675,1.576,0.897,2.464c0.398,1.64,0.632,3.281,0.699,4.919c0.067,1.645,0.143,3.283,0.231,4.924
		c0.044,1.507,0.111,2.993,0.2,4.456c0.09,1.462,0.177,2.927,0.266,4.392c0.043,0.842,0.067,1.672,0.067,2.494
		c0,0.82,0.022,1.654,0.067,2.496c0.042,0.799,0.077,1.596,0.1,2.393c0.021,0.799,0.078,1.596,0.166,2.395
		c0.089,1.375,0.187,2.742,0.301,4.093c0.108,1.354,0.232,2.716,0.366,4.09c0.221,1.865,0.301,3.704,0.234,5.523
		c-0.067,1.819-0.145,3.662-0.234,5.523c-0.045,0.749-0.023,1.506,0.069,2.26c0.087,0.756,0.175,1.506,0.264,2.263
		c0.043,0.842,0.088,1.688,0.134,2.527c0.043,0.843,0.111,1.71,0.198,2.596c0.089,1.196,0.156,2.394,0.201,3.592
		c0.043,1.198,0.11,2.416,0.199,3.66c0.09,1.111,0.167,2.194,0.232,3.259c0.067,1.064,0.143,2.152,0.231,3.258
		c0.045,0.226,0.091,0.435,0.134,0.636s0.087,0.413,0.134,0.632C272.676,212.067,272.786,212.046,272.875,212.002z"/>
	<path fill="#231F20" d="M355.901,206.411c-0.843,1.865-1.696,3.704-2.562,5.522c-0.865,1.817-1.785,3.638-2.76,5.454
		c-0.887,1.73-1.894,3.383-3.027,4.956c-1.13,1.577-2.341,3.097-3.626,4.561c-1.951,2.307-4.158,4.048-6.619,5.221
		c-2.46,1.176-5.289,1.585-8.481,1.231c-3.325-0.354-6.165-1.397-8.517-3.129c-2.353-1.73-4.302-4.059-5.854-6.987
		c-1.064-2.125-1.895-4.289-2.497-6.484c-0.599-2.198-1.008-4.466-1.23-6.821c-0.219-1.817-0.32-3.613-0.299-5.388
		c0.025-1.774,0.08-3.569,0.168-5.387c0.089-1.865,0.286-3.702,0.595-5.523c0.312-1.82,0.735-3.636,1.267-5.455
		c0.753-2.661,1.671-5.231,2.761-7.715c1.086-2.488,2.514-4.815,4.289-6.99c1.065-1.329,2.239-2.514,3.526-3.559
		c1.284-1.04,2.681-1.962,4.19-2.758c1.286-0.665,2.606-1.208,3.959-1.633c1.352-0.419,2.74-0.673,4.158-0.763
		c1.595-0.09,3.17,0,4.723,0.266c1.552,0.267,3.04,0.91,4.457,1.932c0.356,0.265,0.721,0.521,1.098,0.762
		c0.376,0.246,0.766,0.48,1.164,0.699c1.375,0.888,2.562,1.955,3.561,3.193c0.998,1.245,1.917,2.577,2.759,3.994
		c0.844,1.421,1.377,2.928,1.598,4.523c0.222,1.596,0.177,3.237-0.132,4.919c-1.065,5.502-3.659,10.227-7.785,14.173
		c-1.196,1.151-2.416,2.274-3.658,3.358c-1.242,1.088-2.551,2.094-3.925,3.028c-1.954,1.287-3.981,2.328-6.088,3.128
		c-2.104,0.797-4.357,1.24-6.752,1.331c-0.043,0-0.243,0.045-0.598,0.132c0.309,1.908,0.775,3.7,1.396,5.388
		c0.621,1.688,1.531,3.237,2.728,4.658c1.022,1.152,2.163,2.02,3.428,2.594c1.264,0.579,2.648,0.909,4.159,0.996
		c0.618,0.047,1.164-0.076,1.629-0.366c0.465-0.284,0.942-0.608,1.428-0.963c1.02-0.887,1.952-1.852,2.794-2.893
		c0.842-1.043,1.62-2.142,2.328-3.295c1.024-1.552,1.954-3.128,2.797-4.726c0.842-1.596,1.595-3.232,2.263-4.92
		c0.355-0.799,0.764-1.475,1.23-2.031c0.465-0.554,1.142-0.897,2.029-1.032c0.534,0.046,0.999,0.18,1.397,0.402
		c0.31,0.221,0.554,0.518,0.733,0.895C356.277,205.293,356.21,205.792,355.901,206.411z M325.166,206.347
		c0.577-0.091,1.096-0.154,1.564-0.201c0.466-0.041,0.918-0.132,1.362-0.265c1.552-0.354,3.027-0.878,4.424-1.565
		c1.396-0.688,2.717-1.497,3.959-2.43c1.021-0.75,1.998-1.518,2.928-2.295c0.93-0.771,1.837-1.583,2.728-2.428
		c1.863-1.684,3.325-3.594,4.39-5.721c1.064-2.131,1.795-4.412,2.195-6.854c0.221-1.108,0.221-2.16,0-3.159
		c-0.222-1-0.709-1.938-1.462-2.824c-1.421-1.688-3.096-2.784-5.023-3.295c-1.929-0.508-3.893-0.274-5.887,0.699
		c-1.731,0.844-3.228,1.94-4.492,3.295c-1.265,1.35-2.317,2.87-3.159,4.554c-1.42,2.839-2.441,5.879-3.062,9.114
		c-0.352,1.731-0.609,3.461-0.764,5.191c-0.157,1.729-0.189,3.481-0.101,5.253c0.045,0.491,0.101,0.968,0.166,1.431
		C325,205.314,325.075,205.812,325.166,206.347z"/>
	<path fill="#231F20" d="M395.018,205.083c0.268-0.487,0.61-0.829,1.031-1.032c0.422-0.202,0.834-0.344,1.231-0.431
		c0.488-0.087,0.955-0.087,1.397,0c0.31,0.178,0.509,0.388,0.599,0.634c0.087,0.242,0.132,0.543,0.132,0.895
		c0,1.111,0,2.219,0,3.327c0,1.109,0.022,2.241,0.065,3.392c0.044,1.906,0.4,3.683,1.065,5.323c0.664,1.64,1.574,3.217,2.726,4.725
		c0.756,0.974,1.8,1.662,3.129,2.061c2.483,0.844,4.847,1.032,7.085,0.564c2.239-0.463,4.427-1.383,6.554-2.759
		c0.489-0.354,0.941-0.723,1.363-1.098c0.422-0.376,0.832-0.767,1.229-1.166c1.021-1.061,1.733-2.263,2.13-3.591
		c0.399-1.333,0.643-2.705,0.733-4.128c0.131-2.481,0.034-4.907-0.299-7.284c-0.334-2.372-0.945-4.713-1.829-7.019
		c-0.579-1.419-1.189-2.826-1.83-4.224c-0.643-1.394-1.473-2.693-2.494-3.892c-0.532-0.621-1.087-1.217-1.664-1.798
		c-0.575-0.574-1.175-1.11-1.796-1.596c-1.419-1.241-2.885-2.395-4.392-3.457c-1.506-1.068-3.105-2.021-4.79-2.86
		c-1.195-0.579-2.372-1.208-3.525-1.899c-1.152-0.685-2.217-1.497-3.193-2.428c-1.021-1.019-1.972-2.084-2.86-3.193
		c-0.889-1.111-1.597-2.351-2.129-3.728c-0.842-2.082-1.217-4.346-1.13-6.783c0.09-1.507,0.334-2.962,0.734-4.36
		c0.397-1.396,0.998-2.738,1.798-4.024c2.571-4.125,6.25-7.006,11.042-8.65c2.351-0.797,4.766-1.064,7.25-0.797
		c0.711,0.089,1.42,0.178,2.128,0.267c0.708,0.09,1.421,0.246,2.128,0.466c1.685,0.443,3.251,1.098,4.691,1.963
		c1.439,0.863,2.781,1.918,4.024,3.159c0.488,0.489,0.92,0.988,1.298,1.498c0.375,0.509,0.785,1.01,1.229,1.497
		c0.311,0.354,0.633,0.723,0.968,1.1c0.333,0.377,0.632,0.742,0.896,1.097c0.488,0.755,0.976,1.487,1.464,2.197
		c0.487,0.708,0.953,1.44,1.397,2.194c0.31,0.535,0.422,0.977,0.333,1.333c-0.093,0.354-0.333,0.71-0.733,1.064
		c-0.93,0.799-1.84,0.888-2.728,0.265c-0.621-0.398-1.199-0.81-1.731-1.23c-0.534-0.421-1.087-0.875-1.661-1.361
		c-0.889-0.754-1.853-1.387-2.895-1.898c-1.043-0.508-2.141-0.853-3.291-1.031c-1.82-0.309-3.572-0.299-5.257,0.034
		c-1.687,0.334-3.261,1.077-4.724,2.23c-2.129,1.64-2.863,3.503-2.198,5.586c0.223,0.755,0.6,1.354,1.132,1.798
		s1.108,0.842,1.729,1.198c1.022,0.623,2.053,1.197,3.095,1.731c1.042,0.533,2.071,1.11,3.093,1.729
		c3.107,1.819,5.834,4.083,8.184,6.787c0.889,1.022,1.731,2.051,2.527,3.094c0.798,1.043,1.553,2.138,2.262,3.291
		c0.801,1.376,1.577,2.773,2.33,4.19c0.751,1.421,1.353,2.906,1.798,4.459c0.397,1.376,0.807,2.739,1.229,4.088
		c0.422,1.354,0.721,2.743,0.897,4.16c0.532,4.392,0.377,8.673-0.467,12.842c-0.44,2.307-1.143,4.442-2.095,6.418
		c-0.954,1.975-2.14,3.895-3.56,5.755c-0.222,0.398-0.576,0.8-1.063,1.196c-1.775,1.421-3.627,2.64-5.556,3.662
		c-1.929,1.021-4.024,1.796-6.287,2.329c-3.061,0.663-5.921,0.654-8.584-0.035c-2.663-0.688-5.186-2.006-7.583-3.957
		c-0.621-0.534-1.254-1.099-1.896-1.698c-0.643-0.598-1.23-1.207-1.763-1.828c-0.887-1.062-1.584-2.207-2.096-3.427
		c-0.509-1.219-0.987-2.474-1.429-3.759c-0.843-2.174-1.287-4.412-1.331-6.718c0-0.976,0.053-1.953,0.167-2.929
		c0.109-0.977,0.207-1.95,0.297-2.928C394.754,205.55,394.84,205.348,395.018,205.083z"/>
	<path fill="#231F20" d="M462.011,157.449c-0.223-0.043-0.521-0.088-0.898-0.135c-0.376-0.042-0.675-0.065-0.896-0.065h-9.913
		c-0.753,0-1.52,0.033-2.294,0.101c-0.776,0.065-1.566,0.078-2.362,0.035c-0.4,0-0.81-0.043-1.231-0.134
		c-0.421-0.089-0.83-0.198-1.23-0.333c-0.354-0.132-0.688-0.301-0.997-0.501c-0.312-0.196-0.644-0.387-0.998-0.563
		c0.133-0.975,0.712-1.532,1.73-1.665c1.197-0.131,2.396-0.255,3.592-0.365c1.198-0.111,2.371-0.231,3.525-0.366
		c1.908-0.177,3.791-0.309,5.654-0.398c1.864-0.088,3.727-0.088,5.591,0c0.088,0,0.266-0.011,0.529-0.035
		c0.27-0.023,0.444-0.053,0.533-0.101c0.088-0.621,0.179-1.24,0.268-1.863c0.09-0.619,0.177-1.24,0.266-1.863
		c0.222-1.285,0.433-2.471,0.633-3.559c0.2-1.086,0.411-2.272,0.632-3.559c0.091-0.665,0.201-1.332,0.335-1.997
		c0.133-0.664,0.244-1.332,0.332-1.995v-0.596c-0.131-1.732,0.578-2.796,2.129-3.196c0.753-0.221,1.498-0.345,2.229-0.364
		c0.731-0.022,1.407,0.254,2.027,0.831c0.534,0.444,0.966,0.931,1.298,1.465c0.333,0.531,0.432,1.198,0.299,1.995
		c-0.091,0.623-0.122,1.264-0.102,1.93c0.021,0.663,0.037,1.306,0.037,1.928c0,1.331-0.078,2.585-0.234,3.757
		c-0.155,1.175-0.231,2.43-0.231,3.759v3.127c0.53,0,1.062,0,1.593,0c0.534,0,1.066,0.025,1.598,0.065
		c1.995,0,3.969,0.08,5.922,0.234c1.95,0.157,3.9,0.478,5.851,0.966c0.444,0.09,0.879,0.225,1.297,0.4
		c0.426,0.179,0.854,0.354,1.3,0.532c0.133,0.089,0.254,0.189,0.364,0.299c0.111,0.111,0.255,0.209,0.433,0.3
		c-0.446,0.487-0.897,0.775-1.363,0.864c-0.467,0.088-0.942,0.132-1.43,0.132c-1.021,0.043-2.008,0.055-2.961,0.034
		c-0.957-0.021-1.941,0.011-2.963,0.101c-1.462,0.088-2.914,0.191-4.357,0.297c-1.44,0.113-2.896,0.212-4.359,0.301
		c-0.13,0.042-0.267,0.078-0.397,0.101c-0.133,0.024-0.312,0.078-0.533,0.167c0,0.265,0,0.766,0,1.499
		c0,0.73-0.013,1.607-0.033,2.628c-0.024,1.019-0.034,2.094-0.034,3.226c0,1.128-0.014,2.206-0.036,3.227
		c-0.021,1.02-0.03,1.893-0.03,2.625c0,0.734,0,1.231,0,1.498v9.312c0,1.064,0.02,2.617,0.064,4.657
		c0.043,2.042,0.101,4.349,0.167,6.918c0.067,2.573,0.144,5.257,0.234,8.052c0.087,2.795,0.207,5.467,0.363,8.016
		c0.154,2.553,0.311,4.855,0.465,6.917c0.155,2.062,0.345,3.605,0.567,4.624c0.311,1.595,0.654,3.195,1.032,4.792
		c0.376,1.597,0.852,3.17,1.43,4.723c0.089,0.267,0.156,0.541,0.197,0.831c0.043,0.29,0.112,0.567,0.199,0.829
		c0.132,0.354,0.267,0.699,0.399,1.034c0.135,0.333,0.289,0.653,0.466,0.965c0.353,0.623,0.698,1.22,1.032,1.796
		c0.334,0.579,0.675,1.177,1.031,1.798c0.312,0.532,0.364,0.985,0.167,1.362c-0.199,0.377-0.609,0.656-1.229,0.833
		c-1.109,0.219-2.162,0.253-3.16,0.099c-0.998-0.152-2.008-0.409-3.029-0.764c-1.551-0.49-2.848-1.23-3.892-2.229
		c-1.042-0.996-1.963-2.207-2.759-3.624c-1.199-2.175-2.12-4.403-2.763-6.686c-0.644-2.284-1.207-4.623-1.694-7.021
		c-0.134-0.619-0.245-1.739-0.334-3.358c-0.092-1.618-0.167-3.492-0.233-5.619c-0.066-2.131-0.121-4.39-0.168-6.787
		c-0.044-2.393-0.088-4.657-0.131-6.784c-0.044-2.127-0.066-4.001-0.066-5.621c0-1.621,0-2.739,0-3.36
		c0.042-1.682,0.066-3.334,0.066-4.957c0-1.618,0.043-3.247,0.131-4.889c0.046-0.533,0.102-1.318,0.168-2.361
		c0.067-1.041,0.144-2.218,0.233-3.525c0.089-1.307,0.178-2.671,0.267-4.09c0.088-1.421,0.175-2.784,0.267-4.093
		c0.091-1.308,0.166-2.484,0.234-3.523c0.064-1.042,0.118-1.83,0.165-2.364v-0.672H462.011z"/>
	<path fill="#231F20" d="M537.253,199.362c-0.043,2.127-0.111,4.022-0.197,5.688c-0.091,1.662-0.334,3.27-0.733,4.823
		c-0.355,1.332-0.733,2.652-1.129,3.961c-0.4,1.307-0.909,2.604-1.53,3.888c-0.624,1.199-1.266,2.376-1.928,3.529
		c-0.667,1.152-1.333,2.304-1.998,3.459c-0.709,1.151-1.552,2.173-2.527,3.058c-0.978,0.89-1.995,1.708-3.061,2.462
		c-0.091,0.091-0.165,0.146-0.234,0.167c-0.062,0.02-0.14,0.078-0.23,0.165c-1.422,1.241-2.973,2.03-4.656,2.362
		c-1.687,0.333-3.416,0.498-5.19,0.498c-0.755,0-1.51-0.077-2.262-0.231c-0.754-0.156-1.509-0.298-2.264-0.436
		c-3.771-0.749-6.888-2.259-9.348-4.521c-2.461-2.261-4.424-5.077-5.887-8.448c-1.33-2.973-2.195-6.011-2.596-9.115
		c-0.398-3.104-0.44-6.252-0.132-9.447c0.223-2.394,0.577-4.743,1.066-7.053c0.486-2.304,1.127-4.59,1.926-6.851
		c1.153-3.369,2.64-6.509,4.457-9.414c1.819-2.901,4.103-5.53,6.854-7.884c3.637-3.101,7.872-4.766,12.705-4.989
		c2.263-0.132,4.29,0.258,6.088,1.165c1.796,0.911,3.402,2.229,4.825,3.96c1.595,1.996,2.825,4.134,3.688,6.42
		c0.868,2.282,1.586,4.623,2.161,7.02c0.355,1.46,0.635,2.924,0.833,4.389c0.2,1.464,0.409,2.951,0.633,4.457
		c0.221,1.285,0.41,2.553,0.567,3.793C537.309,197.476,537.343,198.519,537.253,199.362z M505.653,205.944
		c0.044,1.597,0.334,3.449,0.863,5.555c0.533,2.11,1.466,4.181,2.796,6.22c1.421,2.129,3.137,3.705,5.155,4.726
		c2.018,1.021,4.334,1.423,6.952,1.198c0.621-0.091,1.22-0.243,1.795-0.468c0.58-0.221,1.154-0.463,1.733-0.732
		c1.153-0.578,2.048-1.371,2.694-2.397c0.642-1.018,1.252-2.082,1.827-3.191c0.889-1.817,1.507-3.681,1.865-5.591
		c0.353-1.904,0.621-3.834,0.798-5.785c0.175-1.686,0.267-3.351,0.267-4.989c0-1.644-0.179-3.284-0.533-4.922
		c-0.221-1.153-0.421-2.305-0.596-3.46c-0.179-1.151-0.399-2.307-0.665-3.457c-0.357-1.641-0.79-3.263-1.298-4.857
		c-0.51-1.597-1.208-3.104-2.097-4.526c-0.796-1.328-1.707-2.524-2.727-3.592c-1.021-1.064-2.285-1.906-3.793-2.528
		c-1.286-0.488-2.353-0.608-3.194-0.366c-0.845,0.246-1.686,0.921-2.527,2.032c-2.352,3.058-4.235,6.453-5.656,10.176
		c-1.15,3.148-2.028,6.397-2.628,9.747C506.086,198.088,505.74,201.822,505.653,205.944z"/>
	<path fill="#231F20" d="M576.837,174.612c0.267,1.817,0.477,3.617,0.631,5.391c0.156,1.771,0.209,3.592,0.168,5.453
		c0,0.397-0.024,0.8-0.067,1.198c-0.042,0.399-0.11,0.776-0.197,1.129l-0.4,3.795c-0.488,0.221-0.878,0.301-1.164,0.231
		c-0.29-0.066-0.587-0.322-0.897-0.768c-1.242-1.55-1.954-3.233-2.129-5.055c-0.178-1.285-0.299-2.596-0.366-3.925
		c-0.065-1.332-0.188-2.64-0.364-3.924c-0.132-0.931-0.323-1.873-0.566-2.828c-0.244-0.953-0.478-1.895-0.698-2.825
		c-0.091-0.311-0.211-0.608-0.366-0.897c-0.155-0.29-0.322-0.61-0.498-0.966c-0.445,0.354-0.878,0.674-1.3,0.966
		c-0.42,0.291-0.809,0.607-1.162,0.964c-1.553,1.507-3.017,3.094-4.392,4.755c-1.375,1.664-2.64,3.427-3.793,5.291
		c-1.063,1.73-1.986,3.524-2.76,5.388c-0.775,1.863-1.408,3.793-1.895,5.787c-0.088,0.223-0.134,0.477-0.134,0.766
		c0,0.287,0,0.563,0,0.83c0.134,1.154,0.277,2.299,0.433,3.427c0.156,1.131,0.345,2.275,0.566,3.427
		c0.308,1.423,0.542,2.863,0.699,4.326c0.154,1.463,0.344,2.926,0.563,4.392c0.093,0.442,0.168,0.862,0.232,1.265
		c0.067,0.397,0.145,0.796,0.234,1.196c0.091,0.933,0.19,1.862,0.3,2.797c0.111,0.931,0.21,1.838,0.299,2.726
		c0.132,0.89,0.267,1.796,0.398,2.729c0.134,0.931,0.268,1.84,0.401,2.729c0.09,0.397,0.177,0.8,0.267,1.198
		c0.09,0.4,0.178,0.798,0.267,1.198c0.088,0.308,0.11,0.619,0.064,0.931c-0.043,0.312-0.088,0.619-0.13,0.931
		c-0.043,0.579-0.123,1.143-0.231,1.694c-0.114,0.558-0.346,1.056-0.701,1.499l-0.4,0.4c-0.353,0.311-0.819,0.467-1.395,0.467
		c-0.445,0.221-1.043,0.422-1.798,0.595c-0.755,0.178-1.519,0.27-2.296,0.27c-0.776,0-1.485-0.124-2.127-0.367
		c-0.645-0.242-1.076-0.673-1.298-1.295c-0.578-1.818-1.142-4.127-1.694-6.919c-0.556-2.794-1.099-5.864-1.631-9.215
		c-0.53-3.35-1.043-6.851-1.53-10.511c-0.488-3.657-0.943-7.273-1.363-10.844c-0.422-3.57-0.799-6.976-1.13-10.214
		c-0.332-3.236-0.621-6.099-0.865-8.581c-0.245-2.486-0.423-4.481-0.532-5.988c-0.111-1.505-0.166-2.306-0.166-2.395
		c0.041-0.131,0.244-0.285,0.598-0.465c0.354-0.177,0.765-0.334,1.231-0.465c0.465-0.134,0.94-0.256,1.43-0.366
		c0.488-0.113,0.862-0.21,1.129-0.3c0.044-0.043,0.133-0.065,0.269-0.065c0.042,0,0.066-0.022,0.066-0.067v0.067
		c0.265-0.089,0.519-0.132,0.764-0.132c0.244,0,0.477,0,0.699,0c0.487,0,0.818,0.154,0.997,0.466
		c0.179,0.307,0.399,0.663,0.664,1.064c0.888,1.418,1.619,2.936,2.196,4.555c0.576,1.623,1.089,3.274,1.528,4.957
		c0.312,1.153,0.568,2.307,0.766,3.459c0.199,1.154,0.411,2.307,0.636,3.46c0,0.089,0.009,0.169,0.032,0.234
		c0.022,0.066,0.055,0.208,0.101,0.433c0.179-0.355,0.335-0.667,0.465-0.931c0.132-0.27,0.245-0.509,0.335-0.735
		c0.842-2.038,1.969-4.012,3.392-5.92c1.153-1.506,2.329-2.993,3.525-4.454c1.197-1.464,2.549-2.797,4.058-3.993
		c0.311-0.265,0.633-0.52,0.966-0.766c0.333-0.24,0.675-0.52,1.031-0.831c0.799-0.619,1.653-1.007,2.562-1.164
		c0.909-0.154,1.853-0.188,2.826-0.1c0.4,0.045,0.732,0.199,0.998,0.465c0.268,0.269,0.509,0.554,0.732,0.865
		c0.977,1.198,1.653,2.486,2.03,3.858C576.315,171.729,576.614,173.147,576.837,174.612z"/>
	<path fill="#231F20" d="M627.62,147.825c-0.666,1.153-1.342,2.271-2.03,3.359c-0.688,1.086-1.298,2.229-1.828,3.426
		c-1.066,2.395-2.109,4.803-3.129,7.22c-1.021,2.418-2.042,4.845-3.059,7.286c-0.489,1.152-0.91,2.305-1.265,3.458
		c-0.355,1.153-0.756,2.307-1.197,3.459c-0.4,1.022-0.799,2.007-1.196,2.959c-0.4,0.956-0.821,1.92-1.267,2.896
		c-0.488,1.109-1.142,2.007-1.962,2.695c-0.822,0.688-1.784,1.253-2.896,1.694c-0.575,0.225-1.107,0.21-1.594-0.032
		c-0.489-0.242-0.976-0.456-1.464-0.63c-1.732-0.58-3.082-1.774-4.06-3.594c-0.842-1.599-1.504-3.238-1.993-4.924
		c-0.49-1.688-0.955-3.393-1.398-5.124c-0.62-2.395-1.041-4.779-1.264-7.151c-0.222-2.375-0.444-4.78-0.665-7.219
		c-0.268-2.307-0.443-4.613-0.531-6.919c-0.091-2.304-0.133-4.611-0.133-6.917c0.042-1.109,0.101-2.204,0.167-3.292
		c0.065-1.085,0.143-2.164,0.232-3.226c0.043-0.578,0.177-1.175,0.399-1.798c0.268-0.842,0.742-1.387,1.431-1.629
		c0.686-0.246,1.408-0.124,2.161,0.364c0.888,0.49,1.619,1.265,2.195,2.331c0.933,1.863,1.553,3.746,1.863,5.655
		c0.312,1.905,0.555,3.858,0.733,5.853c0.132,1.951,0.299,3.892,0.499,5.822c0.2,1.928,0.366,3.869,0.501,5.821
		c0.222,2.306,0.533,4.569,0.932,6.787c0.4,2.217,0.842,4.454,1.33,6.718c0.089,0.487,0.221,0.999,0.4,1.529
		c0.175,0.535,0.377,1.111,0.598,1.73c0.134-0.266,0.244-0.477,0.332-0.63c0.09-0.156,0.176-0.323,0.27-0.5
		c0.75-2.085,1.474-4.159,2.162-6.218c0.687-2.064,1.45-4.136,2.294-6.219c1.419-3.504,2.914-6.963,4.489-10.379
		c1.576-3.419,3.494-6.678,5.755-9.78c0.311-0.441,0.643-0.875,0.997-1.296c0.354-0.425,0.708-0.83,1.065-1.232
		c0.487-0.619,1.062-1.138,1.73-1.562c0.664-0.423,1.374-0.766,2.129-1.032c0.662-0.269,1.351-0.598,2.059-0.999
		c0.711-0.441,1.41-0.588,2.098-0.432c0.687,0.156,1.206,0.612,1.564,1.362c0.354,0.888,0.662,1.764,0.93,2.629
		c0.267,0.864,0.51,1.74,0.731,2.629c0.845,3.769,1.431,7.54,1.765,11.312c0.332,3.767,0.608,7.56,0.83,11.375
		c0.269,4.703,0.434,9.38,0.5,14.038c0.067,4.656-0.011,9.336-0.231,14.035c-0.133,2.663-0.365,5.291-0.699,7.884
		c-0.334,2.597-0.74,5.199-1.231,7.817c-0.312,1.596-0.721,3.147-1.231,4.656c-0.508,1.51-1.072,3.016-1.695,4.525
		c-0.841,1.949-1.828,3.779-2.96,5.487c-1.13,1.709-2.474,3.316-4.026,4.824c-4.39,4.127-9.536,6.762-15.433,7.916
		c-3.105,0.578-6.022,0.477-8.749-0.296c-2.729-0.777-5.334-2.097-7.817-3.958c-2.705-2.044-4.913-4.404-6.62-7.087
		c-1.708-2.684-3.048-5.62-4.022-8.814c-0.488-1.554-0.723-3.104-0.7-4.656c0.023-1.555,0.232-3.104,0.631-4.658
		c0.179-0.709,0.489-1.376,0.933-1.994c0.443-0.623,0.842-1.246,1.198-1.865c0.487-0.844,1.088-1.539,1.796-2.097
		c0.71-0.554,1.422-1.141,2.129-1.763c0.268-0.222,0.53-0.44,0.801-0.663c0.267-0.223,0.552-0.443,0.863-0.666
		c0.223-0.089,0.479-0.176,0.766-0.265c0.288-0.09,0.501-0.09,0.633,0c0.222,0.131,0.387,0.345,0.501,0.63
		c0.108,0.29,0.208,0.568,0.299,0.832c0.042,0.27,0.034,0.533-0.036,0.798c-0.065,0.268-0.143,0.534-0.232,0.8
		c-0.798,3.458-0.742,6.686,0.167,9.682c0.908,2.994,2.495,5.799,4.757,8.416c2.038,2.396,4.59,3.857,7.651,4.391
		c2.038,0.353,3.924,0.206,5.653-0.434c1.732-0.646,3.351-1.629,4.856-2.963c1.463-1.329,2.629-2.824,3.494-4.485
		c0.865-1.666,1.564-3.429,2.094-5.293c0.933-3.194,1.597-6.453,1.995-9.78c0.31-2.926,0.569-5.862,0.766-8.812
		c0.2-2.951,0.389-5.91,0.568-8.881c0.131-2.175,0.198-4.349,0.198-6.523c0-2.17,0.044-4.346,0.132-6.52
		c0.089-2.705,0.199-5.396,0.333-8.082c0.133-2.683,0.268-5.374,0.398-8.083c0.043-0.93,0.078-1.863,0.103-2.792
		c0.022-0.931,0.054-1.841,0.099-2.729C627.773,147.934,627.663,147.865,627.62,147.825z"/>
</g>
<g>
	<g>
		<path fill="#231F20" d="M193.962,12.553c11.278,13.34,26.62,22.872,36.2,37.667c0.556-2.113,1.11-4.226,1.664-6.34
			c-12.571,5.901-23.983,12.446-33.668,22.541c-4.136,4.311,2.408,10.875,6.553,6.554c9.164-9.55,19.932-15.525,31.791-21.094
			c2.216-1.041,2.947-4.36,1.664-6.34C228.102,30,212.336,19.982,200.514,5.999C196.653,1.429,190.129,8.02,193.962,12.553
			L193.962,12.553z"/>
	</g>
</g>
<g>
	<g>
		<path fill="#231F20" d="M193.043,14.354c60.496,0.148,120.718,5.711,181.26,4.747c30.19-0.481,60.367-1.572,90.548-2.473
			c14.491-0.432,28.987-0.807,43.485-1.081c13.707-0.26,27.76,0.635,41.4-0.725c4.595-0.458,9.165-1.051,13.778-1.338
			c5.555-0.347,7.448-0.104,9.19,5.579c3.258,10.619,3.855,22.399,6.673,33.24c2.785,10.718,8.289,21.481,9.501,32.521
			c0.687,6.281-21.718,7.81-25.504,8.464c-57.794,9.992-116.331,13.679-174.895,10.263C324.371,99.811,260.65,87.265,200.15,65.674
			c-5.643-2.013-8.05,6.944-2.463,8.939c107.118,38.222,223.196,47.58,335.617,32.58c13.171-1.758,26.296-3.853,39.383-6.164
			c7.373-1.304,17.012-2.348,22.729-7.816c3.886-3.717,2.769-9.795,1.727-14.404c-2.946-13.028-8.147-25.526-11.201-38.584
			c-2.118-9.061-2.179-18.968-5.717-27.614c-3.092-7.558-9.287-8.616-16.71-8.397c-9.978,0.292-19.721,1.69-29.752,1.743
			c-15.73,0.083-31.458,0.407-47.182,0.799c-48.331,1.199-96.641,3.31-144.995,3.362c-49.565,0.053-98.979-4.915-148.542-5.037
			C187.066,5.071,187.067,14.34,193.043,14.354L193.043,14.354z"/>
	</g>
</g>
<g>
	<g>
		<path fill="#231F20" d="M686.566,202.789c-8.003,2.433-14.496,7.409-21.179,12.279c-9.736,7.093-20.483,10.714-31.876,14.314
			c-24.276,7.671-48.072,13.342-73.446,15.95c-52.322,5.384-104.081,6.218-156.522,1.919
			c-50.926-4.174-101.506-11.73-152.303-17.144c-47.993-5.114-96.809-10.396-141.924-28.617c0.923,2.271,1.847,4.54,2.77,6.809
			c11.388-21.472,18.049-44.862,28.25-66.843c4.516-9.732,19.006-44.059,34.198-37.29c4.284,1.907,8.042,5.431,11.856,8.106
			c4.146,2.909,9.249,4.392,13.879,6.326c12.574,5.251,25.279,7.976,38.695,10.069c28.184,4.399,56.278,7.866,84.775,9.563
			c57.34,3.418,114.849,0.087,172.212-0.842c56.554-0.914,114.305,6.108,170.294-4.118c5.873-1.074,3.377-10.005-2.465-8.939
			c-29.666,5.42-59.773,5.361-89.813,4.595c-29.619-0.75-59.155-1.185-88.786-0.617c-59.729,1.144-119.523,4.199-179.176-0.582
			c-29.027-2.329-58.801-5.317-87.13-12.308c-11.948-2.947-23.848-8.19-33.74-15.43c-6.577-4.814-12.974-7.41-20.923-4.442
			c-15.405,5.75-24.403,25.645-30.982,39.325c-10.809,22.475-17.437,46.664-29.148,68.75c-1.522,2.867-0.052,5.668,2.769,6.809
			c43.857,17.71,91.305,23.228,137.982,28.26c52.924,5.703,105.658,13.317,158.708,17.829c52.475,4.462,104.162,3.182,156.523-1.919
			c23.867-2.325,46.395-7.357,69.317-14.26c10.615-3.2,21.597-6.268,31.521-11.292c9.858-4.99,17.369-14.053,28.13-17.324
			C694.732,209.994,692.304,201.048,686.566,202.789L686.566,202.789z"/>
	</g>
</g>
<g>
	<g>
		<path fill="#231F20" d="M175.331,104.595c23.354,0.299,46.201,5.821,69.483,7.107c23.148,1.277,46.409-1.362,69.483-2.842
			c5.932-0.379,5.971-9.65,0-9.269c-23.147,1.485-46.263,3.746-69.483,2.842c-23.315-0.906-46.107-6.809-69.483-7.107
			C169.352,95.25,169.358,104.52,175.331,104.595L175.331,104.595z"/>
	</g>
</g>
<g>
	<g>
		<path fill="#231F20" d="M589.157,86.403c-11.286-0.204-20.619,5.544-30.034,11.113c-12.699,7.513-26.684,10.822-41.113,13.212
			c-14.548,2.409-29.14,3.651-43.611,6.638c-16.247,3.353-32.279,7.648-48.558,10.869c-5.86,1.16-3.372,10.093,2.465,8.938
			c13.979-2.766,27.8-6.217,41.694-9.374c14.588-3.314,29.229-5.053,44.003-7.156c13.513-1.923,27.517-4.247,40.022-9.982
			c11.37-5.213,22.042-15.229,35.132-14.992C595.137,95.781,595.128,86.512,589.157,86.403L589.157,86.403z"/>
	</g>
</g>
<g>
	<g>
		<path fill="#231F20" d="M660.479,128.541c8.474,24.744,28.831,48.95,24.554,76.423c-0.908,5.843,8.021,8.356,8.938,2.465
			c4.703-30.221-15.265-54.226-24.553-81.354C667.49,120.455,658.538,122.868,660.479,128.541L660.479,128.541z"/>
	</g>
</g>
<g>
	<g>
		<path fill="#231F20" d="M684.017,206.018c-14.94,8.385-28.425,19.019-43.126,27.784c-16.206,9.663-34.566,16.281-51.53,24.556
			c-18.011,8.784-35.733,18.2-54.332,25.706c-17.521,7.07-35.663,12.524-53.942,17.255c-35.284,9.128-71.375,14.769-107.18,21.395
			c-35.298,6.533-70.833,15.719-107.012,13.79c-5.978-0.32-5.945,8.951,0,9.268c34.897,1.859,69.528-6.394,103.554-12.996
			c37.753-7.322,75.782-13.094,113.102-22.521c36.874-9.312,70.386-24.175,104.374-40.894c17.206-8.466,34.999-15.829,52.095-24.479
			c17.154-8.685,31.923-21.458,48.675-30.864C693.905,211.093,689.232,203.084,684.017,206.018L684.017,206.018z"/>
	</g>
</g>
<g>
	<g>
		<path fill="#231F20" d="M368.615,244.979c-18.304-0.067-34.48,7.334-51.139,14.016c-20.714,8.302-41.904,10.417-64.01,8.064
			c-5.941-0.632-5.879,8.641,0,9.27c19.698,2.096,38.987,0.846,57.896-5.234c19.188-6.167,36.505-16.921,57.253-16.845
			C374.593,254.269,374.59,245.001,368.615,244.979L368.615,244.979z"/>
	</g>
</g>
<g>
	<g>
		<path fill="#231F20" d="M254.306,277.77c21.183,2.459,38.855,16.902,59.192,22.497c-0.924-2.272-1.845-4.54-2.768-6.808
			c-12.214,18.776-32.759,32.124-52.886,41.136c-5.447,2.434-0.73,10.421,4.675,8.001c21.606-9.673,43.134-24.354,56.212-44.461
			c1.647-2.529,0.016-6.043-2.768-6.809c-21.324-5.862-39.327-20.234-61.658-22.824C248.376,267.813,248.443,277.089,254.306,277.77
			L254.306,277.77z"/>
	</g>
</g>
<path fill="#231F20" d="M344.754,271.238c-0.084,0.626-0.145,1.035-0.175,1.223c-0.112,0.493-0.251,0.893-0.42,1.196
	c-0.023,0.115-0.183,1.55-0.478,4.3c-0.247,2.172-0.562,4.153-0.948,5.95l-0.542,2.51c-0.152,0.03-0.309,0.148-0.473,0.357
	c-0.165,0.214-0.347,0.315-0.55,0.307c-0.482-0.291-1.26-1.164-2.338-2.608c-0.186-0.396-0.43-0.881-0.741-1.452
	c-0.591-1.132-1.11-2.47-1.552-4.008c-0.278-1.007-0.515-1.8-0.713-2.37c-0.114,0.089-0.205,0.273-0.266,0.556
	c-0.072,0.351-0.131,0.568-0.185,0.645c-0.255,1.535-0.698,3.612-1.332,6.234c-0.291,1.206-0.529,2.107-0.709,2.705
	c-0.294,1.067-0.605,1.94-0.929,2.608c-0.06,0.035-0.221,0.128-0.483,0.292c-0.181,0.122-0.336,0.194-0.464,0.221
	c-0.087,0.016-0.188,0.023-0.299,0.021c-1.103-1.216-1.75-2.346-1.946-3.392c-0.04-0.217-0.078-0.423-0.116-0.621
	c-0.214-0.501-0.606-2.142-1.186-4.923c-0.426-2.042-0.956-3.609-1.587-4.711c-0.05-0.035-0.092-0.129-0.118-0.281
	c-0.025-0.131-0.043-0.297-0.056-0.498c0.128-0.045,0.314-0.172,0.56-0.374c0.24-0.203,0.475-0.248,0.709-0.13
	c0.135,0.107,0.273,0.383,0.416,0.815c0.14,0.437,0.275,0.712,0.413,0.819c0.138,0.109,0.225,0.264,0.262,0.46
	c0.017,0.09,0.018,0.219,0.005,0.389c-0.015,0.171-0.015,0.3,0.004,0.387c0.032,0.176,0.104,0.31,0.209,0.401
	c0.02,0.338,0.093,0.735,0.226,1.21c0.193,0.665,0.298,1.061,0.323,1.193c0.047,0.263,0.095,0.501,0.132,0.723
	c0.12,0.405,0.217,0.926,0.294,1.567c0.07,0.869,0.138,1.408,0.199,1.621c0.075,0.165,0.302,0.779,0.679,1.837
	c0.274,0.76,0.566,1.337,0.865,1.731c1.012-2.916,1.946-5.965,2.796-9.151c0.064-0.503,0.225-1.244,0.483-2.219
	c0.258-0.97,0.423-1.701,0.488-2.188c0.207-0.106,0.409-0.181,0.605-0.217c0.544-0.102,0.893,0.103,1.043,0.604
	c0.148,0.502,0.374,1.267,0.677,2.29c0.287,0.938,0.483,1.74,0.581,2.397c0.031,0.038,0.451,0.964,1.263,2.774
	c0.503,1.127,1.055,1.981,1.662,2.571c0.057-0.172,0.351-1.68,0.883-4.53c0.875-4.63,1.891-8.812,3.046-12.546
	c0.105-0.038,0.278-0.072,0.523-0.098l0.423-0.081c-0.197,0.879-0.341,1.481-0.438,1.816
	C345.3,270.243,345.053,270.801,344.754,271.238z"/>
<path fill="#231F20" d="M347.961,283.538l2.393-4.564c0.956-1.775,1.982-3.144,3.085-4.117c0.273-0.233,0.664-0.305,1.178-0.22
	c0.222,0.114,0.409,0.318,0.552,0.606c0.156,0.354,0.274,0.57,0.354,0.646c-0.07,0.35-0.087,0.807-0.048,1.362
	c0.039,0.715,0.057,1.173,0.051,1.377c-0.113,2.188-0.174,3.427-0.188,3.725c-0.034,1.404,0.005,2.636,0.115,3.698
	c-0.767-0.351-1.213-0.889-1.349-1.608c-0.049-0.264-0.081-0.605-0.091-1.035c-0.013-0.539-0.022-0.888-0.027-1.042
	c-0.042-0.466,0.017-1.503,0.167-3.111c0.122-1.284,0.081-2.302-0.129-3.054c-0.165-0.037-0.462,0.234-0.897,0.81
	c-0.76,0.999-1.527,2.281-2.294,3.845l-1.986,4.057c-0.166,0.191-0.34,0.482-0.513,0.876c-0.207,0.466-0.363,0.778-0.469,0.934
	c-0.299,0.212-0.542,0.302-0.729,0.27c-0.268-0.334-0.435-0.708-0.513-1.12c-0.069-0.37-0.057-0.913,0.036-1.633
	c0.094-0.716,0.117-1.242,0.081-1.572c0.35-2.477,0.865-6.264,1.541-11.35c-0.097-0.275-0.038-0.58,0.17-0.911
	c-0.066-0.235-0.039-0.473,0.09-0.71c0.122-0.239,0.305-0.38,0.545-0.425c0.218-0.041,0.449,0.052,0.693,0.276
	c0.194,0.686,0.184,1.397-0.039,2.138c-0.34,1.174-0.519,2.14-0.531,2.911c-0.087,0.019-0.108,0.087-0.06,0.213
	c-0.269,1.515-0.508,3.047-0.728,4.596C348.341,280.164,348.188,281.539,347.961,283.538z"/>
<path fill="#231F20" d="M364.522,283.147c-0.221,0.153-0.575,0.434-1.061,0.839c-0.281,0.077-0.772-0.014-1.472-0.268
	c-0.055-0.17-0.196-0.449-0.426-0.832c-0.228-0.388-0.365-0.703-0.412-0.942c-0.138,0.232-0.225,0.427-0.261,0.589
	c-0.621,1.154-0.984,1.808-1.09,1.964c-0.533,0.662-1.165,1.007-1.908,1.032c-0.673-0.348-1.091-0.968-1.257-1.862
	c-0.289-1.547-0.356-2.754-0.2-3.616c0.373-2.235,1.544-4.358,3.518-6.375l0.521-0.097c0.504-0.094,0.808,0.154,0.917,0.743
	c0.038,0.196,0.043,0.599,0.023,1.215c-0.056,0.304-0.226,0.719-0.513,1.245c-0.038,0.166-0.271,0.365-0.699,0.604
	c0.004-0.588,0.096-1.055,0.278-1.408c0.012-0.069,0.034-0.254,0.066-0.552c0.017-0.046,0.012-0.115-0.005-0.202
	c-0.01-0.064-0.036-0.142-0.074-0.225c0.093-0.107,0.132-0.193,0.121-0.26c-0.135,0.003-0.329,0.231-0.582,0.684
	c-0.057,0.059-0.149,0.178-0.272,0.354c-1.764,2.991-2.476,5.536-2.132,7.637c0.207,0.619,0.466,0.93,0.783,0.938
	c0.708-0.334,1.245-1.021,1.615-2.059c0.509-0.657,0.873-1.739,1.088-3.247c0.138-0.589,0.328-2.056,0.569-4.402
	c0.048-0.212,0.26-0.422,0.63-0.625c0.235,0.185,0.378,0.404,0.425,0.662c0.031,0.156,0.023,0.369-0.017,0.646
	c-0.026,0.348-0.038,0.574-0.039,0.688c-0.426,2.562-0.566,4.232-0.422,5.02c0.192,1.023,0.527,1.682,1.012,1.976
	c0.082-0.039,0.33-0.229,0.739-0.578c0.349-0.291,0.57-0.445,0.655-0.461c0.042,0.105,0.074,0.209,0.096,0.322
	C364.813,282.708,364.74,282.993,364.522,283.147z"/>
<path fill="#231F20" d="M368.157,272.502c0.47-0.02,0.938-0.051,1.405-0.093c0.543,0.01,1.005,0.136,1.389,0.379l0.148,0.608
	c-0.348,0.089-0.966,0.203-1.865,0.348c-0.553,0.059-1.013,0.189-1.381,0.395c-0.911,2.986-1.163,5.391-0.757,7.212
	c0.048,0.262,0.133,0.5,0.252,0.714c0.12,0.215,0.364,0.288,0.735,0.219c0.217-0.037,0.473-0.132,0.763-0.276
	c0.235-0.066,0.585-0.312,1.06-0.737c0.476-0.425,0.951-0.696,1.428-0.806c-0.177,1.249-1.03,2.23-2.565,2.943
	c-0.191,0.083-0.358,0.134-0.511,0.164c-0.588,0.11-1.081,0.01-1.477-0.298c-0.511-0.562-0.859-1.274-1.042-2.142
	c-0.268-1.193-0.226-2.674,0.118-4.455c0.145-0.432,0.281-1.103,0.405-2.005c-0.758,0.166-1.347,0.649-1.761,1.445
	c-0.39,0.097-0.757-0.197-1.112-0.875c0-0.248,0.214-0.561,0.639-0.932c0.275-0.346,0.675-0.625,1.199-0.833
	c0.469-0.153,0.934-0.322,1.395-0.497c0.653-2.198,1.009-4.223,1.069-6.087c0.111-0.246,0.254-0.385,0.426-0.42
	c0.281-0.072,0.591,0.083,0.933,0.464c0.214,1.506-0.054,3.331-0.805,5.485C368.203,272.447,368.173,272.477,368.157,272.502z"/>
<path fill="#231F20" d="M384.782,283.302c-0.595,1.895-1.228,3.589-1.893,5.09c-0.251,0.359-0.66,0.946-1.231,1.751
	c-0.256,0.34-0.426,0.535-0.516,0.586c-0.092,0.051-0.417,0.163-0.971,0.33c0.93-1.297,1.744-3.107,2.442-5.425
	c0.613-2.033,0.988-3.897,1.124-5.591c-0.047-0.126-0.106-0.264-0.177-0.408c-0.132-0.221-0.322-0.391-0.57-0.501
	c-0.977-0.405-1.925-1.683-2.842-3.836c-0.184-0.731-0.594-2.032-1.235-3.898c0.013,0.065-0.037-0.139-0.148-0.615
	c-0.027-0.152,0.011-0.239,0.121-0.263c0.235-0.062,0.499,0.04,0.786,0.315c0.289,0.275,0.468,0.535,0.538,0.795
	c0.395,1.279,0.86,2.56,1.39,3.836c0.696,1.672,1.599,2.658,2.712,2.945c0.368-1.422,0.796-4.095,1.283-8.021
	c0.413-0.324,0.649-0.501,0.712-0.539c0.132-0.027,0.262,0.02,0.396,0.129l0.42,0.261c0.002,0.609-0.138,1.433-0.416,2.479
	c-0.262,0.907-0.625,2.83-1.094,5.771C385.145,281.433,384.868,283.034,384.782,283.302z"/>
<path fill="#231F20" d="M394.883,274.486c-0.158,0.119-0.269,0.32-0.329,0.601c-0.083,0.401-0.143,0.626-0.181,0.677
	c-0.196,0.396-0.583,0.976-1.164,1.738c-0.481,1.062-1.342,1.774-2.58,2.141c-0.348,0.086-0.699,0.13-1.059,0.13
	c-0.929-0.259-1.623-0.965-2.086-2.118c-0.065-0.711-0.02-1.495,0.136-2.36c0.106-0.515,0.259-1.277,0.454-2.282
	c0.138-0.229,0.302-0.618,0.492-1.175c0.204-0.489,0.44-0.848,0.714-1.08c0.193-0.53,0.582-0.921,1.17-1.165
	c0.225,0.004,0.545-0.281,0.958-0.855c-0.04-0.079-0.008-0.225,0.092-0.423c0.232-0.065,0.451-0.116,0.648-0.153
	c0.327-0.061,0.593-0.077,0.803-0.046c1.01,0.464,1.655,1.437,1.93,2.922c0.07,0.368,0.114,0.764,0.135,1.173
	C395.038,272.626,394.993,273.382,394.883,274.486z M393.456,269.915c-0.153-0.468-0.43-0.755-0.834-0.862l-1.343,0.792l0.4,0.331
	c0.066,0.238,0.153,0.581,0.263,1.034c0.073,0.395,0.01,0.735-0.188,1.02c-0.096,0.086-0.194,0.146-0.298,0.189
	c-0.301,0.083-0.566-0.243-0.792-0.966c-0.179,0.122-0.387,0.397-0.622,0.824c-0.292,0.506-0.503,0.826-0.634,0.964
	c-0.368,1.423-0.552,2.246-0.556,2.471c-0.091,0.606-0.087,1.169,0.01,1.692c0.049,0.262,0.116,0.519,0.21,0.771
	c0.192,0.19,0.544,0.26,1.053,0.21c2.354-1.183,3.628-3.473,3.831-6.872C393.777,270.915,393.611,270.381,393.456,269.915z"/>
<path fill="#231F20" d="M405.116,274.208c-0.238,0.291-0.516,0.672-0.836,1.135c-0.506,0.433-0.956,0.688-1.349,0.761
	c-0.589,0.11-1.062-0.198-1.424-0.92c-0.056-0.056-0.126-0.193-0.209-0.4c-0.152-0.332-0.271-0.492-0.359-0.474
	c-0.022,0.004-0.538,0.809-1.547,2.416c-0.672,0.871-1.625,1.508-2.858,1.92c-0.736-0.582-1.196-1.346-1.369-2.28
	c-0.078-0.417-0.116-0.97-0.11-1.673c-0.016-0.81-0.039-1.366-0.075-1.676c0.023-1.697,0.337-3.403,0.943-5.119
	c0.231-0.087,0.507-0.058,0.828,0.086c0.097,0.161,0.158,0.311,0.183,0.438c0.034,0.177-0.012,0.429-0.126,0.771
	c-0.145,0.43-0.221,0.692-0.226,0.782c-0.157,1.09-0.309,2.588-0.451,4.482c0.056,0.557,0.123,1.029,0.196,1.421
	c0.116,0.633,0.255,1.068,0.412,1.31c0.551-0.192,0.968-0.427,1.257-0.706c0.016-0.025,0.323-0.377,0.919-1.051
	c0.095-0.333,0.503-1.187,1.216-2.563c0.53-1.021,0.785-1.904,0.76-2.645c0.325-1.523,0.679-2.766,1.067-3.721
	c0.326-0.304,0.588-0.285,0.789,0.059c0.102,0.188,0.169,0.364,0.199,0.539c0.062,0.326,0.021,0.764-0.125,1.309
	c-0.157,0.618-0.235,1.049-0.235,1.295c-0.463,0.898-0.62,2.114-0.473,3.641c0.041,0.106,0.129,0.396,0.263,0.868
	c0.114,0.361,0.271,0.554,0.481,0.584c0.294-0.122,0.545-0.28,0.757-0.48c0.323-0.332,0.523-0.524,0.601-0.586
	c0.212-0.308,0.532-0.728,0.951-1.259l0.441,0.191C405.595,273.318,405.43,273.831,405.116,274.208z"/>
<path fill="#231F20" d="M394.461,301.869c-0.109,0.156-0.318,0.421-0.633,0.795c-0.699,0.852-1.591,1.377-2.681,1.584
	c-0.567,0.105-1.134,0.087-1.703-0.059c-0.952-0.383-1.573-1.361-1.866-2.932c0.067-3.643,0.939-6.165,2.62-7.561
	c0.765-0.008,1.305,0.286,1.62,0.881c0.067,0.126,0.07,0.26,0.008,0.408c-0.064,0.146-0.17,0.235-0.325,0.265
	c-0.065,0.012-0.153-0.012-0.267-0.068c-0.113-0.059-0.211-0.078-0.299-0.062c-0.044,0.008-0.095,0.028-0.157,0.063
	c-0.07,0.103-0.296,0.404-0.677,0.902c-0.271,0.367-0.426,0.702-0.458,1.001c-0.182,0.347-0.352,0.956-0.507,1.817
	c-0.226,0.47-0.314,1.027-0.262,1.673l0.309,1.669c0.354,0.699,0.882,0.982,1.582,0.854c0.568-0.106,1.686-0.811,3.36-2.113
	l0.027-0.04c0.106-0.156,0.309-0.215,0.608-0.181C394.839,301.177,394.739,301.55,394.461,301.869z"/>
<path fill="#231F20" d="M401.751,301.596c-0.22,0.154-0.575,0.433-1.062,0.84c-0.281,0.074-0.769-0.013-1.472-0.266
	c-0.055-0.172-0.195-0.45-0.424-0.837c-0.23-0.383-0.368-0.699-0.414-0.938c-0.138,0.229-0.225,0.423-0.261,0.588
	c-0.621,1.153-0.982,1.809-1.091,1.964c-0.53,0.661-1.167,1.007-1.904,1.033c-0.674-0.349-1.094-0.971-1.26-1.865
	c-0.289-1.546-0.354-2.752-0.199-3.616c0.373-2.234,1.546-4.359,3.516-6.373l0.522-0.101c0.501-0.092,0.809,0.156,0.916,0.741
	c0.038,0.197,0.043,0.604,0.023,1.217c-0.056,0.304-0.226,0.717-0.512,1.246c-0.039,0.166-0.271,0.364-0.699,0.604
	c0.004-0.584,0.096-1.054,0.28-1.406c0.009-0.07,0.029-0.255,0.064-0.554c0.012-0.046,0.012-0.114-0.004-0.201
	c-0.013-0.065-0.038-0.141-0.077-0.225c0.096-0.106,0.134-0.191,0.122-0.259c-0.136,0.003-0.33,0.229-0.583,0.685
	c-0.056,0.056-0.148,0.174-0.271,0.354c-1.765,2.99-2.477,5.533-2.133,7.635c0.207,0.62,0.468,0.931,0.786,0.938
	c0.705-0.335,1.242-1.018,1.61-2.057c0.511-0.658,0.875-1.742,1.089-3.247c0.139-0.592,0.33-2.06,0.57-4.403
	c0.049-0.214,0.261-0.424,0.627-0.625c0.238,0.183,0.381,0.402,0.428,0.665c0.031,0.151,0.023,0.363-0.016,0.645
	c-0.026,0.344-0.038,0.573-0.041,0.684c-0.425,2.563-0.566,4.236-0.419,5.019c0.192,1.024,0.525,1.684,1.009,1.979
	c0.084-0.038,0.33-0.231,0.739-0.577c0.35-0.294,0.57-0.445,0.656-0.464c0.041,0.106,0.074,0.211,0.095,0.322
	C402.04,301.159,401.971,301.442,401.751,301.596z"/>
<path fill="#231F20" d="M408.728,294.173c-0.02,0.748-0.028,1.483-0.031,2.203c-0.007,0.932,0.036,1.655,0.133,2.177
	c0.182,0.962,0.584,1.75,1.22,2.379c-0.204,0.106-0.396,0.174-0.57,0.204c-0.306,0.056-0.595,0.009-0.87-0.141
	c-0.553-0.642-0.916-1.465-1.104-2.468c-0.115-0.634-0.169-1.444-0.15-2.441l0.035-2.373l-0.046-0.061
	c-0.712,0.787-1.444,2.062-2.197,3.825c-0.807,1.864-1.477,3.164-2.017,3.896c-0.28,0.192-0.542,0.304-0.784,0.347
	c-0.129,0.027-0.264,0.03-0.404,0.014c-0.424-0.217-0.611-0.677-0.562-1.387c0.066-0.983,0.172-2.288,0.322-3.916
	c0.123-1.514,0.15-2.824,0.078-3.938c0.115-0.228,0.281-0.358,0.501-0.4c0.217-0.039,0.441,0.042,0.672,0.25
	c0.229,0.208,0.346,0.422,0.342,0.646l-0.331,6.052c0.044-0.259,0.205-0.601,0.485-1.041c0.822-1.751,1.361-2.855,1.616-3.31
	c0.679-1.187,1.437-2.161,2.267-2.925c0.717-0.134,1.148,0.182,1.291,0.945c0.027,0.152,0.043,0.396,0.051,0.735
	C408.68,293.777,408.699,294.021,408.728,294.173z"/>
<path fill="#231F20" d="M422.459,295.778c-0.413,0.822-0.812,1.644-1.201,2.459c-0.551,0.912-1.208,1.443-1.971,1.584
	c-0.327,0.062-0.678,0.057-1.05-0.008c-0.607-0.358-0.98-0.92-1.123-1.685c-0.097-0.503-0.12-1.072-0.082-1.711
	c-0.036-0.672,0.046-1.982,0.249-3.938c0.035-0.416,0.215-1.035,0.533-1.86l0.567-1.492c0.292-0.732,0.735-1.151,1.322-1.262
	c0.35-0.063,0.889,0.219,1.613,0.849c0.056,0.174,0.162,0.334,0.327,0.481c-0.021-1.071,0.079-2.664,0.295-4.769
	c-0.027-0.151,0.056-0.796,0.252-1.931c0.087-0.263,0.25-0.419,0.488-0.462c0.393-0.072,0.703,0.073,0.929,0.435
	c0.416,1.883,0.529,4.122,0.337,6.723c-0.058,0.661-0.253,1.554-0.585,2.673c-0.195,0.646-0.222,1.351-0.079,2.11
	c0.144,0.782,0.425,1.46,0.852,2.035c0.266,0.222,0.529,0.305,0.792,0.258c0.129-0.026,0.253-0.091,0.366-0.203
	c0.283-0.163,0.562-0.453,0.821-0.863c0.188-0.327,0.382-0.665,0.587-1.021c0.119-0.205,0.387-0.468,0.802-0.794
	c0.08,0.188,0.134,0.357,0.161,0.514c-0.016,0.16-0.094,0.576-0.239,1.26c-0.529,0.798-0.847,1.264-0.958,1.397
	c-0.424,0.507-0.878,0.806-1.355,0.894c-0.219,0.041-0.455,0.038-0.711-0.004C423.643,297.184,422.998,296.627,422.459,295.778z
	 M421.69,291.83c-0.077-0.168-0.101-0.592-0.067-1.276c-0.349-0.046-0.677-0.23-0.985-0.559l-0.21-0.229
	c-0.146-0.178-0.304-0.295-0.475-0.354c-0.517,0.841-0.962,1.972-1.33,3.395l0.029,0.334c-0.204,0.354-0.326,1.165-0.359,2.434
	c0.077,1.251,0.132,1.973,0.167,2.167c0.053,0.286,0.136,0.552,0.25,0.8c0.043,0.107,0.194,0.137,0.456,0.088
	c1.094-0.79,1.99-2.345,2.687-4.662c-0.06-0.193-0.084-0.696-0.079-1.507C421.773,292.347,421.746,292.137,421.69,291.83z"/>
<path fill="#231F20" d="M431.883,292.98c-0.158,0.117-0.269,0.318-0.328,0.602c-0.082,0.397-0.142,0.622-0.18,0.674
	c-0.195,0.399-0.583,0.978-1.163,1.741c-0.481,1.057-1.342,1.771-2.58,2.138c-0.349,0.085-0.699,0.129-1.06,0.126
	c-0.93-0.259-1.621-0.961-2.088-2.116c-0.062-0.712-0.019-1.497,0.138-2.358c0.107-0.516,0.257-1.275,0.454-2.282
	c0.139-0.229,0.303-0.62,0.491-1.176c0.203-0.488,0.442-0.847,0.714-1.082c0.194-0.531,0.584-0.92,1.173-1.163
	c0.226,0.004,0.544-0.28,0.957-0.858c-0.039-0.079-0.007-0.222,0.091-0.421c0.235-0.064,0.452-0.115,0.649-0.155
	c0.326-0.059,0.593-0.077,0.805-0.046c1.01,0.465,1.654,1.439,1.93,2.92c0.069,0.373,0.113,0.764,0.134,1.179
	C432.039,291.119,431.994,291.877,431.883,292.98z M430.457,288.405c-0.153-0.466-0.432-0.75-0.834-0.861l-1.343,0.792l0.399,0.332
	c0.065,0.235,0.152,0.582,0.263,1.038c0.071,0.391,0.011,0.729-0.187,1.016c-0.098,0.087-0.195,0.148-0.301,0.191
	c-0.303,0.08-0.567-0.242-0.791-0.968c-0.179,0.12-0.389,0.399-0.625,0.824c-0.289,0.506-0.5,0.828-0.632,0.966
	c-0.366,1.422-0.553,2.244-0.555,2.473c-0.091,0.601-0.087,1.165,0.009,1.688c0.048,0.264,0.117,0.52,0.212,0.772
	c0.19,0.194,0.544,0.263,1.051,0.21c2.354-1.183,3.631-3.47,3.833-6.869C430.779,289.407,430.613,288.873,430.457,288.405z"/>
<path fill="#231F20" d="M444.953,283.59c0.472-0.019,0.938-0.052,1.406-0.096c0.543,0.013,1.006,0.138,1.39,0.381l0.146,0.607
	c-0.344,0.087-0.965,0.203-1.862,0.349c-0.554,0.057-1.014,0.188-1.384,0.392c-0.91,2.989-1.161,5.394-0.756,7.215
	c0.048,0.263,0.134,0.499,0.253,0.713c0.117,0.214,0.363,0.286,0.733,0.218c0.217-0.038,0.471-0.13,0.761-0.273
	c0.236-0.067,0.59-0.312,1.063-0.74c0.474-0.426,0.947-0.695,1.423-0.806c-0.173,1.249-1.027,2.232-2.564,2.946
	c-0.188,0.081-0.358,0.135-0.51,0.164c-0.589,0.11-1.081,0.009-1.479-0.299c-0.508-0.564-0.857-1.274-1.041-2.14
	c-0.268-1.195-0.229-2.676,0.118-4.455c0.145-0.433,0.278-1.104,0.405-2.005c-0.758,0.165-1.347,0.645-1.761,1.444
	c-0.388,0.095-0.759-0.197-1.112-0.875c-0.001-0.251,0.212-0.562,0.641-0.932c0.274-0.346,0.673-0.623,1.197-0.833
	c0.467-0.155,0.932-0.321,1.396-0.498c0.653-2.198,1.008-4.222,1.067-6.083c0.113-0.248,0.256-0.388,0.43-0.423
	c0.277-0.074,0.589,0.082,0.932,0.464c0.211,1.504-0.057,3.333-0.809,5.483C445.002,283.536,444.972,283.563,444.953,283.59z"/>
<path fill="#231F20" d="M454.97,288.683c-0.158,0.119-0.269,0.32-0.327,0.602c-0.083,0.401-0.145,0.626-0.181,0.677
	c-0.193,0.398-0.583,0.975-1.164,1.737c-0.481,1.058-1.342,1.773-2.579,2.14c-0.349,0.087-0.699,0.129-1.061,0.126
	c-0.926-0.256-1.621-0.961-2.086-2.117c-0.063-0.709-0.017-1.495,0.138-2.357c0.106-0.518,0.259-1.277,0.453-2.284
	c0.137-0.226,0.303-0.618,0.492-1.173c0.202-0.491,0.44-0.847,0.712-1.082c0.196-0.532,0.585-0.92,1.172-1.162
	c0.227,0.004,0.544-0.282,0.959-0.859c-0.039-0.08-0.007-0.223,0.091-0.421c0.235-0.067,0.45-0.118,0.649-0.154
	c0.328-0.061,0.592-0.078,0.804-0.048c1.012,0.465,1.655,1.439,1.931,2.921c0.068,0.373,0.114,0.765,0.134,1.179
	C455.126,286.822,455.08,287.578,454.97,288.683z M453.544,284.11c-0.153-0.468-0.431-0.754-0.834-0.861l-1.344,0.792l0.4,0.334
	c0.066,0.235,0.153,0.578,0.26,1.035c0.075,0.391,0.013,0.729-0.182,1.014c-0.099,0.087-0.197,0.147-0.306,0.193
	c-0.297,0.078-0.563-0.244-0.788-0.968c-0.18,0.12-0.388,0.397-0.625,0.823c-0.29,0.507-0.501,0.829-0.631,0.965
	c-0.368,1.423-0.555,2.248-0.557,2.473c-0.091,0.602-0.087,1.166,0.01,1.688c0.046,0.265,0.116,0.521,0.211,0.775
	c0.192,0.19,0.545,0.26,1.054,0.209c2.352-1.184,3.628-3.473,3.831-6.872C453.864,285.108,453.698,284.577,453.544,284.11z"/>
<path fill="#231F20" d="M464.195,287.288l2.396-4.565c0.954-1.777,1.981-3.146,3.085-4.119c0.272-0.229,0.665-0.302,1.177-0.218
	c0.222,0.116,0.409,0.319,0.554,0.608c0.155,0.353,0.273,0.568,0.355,0.645c-0.071,0.35-0.087,0.807-0.05,1.361
	c0.039,0.717,0.058,1.173,0.051,1.377c-0.114,2.185-0.174,3.427-0.187,3.725c-0.034,1.405,0.004,2.636,0.113,3.698
	c-0.767-0.35-1.213-0.889-1.348-1.609c-0.049-0.26-0.079-0.604-0.092-1.032c-0.014-0.539-0.021-0.887-0.026-1.047
	c-0.042-0.462,0.013-1.5,0.165-3.106c0.121-1.285,0.078-2.306-0.126-3.056c-0.165-0.037-0.464,0.232-0.899,0.812
	c-0.76,0.999-1.527,2.281-2.295,3.846l-1.983,4.055c-0.169,0.191-0.341,0.481-0.515,0.879c-0.206,0.465-0.362,0.773-0.469,0.931
	c-0.299,0.211-0.542,0.303-0.729,0.271c-0.267-0.336-0.435-0.709-0.513-1.122c-0.068-0.37-0.056-0.914,0.038-1.633
	c0.091-0.717,0.115-1.238,0.081-1.57c0.347-2.478,0.862-6.261,1.541-11.352c-0.1-0.273-0.041-0.577,0.167-0.912
	c-0.065-0.231-0.038-0.471,0.088-0.707c0.126-0.237,0.308-0.379,0.547-0.425c0.22-0.041,0.451,0.05,0.696,0.277
	c0.193,0.685,0.182,1.397-0.04,2.137c-0.343,1.173-0.519,2.141-0.531,2.912c-0.089,0.017-0.109,0.086-0.062,0.212
	c-0.27,1.513-0.509,3.047-0.726,4.595C464.578,283.912,464.423,285.291,464.195,287.288z"/>
<path fill="#231F20" d="M480.183,285.617l-0.081,0.115c-0.098,0.087-0.117,0.202-0.07,0.351c-1.502,1.633-2.768,2.589-3.797,2.871
	c-0.581,0.132-1.183,0.131-1.794-0.003c-0.529-0.174-0.92-0.46-1.175-0.866c-0.218-0.318-0.435-0.876-0.651-1.668
	c0.036-3.575,1.167-6.569,3.403-8.994c0.081-0.04,0.327-0.127,0.729-0.271c0.334-0.129,0.637-0.118,0.899,0.036
	c0.268,0.153,0.431,0.405,0.498,0.755c0.008,0.287,0.026,0.567,0.054,0.834c-0.136,1.334-1.128,3.03-2.978,5.087
	c-0.11,0.133-0.45,0.308-1.02,0.527c-0.338,0.133-0.464,0.357-0.379,0.681c-0.195,0.532-0.232,1.001-0.113,1.41
	c0.035,0.175,0.181,0.481,0.442,0.931c0.471,0.454,1.12,0.603,1.947,0.449l0.113-0.119c0.349-0.065,0.807-0.275,1.373-0.628
	c0.539-0.488,1.413-1.191,2.616-2.113c0.039,0.083,0.063,0.156,0.075,0.221C480.303,285.359,480.27,285.489,480.183,285.617z
	 M476.96,278.843c-0.079-0.055-0.17-0.105-0.268-0.156c-1.021,0.938-1.802,2.32-2.339,4.158c0.108-0.02,0.221-0.087,0.335-0.197
	c0.45-0.603,0.905-1.204,1.355-1.809C476.551,280.044,476.855,279.382,476.96,278.843z"/>
<path fill="#231F20" d="M482.833,268.41c-0.192,0.305-0.231,0.573-0.121,0.801c-0.237,0.426-0.377,1.064-0.426,1.904
	c-0.051,0.936-0.144,1.585-0.278,1.948c-0.063,0.507-0.158,1.339-0.28,2.489c0.094,0.14,0.084,0.288-0.021,0.443
	c-0.006,0.09-0.084,0.952-0.23,2.58c-0.11,0.991-0.131,1.842-0.066,2.55c-0.099,0.2-0.123,0.515-0.078,0.943
	c0.045,0.433,0.019,0.737-0.085,0.914c0.035,1.393,0.13,2.267,0.285,2.622c-0.023,0.252,0.099,0.591,0.357,1.016
	c0.213-0.06,0.432-0.229,0.653-0.494c0.298-0.35,0.483-0.555,0.564-0.611c0.214-0.178,0.533-0.282,0.957-0.315
	c-0.26,0.792-0.636,1.507-1.125,2.137c-0.13,0.024-0.291,0.101-0.483,0.223c-0.19,0.128-0.331,0.2-0.418,0.216
	c-0.129,0.023-0.292-0.004-0.487-0.078c-0.511-0.31-0.792-0.498-0.849-0.553c-0.229-0.271-0.407-0.735-0.528-1.389
	c-0.059-0.307-0.114-0.668-0.169-1.089c0.027-0.094,0.036-0.469,0.027-1.118c-0.022-1.574-0.009-2.907,0.036-4.001
	c0.062-2.221,0.208-4.572,0.447-7.051c0.056-0.665,0.19-1.412,0.396-2.242c0.236-1.036,0.358-1.578,0.371-1.625
	c0.04-0.276,0.184-0.663,0.428-1.162c0.151-0.273,0.348-0.437,0.585-0.48c0.216-0.043,0.463,0.048,0.729,0.269
	C483.155,267.595,483.092,267.977,482.833,268.41z"/>
<path fill="#231F20" d="M485.697,285.438c2.331-1.403,4.028-3.323,5.087-5.756c0-0.111,0.056-0.358,0.166-0.737
	c0.11-0.381,0.146-0.681,0.105-0.899c-0.14-0.737-0.724-1.16-1.758-1.267c-0.653,0.011-1.293,0.028-1.917,0.055
	c-0.101,0.086-0.597,0.383-1.495,0.889c-0.609,0.359-1.013,0.736-1.21,1.135c-0.023,0.116-0.187,0.397-0.488,0.837
	c-0.013,0.047-0.114,0.29-0.303,0.731c-0.378-1.058-0.572-1.685-0.587-1.888c0.583-1.348,1.751-2.403,3.507-3.156
	c1.537-0.351,3.005-0.22,4.406,0.4c0.824,0.796,1.294,1.508,1.412,2.138c0.069,0.373,0.039,0.747-0.092,1.133
	c-0.176,0.032-0.262,0.129-0.252,0.286c0.005,0.155,0.001,0.308-0.018,0.459c-0.017,0.149-0.111,0.262-0.273,0.338
	c-0.578,1.146-1.346,2.292-2.305,3.44c-1.095,1.265-2.137,2.146-3.129,2.646c-0.411,0.211-0.676,0.373-0.789,0.486
	c-0.229,0.223-0.287,0.525-0.17,0.911c-0.022,0.971-0.109,2.443-0.263,4.411c-0.104,0.155-0.14,0.524-0.1,1.104
	c-0.083,1.118-0.295,2.894-0.634,5.329c-0.047-0.017-0.27,0.015-0.659,0.087c-0.213,0.062-0.387-0.029-0.523-0.273
	c-0.096-0.388-0.075-0.95,0.059-1.684c0.134-0.736,0.168-1.275,0.103-1.628c-0.024-0.13-0.057-0.258-0.106-0.387
	c0.145-0.318,0.231-0.818,0.263-1.503c0.04-0.774,0.1-1.294,0.188-1.561c0.064-0.619,0.16-1.553,0.29-2.791
	c0.084-1.011,0.01-1.955-0.222-2.834c0.199-0.128,0.318-0.353,0.347-0.676c0-0.244,0.008-0.506,0.026-0.781
	c-0.093-0.364-0.105-0.804-0.042-1.312c0.065-0.623,0.09-1.034,0.075-1.231c-0.006-0.046-0.043-0.429-0.114-1.162
	c-0.047-0.49,0.046-0.833,0.279-1.033c0.193-0.177,0.543-0.173,1.05,0.007c0.096,0.027,0.236,0.044,0.418,0.055
	c-0.033,0.188-0.064,0.687-0.092,1.505c0.012,0.675-0.06,1.141-0.216,1.396c0.086,0.456,0.063,1.125-0.066,2.007
	C485.701,284.795,485.715,285.049,485.697,285.438z"/>
<path fill="#231F20" d="M495.81,284.874c-0.138,0.478-0.362,0.722-0.676,0.735c-0.579-0.073-0.901-0.294-0.97-0.663
	c-0.064-0.35,0.004-0.657,0.202-0.92c0.197-0.262,0.476-0.405,0.834-0.423l0.232,0.158l0.148,0.075
	c0.348,0.161,0.437,0.415,0.275,0.76C495.846,284.643,495.829,284.736,495.81,284.874z M497.053,269.551
	c-0.074,0.083-0.11,0.266-0.105,0.547c0.008,0.279-0.032,0.486-0.119,0.614c-0.011,0.429-0.062,1.005-0.153,1.722
	c-0.015,0.045-0.015,0.42,0.005,1.115c-0.005,0.452-0.083,0.829-0.231,1.125c0.038,0.33,0.007,0.764-0.096,1.305
	c-0.125,0.654-0.192,1.096-0.193,1.321c-0.078,0.193-0.164,0.524-0.256,0.996l-0.087,0.083c-0.07,0.102-0.149,0.162-0.239,0.177
	c-0.042,0.009-0.099,0.009-0.17,0c-0.173-0.216-0.223-0.601-0.147-1.159c0.012-0.065-0.02-0.218-0.084-0.455l0.1-0.019
	c0.09-0.965,0.144-2.431,0.163-4.396c0.115-0.585,0.123-1.151,0.022-1.698c0.05-0.098,0.096-0.344,0.135-0.732
	c0.119-1.287,0.151-2.635,0.095-4.042c0.033-0.054,0.063-0.387,0.084-0.998c0.051-0.215,0.055-0.426,0.015-0.646
	c-0.047-0.263-0.177-0.531-0.388-0.81c0.429-0.239,0.742-0.374,0.938-0.414c0.371-0.066,0.638,0.076,0.793,0.431
	c0.05,0.645,0.038,1.629-0.043,2.951C497.01,267.894,496.997,268.889,497.053,269.551z"/>
</svg>
