<?xml version="1.0" encoding="utf-8"?>
<!-- Generator: Adobe Illustrator 16.0.0, SVG Export Plug-In . SVG Version: 6.00 Build 0)  -->
<!DOCTYPE svg PUBLIC "-//W3C//DTD SVG 1.1//EN" "http://www.w3.org/Graphics/SVG/1.1/DTD/svg11.dtd">
<svg version="1.1" id="Layer_1" xmlns="http://www.w3.org/2000/svg" xmlns:xlink="http://www.w3.org/1999/xlink" x="0px" y="0px"
	 width="800px" height="350px" viewBox="0 0 800 350" enable-background="new 0 0 800 350" xml:space="preserve">
<g>
	<g enable-background="new    ">
		<path fill="#010101" d="M262.686,33.454c-0.938-0.057-1.855-0.092-2.751-0.107c-0.896-0.013-1.799-0.048-2.709-0.105
			c-1.535-0.058-3.079-0.1-4.629-0.129c-1.549-0.027-3.107-0.07-4.671-0.127c-0.143,0-0.27-0.015-0.383-0.043
			c-0.115-0.027-0.243-0.013-0.384,0.043c-0.654,0.143-1.266,0.121-1.834-0.064c-0.57-0.185-1.138-0.448-1.707-0.789
			c-0.597-0.369-0.996-0.924-1.194-1.664c-0.114-0.398-0.128-0.725-0.043-0.98c0.086-0.256,0.327-0.455,0.725-0.598
			c0.483-0.198,0.967-0.362,1.451-0.49c0.483-0.127,0.967-0.219,1.45-0.277c1.451-0.113,2.908-0.206,4.373-0.277
			c1.464-0.07,2.936-0.135,4.416-0.192c1.478-0.058,2.957-0.114,4.436-0.171c1.479-0.057,2.958-0.113,4.437-0.17
			c0.739-0.027,1.471-0.035,2.196-0.021c0.726,0.015,1.458-0.006,2.198-0.064c2.303-0.142,4.585-0.17,6.846-0.085
			c2.261,0.085,4.543,0.199,6.847,0.341c0.854,0.057,1.777,0.071,2.773,0.043c0.995-0.028,1.905,0.1,2.73,0.384
			c0.227,0.057,0.391,0.149,0.491,0.277c0.099,0.128,0.291,0.207,0.575,0.234c-0.029,0.143-0.042,0.25-0.042,0.32
			c0,0.072-0.014,0.136-0.042,0.192l-1.664,2.815c-0.341,0.625-0.839,0.981-1.493,1.066c-0.996,0.114-1.978,0.235-2.943,0.363
			c-0.968,0.128-1.935,0.221-2.902,0.277c-1.535,0.057-3.043,0.092-4.521,0.107c-1.48,0.014-2.987,0.035-4.522,0.063
			c-0.085,0-0.171,0.007-0.256,0.022c-0.085,0.014-0.186,0.036-0.3,0.063c0,0.143-0.006,0.271-0.021,0.384
			c-0.015,0.113-0.007,0.227,0.021,0.341c0.313,1.707,0.513,3.42,0.598,5.141c0.085,1.72,0.156,3.463,0.213,5.226
			c0.057,1.536,0.121,3.05,0.192,4.543c0.071,1.494,0.134,3.007,0.192,4.543c0.085,2.191,0.177,4.366,0.277,6.528
			c0.1,2.161,0.178,4.351,0.234,6.569c0.057,1.508,0.107,3.001,0.15,4.479c0.042,1.48,0.063,2.987,0.063,4.522
			c0,0.626-0.021,1.245-0.063,1.856c-0.043,0.612-0.079,1.245-0.107,1.898c-0.029,0.228-0.049,0.469-0.063,0.725
			c-0.015,0.257-0.021,0.513-0.021,0.769c0,0.37-0.029,0.719-0.085,1.045c-0.058,0.327-0.186,0.647-0.383,0.959
			c-0.256,0.427-0.548,0.726-0.875,0.896c-0.327,0.17-0.746,0.213-1.259,0.127c-0.91-0.142-1.657-0.483-2.239-1.024
			c-0.583-0.539-1.074-1.194-1.472-1.962c-0.399-0.739-0.69-1.493-0.874-2.261c-0.187-0.768-0.35-1.55-0.491-2.347
			c-0.229-1.42-0.378-2.829-0.448-4.223c-0.072-1.393-0.093-2.801-0.064-4.223c0-0.483-0.014-0.946-0.042-1.386
			c-0.028-0.441-0.058-0.903-0.086-1.387l-0.256-5.887c-0.143-2.645-0.27-5.269-0.383-7.871c-0.114-2.603-0.214-5.226-0.299-7.871
			c-0.085-3.27,0.128-6.512,0.64-9.726c0.028-0.086,0.036-0.178,0.021-0.277C262.693,33.717,262.686,33.596,262.686,33.454z"/>
		<path fill="#010101" d="M298.136,70.524c0.057-0.569,0.127-1.138,0.213-1.707c0.085-0.569,0.156-1.137,0.213-1.707
			c0.142-1.108,0.263-2.218,0.363-3.327c0.099-1.109,0.234-2.218,0.405-3.328c0.198-1.166,0.405-2.325,0.618-3.477
			c0.213-1.151,0.462-2.31,0.747-3.476c0.313-1.251,0.689-2.474,1.13-3.669c0.44-1.194,0.987-2.346,1.642-3.456
			c0.426-0.71,0.859-1.4,1.301-2.069c0.441-0.668,0.988-1.272,1.642-1.813c0.228-0.198,0.462-0.39,0.705-0.575
			c0.241-0.185,0.49-0.348,0.747-0.491c0.313-0.199,0.64-0.305,0.981-0.32c0.342-0.014,0.697,0.022,1.066,0.107
			c0.625,0.143,1.216,0.362,1.77,0.661c0.555,0.298,1.088,0.633,1.6,1.002c0.228,0.114,0.355,0.213,0.384,0.299
			c0.312,0.541,0.619,1.066,0.917,1.579c0.299,0.511,0.534,1.052,0.705,1.62c0.227,0.741,0.405,1.479,0.533,2.219
			c0.128,0.74,0.263,1.493,0.405,2.261c0.086,0.427,0.136,0.868,0.15,1.323c0.014,0.454,0.078,0.896,0.192,1.322
			c0.227,0.938,0.291,1.884,0.192,2.836c-0.101,0.954-0.079,1.899,0.063,2.837c0.057,0.17,0.063,0.349,0.021,0.533
			c-0.043,0.186-0.064,0.377-0.064,0.576c0.028,0.654,0.049,1.323,0.064,2.005c0.013,0.682,0.049,1.351,0.106,2.005
			c0.085,1.081,0.186,2.176,0.299,3.286c0.113,1.108,0.227,2.204,0.341,3.284c0.085,1.081,0.163,2.169,0.234,3.263
			c0.07,1.095,0.177,2.184,0.32,3.264c0.057,0.398,0.156,0.783,0.298,1.151c0.142,0.37,0.271,0.754,0.384,1.152
			c0.085,0.313,0.128,0.654,0.128,1.024c0,0.341-0.036,0.675-0.107,1.002c-0.071,0.327-0.178,0.647-0.32,0.96
			c-0.256,0.711-0.74,0.981-1.451,0.811c-2.161-0.568-3.71-1.805-4.65-3.711c-0.852-1.706-1.514-3.462-1.983-5.268
			s-0.789-3.647-0.96-5.525c-0.228-2.303-0.377-4.607-0.448-6.911c-0.071-2.303-0.036-4.607,0.107-6.911
			c0.085-1.336,0.092-2.667,0.022-3.989c-0.072-1.322-0.136-2.651-0.192-3.989c0-0.113-0.021-0.219-0.064-0.32
			c-0.043-0.099-0.093-0.263-0.149-0.491c-0.256,0.399-0.49,0.768-0.705,1.11c-0.213,0.34-0.391,0.668-0.533,0.981
			c-0.597,1.251-1.13,2.51-1.6,3.775c-0.469,1.266-0.846,2.581-1.13,3.946c-0.085,0.484-0.2,0.967-0.341,1.45
			c-0.144,0.484-0.271,0.968-0.384,1.452c-0.143,0.569-0.264,1.151-0.363,1.749c-0.1,0.597-0.206,1.181-0.32,1.749
			c-0.313,1.451-0.569,2.901-0.768,4.351c-0.228,1.337-0.419,2.666-0.576,3.989c-0.157,1.322-0.334,2.652-0.533,3.989
			c-0.114,0.768-0.249,1.521-0.405,2.261c-0.157,0.74-0.376,1.479-0.661,2.218c-0.256,0.683-0.627,1.273-1.109,1.771
			c-0.484,0.498-0.981,0.974-1.494,1.429c-0.313,0.285-0.661,0.534-1.045,0.746c-0.383,0.213-0.775,0.42-1.173,0.619
			c-0.54,0.256-0.988,0.32-1.343,0.192c-0.356-0.127-0.704-0.434-1.046-0.917c-0.398-0.597-0.74-1.222-1.023-1.877
			c-0.285-0.653-0.484-1.336-0.598-2.047c-0.142-0.91-0.255-1.806-0.341-2.688c-0.085-0.881-0.185-1.777-0.298-2.688
			c-0.058-0.625-0.128-1.25-0.214-1.876c-0.085-0.626-0.171-1.251-0.256-1.877c-0.255-2.104-0.476-4.195-0.661-6.271
			c-0.185-2.076-0.292-4.18-0.32-6.313c-0.058-3.385-0.1-6.754-0.128-10.11c-0.029-3.355-0.058-6.726-0.085-10.111
			c-0.028-2.417-0.028-4.82,0-7.209c0.028-2.389,0.042-4.792,0.042-7.209c0-0.539,0.164-1.023,0.491-1.451
			c0.327-0.426,0.789-0.682,1.387-0.768c0.853-0.086,1.606,0.114,2.261,0.597c0.512,0.341,0.889,0.754,1.131,1.237
			c0.241,0.484,0.433,1.01,0.576,1.579c0.256,1.052,0.405,2.105,0.448,3.157c0.042,1.052,0.092,2.105,0.149,3.156
			c0.028,0.967,0.071,1.92,0.128,2.858c0.057,0.938,0.113,1.878,0.17,2.816c0.029,0.541,0.042,1.074,0.042,1.6
			c0,0.526,0.015,1.06,0.043,1.599c0.028,0.513,0.049,1.024,0.064,1.537c0.013,0.511,0.049,1.023,0.106,1.535
			c0.057,0.882,0.12,1.756,0.191,2.624c0.071,0.867,0.149,1.742,0.235,2.623c0.142,1.195,0.192,2.375,0.15,3.54
			c-0.043,1.167-0.093,2.347-0.15,3.541c-0.029,0.484-0.014,0.968,0.042,1.451c0.057,0.484,0.114,0.967,0.171,1.45
			c0.028,0.541,0.057,1.082,0.085,1.622c0.028,0.54,0.07,1.095,0.127,1.663c0.058,0.768,0.1,1.536,0.129,2.303
			c0.027,0.769,0.07,1.551,0.127,2.347c0.057,0.711,0.107,1.407,0.149,2.09c0.043,0.682,0.092,1.379,0.149,2.089
			c0.028,0.144,0.057,0.278,0.085,0.406c0.028,0.128,0.056,0.263,0.085,0.405C298.008,70.567,298.079,70.553,298.136,70.524z"/>
		<path fill="#010101" d="M351.374,66.941c-0.541,1.194-1.087,2.375-1.643,3.541c-0.554,1.167-1.145,2.332-1.769,3.499
			c-0.57,1.108-1.217,2.168-1.942,3.177c-0.726,1.01-1.5,1.984-2.325,2.922c-1.251,1.479-2.666,2.596-4.245,3.349
			c-1.578,0.753-3.391,1.017-5.438,0.789c-2.133-0.227-3.954-0.896-5.461-2.005c-1.508-1.109-2.759-2.603-3.754-4.479
			c-0.682-1.365-1.215-2.751-1.6-4.158c-0.383-1.409-0.646-2.866-0.789-4.373c-0.143-1.167-0.206-2.318-0.192-3.455
			c0.016-1.138,0.05-2.29,0.107-3.456c0.056-1.194,0.184-2.375,0.383-3.541c0.199-1.166,0.47-2.332,0.811-3.499
			c0.483-1.706,1.073-3.354,1.771-4.948c0.696-1.592,1.614-3.085,2.752-4.479c0.682-0.854,1.435-1.614,2.26-2.283
			c0.825-0.668,1.721-1.258,2.688-1.77c0.825-0.427,1.67-0.774,2.539-1.045c0.867-0.27,1.755-0.433,2.666-0.49
			c1.024-0.056,2.033,0,3.029,0.171c0.996,0.17,1.947,0.583,2.859,1.236c0.227,0.171,0.461,0.335,0.703,0.492
			c0.242,0.156,0.491,0.305,0.747,0.447c0.882,0.569,1.643,1.252,2.282,2.048c0.641,0.796,1.229,1.65,1.771,2.559
			c0.54,0.911,0.881,1.877,1.024,2.901c0.141,1.023,0.112,2.076-0.085,3.158c-0.683,3.526-2.347,6.555-4.992,9.085
			c-0.768,0.74-1.55,1.458-2.346,2.154c-0.797,0.697-1.636,1.344-2.517,1.942c-1.252,0.825-2.552,1.492-3.903,2.004
			c-1.352,0.512-2.794,0.796-4.33,0.853c-0.028,0-0.156,0.028-0.384,0.086c0.198,1.223,0.497,2.374,0.896,3.455
			c0.398,1.081,0.981,2.076,1.75,2.987c0.653,0.739,1.386,1.294,2.197,1.663c0.81,0.37,1.699,0.584,2.667,0.641
			c0.398,0.029,0.746-0.05,1.045-0.235c0.298-0.184,0.604-0.39,0.917-0.618c0.654-0.569,1.251-1.187,1.792-1.856
			c0.541-0.668,1.038-1.372,1.493-2.112c0.654-0.994,1.251-2.005,1.792-3.028c0.541-1.024,1.025-2.076,1.451-3.157
			c0.228-0.512,0.49-0.945,0.789-1.301c0.299-0.355,0.732-0.576,1.301-0.661c0.341,0.029,0.64,0.114,0.896,0.256
			c0.199,0.143,0.356,0.335,0.47,0.576C351.616,66.223,351.573,66.542,351.374,66.941z M331.667,66.898
			c0.368-0.057,0.704-0.1,1.001-0.128c0.299-0.028,0.591-0.085,0.875-0.17c0.995-0.227,1.94-0.562,2.836-1.002
			c0.896-0.441,1.743-0.959,2.538-1.557c0.654-0.484,1.281-0.974,1.877-1.473c0.597-0.497,1.18-1.016,1.749-1.557
			c1.194-1.081,2.134-2.304,2.816-3.668c0.683-1.365,1.152-2.829,1.408-4.395c0.142-0.71,0.142-1.386,0-2.026
			c-0.143-0.64-0.456-1.244-0.938-1.813c-0.911-1.081-1.984-1.784-3.221-2.112c-1.237-0.326-2.496-0.178-3.776,0.449
			c-1.109,0.54-2.068,1.244-2.879,2.111c-0.811,0.868-1.486,1.841-2.027,2.922c-0.91,1.82-1.563,3.769-1.961,5.844
			c-0.229,1.109-0.392,2.218-0.491,3.328c-0.1,1.109-0.121,2.233-0.064,3.37c0.028,0.313,0.064,0.618,0.107,0.917
			C331.559,66.237,331.609,66.557,331.667,66.898z"/>
		<path fill="#010101" d="M403.547,83.834c-0.398,0.199-0.732,0.306-1.004,0.32c-0.27,0.015-0.561-0.092-0.875-0.32
			c-0.227-0.341-0.383-0.739-0.468-1.194c-0.114-0.483-0.228-0.96-0.342-1.429c-0.113-0.47-0.242-0.932-0.385-1.386
			c-0.198-0.655-0.318-1.294-0.362-1.92c-0.043-0.625-0.079-1.265-0.107-1.92c-0.028-0.512-0.041-0.824-0.041-0.938
			c0-0.113,0-0.177,0-0.192c0-0.013-0.008-0.077-0.022-0.191c-0.014-0.113-0.021-0.426-0.021-0.939c0-0.142,0.007-0.291,0.021-0.448
			c0.014-0.155-0.036-0.305-0.149-0.448c-0.142-0.056-0.242-0.035-0.299,0.064c-0.058,0.1-0.114,0.192-0.17,0.277
			c-0.54,0.682-1.116,1.329-1.729,1.94c-0.611,0.612-1.273,1.159-1.982,1.643c-0.683,0.484-1.386,0.911-2.111,1.28
			c-0.726,0.37-1.472,0.661-2.241,0.874c-0.767,0.213-1.563,0.32-2.389,0.32s-1.664-0.128-2.517-0.383
			c-1.877-0.569-3.513-1.436-4.906-2.603c-1.393-1.166-2.502-2.672-3.328-4.522c-0.568-1.336-1.03-2.693-1.386-4.074
			c-0.356-1.378-0.633-2.793-0.833-4.245c-0.313-2.389-0.44-4.778-0.383-7.167c0.056-1.536,0.17-3.043,0.341-4.522
			c0.17-1.479,0.398-2.958,0.683-4.437c0.255-1.336,0.554-2.659,0.896-3.967c0.342-1.308,0.753-2.602,1.237-3.882
			c0.654-1.563,1.379-3.071,2.175-4.522c0.797-1.45,1.835-2.758,3.115-3.924c1.394-1.25,2.9-2.24,4.521-2.965
			c1.622-0.725,3.384-1.116,5.29-1.173c1.366-0.056,2.61,0.171,3.733,0.683c1.123,0.512,2.182,1.194,3.178,2.047
			c0.37,0.341,0.719,0.705,1.046,1.087c0.327,0.384,0.646,0.775,0.959,1.174c0.456,0.54,0.796,1.194,1.025,1.962
			c0.026,0.229,0.112,0.469,0.255,0.726c0.199,0.399,0.307,0.797,0.32,1.194c0.015,0.399-0.036,0.812-0.149,1.237
			c-0.143,0.456-0.384,0.755-0.725,0.897c-0.342,0.142-0.697,0.085-1.067-0.171c-0.426-0.312-0.854-0.64-1.279-0.981
			c-0.427-0.341-0.84-0.668-1.238-0.981c-0.399-0.312-0.782-0.618-1.152-0.917c-0.37-0.299-0.782-0.547-1.237-0.746
			c-0.882-0.398-1.764-0.569-2.645-0.513c-0.882,0.057-1.749,0.298-2.602,0.725c-2.133,1.053-3.697,2.687-4.693,4.907
			c-0.625,1.364-1.166,2.757-1.62,4.18c-0.456,1.422-0.826,2.887-1.109,4.394c-0.741,3.839-1.024,7.665-0.854,11.475
			c0.085,1.735,0.241,3.456,0.469,5.162c0.228,1.707,0.683,3.385,1.366,5.034c0.171,0.399,0.369,0.796,0.597,1.194
			c0.227,0.399,0.454,0.797,0.683,1.195c0.341,0.569,0.775,1.045,1.301,1.429c0.526,0.384,1.074,0.748,1.642,1.088
			c0.569,0.285,1.18,0.298,1.835,0.042c0.398-0.171,0.769-0.376,1.109-0.619c0.341-0.241,0.668-0.49,0.982-0.746
			c0.624-0.483,1.208-0.989,1.749-1.515c0.539-0.525,1.051-1.102,1.535-1.728c1.052-1.392,1.764-2.901,2.133-4.521
			c0.227-0.967,0.454-1.926,0.682-2.879c0.228-0.952,0.371-1.926,0.428-2.922c0.027-0.454,0.006-0.732-0.064-0.831
			c-0.071-0.1-0.335-0.135-0.79-0.107c-0.91,0.058-1.828,0.036-2.751-0.063c-0.925-0.1-1.842-0.221-2.752-0.363
			c-0.825-0.143-1.578-0.483-2.261-1.024c-0.313-0.227-0.469-0.511-0.469-0.853c0-0.342,0.014-0.667,0.042-0.981
			c0-0.283,0.086-0.497,0.257-0.639c0.17-0.142,0.384-0.242,0.639-0.299c0.598-0.198,1.195-0.32,1.792-0.362
			c0.597-0.043,1.209-0.107,1.834-0.192c0.881-0.113,1.763-0.199,2.645-0.256c0.881-0.056,1.763-0.07,2.646-0.042
			c0.683,0.029,1.357,0.058,2.025,0.085c0.669,0.028,1.33,0.157,1.984,0.383c0.484,0.171,0.71,0.484,0.683,0.938
			c-0.058,0.399-0.071,0.79-0.043,1.173c0.028,0.385,0.07,0.775,0.128,1.173c0.057,0.74,0.05,1.458-0.021,2.155
			c-0.071,0.697-0.136,1.415-0.193,2.154c-0.142,1.451-0.241,2.88-0.299,4.288c-0.057,1.407-0.014,2.836,0.128,4.287
			c0.087,1.053,0.122,2.105,0.107,3.157c-0.015,1.053-0.05,2.104-0.107,3.157c-0.027,0.569-0.057,0.932-0.084,1.088
			c-0.028,0.156-0.064,0.276-0.106,0.362c-0.044,0.085-0.093,0.207-0.15,0.363s-0.114,0.519-0.17,1.087
			c-0.028,0.398-0.079,0.796-0.149,1.194c-0.072,0.399-0.164,0.797-0.277,1.195c-0.058,0.313-0.143,0.612-0.256,0.896
			c-0.086,0.228-0.199,0.462-0.341,0.704C403.915,83.5,403.744,83.692,403.547,83.834z"/>
		<path fill="#010101" d="M431.658,46.55c0.172,1.166,0.307,2.317,0.404,3.455c0.103,1.138,0.138,2.304,0.107,3.499
			c0,0.255-0.014,0.512-0.042,0.768c-0.029,0.256-0.07,0.498-0.128,0.725l-0.256,2.432c-0.313,0.143-0.562,0.192-0.747,0.149
			c-0.185-0.042-0.377-0.206-0.575-0.49c-0.798-0.996-1.252-2.076-1.366-3.243c-0.112-0.824-0.191-1.663-0.233-2.516
			c-0.044-0.854-0.121-1.692-0.235-2.518c-0.086-0.597-0.206-1.201-0.361-1.813c-0.157-0.611-0.308-1.216-0.448-1.813
			c-0.058-0.198-0.137-0.39-0.234-0.576c-0.102-0.184-0.207-0.39-0.32-0.618c-0.285,0.229-0.562,0.434-0.832,0.618
			c-0.271,0.186-0.52,0.392-0.746,0.619c-0.997,0.967-1.936,1.984-2.816,3.05c-0.882,1.066-1.692,2.197-2.431,3.392
			c-0.684,1.108-1.273,2.26-1.771,3.456c-0.498,1.194-0.903,2.431-1.216,3.712c-0.058,0.142-0.086,0.305-0.086,0.49
			c0,0.185,0,0.361,0,0.533c0.086,0.74,0.177,1.472,0.277,2.198c0.099,0.725,0.22,1.457,0.361,2.196
			c0.2,0.911,0.349,1.834,0.449,2.772c0.099,0.938,0.221,1.877,0.361,2.816c0.058,0.285,0.107,0.554,0.151,0.81
			c0.042,0.256,0.092,0.513,0.149,0.769c0.056,0.598,0.119,1.194,0.19,1.792c0.071,0.597,0.135,1.181,0.191,1.75
			c0.087,0.569,0.172,1.151,0.257,1.749c0.085,0.597,0.172,1.181,0.256,1.749c0.058,0.257,0.113,0.513,0.171,0.768
			c0.058,0.256,0.113,0.512,0.171,0.768c0.057,0.2,0.07,0.399,0.042,0.598c-0.028,0.199-0.057,0.398-0.085,0.597
			c-0.029,0.37-0.079,0.733-0.148,1.088c-0.072,0.356-0.223,0.675-0.449,0.959l-0.255,0.256c-0.228,0.199-0.528,0.299-0.896,0.299
			c-0.284,0.142-0.668,0.271-1.151,0.384c-0.484,0.113-0.975,0.17-1.473,0.17s-0.952-0.079-1.364-0.234
			c-0.413-0.156-0.691-0.434-0.832-0.833c-0.37-1.166-0.732-2.645-1.089-4.436c-0.355-1.792-0.703-3.761-1.044-5.908
			c-0.342-2.147-0.669-4.395-0.981-6.741s-0.604-4.664-0.875-6.953c-0.27-2.29-0.511-4.473-0.726-6.549
			c-0.213-2.076-0.398-3.91-0.553-5.503c-0.157-1.592-0.271-2.872-0.342-3.839c-0.072-0.966-0.107-1.479-0.107-1.536
			c0.027-0.085,0.157-0.185,0.384-0.299c0.229-0.113,0.491-0.213,0.789-0.298c0.301-0.085,0.604-0.164,0.917-0.235
			c0.313-0.07,0.556-0.135,0.727-0.192c0.027-0.028,0.084-0.042,0.17-0.042c0.028,0,0.043-0.015,0.043-0.043v0.043
			c0.171-0.057,0.334-0.086,0.49-0.086c0.157,0,0.306,0,0.447,0c0.314,0,0.527,0.101,0.641,0.3c0.114,0.199,0.255,0.426,0.427,0.681
			c0.569,0.912,1.038,1.886,1.408,2.923c0.368,1.039,0.695,2.097,0.981,3.178c0.197,0.74,0.361,1.479,0.489,2.218
			c0.129,0.739,0.264,1.479,0.406,2.219c0,0.057,0.007,0.105,0.021,0.148c0.015,0.042,0.035,0.135,0.063,0.277
			c0.113-0.228,0.214-0.426,0.298-0.597c0.086-0.171,0.157-0.327,0.214-0.469c0.541-1.308,1.266-2.574,2.177-3.797
			c0.738-0.966,1.492-1.919,2.261-2.858c0.768-0.938,1.635-1.792,2.602-2.56c0.199-0.171,0.405-0.334,0.618-0.491
			c0.214-0.156,0.433-0.333,0.661-0.533c0.512-0.398,1.06-0.647,1.643-0.746c0.582-0.1,1.187-0.121,1.812-0.065
			c0.259,0.029,0.472,0.128,0.642,0.299s0.326,0.355,0.47,0.554c0.626,0.769,1.061,1.593,1.3,2.474
			C431.323,44.701,431.516,45.611,431.658,46.55z"/>
		<path fill="#010101" d="M464.463,66.941c-0.541,1.194-1.088,2.375-1.643,3.541c-0.555,1.167-1.145,2.332-1.77,3.499
			c-0.57,1.108-1.216,2.168-1.941,3.177c-0.725,1.01-1.5,1.984-2.325,2.922c-1.252,1.479-2.667,2.596-4.245,3.349
			c-1.577,0.753-3.392,1.017-5.438,0.789c-2.135-0.227-3.955-0.896-5.462-2.005c-1.508-1.109-2.759-2.603-3.755-4.479
			c-0.682-1.365-1.215-2.751-1.599-4.158c-0.385-1.409-0.646-2.866-0.789-4.373c-0.144-1.167-0.206-2.318-0.191-3.455
			c0.014-1.138,0.048-2.29,0.105-3.456c0.058-1.194,0.185-2.375,0.385-3.541c0.198-1.166,0.468-2.332,0.81-3.499
			c0.483-1.706,1.073-3.354,1.771-4.948c0.696-1.592,1.613-3.085,2.751-4.479c0.683-0.854,1.436-1.614,2.261-2.283
			c0.825-0.668,1.721-1.258,2.688-1.77c0.826-0.427,1.671-0.774,2.539-1.045c0.866-0.27,1.755-0.433,2.665-0.49
			c1.024-0.056,2.033,0,3.029,0.171c0.997,0.17,1.947,0.583,2.857,1.236c0.228,0.171,0.462,0.335,0.704,0.492
			c0.241,0.156,0.491,0.305,0.747,0.447c0.882,0.569,1.644,1.252,2.282,2.048c0.639,0.796,1.229,1.65,1.771,2.559
			c0.538,0.911,0.88,1.877,1.023,2.901c0.142,1.023,0.113,2.076-0.086,3.158c-0.683,3.526-2.345,6.555-4.991,9.085
			c-0.768,0.74-1.55,1.458-2.347,2.154c-0.796,0.697-1.636,1.344-2.516,1.942c-1.253,0.825-2.553,1.492-3.905,2.004
			c-1.35,0.512-2.793,0.796-4.329,0.853c-0.028,0-0.156,0.028-0.384,0.086c0.198,1.223,0.498,2.374,0.896,3.455
			c0.398,1.081,0.981,2.076,1.749,2.987c0.653,0.739,1.387,1.294,2.198,1.663c0.812,0.37,1.699,0.584,2.666,0.641
			c0.397,0.029,0.746-0.05,1.045-0.235c0.299-0.184,0.603-0.39,0.917-0.618c0.654-0.569,1.251-1.187,1.791-1.856
			c0.54-0.668,1.04-1.372,1.493-2.112c0.654-0.994,1.251-2.005,1.792-3.028c0.54-1.024,1.024-2.076,1.45-3.157
			c0.229-0.512,0.491-0.945,0.789-1.301c0.299-0.355,0.733-0.576,1.303-0.661c0.342,0.029,0.639,0.114,0.895,0.256
			c0.2,0.143,0.355,0.335,0.469,0.576C464.704,66.223,464.661,66.542,464.463,66.941z M444.754,66.898
			c0.369-0.057,0.703-0.1,1.002-0.128c0.3-0.028,0.591-0.085,0.875-0.17c0.994-0.227,1.941-0.562,2.839-1.002
			c0.893-0.441,1.738-0.959,2.537-1.557c0.653-0.484,1.278-0.974,1.876-1.473c0.598-0.497,1.181-1.016,1.75-1.557
			c1.192-1.081,2.134-2.304,2.815-3.668c0.681-1.365,1.151-2.829,1.406-4.395c0.143-0.71,0.143-1.386,0-2.026
			c-0.142-0.64-0.453-1.244-0.938-1.813c-0.91-1.081-1.984-1.784-3.221-2.112c-1.237-0.326-2.496-0.178-3.776,0.449
			c-1.108,0.54-2.069,1.244-2.88,2.111c-0.81,0.868-1.486,1.841-2.025,2.922c-0.91,1.82-1.563,3.769-1.962,5.844
			c-0.228,1.109-0.391,2.218-0.492,3.328c-0.098,1.109-0.12,2.233-0.062,3.37c0.027,0.313,0.062,0.618,0.107,0.917
			C444.647,66.237,444.698,66.557,444.754,66.898z"/>
		<path fill="#010101" d="M497.566,84.26c-0.313,0.028-0.626-0.014-0.938-0.127c-0.256-0.057-0.533-0.171-0.832-0.341
			c-0.301-0.17-0.577-0.412-0.833-0.725c-0.853-1.223-1.507-2.517-1.962-3.882c-0.455-1.365-0.853-2.773-1.194-4.223
			c-0.2-0.882-0.37-1.763-0.513-2.646c-0.141-0.882-0.256-1.777-0.341-2.687c-0.143-1.365-0.292-2.709-0.448-4.032
			c-0.156-1.322-0.305-2.666-0.447-4.031c-0.028-0.369-0.051-0.74-0.064-1.11c-0.014-0.369-0.05-0.769-0.105-1.194
			c-0.257,0.312-0.477,0.604-0.664,0.874c-0.185,0.271-0.332,0.562-0.446,0.875c-0.512,1.365-1.104,2.695-1.77,3.989
			c-0.669,1.294-1.345,2.595-2.026,3.903c-0.314,0.54-0.583,1.088-0.811,1.643s-0.499,1.103-0.811,1.643
			c-0.228,0.398-0.471,0.775-0.727,1.13c-0.255,0.355-0.511,0.704-0.766,1.045c-0.627,0.768-1.281,1.486-1.964,2.154
			c-0.681,0.668-1.479,1.215-2.388,1.642c-1.424,0.74-2.93,1.038-4.523,0.896c-0.739-0.056-1.386-0.284-1.939-0.683
			c-0.556-0.397-1.045-0.896-1.474-1.492c-0.453-0.598-0.789-1.238-1.001-1.92c-0.214-0.683-0.363-1.393-0.448-2.134
			c-0.198-1.365-0.234-2.722-0.106-4.074c0.126-1.351,0.333-2.709,0.618-4.074c0.228-0.996,0.476-1.969,0.747-2.922
			c0.27-0.953,0.646-1.883,1.129-2.794c1.11-2.134,2.561-4.053,4.352-5.759c1.08-1.023,2.204-1.962,3.37-2.815
			c1.167-0.853,2.433-1.607,3.798-2.261c1.364-0.654,2.736-1.195,4.116-1.622c1.378-0.426,2.796-0.753,4.245-0.981
			c0.084,0,0.154-0.014,0.212-0.042s0.113-0.044,0.17-0.044c0.229-0.709,0.441-1.386,0.642-2.026c0.198-0.639,0.412-1.287,0.64-1.94
			c0.086-0.312,0.262-0.534,0.533-0.661c0.27-0.128,0.604-0.164,1.003-0.107c0.711,0.057,1.242,0.349,1.6,0.874
			c0.354,0.527,0.562,1.032,0.619,1.515c0.141,0.655,0.19,1.322,0.148,2.005c-0.043,0.682-0.093,1.351-0.148,2.004
			c-0.086,1.678-0.157,3.349-0.215,5.012c-0.058,1.665-0.014,3.335,0.129,5.013c0.17,2.105,0.419,4.173,0.746,6.207
			c0.326,2.034,0.719,4.074,1.174,6.122c0.254,1.223,0.539,2.439,0.854,3.646c0.311,1.209,0.623,2.411,0.938,3.605
			c0.17,0.683,0.362,1.352,0.577,2.005c0.212,0.654,0.431,1.322,0.66,2.005c0.028,0.114,0.07,0.312,0.129,0.597
			c0.056,0.399,0.013,0.719-0.129,0.96c-0.143,0.241-0.356,0.505-0.641,0.789c-0.228,0.228-0.477,0.405-0.746,0.533
			c-0.27,0.128-0.533,0.25-0.788,0.363C498.191,84.076,497.879,84.175,497.566,84.26z M477.09,73.766h0.213
			c0.171-0.056,0.299-0.113,0.385-0.169c1.592-0.938,2.829-2.232,3.71-3.882c0.257-0.483,0.492-0.967,0.706-1.45
			c0.212-0.484,0.446-0.966,0.703-1.451c0.482-0.91,1.001-1.792,1.558-2.645c0.555-0.853,1.001-1.777,1.343-2.773
			c0.283-0.767,0.61-1.521,0.98-2.261c0.369-0.739,0.712-1.478,1.024-2.218c0.397-0.967,0.796-1.934,1.194-2.901
			c0.398-0.966,0.739-1.947,1.025-2.943c0.085-0.312,0.153-0.626,0.211-0.939c0.059-0.312,0.044-0.653-0.041-1.023
			c-0.313,0.058-0.604,0.136-0.877,0.234c-0.269,0.1-0.531,0.221-0.787,0.363c-1.023,0.511-2.027,1.052-3.008,1.621
			c-0.981,0.569-1.927,1.194-2.837,1.876c-0.739,0.569-1.436,1.159-2.09,1.771c-0.655,0.612-1.18,1.33-1.579,2.154
			c-0.17,0.37-0.349,0.733-0.533,1.087c-0.186,0.356-0.348,0.718-0.489,1.088c-0.229,0.597-0.449,1.202-0.661,1.813
			c-0.215,0.612-0.393,1.23-0.533,1.855c-0.144,0.541-0.243,1.088-0.3,1.643s-0.113,1.116-0.17,1.685
			c-0.115,0.939-0.165,1.876-0.149,2.816c0.015,0.938,0.106,1.876,0.276,2.815c0.057,0.313,0.135,0.634,0.235,0.96
			C476.698,73.219,476.863,73.511,477.09,73.766z"/>
		<path fill="#010101" d="M517.532,35.544c-0.143-0.028-0.337-0.056-0.577-0.085c-0.242-0.028-0.434-0.042-0.576-0.042h-6.354
			c-0.485,0-0.976,0.021-1.474,0.063c-0.498,0.043-1.002,0.05-1.514,0.021c-0.257,0-0.52-0.028-0.789-0.085
			c-0.271-0.057-0.533-0.128-0.79-0.213c-0.228-0.086-0.44-0.192-0.64-0.32c-0.2-0.128-0.411-0.249-0.64-0.363
			c0.086-0.625,0.455-0.981,1.11-1.066c0.767-0.085,1.535-0.164,2.303-0.235c0.768-0.071,1.521-0.149,2.261-0.234
			c1.223-0.113,2.432-0.199,3.626-0.256c1.195-0.057,2.389-0.057,3.583,0c0.058,0,0.171-0.007,0.342-0.021
			c0.171-0.015,0.284-0.036,0.341-0.064c0.057-0.398,0.115-0.796,0.17-1.195c0.058-0.398,0.115-0.795,0.172-1.195
			c0.143-0.825,0.277-1.584,0.405-2.281c0.127-0.697,0.262-1.458,0.404-2.283c0.057-0.427,0.129-0.853,0.215-1.28
			c0.084-0.426,0.155-0.854,0.213-1.279v-0.384c-0.085-1.11,0.369-1.792,1.365-2.048c0.482-0.142,0.96-0.22,1.428-0.234
			c0.47-0.015,0.904,0.163,1.302,0.533c0.341,0.285,0.619,0.597,0.832,0.938c0.214,0.341,0.277,0.767,0.191,1.279
			c-0.057,0.399-0.077,0.811-0.063,1.237c0.014,0.427,0.021,0.84,0.021,1.238c0,0.854-0.05,1.657-0.149,2.411
			c-0.101,0.753-0.15,1.557-0.15,2.41v2.005c0.342,0,0.684,0,1.025,0c0.341,0,0.682,0.014,1.023,0.042c1.28,0,2.545,0.05,3.797,0.15
			c1.251,0.099,2.501,0.306,3.754,0.618c0.284,0.057,0.562,0.142,0.831,0.256c0.271,0.114,0.548,0.229,0.832,0.341
			c0.086,0.058,0.163,0.121,0.234,0.192s0.164,0.135,0.278,0.192c-0.285,0.312-0.575,0.498-0.875,0.554
			c-0.3,0.058-0.604,0.085-0.917,0.085c-0.655,0.029-1.287,0.036-1.897,0.022c-0.612-0.015-1.245,0.007-1.898,0.064
			c-0.94,0.057-1.871,0.121-2.796,0.191c-0.923,0.072-1.854,0.136-2.793,0.192c-0.087,0.028-0.171,0.05-0.257,0.063
			c-0.084,0.015-0.199,0.05-0.342,0.106c0,0.171,0,0.491,0,0.96s-0.006,1.031-0.021,1.685c-0.014,0.655-0.021,1.344-0.021,2.07
			c0,0.725-0.008,1.415-0.021,2.068c-0.015,0.654-0.021,1.216-0.021,1.685c0,0.47,0,0.79,0,0.961v5.971
			c0,0.683,0.015,1.678,0.043,2.987c0.027,1.308,0.064,2.787,0.105,4.436c0.043,1.65,0.093,3.37,0.15,5.162
			c0.055,1.791,0.135,3.504,0.234,5.141c0.098,1.636,0.2,3.114,0.298,4.436c0.1,1.323,0.221,2.311,0.364,2.965
			c0.197,1.024,0.418,2.047,0.66,3.072c0.24,1.023,0.547,2.033,0.917,3.028c0.057,0.17,0.099,0.349,0.129,0.533
			c0.028,0.186,0.069,0.362,0.127,0.533c0.086,0.229,0.17,0.448,0.256,0.662c0.084,0.213,0.187,0.419,0.299,0.618
			c0.229,0.398,0.449,0.783,0.662,1.152c0.212,0.369,0.433,0.753,0.66,1.151c0.198,0.342,0.235,0.633,0.107,0.875
			c-0.128,0.241-0.391,0.418-0.79,0.533c-0.712,0.142-1.387,0.164-2.024,0.064c-0.641-0.1-1.288-0.264-1.942-0.492
			c-0.995-0.312-1.828-0.789-2.496-1.428s-1.259-1.415-1.771-2.325c-0.767-1.393-1.356-2.822-1.77-4.288
			c-0.413-1.464-0.775-2.964-1.087-4.5c-0.087-0.398-0.158-1.116-0.215-2.154c-0.057-1.038-0.105-2.24-0.149-3.604
			c-0.043-1.366-0.078-2.815-0.106-4.352c-0.028-1.536-0.058-2.986-0.086-4.351c-0.027-1.366-0.042-2.567-0.042-3.605
			c0-1.038,0-1.755,0-2.153c0.029-1.081,0.042-2.14,0.042-3.178s0.028-2.083,0.086-3.136c0.028-0.341,0.063-0.846,0.106-1.514
			c0.044-0.668,0.093-1.422,0.149-2.261s0.114-1.713,0.171-2.624c0.056-0.91,0.114-1.784,0.172-2.623
			c0.056-0.839,0.106-1.593,0.148-2.261s0.077-1.173,0.107-1.515V35.544z"/>
	</g>
	<g enable-background="new    ">
		<path fill="#010101" d="M194.718,207.778c0,0.427-0.225,0.806-0.669,1.136c-0.447,0.33-0.865,0.591-1.251,0.784
			c-0.311,0.156-0.612,0.312-0.903,0.467c-0.29,0.155-0.592,0.213-0.902,0.174c-0.893-0.077-1.786-0.097-2.678-0.057
			c-0.894,0.038-1.747-0.175-2.562-0.642c-0.854-0.427-1.592-0.979-2.212-1.658c-0.622-0.679-1.146-1.465-1.572-2.359
			c-0.698-1.357-1.281-2.735-1.747-4.132c-0.465-1.398-0.854-2.833-1.164-4.309c-0.35-1.746-0.767-3.455-1.252-5.124
			c-0.486-1.667-0.961-3.355-1.426-5.063c-0.505-1.825-0.942-3.658-1.31-5.501c-0.369-1.845-0.749-3.699-1.136-5.561
			c0-0.078-0.01-0.146-0.029-0.204c-0.02-0.058-0.028-0.125-0.028-0.204c-0.079-0.427-0.156-0.757-0.233-0.99
			c-0.079-0.233-0.185-0.409-0.32-0.524c-0.137-0.115-0.321-0.184-0.553-0.204c-0.233-0.019-0.563-0.029-0.99-0.029
			c-3.648,0-7.297-0.174-10.945-0.523c-0.194-0.039-0.407-0.048-0.641-0.029c-0.232,0.02-0.523,0.029-0.873,0.029
			c-0.505,0.038-0.874,0.048-1.106,0.028c-0.233-0.019-0.418,0.01-0.553,0.089c-0.137,0.078-0.262,0.252-0.379,0.524
			c-0.116,0.27-0.292,0.718-0.523,1.338c-1.281,3.144-2.571,6.278-3.872,9.401c-1.301,3.126-2.59,6.26-3.872,9.403
			c-0.465,1.126-0.883,2.262-1.252,3.405c-0.368,1.145-0.767,2.299-1.193,3.465c-0.194,0.62-0.456,1.184-0.786,1.688
			c-0.331,0.504-0.767,0.97-1.311,1.396c-0.232,0.193-0.475,0.359-0.728,0.495c-0.252,0.137-0.533,0.106-0.843-0.088
			c-0.312-0.194-0.495-0.437-0.553-0.729c-0.058-0.29-0.048-0.59,0.029-0.901c0.427-1.669,0.844-3.327,1.252-4.979
			c0.407-1.648,0.882-3.288,1.425-4.919c1.359-4.229,2.862-8.392,4.513-12.486c1.648-4.096,3.211-8.257,4.686-12.488
			c0.815-2.406,1.698-4.745,2.649-7.015c0.951-2.271,1.911-4.57,2.882-6.899c0.969-2.289,1.921-4.56,2.853-6.811
			c0.931-2.25,1.863-4.501,2.793-6.753l1.514-4.075c0.155-0.311,0.272-0.601,0.35-0.874c0.078-0.271,0.271-0.503,0.582-0.699
			c0.544-0.31,1.039-0.64,1.485-0.989c0.446-0.35,0.902-0.699,1.368-1.048c0.388-0.271,0.854-0.503,1.398-0.698
			c0.698-0.155,1.377-0.204,2.037-0.146c0.66,0.059,1.048,0.438,1.165,1.136c0.582,1.708,1.241,3.765,1.979,6.17
			c0.66,2.058,1.417,4.6,2.271,7.627c0.854,3.027,1.842,6.579,2.969,10.653c0.543,2.756,1.106,5.482,1.688,8.18
			c0.583,2.697,1.261,5.385,2.038,8.063c0.466,1.63,0.874,3.28,1.223,4.949c0.35,1.669,0.718,3.339,1.106,5.006
			c1.125,4.191,2.154,7.996,3.085,11.411c0.387,1.476,0.766,2.922,1.135,4.338c0.369,1.416,0.699,2.705,0.989,3.871
			c0.292,1.163,0.515,2.154,0.67,2.969C194.639,207.079,194.718,207.585,194.718,207.778z M169.394,145.021
			c-0.932,2.018-1.844,3.969-2.737,5.851c-0.893,1.882-1.766,3.754-2.62,5.618c-1.786,3.764-3.338,7.53-4.657,11.294
			c-0.078,0.233-0.155,0.456-0.233,0.669c-0.079,0.213-0.079,0.475,0,0.786c0.893-0.077,1.766-0.155,2.62-0.233
			c0.854-0.078,1.708-0.117,2.562-0.117c1.125-0.038,2.25-0.048,3.376-0.028c1.125,0.019,2.25,0.028,3.376,0.028
			c0.699,0,1.107-0.067,1.223-0.203s0.135-0.533,0.058-1.193c-0.349-2.795-0.699-5.58-1.048-8.354
			c-0.35-2.774-0.699-5.56-1.048-8.354c-0.116-0.893-0.232-1.814-0.349-2.765C169.8,147.068,169.626,146.068,169.394,145.021z"/>
		<path fill="#010101" d="M245.424,240.321c-0.194,0.698-0.553,1.213-1.077,1.542c-0.523,0.331-1.077,0.533-1.659,0.611
			c-0.698,0.116-1.456,0.116-2.27,0c-0.272-0.154-0.524-0.319-0.758-0.494c-0.232-0.174-0.446-0.419-0.64-0.728
			c-0.312-0.544-0.622-1.098-0.932-1.659c-0.311-0.562-0.603-1.137-0.873-1.717c-0.815-1.826-1.476-3.668-1.979-5.532
			c-0.505-1.861-0.971-3.764-1.397-5.705c-0.272-1.279-0.476-2.3-0.611-3.056c-0.137-0.758-0.254-1.476-0.35-2.154
			c-0.097-0.679-0.184-1.407-0.262-2.182c-0.078-0.778-0.175-1.807-0.291-3.087c-0.116-1.32-0.253-2.554-0.407-3.697
			c-0.156-1.145-0.312-2.278-0.465-3.404c-0.156-1.126-0.312-2.262-0.466-3.407c-0.156-1.144-0.291-2.376-0.407-3.696
			c-0.194-2.483-0.369-4.957-0.524-7.423c-0.156-2.464-0.311-4.958-0.466-7.479c-0.078-1.825-0.136-3.629-0.175-5.415
			c-0.039-1.785-0.097-3.609-0.174-5.473c-0.079-0.387-0.136-0.814-0.175-1.28c-0.311,0.116-0.611,0.213-0.902,0.292
			c-0.292,0.078-0.592,0.174-0.902,0.29c-2.717,1.01-5.443,1.583-8.18,1.717c-2.737,0.138-5.501-0.203-8.296-1.019
			c-1.863-0.542-3.639-1.251-5.327-2.124c-1.688-0.874-3.27-1.952-4.745-3.231c-0.854-0.7-1.553-1.484-2.096-2.358
			c-0.543-0.873-1.068-1.775-1.571-2.707c-0.272-0.621-0.408-1.184-0.408-1.688c-0.078-1.862,0.165-3.57,0.728-5.124
			c0.562-1.552,1.358-2.911,2.387-4.075c1.028-1.164,2.222-2.114,3.58-2.852c1.358-0.737,2.794-1.203,4.308-1.398
			c3.027-0.426,5.87-0.222,8.528,0.612c2.658,0.835,5.19,2.145,7.598,3.93c0.892,0.66,1.737,1.417,2.532,2.271
			c0.795,0.854,1.601,1.669,2.416,2.445c0.193,0.195,0.368,0.379,0.524,0.553c0.154,0.175,0.368,0.418,0.64,0.729
			c0.078-0.699,0.155-1.339,0.234-1.922c0.077-0.582,0.154-1.144,0.232-1.688c0.117-0.932,0.233-1.854,0.35-2.766
			c0.117-0.911,0.232-1.834,0.349-2.765c0.078-0.698,0.311-1.3,0.699-1.805c0.388-0.504,0.815-0.99,1.281-1.456
			c0.232-0.233,0.485-0.35,0.756-0.35c0.583-0.038,1.165-0.059,1.747-0.059c0.504,0,1.048,0.021,1.629,0.059
			c0.583,0.04,1.126,0.137,1.631,0.291c0.077,0.35,0.155,1.252,0.233,2.708c0.078,1.456,0.154,3.697,0.233,6.724
			c0.077,0.661,0.136,1.31,0.175,1.95c0.038,0.641,0.058,1.291,0.058,1.951c0,0.232,0,0.456,0,0.669c0,0.214-0.021,0.436-0.058,0.67
			c0.154,4.038,0.319,9.102,0.495,15.194c0.175,6.095,0.397,13.469,0.669,22.122c0.155,1.244,0.339,3.173,0.554,5.793
			c0.213,2.62,0.514,5.685,0.902,9.199c0.388,3.511,0.854,7.384,1.397,11.613C243.987,231.51,244.647,235.857,245.424,240.321z
			 M220.799,171.101c1.513,0.04,2.948-0.204,4.307-0.728c1.358-0.523,2.736-1.115,4.134-1.775c-0.662-1.008-1.378-1.892-2.154-2.648
			c-0.778-0.757-1.554-1.505-2.33-2.242c-1.63-1.475-3.309-2.804-5.036-3.988c-1.727-1.184-3.696-2.047-5.908-2.591
			c-2.95-0.736-5.57-0.117-7.86,1.863c-0.815,0.737-1.32,1.621-1.514,2.648c-0.194,1.029,0.058,2.049,0.757,3.057
			c1.009,1.514,2.222,2.718,3.639,3.61c1.417,0.893,2.978,1.591,4.686,2.096c1.202,0.35,2.406,0.543,3.609,0.582
			C218.333,171.024,219.556,171.063,220.799,171.101z"/>
		<path fill="#010101" d="M273.892,171.858c-0.195,0.427-0.378,0.854-0.553,1.281c-0.174,0.427-0.34,0.853-0.494,1.281
			c-0.544,1.746-1.069,3.501-1.572,5.269c-0.505,1.765-1.029,3.521-1.572,5.267c-0.349,1.089-0.679,2.184-0.989,3.291
			c-0.312,1.105-0.698,2.182-1.164,3.231c-0.505,1.008-1.106,1.9-1.805,2.678c-0.699,0.775-1.571,1.378-2.62,1.804
			c-0.195,0.077-0.379,0.194-0.553,0.35c-0.174,0.154-0.359,0.292-0.553,0.406c-0.661,0.39-1.31,0.69-1.95,0.902
			c-0.64,0.215-1.349,0.265-2.125,0.146c-1.281-0.232-2.329-0.814-3.144-1.746c-0.661-0.776-1.222-1.61-1.688-2.504
			c-0.466-0.893-0.854-1.843-1.165-2.853c-0.465-1.514-0.815-3.035-1.047-4.57c-0.233-1.532-0.407-3.095-0.524-4.686
			c-0.117-1.397-0.233-2.805-0.35-4.222c-0.116-1.416-0.194-2.823-0.233-4.221c-0.038-1.474-0.019-2.949,0.058-4.424
			c0.078-1.475,0.155-2.949,0.233-4.424c0.077-1.747,0.193-3.464,0.349-5.152c0.155-1.689,0.292-3.406,0.408-5.153
			c0.077-0.66,0.311-1.299,0.699-1.921c0.388-0.62,0.969-1.009,1.746-1.164c0.271-0.078,0.533-0.155,0.786-0.233
			c0.252-0.078,0.514-0.155,0.787-0.233c1.357-0.154,2.346,0.389,2.968,1.63c0.271,0.504,0.504,1.019,0.698,1.543
			c0.194,0.523,0.292,1.096,0.292,1.717c-0.039,0.738,0.029,1.465,0.204,2.183c0.175,0.719,0.301,1.447,0.378,2.183
			c0.078,0.544,0.136,1.106,0.175,1.688c0.039,0.582,0.078,1.146,0.117,1.688c0.077,1.63,0.146,3.251,0.203,4.862
			c0.059,1.611,0.126,3.23,0.204,4.861c0.078,1.01,0.126,1.99,0.146,2.94c0.019,0.951,0.067,1.93,0.146,2.94
			c0.039,0.777,0.067,1.571,0.088,2.388c0.019,0.813,0.086,1.629,0.203,2.444c0.155,1.126,0.213,2.25,0.175,3.377
			c-0.039,1.125,0.096,2.251,0.407,3.376c0.117,0.582,0.312,1.106,0.583,1.571c0.311,0.582,0.66,0.582,1.049,0
			c0.232-0.388,0.456-0.775,0.669-1.164c0.213-0.387,0.378-0.796,0.495-1.223c0.31-1.24,0.611-2.474,0.902-3.696
			c0.291-1.223,0.592-2.454,0.902-3.697c0.426-1.59,0.834-3.162,1.223-4.716c0.388-1.551,0.814-3.104,1.28-4.656
			c0.35-1.049,0.748-2.067,1.193-3.056c0.446-0.99,0.882-1.989,1.31-2.999c0.194-0.504,0.417-0.99,0.669-1.456
			c0.252-0.466,0.476-0.95,0.67-1.455c0.853-2.057,2.057-3.997,3.609-5.822c0.271-0.271,0.504-0.621,0.699-1.048
			c0.465-1.085,1.281-1.63,2.445-1.63c0.582,0,1.165,0,1.747,0c0.582,0,1.164,0.021,1.746,0.059
			c0.543,0.039,0.912,0.155,1.106,0.349c0.194,0.195,0.368,0.544,0.524,1.048c0.155,0.543,0.223,1.067,0.204,1.571
			c-0.02,0.505-0.029,1.029-0.029,1.573c0,0.854,0.038,1.708,0.116,2.562c0.077,0.854,0.077,1.727,0,2.619
			c-0.079,1.748-0.194,3.494-0.35,5.241c-0.155,1.745-0.291,3.493-0.407,5.239c-0.078,1.164-0.137,2.338-0.175,3.521
			c-0.039,1.185-0.097,2.358-0.174,3.523c-0.04,0.776-0.078,1.552-0.117,2.329c-0.039,0.775-0.078,1.552-0.116,2.328
			c-0.039,0.737-0.079,1.475-0.117,2.212c-0.039,0.736-0.039,1.475,0,2.213c0.038,1.28,0.097,2.571,0.175,3.87
			c0.076,1.302,0.154,2.611,0.232,3.93c0,0.427,0.019,0.835,0.058,1.222c0.039,0.39,0.117,0.798,0.233,1.225
			c0.193,0.621,0.281,1.222,0.263,1.804c-0.021,0.583-0.05,1.186-0.088,1.805c-0.039,0.194-0.078,0.398-0.116,0.612
			c-0.04,0.212-0.156,0.418-0.35,0.61c-0.195,0.195-0.37,0.437-0.524,0.729c-0.156,0.29-0.331,0.573-0.524,0.845
			c-0.078,0.077-0.146,0.165-0.204,0.261c-0.058,0.099-0.126,0.186-0.203,0.262c-0.622,0.544-1.251,1-1.892,1.368
			c-0.64,0.37-1.407,0.533-2.299,0.496c-1.165-0.039-2.038-0.524-2.621-1.456c-0.194-0.31-0.369-0.641-0.524-0.991
			c-0.155-0.349-0.291-0.698-0.407-1.047c-0.582-1.9-1.01-3.804-1.28-5.705c-0.272-1.901-0.408-3.843-0.408-5.821
			c0-2.871,0.029-5.725,0.088-8.559c0.058-2.832,0.242-5.667,0.553-8.5c0.116-0.893,0.242-1.755,0.378-2.59
			c0.136-0.834,0.281-1.698,0.437-2.591c0.039-0.194,0.068-0.408,0.087-0.641c0.02-0.232,0.049-0.446,0.087-0.641
			c-0.039,0-0.067-0.009-0.087-0.028C273.96,171.868,273.931,171.858,273.892,171.858z"/>
		<path fill="#010101" d="M328.848,210.398c-0.427,0.037-0.854-0.021-1.281-0.175c-0.349-0.077-0.727-0.234-1.135-0.466
			c-0.407-0.233-0.786-0.562-1.135-0.989c-1.165-1.668-2.058-3.435-2.678-5.299c-0.621-1.862-1.165-3.783-1.63-5.764
			c-0.272-1.201-0.505-2.405-0.699-3.61c-0.194-1.201-0.35-2.424-0.465-3.667c-0.195-1.863-0.399-3.696-0.612-5.501
			c-0.213-1.804-0.417-3.639-0.61-5.501c-0.04-0.504-0.069-1.01-0.087-1.514c-0.02-0.505-0.068-1.047-0.146-1.63
			c-0.35,0.427-0.651,0.825-0.902,1.193c-0.253,0.368-0.457,0.767-0.611,1.193c-0.698,1.861-1.504,3.677-2.416,5.441
			c-0.912,1.768-1.833,3.543-2.765,5.329c-0.428,0.736-0.796,1.483-1.106,2.241c-0.312,0.756-0.68,1.505-1.106,2.241
			c-0.312,0.545-0.641,1.058-0.99,1.542c-0.349,0.485-0.699,0.96-1.048,1.427c-0.854,1.047-1.747,2.028-2.677,2.939
			c-0.932,0.914-2.019,1.66-3.26,2.242c-1.941,1.01-3.998,1.416-6.171,1.223c-1.01-0.078-1.892-0.389-2.648-0.932
			c-0.757-0.544-1.427-1.223-2.009-2.038c-0.622-0.815-1.077-1.688-1.368-2.62c-0.292-0.932-0.495-1.902-0.612-2.91
			c-0.271-1.863-0.32-3.717-0.146-5.561c0.175-1.843,0.457-3.696,0.845-5.56c0.31-1.357,0.649-2.687,1.019-3.986
			c0.368-1.301,0.882-2.572,1.543-3.815c1.513-2.911,3.493-5.53,5.938-7.858c1.475-1.398,3.007-2.678,4.599-3.843
			c1.592-1.164,3.319-2.191,5.182-3.085c1.862-0.892,3.735-1.629,5.618-2.212c1.882-0.582,3.813-1.028,5.792-1.339
			c0.117,0,0.213-0.02,0.291-0.059c0.077-0.038,0.155-0.058,0.233-0.058c0.31-0.97,0.601-1.892,0.874-2.766
			c0.271-0.873,0.562-1.755,0.873-2.648c0.116-0.427,0.358-0.728,0.728-0.903c0.369-0.175,0.824-0.223,1.368-0.146
			c0.969,0.079,1.698,0.476,2.183,1.193c0.485,0.719,0.766,1.408,0.844,2.067c0.193,0.893,0.261,1.804,0.204,2.736
			c-0.059,0.931-0.126,1.844-0.204,2.736c-0.117,2.292-0.213,4.57-0.292,6.841c-0.078,2.271-0.02,4.551,0.175,6.841
			c0.233,2.872,0.572,5.695,1.019,8.47c0.446,2.775,0.98,5.56,1.601,8.354c0.349,1.669,0.736,3.327,1.165,4.977
			c0.426,1.649,0.853,3.289,1.28,4.919c0.233,0.932,0.495,1.846,0.786,2.736c0.291,0.894,0.591,1.806,0.902,2.735
			c0.038,0.157,0.096,0.429,0.174,0.816c0.078,0.543,0.02,0.98-0.174,1.31c-0.195,0.331-0.486,0.691-0.873,1.078
			c-0.311,0.311-0.651,0.552-1.019,0.727c-0.37,0.175-0.728,0.342-1.077,0.494C329.701,210.146,329.275,210.282,328.848,210.398z
			 M300.905,196.076h0.291c0.233-0.077,0.407-0.153,0.524-0.232c2.173-1.28,3.862-3.046,5.065-5.298
			c0.349-0.661,0.669-1.319,0.961-1.98c0.291-0.659,0.611-1.318,0.96-1.979c0.66-1.24,1.368-2.444,2.125-3.608
			c0.757-1.165,1.368-2.424,1.834-3.783c0.388-1.049,0.833-2.077,1.338-3.086c0.504-1.009,0.97-2.018,1.397-3.028
			c0.543-1.318,1.086-2.639,1.63-3.958c0.543-1.319,1.009-2.658,1.397-4.017c0.117-0.427,0.213-0.853,0.291-1.281
			c0.078-0.427,0.059-0.892-0.058-1.397c-0.428,0.079-0.825,0.185-1.193,0.321c-0.369,0.136-0.727,0.301-1.077,0.495
			c-1.397,0.698-2.766,1.436-4.104,2.212c-1.339,0.777-2.63,1.63-3.872,2.562c-1.009,0.776-1.96,1.581-2.852,2.416
			c-0.894,0.834-1.611,1.815-2.155,2.941c-0.232,0.504-0.476,1-0.727,1.484c-0.253,0.486-0.476,0.981-0.669,1.484
			c-0.312,0.814-0.612,1.64-0.903,2.474c-0.29,0.835-0.533,1.68-0.728,2.533c-0.194,0.737-0.329,1.484-0.407,2.241
			c-0.079,0.757-0.156,1.524-0.234,2.3c-0.155,1.28-0.223,2.562-0.203,3.843c0.019,1.279,0.145,2.561,0.377,3.842
			c0.078,0.427,0.185,0.863,0.321,1.309C300.37,195.33,300.593,195.727,300.905,196.076z"/>
		<path fill="#010101" d="M364.01,199.22c0.271-0.544,0.514-1.008,0.728-1.396c0.213-0.39,0.397-0.796,0.553-1.223
			c0.931-2.562,1.824-5.104,2.678-7.628c0.854-2.522,1.61-5.103,2.27-7.741c0.35-1.476,0.708-2.922,1.078-4.339
			c0.368-1.416,0.746-2.842,1.134-4.278c0.349-1.242,0.699-2.474,1.048-3.698c0.35-1.222,0.718-2.435,1.107-3.638
			c0.542-1.708,1.066-3.386,1.571-5.036c0.504-1.649,1.028-3.309,1.572-4.978c0.194-0.543,0.427-1.057,0.698-1.543
			c0.272-0.485,0.66-0.921,1.166-1.31c0.31-0.271,0.649-0.466,1.019-0.583c0.369-0.117,0.786-0.077,1.252,0.117
			c-0.039,0.194-0.059,0.37-0.059,0.523c0,0.156-0.02,0.312-0.059,0.466l-0.349,2.271c-0.079,0.311-0.146,0.64-0.204,0.989
			c-0.058,0.349-0.126,0.68-0.204,0.99c-0.271,0.894-0.534,1.757-0.786,2.591c-0.253,0.835-0.515,1.68-0.786,2.532
			c-0.194,0.583-0.369,1.165-0.524,1.747c-0.155,0.582-0.33,1.165-0.523,1.747c-0.622,1.825-1.116,3.659-1.485,5.502
			c-0.369,1.843-0.786,3.696-1.251,5.561c-0.661,2.793-1.291,5.587-1.892,8.382c-0.603,2.794-1.331,5.589-2.184,8.384
			c-0.544,1.708-1.116,3.375-1.718,5.006c-0.602,1.631-1.33,3.241-2.183,4.832c-0.466,0.854-0.942,1.689-1.426,2.503
			c-0.486,0.816-0.981,1.63-1.485,2.446c-0.039,0.039-0.058,0.087-0.058,0.146c0,0.056-0.021,0.086-0.058,0.086
			c-0.35,0.04-0.631,0.184-0.844,0.437c-0.214,0.253-0.457,0.437-0.728,0.553c-0.312,0.157-0.64,0.244-0.989,0.262
			c-0.35,0.021-0.68,0.069-0.991,0.146c-0.155,0.04-0.301,0.049-0.436,0.028c-0.136-0.019-0.282,0.012-0.437,0.088
			c-1.048,0.504-2.037,0.368-2.969-0.407c-0.698-0.582-1.222-1.224-1.571-1.921c-1.048-2.097-2.038-4.192-2.969-6.29
			c-0.894-2.095-1.756-4.17-2.591-6.227c-0.834-2.058-1.679-4.134-2.533-6.229c-0.544-1.477-1.077-2.941-1.6-4.397
			c-0.524-1.455-1.058-2.92-1.602-4.395c-0.349-0.932-0.698-1.853-1.048-2.766c-0.349-0.911-0.679-1.814-0.989-2.707
			c-0.816-2.445-1.583-4.88-2.3-7.307c-0.718-2.425-1.291-4.899-1.717-7.422c-0.155-0.775-0.253-1.572-0.291-2.387
			c-0.039-0.815-0.078-1.61-0.116-2.387c0-0.31,0.038-0.611,0.116-0.902c0.077-0.292,0.155-0.591,0.233-0.902
			c0.077-0.194,0.135-0.388,0.175-0.583c0.038-0.193,0.096-0.387,0.174-0.582c0.194-0.815,0.621-1.357,1.281-1.63
			c0.66-0.271,1.319-0.155,1.979,0.349c0.776,0.544,1.435,1.193,1.979,1.951c0.543,0.757,1.028,1.543,1.455,2.358
			c1.048,2.096,1.988,4.202,2.823,6.316c0.835,2.116,1.698,4.241,2.591,6.375c0.66,1.475,1.31,2.96,1.95,4.454
			c0.641,1.495,1.29,2.979,1.951,4.454c0.699,1.746,1.387,3.473,2.067,5.182c0.679,1.708,1.387,3.435,2.125,5.181
			c0.775,1.863,1.571,3.708,2.387,5.53c0.814,1.824,1.629,3.669,2.444,5.531c0.039,0.077,0.088,0.175,0.146,0.291
			C363.865,198.812,363.932,198.987,364.01,199.22z"/>
		<path fill="#010101" d="M425.486,186.762c-0.737,1.63-1.482,3.24-2.241,4.831c-0.755,1.594-1.561,3.185-2.415,4.775
			c-0.777,1.515-1.66,2.959-2.648,4.337c-0.989,1.378-2.048,2.706-3.174,3.987c-1.707,2.019-3.638,3.543-5.793,4.57
			c-2.152,1.028-4.628,1.387-7.421,1.076c-2.911-0.31-5.396-1.222-7.452-2.736c-2.059-1.513-3.766-3.55-5.123-6.111
			c-0.933-1.863-1.66-3.755-2.183-5.677c-0.525-1.922-0.884-3.909-1.078-5.968c-0.194-1.591-0.282-3.162-0.263-4.715
			c0.021-1.553,0.069-3.123,0.146-4.716c0.078-1.63,0.252-3.24,0.524-4.831c0.271-1.593,0.641-3.183,1.107-4.774
			c0.659-2.329,1.464-4.58,2.416-6.753s2.202-4.21,3.754-6.113c0.932-1.164,1.96-2.202,3.085-3.115
			c1.126-0.911,2.349-1.717,3.67-2.415c1.124-0.583,2.277-1.058,3.463-1.427c1.184-0.369,2.395-0.591,3.638-0.669
			c1.397-0.077,2.775,0,4.133,0.233c1.36,0.233,2.658,0.796,3.901,1.688c0.311,0.232,0.631,0.457,0.962,0.669
			c0.328,0.214,0.67,0.417,1.018,0.612c1.202,0.776,2.242,1.708,3.114,2.794c0.874,1.087,1.679,2.251,2.416,3.493
			c0.738,1.242,1.204,2.562,1.397,3.958c0.195,1.397,0.155,2.834-0.114,4.308c-0.934,4.814-3.203,8.947-6.813,12.401
			c-1.047,1.009-2.115,1.989-3.202,2.938c-1.086,0.952-2.233,1.835-3.434,2.649c-1.71,1.126-3.485,2.038-5.327,2.736
			c-1.845,0.698-3.814,1.086-5.911,1.165c-0.038,0-0.213,0.038-0.523,0.116c0.271,1.669,0.68,3.241,1.222,4.716
			c0.544,1.476,1.34,2.833,2.388,4.075c0.894,1.01,1.892,1.767,2.999,2.271c1.104,0.504,2.319,0.797,3.638,0.873
			c0.542,0.039,1.019-0.068,1.426-0.321c0.408-0.25,0.825-0.533,1.253-0.844c0.892-0.774,1.707-1.619,2.445-2.531
			c0.737-0.912,1.417-1.873,2.037-2.882c0.891-1.358,1.707-2.736,2.444-4.134s1.397-2.833,1.98-4.308
			c0.311-0.699,0.67-1.291,1.076-1.776c0.409-0.485,0.998-0.786,1.777-0.901c0.463,0.039,0.873,0.154,1.222,0.35
			c0.271,0.193,0.484,0.454,0.638,0.784C425.817,185.781,425.758,186.219,425.486,186.762z M398.591,186.704
			c0.502-0.079,0.961-0.136,1.368-0.175c0.407-0.039,0.806-0.117,1.193-0.233c1.357-0.31,2.651-0.766,3.873-1.368
			c1.222-0.602,2.377-1.309,3.464-2.125c0.89-0.659,1.745-1.328,2.56-2.007c0.816-0.68,1.611-1.389,2.389-2.126
			c1.628-1.475,2.91-3.144,3.841-5.007c0.933-1.864,1.573-3.861,1.924-5.997c0.191-0.97,0.191-1.892,0-2.765
			c-0.196-0.873-0.623-1.697-1.282-2.475c-1.244-1.474-2.708-2.435-4.397-2.881c-1.687-0.446-3.402-0.242-5.152,0.611
			c-1.513,0.737-2.821,1.699-3.929,2.881c-1.104,1.185-2.027,2.514-2.765,3.988c-1.243,2.485-2.134,5.143-2.679,7.976
			c-0.311,1.514-0.532,3.027-0.667,4.542c-0.138,1.513-0.167,3.047-0.089,4.598c0.04,0.428,0.089,0.845,0.146,1.251
			C398.445,185.801,398.513,186.237,398.591,186.704z"/>
		<path fill="#010101" d="M440.974,189.322c0.232-0.774,0.467-1.561,0.699-2.356c0.231-0.795,0.446-1.582,0.641-2.359
			c0.31-1.317,0.658-2.609,1.047-3.869c0.388-1.262,0.854-2.513,1.398-3.756c0.541-1.357,1.115-2.725,1.716-4.104
			c0.602-1.378,1.232-2.746,1.894-4.104c0.582-1.203,1.192-2.388,1.832-3.552c0.641-1.165,1.29-2.309,1.951-3.436
			c0.543-0.931,1.087-1.843,1.63-2.735c0.544-0.893,1.126-1.785,1.747-2.679c0.388-0.582,0.824-1.134,1.31-1.659
			c0.484-0.523,0.959-1.057,1.427-1.601c0.271-0.31,0.533-0.591,0.786-0.845c0.25-0.251,0.512-0.533,0.785-0.843
			c0.504-0.621,1.183-0.932,2.037-0.932c0.427,0.04,0.825,0.078,1.193,0.116c0.369,0.04,0.747,0.059,1.135,0.059
			c0.468,0.039,0.835,0.204,1.105,0.495c0.272,0.291,0.525,0.592,0.759,0.902c0.311,0.388,0.554,0.796,0.728,1.223
			c0.176,0.427,0.319,0.873,0.437,1.339c0.426,1.902,0.67,3.793,0.728,5.676c0.059,1.883,0.009,3.794-0.146,5.735
			c-0.114,1.63-0.241,3.261-0.378,4.89c-0.136,1.63-0.242,3.259-0.32,4.889c-0.194,2.834-0.329,5.667-0.405,8.501
			c-0.08,2.832-0.061,5.665,0.057,8.498c0.078,1.36,0.146,2.719,0.205,4.076c0.057,1.359,0.202,2.717,0.437,4.075
			c0.076,0.428,0.145,0.826,0.202,1.194c0.059,0.368,0.126,0.746,0.203,1.135c0.079,0.311,0.128,0.61,0.146,0.901
			c0.02,0.292-0.087,0.593-0.32,0.903c0,0.038-0.009,0.059-0.029,0.059c-0.019,0-0.028,0.019-0.028,0.057
			c0.076,0.661-0.07,1.146-0.437,1.454c-0.371,0.312-0.808,0.584-1.311,0.817c-0.504,0.194-0.989,0.399-1.455,0.61
			c-0.466,0.214-0.972,0.419-1.513,0.612c-0.778,0.271-1.603,0.271-2.476,0c-0.873-0.272-1.563-0.737-2.066-1.398
			c-0.116-0.153-0.185-0.329-0.203-0.522c-0.021-0.195-0.068-0.389-0.146-0.583c-0.038-0.155-0.058-0.3-0.058-0.437
			c0-0.135-0.021-0.281-0.06-0.436c-0.814-4.231-1.164-8.539-1.047-12.926c0-0.853-0.01-1.696-0.029-2.531
			c-0.02-0.834,0.009-1.679,0.087-2.533c0.079-1.357,0.185-2.715,0.32-4.076c0.136-1.356,0.263-2.714,0.38-4.073
			c0.116-1.127,0.241-2.251,0.377-3.378c0.137-1.123,0.301-2.25,0.495-3.376c0.117-0.892,0.263-1.784,0.437-2.678
			c0.176-0.892,0.339-1.784,0.495-2.678c0.272-1.668,0.562-3.327,0.874-4.977c0.31-1.649,0.504-3.327,0.581-5.035
			c0.038-0.234,0.049-0.466,0.03-0.7c-0.021-0.232-0.03-0.504-0.03-0.814c-1.203,0.854-2.174,1.824-2.91,2.91
			c-0.428,0.661-0.825,1.331-1.193,2.009c-0.369,0.68-0.747,1.35-1.136,2.008c-0.429,0.738-0.864,1.475-1.31,2.212
			c-0.447,0.738-0.884,1.476-1.311,2.212c-0.465,0.815-0.872,1.631-1.224,2.446c-0.542,1.164-1.074,2.32-1.6,3.463
			c-0.522,1.145-1.057,2.3-1.601,3.465c-0.233,0.544-0.447,1.115-0.642,1.718c-0.193,0.601-0.388,1.193-0.581,1.774
			c-0.506,1.514-1.001,3.027-1.486,4.542c-0.485,1.513-0.959,3.026-1.424,4.54c-0.272,0.776-0.486,1.562-0.641,2.356
			c-0.155,0.797-0.35,1.584-0.583,2.359c-0.311,1.125-0.504,2.279-0.581,3.465c-0.08,1.184-0.215,2.356-0.408,3.521
			c-0.077,0.543-0.185,1.086-0.319,1.629c-0.139,0.544-0.242,1.088-0.322,1.631c-0.077,0.505-0.136,0.999-0.174,1.483
			c-0.038,0.486-0.138,0.962-0.29,1.427c-0.196,0.776-0.467,1.476-0.816,2.097c-0.154,0.311-0.32,0.544-0.494,0.698
			c-0.176,0.155-0.438,0.33-0.786,0.524c-0.272,0.116-0.553,0.186-0.844,0.203c-0.291,0.021-0.592,0.03-0.901,0.03
			c-0.312,0-0.594-0.009-0.845-0.03c-0.253-0.018-0.476-0.145-0.671-0.378c-0.854-0.894-1.494-1.864-1.919-2.911
			c-0.622-1.552-1.089-3.115-1.399-4.686c-0.312-1.572-0.562-3.173-0.757-4.804c-0.193-1.863-0.406-3.727-0.64-5.59
			c-0.232-1.86-0.408-3.725-0.523-5.588c-0.118-2.212-0.185-4.434-0.204-6.666c-0.021-2.231-0.029-4.473-0.029-6.724
			c0-1.747,0.049-3.493,0.146-5.24c0.096-1.746,0.184-3.512,0.261-5.297c0.117-2.212,0.291-4.502,0.525-6.87
			c0.076-0.659,0.211-1.319,0.406-1.979c0.193-0.66,0.503-1.281,0.933-1.863c0.425-0.621,0.95-0.951,1.57-0.99
			c0.544-0.078,1.047-0.059,1.515,0.058c0.465,0.117,0.872,0.446,1.223,0.989c0.35,0.544,0.63,1.077,0.845,1.602
			c0.211,0.523,0.357,1.116,0.436,1.775c0.076,0.776,0.175,1.523,0.291,2.241c0.117,0.719,0.233,1.465,0.348,2.241
			c0.195,1.087,0.341,2.154,0.439,3.202c0.096,1.048,0.163,2.135,0.202,3.26c0.077,1.63,0.165,3.241,0.262,4.832
			c0.098,1.592,0.184,3.203,0.264,4.832c0.076,1.746,0.153,3.484,0.232,5.211c0.077,1.728,0.155,3.464,0.232,5.21
			c0.038,0.544,0.076,1.077,0.116,1.602c0.038,0.524,0.098,1.058,0.175,1.6H440.974z"/>
		<path fill="#010101" d="M490.225,143.915c-0.196-0.039-0.458-0.078-0.787-0.117c-0.33-0.039-0.592-0.058-0.786-0.058h-8.673
			c-0.661,0-1.331,0.029-2.01,0.087c-0.679,0.059-1.368,0.068-2.066,0.029c-0.35,0-0.709-0.039-1.078-0.116
			c-0.368-0.078-0.728-0.175-1.076-0.292c-0.311-0.117-0.601-0.261-0.873-0.436c-0.271-0.175-0.563-0.339-0.874-0.495
			c0.118-0.854,0.62-1.339,1.515-1.456c1.048-0.117,2.096-0.223,3.144-0.321c1.047-0.096,2.075-0.203,3.085-0.32
			c1.668-0.154,3.319-0.271,4.949-0.349c1.63-0.078,3.259-0.078,4.89,0c0.076,0,0.233-0.009,0.466-0.029
			c0.233-0.019,0.387-0.048,0.466-0.087c0.077-0.544,0.155-1.086,0.232-1.63c0.077-0.543,0.155-1.085,0.232-1.63
			c0.194-1.125,0.38-2.164,0.554-3.115c0.175-0.951,0.359-1.988,0.553-3.114c0.078-0.583,0.175-1.164,0.292-1.747
			c0.116-0.583,0.212-1.165,0.291-1.747v-0.523c-0.116-1.514,0.504-2.445,1.862-2.795c0.66-0.193,1.311-0.299,1.951-0.32
			c0.64-0.019,1.23,0.224,1.775,0.728c0.466,0.389,0.845,0.815,1.135,1.281c0.291,0.466,0.378,1.048,0.263,1.747
			c-0.079,0.544-0.107,1.106-0.088,1.688c0.02,0.583,0.028,1.145,0.028,1.689c0,1.164-0.067,2.261-0.203,3.289
			s-0.203,2.125-0.203,3.289v2.736c0.466,0,0.931,0,1.398,0c0.464,0,0.93,0.021,1.396,0.059c1.747,0,3.474,0.068,5.182,0.204
			c1.707,0.137,3.415,0.417,5.123,0.844c0.388,0.079,0.767,0.195,1.135,0.35c0.369,0.155,0.747,0.311,1.135,0.466
			c0.117,0.078,0.224,0.166,0.321,0.262c0.096,0.097,0.222,0.185,0.379,0.262c-0.391,0.428-0.787,0.679-1.194,0.757
			c-0.406,0.079-0.825,0.117-1.251,0.117c-0.895,0.039-1.757,0.048-2.592,0.029c-0.834-0.019-1.698,0.01-2.591,0.087
			c-1.281,0.078-2.553,0.166-3.813,0.262c-1.261,0.098-2.531,0.185-3.812,0.263c-0.116,0.039-0.233,0.067-0.349,0.087
			c-0.117,0.02-0.272,0.068-0.466,0.145c0,0.234,0,0.67,0,1.311s-0.011,1.407-0.029,2.3c-0.02,0.893-0.029,1.833-0.029,2.823
			c0,0.99-0.011,1.932-0.028,2.824c-0.021,0.893-0.03,1.659-0.03,2.299c0,0.641,0,1.077,0,1.31v8.15c0,0.932,0.02,2.291,0.059,4.075
			c0.037,1.787,0.087,3.805,0.146,6.056c0.058,2.25,0.126,4.599,0.203,7.044c0.076,2.443,0.184,4.783,0.322,7.015
			c0.135,2.232,0.27,4.25,0.405,6.054c0.135,1.807,0.301,3.154,0.495,4.047c0.271,1.396,0.572,2.795,0.903,4.191
			c0.33,1.396,0.746,2.775,1.251,4.133c0.077,0.234,0.136,0.477,0.174,0.729c0.039,0.253,0.098,0.495,0.176,0.729
			c0.116,0.311,0.232,0.61,0.35,0.901c0.116,0.291,0.251,0.572,0.406,0.845c0.311,0.543,0.613,1.067,0.904,1.571
			c0.289,0.504,0.591,1.027,0.901,1.572c0.272,0.465,0.32,0.863,0.146,1.193c-0.175,0.329-0.534,0.572-1.077,0.728
			c-0.971,0.193-1.893,0.223-2.766,0.087c-0.873-0.137-1.756-0.358-2.649-0.669c-1.358-0.427-2.494-1.077-3.405-1.95
			c-0.911-0.874-1.718-1.933-2.415-3.173c-1.048-1.901-1.855-3.852-2.417-5.851s-1.057-4.046-1.485-6.143
			c-0.115-0.543-0.213-1.523-0.29-2.94c-0.078-1.416-0.146-3.055-0.203-4.918c-0.059-1.863-0.107-3.843-0.145-5.938
			c-0.041-2.096-0.08-4.075-0.117-5.938c-0.039-1.863-0.059-3.501-0.059-4.918c0-1.417,0-2.396,0-2.941
			c0.037-1.475,0.059-2.92,0.059-4.337c0-1.417,0.037-2.843,0.117-4.279c0.037-0.465,0.086-1.154,0.145-2.066
			c0.057-0.912,0.125-1.939,0.203-3.085c0.077-1.145,0.155-2.338,0.233-3.58c0.076-1.242,0.153-2.435,0.233-3.581
			c0.076-1.145,0.145-2.173,0.203-3.086c0.059-0.911,0.107-1.601,0.146-2.066V143.915z"/>
		<path fill="#010101" d="M539.823,171.858c-0.193,0.427-0.377,0.854-0.552,1.281c-0.176,0.427-0.339,0.853-0.495,1.281
			c-0.545,1.746-1.067,3.501-1.573,5.269c-0.504,1.765-1.027,3.521-1.57,5.267c-0.35,1.089-0.679,2.184-0.989,3.291
			c-0.312,1.105-0.699,2.182-1.166,3.231c-0.504,1.008-1.105,1.9-1.804,2.678c-0.698,0.775-1.572,1.378-2.62,1.804
			c-0.193,0.077-0.377,0.194-0.552,0.35c-0.175,0.154-0.359,0.292-0.554,0.406c-0.661,0.39-1.31,0.69-1.95,0.902
			c-0.641,0.215-1.35,0.265-2.126,0.146c-1.28-0.232-2.328-0.814-3.142-1.746c-0.661-0.776-1.225-1.61-1.689-2.504
			c-0.467-0.893-0.854-1.843-1.165-2.853c-0.465-1.514-0.814-3.035-1.047-4.57c-0.233-1.532-0.408-3.095-0.524-4.686
			c-0.117-1.397-0.233-2.805-0.349-4.222c-0.118-1.416-0.196-2.823-0.234-4.221c-0.037-1.474-0.019-2.949,0.059-4.424
			c0.079-1.475,0.155-2.949,0.232-4.424c0.079-1.747,0.194-3.464,0.35-5.152c0.154-1.689,0.292-3.406,0.408-5.153
			c0.077-0.66,0.31-1.299,0.697-1.921c0.388-0.62,0.972-1.009,1.748-1.164c0.271-0.078,0.532-0.155,0.786-0.233
			c0.251-0.078,0.514-0.155,0.785-0.233c1.359-0.154,2.348,0.389,2.97,1.63c0.271,0.504,0.503,1.019,0.697,1.543
			c0.194,0.523,0.292,1.096,0.292,1.717c-0.038,0.738,0.029,1.465,0.204,2.183c0.175,0.719,0.299,1.447,0.377,2.183
			c0.079,0.544,0.137,1.106,0.176,1.688c0.038,0.582,0.077,1.146,0.117,1.688c0.077,1.63,0.146,3.251,0.202,4.862
			c0.06,1.611,0.127,3.23,0.205,4.861c0.078,1.01,0.124,1.99,0.145,2.94c0.02,0.951,0.068,1.93,0.146,2.94
			c0.038,0.777,0.068,1.571,0.087,2.388c0.021,0.813,0.089,1.629,0.204,2.444c0.155,1.126,0.214,2.25,0.176,3.377
			c-0.04,1.125,0.096,2.251,0.406,3.376c0.117,0.582,0.311,1.106,0.583,1.571c0.311,0.582,0.66,0.582,1.048,0
			c0.232-0.388,0.454-0.775,0.669-1.164c0.215-0.387,0.379-0.796,0.495-1.223c0.311-1.24,0.61-2.474,0.903-3.696
			c0.291-1.223,0.591-2.454,0.902-3.697c0.426-1.59,0.833-3.162,1.222-4.716c0.388-1.551,0.815-3.104,1.281-4.656
			c0.35-1.049,0.747-2.067,1.192-3.056c0.446-0.99,0.884-1.989,1.312-2.999c0.192-0.504,0.416-0.99,0.669-1.456
			c0.252-0.466,0.476-0.95,0.669-1.455c0.854-2.057,2.057-3.997,3.61-5.822c0.271-0.271,0.503-0.621,0.698-1.048
			c0.465-1.085,1.281-1.63,2.444-1.63c0.583,0,1.165,0,1.747,0c0.583,0,1.164,0.021,1.746,0.059
			c0.543,0.039,0.911,0.155,1.106,0.349c0.193,0.195,0.369,0.544,0.523,1.048c0.155,0.543,0.223,1.067,0.205,1.571
			c-0.021,0.505-0.03,1.029-0.03,1.573c0,0.854,0.039,1.708,0.117,2.562c0.076,0.854,0.076,1.727,0,2.619
			c-0.078,1.748-0.194,3.494-0.35,5.241c-0.155,1.745-0.291,3.493-0.407,5.239c-0.078,1.164-0.138,2.338-0.175,3.521
			c-0.039,1.185-0.098,2.358-0.175,3.523c-0.039,0.776-0.077,1.552-0.117,2.329c-0.039,0.775-0.078,1.552-0.116,2.328
			c-0.039,0.737-0.077,1.475-0.115,2.212c-0.039,0.736-0.039,1.475,0,2.213c0.038,1.28,0.097,2.571,0.174,3.87
			c0.077,1.302,0.155,2.611,0.232,3.93c0,0.427,0.02,0.835,0.059,1.222c0.037,0.39,0.118,0.798,0.233,1.225
			c0.193,0.621,0.28,1.222,0.262,1.804c-0.02,0.583-0.05,1.186-0.087,1.805c-0.04,0.194-0.079,0.398-0.116,0.612
			c-0.039,0.212-0.156,0.418-0.351,0.61c-0.194,0.195-0.368,0.437-0.524,0.729c-0.154,0.29-0.328,0.573-0.522,0.845
			c-0.079,0.077-0.146,0.165-0.204,0.261c-0.059,0.099-0.127,0.186-0.204,0.262c-0.62,0.544-1.25,1-1.892,1.368
			c-0.64,0.37-1.407,0.533-2.301,0.496c-1.163-0.039-2.036-0.524-2.617-1.456c-0.197-0.31-0.372-0.641-0.525-0.991
			c-0.156-0.349-0.292-0.698-0.407-1.047c-0.582-1.9-1.01-3.804-1.281-5.705c-0.272-1.901-0.407-3.843-0.407-5.821
			c0-2.871,0.029-5.725,0.087-8.559c0.059-2.832,0.243-5.667,0.554-8.5c0.116-0.893,0.241-1.755,0.377-2.59
			c0.138-0.834,0.283-1.698,0.437-2.591c0.039-0.194,0.068-0.408,0.089-0.641c0.019-0.232,0.049-0.446,0.087-0.641
			c-0.038,0-0.068-0.009-0.087-0.028C539.892,171.868,539.862,171.858,539.823,171.858z"/>
		<path fill="#010101" d="M586.688,158.934c0.233,1.592,0.417,3.165,0.555,4.716c0.135,1.552,0.184,3.144,0.145,4.773
			c0,0.351-0.021,0.7-0.058,1.048c-0.039,0.35-0.098,0.681-0.174,0.99l-0.35,3.318c-0.43,0.195-0.769,0.263-1.019,0.204
			c-0.254-0.059-0.517-0.281-0.787-0.669c-1.087-1.358-1.708-2.832-1.862-4.425c-0.157-1.125-0.262-2.271-0.321-3.435
			c-0.058-1.164-0.164-2.309-0.32-3.434c-0.115-0.816-0.28-1.64-0.495-2.475c-0.214-0.835-0.416-1.66-0.61-2.474
			c-0.078-0.271-0.186-0.534-0.321-0.787c-0.135-0.252-0.281-0.533-0.437-0.844c-0.388,0.312-0.766,0.592-1.135,0.844
			c-0.368,0.252-0.708,0.534-1.019,0.844c-1.359,1.32-2.641,2.707-3.842,4.162c-1.204,1.456-2.31,2.999-3.319,4.629
			c-0.932,1.513-1.736,3.085-2.415,4.716c-0.681,1.629-1.232,3.317-1.658,5.064c-0.079,0.194-0.117,0.417-0.117,0.671
			c0,0.252,0,0.495,0,0.726c0.117,1.011,0.242,2.01,0.378,2.999c0.136,0.99,0.301,1.989,0.494,2.998
			c0.271,1.243,0.476,2.504,0.613,3.784c0.135,1.281,0.299,2.562,0.492,3.842c0.079,0.39,0.146,0.759,0.205,1.107
			c0.058,0.35,0.125,0.698,0.204,1.047c0.077,0.814,0.166,1.631,0.262,2.446c0.097,0.813,0.184,1.61,0.261,2.386
			c0.118,0.776,0.233,1.572,0.35,2.387c0.118,0.816,0.233,1.611,0.35,2.387c0.078,0.35,0.155,0.699,0.233,1.049
			s0.154,0.699,0.232,1.047c0.078,0.273,0.097,0.544,0.059,0.816c-0.038,0.271-0.077,0.544-0.115,0.814
			c-0.041,0.505-0.107,1-0.205,1.484c-0.097,0.486-0.301,0.922-0.611,1.311l-0.348,0.351c-0.312,0.27-0.72,0.406-1.224,0.406
			c-0.39,0.193-0.913,0.369-1.571,0.524c-0.661,0.153-1.331,0.232-2.01,0.232s-1.302-0.107-1.862-0.321
			c-0.563-0.212-0.941-0.59-1.136-1.134c-0.504-1.592-0.999-3.609-1.484-6.056c-0.485-2.444-0.96-5.131-1.427-8.063
			c-0.465-2.93-0.911-5.995-1.338-9.198c-0.429-3.201-0.826-6.364-1.192-9.489c-0.372-3.123-0.701-6.102-0.991-8.935
			s-0.544-5.336-0.757-7.51c-0.214-2.173-0.369-3.92-0.466-5.24s-0.146-2.018-0.146-2.096c0.037-0.116,0.213-0.252,0.523-0.407
			c0.31-0.155,0.67-0.291,1.077-0.407c0.409-0.117,0.823-0.223,1.251-0.32c0.428-0.097,0.758-0.184,0.99-0.263
			c0.038-0.038,0.117-0.058,0.234-0.058c0.037,0,0.056-0.019,0.056-0.059v0.059c0.234-0.078,0.457-0.117,0.672-0.117
			c0.212,0,0.415,0,0.609,0c0.429,0,0.718,0.137,0.875,0.408c0.153,0.271,0.35,0.582,0.58,0.931
			c0.778,1.242,1.416,2.571,1.923,3.987c0.505,1.417,0.949,2.863,1.34,4.337c0.271,1.01,0.493,2.019,0.668,3.027
			c0.175,1.01,0.357,2.02,0.555,3.027c0,0.078,0.008,0.146,0.027,0.205c0.021,0.058,0.049,0.184,0.088,0.378
			c0.154-0.311,0.291-0.583,0.407-0.815c0.115-0.233,0.213-0.446,0.291-0.64c0.737-1.786,1.726-3.512,2.97-5.182
			c1.008-1.318,2.037-2.619,3.085-3.9c1.049-1.28,2.231-2.444,3.552-3.493c0.271-0.232,0.553-0.455,0.844-0.668
			s0.593-0.456,0.901-0.728c0.699-0.543,1.447-0.883,2.243-1.019c0.795-0.136,1.619-0.166,2.473-0.087
			c0.351,0.039,0.641,0.175,0.875,0.407c0.232,0.234,0.445,0.486,0.64,0.757c0.853,1.048,1.446,2.173,1.775,3.377
			C586.232,156.412,586.494,157.653,586.688,158.934z"/>
		<path fill="#010101" d="M631.457,186.762c-0.737,1.63-1.484,3.24-2.241,4.831c-0.757,1.594-1.562,3.185-2.415,4.775
			c-0.777,1.515-1.661,2.959-2.65,4.337c-0.988,1.378-2.048,2.706-3.171,3.987c-1.708,2.019-3.641,3.543-5.794,4.57
			c-2.153,1.028-4.628,1.387-7.424,1.076c-2.909-0.31-5.394-1.222-7.45-2.736c-2.058-1.513-3.766-3.55-5.122-6.111
			c-0.933-1.863-1.661-3.755-2.184-5.677c-0.525-1.922-0.885-3.909-1.077-5.968c-0.195-1.591-0.28-3.162-0.262-4.715
			c0.02-1.553,0.066-3.123,0.144-4.716c0.08-1.63,0.253-3.24,0.524-4.831c0.272-1.593,0.641-3.183,1.106-4.774
			c0.66-2.329,1.465-4.58,2.416-6.753s2.203-4.21,3.756-6.113c0.931-1.164,1.958-2.202,3.086-3.115
			c1.124-0.911,2.348-1.717,3.668-2.415c1.124-0.583,2.278-1.058,3.462-1.427c1.186-0.369,2.397-0.591,3.639-0.669
			c1.397-0.077,2.775,0,4.135,0.233c1.358,0.233,2.656,0.796,3.9,1.688c0.31,0.232,0.63,0.457,0.959,0.669
			c0.33,0.214,0.67,0.417,1.02,0.612c1.204,0.776,2.241,1.708,3.114,2.794c0.875,1.087,1.68,2.251,2.417,3.493
			c0.736,1.242,1.202,2.562,1.396,3.958c0.194,1.397,0.155,2.834-0.115,4.308c-0.932,4.814-3.204,8.947-6.812,12.401
			c-1.047,1.009-2.116,1.989-3.2,2.938c-1.089,0.952-2.233,1.835-3.438,2.649c-1.708,1.126-3.482,2.038-5.326,2.736
			c-1.843,0.698-3.813,1.086-5.909,1.165c-0.038,0-0.212,0.038-0.522,0.116c0.271,1.669,0.679,3.241,1.222,4.716
			c0.544,1.476,1.34,2.833,2.387,4.075c0.893,1.01,1.892,1.767,2.999,2.271c1.105,0.504,2.318,0.797,3.639,0.873
			c0.541,0.039,1.018-0.068,1.426-0.321c0.408-0.25,0.824-0.533,1.251-0.844c0.893-0.774,1.707-1.619,2.446-2.531
			c0.736-0.912,1.416-1.873,2.036-2.882c0.893-1.358,1.709-2.736,2.445-4.134c0.737-1.397,1.397-2.833,1.979-4.308
			c0.31-0.699,0.67-1.291,1.078-1.776c0.407-0.485,0.997-0.786,1.774-0.901c0.467,0.039,0.873,0.154,1.223,0.35
			c0.272,0.193,0.484,0.454,0.641,0.784C631.786,185.781,631.728,186.219,631.457,186.762z M604.562,186.704
			c0.504-0.079,0.96-0.136,1.369-0.175c0.405-0.039,0.804-0.117,1.193-0.233c1.357-0.31,2.647-0.766,3.871-1.368
			c1.221-0.602,2.375-1.309,3.462-2.125c0.894-0.659,1.747-1.328,2.562-2.007c0.815-0.68,1.611-1.389,2.387-2.126
			c1.63-1.475,2.91-3.144,3.842-5.007c0.933-1.864,1.573-3.861,1.923-5.997c0.194-0.97,0.194-1.892,0-2.765
			c-0.197-0.873-0.623-1.697-1.281-2.475c-1.244-1.474-2.708-2.435-4.396-2.881c-1.688-0.446-3.405-0.242-5.152,0.611
			c-1.516,0.737-2.824,1.699-3.93,2.881c-1.105,1.185-2.029,2.514-2.765,3.988c-1.243,2.485-2.136,5.143-2.679,7.976
			c-0.311,1.514-0.534,3.027-0.669,4.542c-0.137,1.513-0.166,3.047-0.089,4.598c0.039,0.428,0.089,0.845,0.146,1.251
			C604.416,185.801,604.484,186.237,604.562,186.704z"/>
	</g>
	<g>
		<g>
			<path fill="#010101" d="M187.9,12.662c11.094,13.151,26.229,22.521,35.649,37.109c0.499-1.9,0.996-3.801,1.497-5.702
				c-12.33,5.785-23.531,12.186-33.022,22.103c-3.714,3.881,2.172,9.784,5.893,5.893c9.007-9.412,19.658-15.321,31.335-20.8
				c1.993-0.937,2.645-3.92,1.495-5.701c-9.854-15.26-25.369-25.065-36.954-38.796C190.322,2.655,184.457,8.581,187.9,12.662
				L187.9,12.662z"/>
		</g>
	</g>
	<g>
		<g>
			<path fill="#010101" d="M186.722,14.319c54.208,0.12,108.223,5.33,162.456,4.871c54.535-0.46,109.018-3.292,163.548-3.935
				c9.905-0.117,19.698,0.094,29.546-1.025c3.942-0.449,7.88-0.805,11.85-0.827c5.192-0.029,5.798,3.827,6.808,8.313
				c1.965,8.704,2.841,17.545,4.968,26.258c2.793,11.45,7.354,22.387,10.022,33.844c1.771,7.622-9.144,8.019-14.644,9.032
				c-13.434,2.475-26.927,4.592-40.453,6.461c-26.595,3.677-53.379,5.834-80.214,6.571c-83.636,2.297-168.154-10.187-247.003-38.347
				c-5.075-1.812-7.241,6.243-2.216,8.037c95.202,33.999,198.417,45.094,298.894,35.621c25.564-2.41,51.004-6.213,76.252-10.87
				c5.194-0.958,12.185-2.569,15.816-6.768c3.73-4.318,2.009-10.595,0.717-15.506c-2.937-11.161-7.098-21.935-9.841-33.18
				c-2.187-8.965-2.723-18.302-5.218-27.157c-4.442-15.764-22.304-9.798-34.382-8.944c-13.398,0.946-27.122,0.198-40.562,0.452
				c-14.172,0.269-28.341,0.671-42.509,1.096c-29.418,0.879-58.834,1.892-88.268,2.371c-58.637,0.955-116.976-4.577-175.567-4.708
				C181.345,5.97,181.347,14.305,186.722,14.319L186.722,14.319z"/>
		</g>
	</g>
	<g>
		<g>
			<path fill="#010101" d="M713.417,191.07c-9.272,2.445-17.041,8.076-25.026,13.161c-10.651,6.779-22.789,9.923-34.848,13.271
				c-25.225,6.999-50.051,12.445-76.157,14.995c-53.629,5.235-107.108,6.702-160.905,3.465
				c-54.198-3.261-108.101-10.104-162.083-15.695c-49.793-5.157-99.907-8.435-148.667-20.472c-11.149-2.753-22.136-6.119-32.942-10
				c0.832,2.039,1.661,4.08,2.491,6.121c12.053-20.107,19.311-42.366,29.979-63.134c7.093-13.804,16.512-33.666,32.075-39.438
				c8.21-3.046,15.831,4.497,22.357,8.432c9.324,5.625,21.89,8.822,32.374,11.437c23.534,5.875,48.946,7.96,73.053,10.3
				c106.685,10.344,214.147,0.625,321.099,3.245c34.825,0.85,69.681,0.839,104.157-4.784c5.295-0.864,3.037-8.895-2.219-8.037
				c-53.834,8.78-108.746,3.439-162.99,3.541c-53.915,0.101-107.796,2.636-161.716,2.404c-52.872-0.229-105.578-4.07-157.791-12.488
				c-11.838-1.909-22.896-5.521-34.108-9.667c-8.875-3.281-15.941-9.639-24.796-12.829c-13.761-4.961-26.867,9.917-34.002,19.302
				c-19.984,26.282-27.829,59.421-44.669,87.513c-1.466,2.447,0.009,5.229,2.491,6.121c45.749,16.437,94.496,22.06,142.608,26.792
				c52.595,5.175,105.103,11.337,157.729,16.154c54.164,4.958,108.649,7.539,162.959,3.512
				c49.991-3.708,99.034-8.944,146.453-26.404c12.615-4.647,22.195-15.322,35.313-18.78
				C720.827,197.74,718.62,189.697,713.417,191.07L713.417,191.07z"/>
		</g>
	</g>
	<g>
		<g>
			<path fill="#010101" d="M144.641,93.427c25.044,0.514,47.568,13.387,72.242,16.181c26.559,3.008,52.832-2.839,79.028-6.43
				c5.305-0.727,3.036-8.757-2.216-8.037c-26.868,3.683-54.212,10.074-81.361,5.385c-22.941-3.962-44.083-14.949-67.693-15.432
				C139.263,84.981,139.275,93.317,144.641,93.427L144.641,93.427z"/>
		</g>
	</g>
	<g>
		<g>
			<path fill="#010101" d="M576.152,85.916c-11.06-0.129-20.459,5.028-30.146,9.758c-13.17,6.43-28.193,8.441-42.584,10.202
				c-27.548,3.369-54.467,8.665-81.842,13.194c-5.291,0.875-3.038,8.907,2.218,8.036c27.585-4.561,54.704-9.848,82.475-13.243
				c12.059-1.473,23.972-3.502,35.513-7.383c11.634-3.913,21.602-12.374,34.367-12.226
				C581.529,94.312,581.523,85.978,576.152,85.916L576.152,85.916z"/>
		</g>
	</g>
	<g>
		<g>
			<path fill="#010101" d="M685.166,117.594c9.224,24.019,32.145,48.018,27.229,75.342c-0.943,5.254,7.088,7.501,8.038,2.217
				c5.416-30.108-17.124-53.461-27.23-79.775C691.299,110.413,683.238,112.567,685.166,117.594L685.166,117.594z"/>
		</g>
	</g>
	<g>
		<g>
			<path fill="#010101" d="M710.185,192.92c-16.932,9.325-32.12,21.399-48.949,30.89c-18.023,10.165-38.05,17.433-56.711,26.43
				c-19.167,9.245-38.063,19.001-57.92,26.72c-18.448,7.167-37.484,12.762-56.663,17.605c-38.234,9.661-77.28,15.617-116.03,22.749
				c-37.769,6.95-75.894,16.562-114.584,14.47c-5.375-0.29-5.347,8.046,0,8.334c38.437,2.08,76.6-7.169,114.105-14.266
				c39.639-7.495,79.532-13.538,118.725-23.245c40.127-9.94,76.644-25.832,113.704-43.78c18.841-9.126,38.451-16.915,57.057-26.459
				c18.036-9.252,33.725-22.478,51.475-32.255C719.101,197.523,714.897,190.325,710.185,192.92L710.185,192.92z"/>
		</g>
	</g>
	<g>
		<g>
			<path fill="#010101" d="M396.289,236.905c-25.062-0.274-47.484,10.162-70.653,18.288c-25.743,9.029-52.498,10.837-79.511,8.111
				c-5.348-0.538-5.294,7.801,0,8.335c25.905,2.611,51.557,1.029,76.5-6.673c24.522-7.578,47.349-20.013,73.665-19.726
				C401.666,245.3,401.661,236.964,396.289,236.905L396.289,236.905z"/>
		</g>
	</g>
	<g>
		<g>
			<path fill="#010101" d="M246.95,273.29c20.879,2.368,38.257,16.661,58.297,22.128c-0.83-2.041-1.66-4.08-2.491-6.121
				c-11.998,18.516-32.302,31.727-52.132,40.583c-4.9,2.188-0.659,9.368,4.205,7.195c21.156-9.449,42.351-23.861,55.126-43.573
				c1.473-2.274,0.018-5.438-2.491-6.121c-20.926-5.713-38.601-19.943-60.514-22.427C241.614,264.35,241.673,272.692,246.95,273.29
				L246.95,273.29z"/>
		</g>
	</g>
</g>
<g enable-background="new    ">
	<path fill="#010101" d="M342.348,275.118l-0.373,0.069c-0.054,0.029-0.098,0.106-0.134,0.231c-0.373,0.012-0.653,0.151-0.838,0.424
		c0.016,0.195,0.043,0.396,0.082,0.605c0.11,0.592,0.34,1.242,0.688,1.946c0.281,0.558,0.585,1.182,0.911,1.872
		c0.199,0.222,0.726,0.93,1.582,2.134c0.09,0.063,0.145,0.142,0.163,0.237c0.036,0.19-0.135,0.448-0.511,0.774
		c-0.454-0.094-0.981-0.585-1.585-1.481c-0.224-0.352-0.65-0.985-1.275-1.894c-0.251-0.605-0.48-1.036-0.687-1.292
		c-0.134-0.513-0.38-1.245-0.737-2.204c-0.796,0.307-1.94,0.875-3.433,1.704c-0.285,0.075-0.728,0.244-1.333,0.515
		c-0.239,0.105-0.369,0.307-0.393,0.606c-0.614,0.965-1.035,2.276-1.262,3.937c0.178-0.27,0.505-0.688,0.981-1.25l-0.327,1.896
		c-0.13,0.045-0.205,0.177-0.223,0.397c-0.033,0.559-0.414,0.906-1.139,1.041c-0.152,0.03-0.29,0.034-0.411,0.017
		c0.009-0.06,0.01-0.11,0.002-0.148c-0.018-0.094-0.059-0.156-0.124-0.185c-0.168-1.015,0.017-2.193,0.556-3.536
		c0.347-0.896,0.641-1.758,0.88-2.592l-0.701-0.106c-0.254-0.091-0.395-0.263-0.421-0.515c-0.055-0.187,0.117-0.484,0.515-0.896
		c0.107-0.058,0.218-0.099,0.333-0.119c0.095-0.018,0.261,0,0.498,0.053c0.237,0.057,0.41,0.055,0.517-0.007
		c0.189-0.467,0.493-1.165,0.913-2.094c0.276-0.427,0.56-0.972,0.85-1.638l0.725-1.673c0.053-0.249,0.186-0.603,0.394-1.065
		c0.211-0.465,0.342-0.82,0.394-1.066c0.086-0.075,0.145-0.225,0.184-0.449c0.036-0.224,0.07-0.368,0.098-0.432
		c-0.049-0.05-0.055-0.237-0.016-0.56c0.012-0.043,0.013-0.141,0.004-0.297c0.165-0.071,0.258-0.206,0.279-0.409
		c0.035-0.341,0.174-0.545,0.419-0.609c0.375-0.108,0.72-0.104,1.039,0.014c0.095,0.298,0.185,0.676,0.271,1.134
		c0.081,0.44,0.179,0.964,0.292,1.575c0.047,0.247,0.092,0.495,0.139,0.743c0.117,0.63,0.111,1.233-0.02,1.81
		c0.05,0.268,0.094,0.662,0.132,1.188c0.082,0.223,0.211,0.553,0.393,0.994c0.152-0.027,0.375-0.1,0.671-0.215
		c0.294-0.112,0.518-0.185,0.671-0.213c0.38-0.07,0.709-0.005,0.984,0.201C342.779,274.683,342.574,274.958,342.348,275.118z
		 M338.801,272.765c-0.141-0.938-0.259-1.603-0.352-2c-0.661,1.322-1.566,3.353-2.716,6.083c0.602-0.327,1.518-0.746,2.748-1.249
		c0.241-0.064,0.492-0.229,0.755-0.494C339.094,274.56,338.95,273.781,338.801,272.765z"/>
	<path fill="#010101" d="M351.468,276.56c0.098,0.002,0.139,0.005,0.121,0.01c-0.017,0.021-0.034,0.033-0.053,0.037l0.331,0.026
		c-0.001,0.102,0.058,0.158,0.18,0.176c0.019-0.005,0.062,0.006,0.125,0.036c0.034-0.027,0.081-0.046,0.138-0.056l0.201-0.039
		c0.127,0.156,0.408,0.26,0.843,0.317c0.435,0.058,0.723,0.144,0.862,0.256c0.917,0.263,1.498,0.678,1.742,1.243
		c0.075,0.401-0.036,0.866-0.333,1.395c-0.077,0.015-0.134,0.073-0.173,0.182c-0.039,0.106-0.075,0.182-0.105,0.228
		c-0.983,0.972-1.938,1.513-2.865,1.627c-0.58,0.068-1.12-0.02-1.618-0.261c-0.266-0.583-0.39-0.817-0.369-0.702
		c-0.035-0.191,0.056-0.396,0.271-0.612c0.079,0.103,0.3,0.338,0.664,0.705c0.173,0.186,0.378,0.225,0.615,0.122
		c0.893-0.402,1.452-0.685,1.678-0.844c0.634-0.413,1.019-0.892,1.156-1.43c-0.141-0.447-0.86-0.806-2.155-1.08
		c-0.41-0.082-0.927-0.212-1.553-0.394c-0.537-0.233-0.847-0.63-0.931-1.188c0.14-0.303,0.398-0.666,0.773-1.091
		c0.495-0.526,0.796-0.869,0.905-1.028c0.231-0.239,0.611-0.536,1.136-0.891c0.238-0.201,0.846-0.601,1.82-1.196
		c0.358,0.012,0.546,0.016,0.565,0.012c0.225,0.037,0.363,0.15,0.418,0.335c0.029,0.155-0.069,0.322-0.292,0.501
		c-0.126,0.063-0.306,0.182-0.541,0.352c-0.234,0.173-0.415,0.291-0.542,0.353c-0.057,0.012-0.451,0.28-1.182,0.812
		c-0.849,0.633-1.44,1.227-1.77,1.781c0.007,0.037-0.023,0.143-0.091,0.312L351.468,276.56z"/>
	<path fill="#010101" d="M360.539,278.691c-0.12,0.318-0.328,0.782-0.631,1.391c-0.658,0.595-1.161,0.916-1.508,0.962
		c-0.348,0.044-0.781-0.171-1.304-0.646c-0.102-0.336-0.185-0.677-0.249-1.019c-0.373-2.003-0.444-4.032-0.214-6.089
		c0.039-0.321,0.178-0.999,0.42-2.034c0.09-0.152,0.23-0.248,0.421-0.283c0.19-0.036,0.384-0.002,0.581,0.098
		c0.196,0.103,0.311,0.24,0.342,0.41c0.019,0.096,0.005,0.187-0.038,0.272c-0.241,0.618-0.43,1.404-0.568,2.357l-0.076,3.092
		c-0.017,0.655,0.102,1.452,0.355,2.394c0.06,0.106,0.183,0.242,0.372,0.405c0.079,0.005,0.183-0.08,0.309-0.251
		c0.125-0.171,0.216-0.272,0.269-0.301c0.201-0.196,0.46-0.551,0.78-1.063c0.319-0.513,0.618-0.866,0.898-1.055l0.515-0.896
		C361.083,277.644,360.857,278.396,360.539,278.691z M359.112,268.478l-0.076,0.072c-0.031,0.045-0.051,0.147-0.06,0.306
		c-0.903,0.248-1.43,0.118-1.583-0.386c-0.056-0.304,0.013-0.514,0.208-0.63c0.073-0.034,0.302-0.076,0.687-0.127
		c0.095-0.019,0.214-0.071,0.357-0.156c0.162,0.029,0.357,0.172,0.582,0.425C359.274,268.131,359.236,268.297,359.112,268.478z"/>
	<path fill="#010101" d="M362.925,263.355c-0.167,0.268-0.202,0.5-0.106,0.7c-0.208,0.374-0.331,0.931-0.371,1.667
		c-0.045,0.819-0.127,1.388-0.245,1.705c-0.055,0.444-0.138,1.169-0.246,2.178c0.082,0.123,0.077,0.252-0.017,0.387
		c-0.006,0.082-0.072,0.834-0.201,2.26c-0.097,0.865-0.116,1.608-0.06,2.229c-0.085,0.175-0.107,0.45-0.068,0.828
		c0.041,0.376,0.017,0.643-0.073,0.8c0.029,1.218,0.112,1.98,0.249,2.289c-0.018,0.222,0.086,0.52,0.313,0.892
		c0.188-0.055,0.377-0.198,0.572-0.433c0.258-0.304,0.423-0.483,0.492-0.536c0.188-0.152,0.468-0.245,0.837-0.274
		c-0.226,0.693-0.554,1.318-0.984,1.871c-0.114,0.021-0.256,0.088-0.423,0.198c-0.167,0.109-0.288,0.171-0.365,0.186
		c-0.115,0.021-0.256-0.002-0.427-0.069c-0.446-0.272-0.693-0.434-0.741-0.482c-0.202-0.239-0.356-0.645-0.463-1.218
		c-0.05-0.267-0.099-0.584-0.146-0.948c0.023-0.084,0.032-0.41,0.024-0.982c-0.019-1.378-0.009-2.543,0.03-3.498
		c0.054-1.946,0.184-4.003,0.391-6.174c0.051-0.58,0.166-1.234,0.347-1.959c0.206-0.905,0.315-1.382,0.327-1.423
		c0.034-0.242,0.159-0.58,0.375-1.017c0.132-0.24,0.303-0.383,0.513-0.421c0.19-0.036,0.402,0.044,0.636,0.238
		C363.208,262.642,363.151,262.978,362.925,263.355z"/>
	<path fill="#010101" d="M366.388,262.711c-0.167,0.268-0.202,0.501-0.106,0.701c-0.208,0.373-0.33,0.928-0.371,1.667
		c-0.046,0.818-0.127,1.387-0.245,1.704c-0.055,0.445-0.137,1.171-0.246,2.178c0.082,0.123,0.076,0.252-0.017,0.388
		c-0.006,0.082-0.072,0.834-0.202,2.259c-0.095,0.865-0.115,1.609-0.059,2.231c-0.086,0.173-0.108,0.448-0.069,0.826
		c0.041,0.377,0.016,0.644-0.073,0.799c0.029,1.218,0.111,1.983,0.248,2.291c-0.018,0.222,0.087,0.518,0.314,0.889
		c0.188-0.052,0.378-0.196,0.571-0.431c0.259-0.303,0.423-0.483,0.492-0.535c0.189-0.152,0.468-0.245,0.837-0.274
		c-0.226,0.693-0.554,1.317-0.984,1.87c-0.114,0.021-0.255,0.088-0.422,0.198c-0.166,0.11-0.288,0.171-0.364,0.187
		c-0.115,0.021-0.256-0.002-0.428-0.07c-0.445-0.272-0.693-0.432-0.742-0.482c-0.202-0.239-0.356-0.645-0.463-1.219
		c-0.05-0.266-0.098-0.581-0.146-0.947c0.023-0.083,0.031-0.411,0.023-0.981c-0.019-1.378-0.009-2.543,0.031-3.498
		c0.053-1.947,0.183-4.005,0.392-6.175c0.049-0.58,0.165-1.233,0.346-1.958c0.205-0.907,0.314-1.383,0.328-1.424
		c0.033-0.24,0.158-0.579,0.373-1.016c0.132-0.241,0.304-0.383,0.513-0.421c0.191-0.036,0.403,0.044,0.638,0.237
		C366.67,261.998,366.614,262.333,366.388,262.711z"/>
	<path fill="#010101" d="M371.485,281.036c-0.522,1.657-1.074,3.14-1.658,4.455c-0.218,0.316-0.577,0.826-1.077,1.53
		c-0.221,0.3-0.373,0.471-0.454,0.516c-0.08,0.044-0.362,0.142-0.848,0.292c0.815-1.141,1.525-2.724,2.136-4.752
		c0.538-1.776,0.866-3.406,0.985-4.889c-0.041-0.112-0.093-0.23-0.156-0.358c-0.115-0.193-0.281-0.34-0.496-0.439
		c-0.855-0.354-1.686-1.473-2.49-3.355c-0.16-0.642-0.519-1.778-1.079-3.41c0.011,0.056-0.033-0.124-0.131-0.54
		c-0.025-0.134,0.011-0.21,0.107-0.228c0.206-0.058,0.435,0.034,0.687,0.273c0.252,0.239,0.408,0.47,0.47,0.696
		c0.346,1.118,0.752,2.238,1.217,3.357c0.608,1.464,1.399,2.323,2.374,2.576c0.321-1.244,0.695-3.583,1.122-7.019
		c0.361-0.284,0.569-0.44,0.623-0.472c0.115-0.021,0.23,0.019,0.347,0.114l0.368,0.229c0,0.534-0.121,1.256-0.366,2.17
		c-0.228,0.792-0.546,2.475-0.955,5.049C371.804,279.404,371.561,280.806,371.485,281.036z"/>
	<path fill="#010101" d="M382.577,270.002l0.059-0.158c0.009-0.061,0.011-0.102,0.007-0.12c0.074-0.133,0.238-0.526,0.49-1.187
		c0.185-0.489,0.402-0.865,0.648-1.127c0.354-1.172,1.154-1.805,2.401-1.898c0.781,0.172,1.29,0.778,1.521,1.819
		c0.357,1.594,0.14,3.241-0.647,4.946c-0.387,1.217-1.379,2.351-2.98,3.397c-0.423,0.275-0.883,0.46-1.378,0.552
		c-1.05,0.195-1.751-0.235-2.106-1.295c0.319,0.018,0.656,0.135,1.011,0.344c0.223,0.139,0.438,0.177,0.645,0.118
		c1.11-0.287,2.06-0.887,2.847-1.804s1.288-1.957,1.506-3.122c0.241-1.249,0.315-2.12,0.224-2.617
		c-0.06-0.323-0.172-0.61-0.336-0.856c-0.107-0.039-0.196-0.15-0.271-0.333c0.034-0.027,0.033-0.037-0.005-0.03
		c-0.125-0.035-0.246-0.044-0.359-0.021c-0.192,0.035-0.386,0.15-0.587,0.346c-0.417,0.414-0.741,0.958-0.971,1.633
		c-0.445,0.893-0.795,1.716-1.048,2.475l0.033,0.023l-0.055,0.335c-0.081-0.004-0.127,0.016-0.138,0.054l-0.014,0.093
		c-0.028,0.165-0.078,0.271-0.146,0.324c-0.071,0.251-0.238,0.627-0.501,1.129c-0.009,0.061-0.148,0.265-0.419,0.611
		c-0.279,0.093-0.48,0.068-0.604-0.066c-0.125-0.135-0.204-0.349-0.237-0.639c-0.01-0.056-0.012-0.114-0.003-0.177l-0.026-0.144
		c0.78-4.498,1.219-8.024,1.317-10.574c0.131-0.144,0.283-0.23,0.455-0.263c0.21-0.039,0.391,0.036,0.544,0.226
		c0.081,0.223,0.094,0.576,0.035,1.062c-0.057,0.486-0.068,0.824-0.033,1.018c-0.039,0.324-0.122,0.775-0.251,1.354
		c-0.035,0.342-0.1,0.949-0.194,1.817C382.904,267.843,382.761,268.76,382.577,270.002z M385.566,267.608
		c-0.035-0.188,0.023-0.299,0.175-0.326c0.134-0.026,0.219,0.059,0.254,0.248L385.566,267.608z"/>
	<path fill="#010101" d="M396.459,271.742c-0.208,0.257-0.452,0.588-0.732,0.995c-0.442,0.377-0.835,0.598-1.179,0.662
		c-0.515,0.097-0.929-0.17-1.244-0.804c-0.049-0.051-0.11-0.167-0.184-0.351c-0.134-0.29-0.239-0.428-0.314-0.415
		c-0.02,0.004-0.47,0.709-1.353,2.119c-0.589,0.757-1.422,1.318-2.501,1.677c-0.646-0.512-1.047-1.176-1.2-1.998
		c-0.068-0.362-0.098-0.849-0.095-1.462c-0.012-0.709-0.034-1.195-0.066-1.469c0.021-1.483,0.295-2.976,0.825-4.476
		c0.203-0.076,0.444-0.053,0.724,0.073c0.085,0.142,0.139,0.271,0.161,0.384c0.029,0.153-0.009,0.379-0.112,0.672
		c-0.126,0.38-0.193,0.609-0.196,0.69c-0.14,0.953-0.271,2.261-0.396,3.923c0.05,0.482,0.106,0.896,0.17,1.239
		c0.103,0.553,0.224,0.935,0.361,1.147c0.483-0.168,0.848-0.375,1.1-0.619c0.015-0.022,0.284-0.331,0.806-0.92
		c0.083-0.292,0.438-1.04,1.063-2.241c0.465-0.895,0.687-1.667,0.665-2.313c0.283-1.338,0.596-2.421,0.935-3.255
		c0.285-0.269,0.516-0.252,0.69,0.05c0.09,0.161,0.147,0.317,0.176,0.472c0.052,0.285,0.015,0.667-0.112,1.144
		c-0.137,0.542-0.205,0.917-0.204,1.134c-0.406,0.786-0.543,1.85-0.414,3.188c0.036,0.092,0.113,0.342,0.229,0.757
		c0.099,0.315,0.239,0.487,0.422,0.514c0.256-0.107,0.478-0.247,0.662-0.42c0.283-0.289,0.458-0.458,0.527-0.513
		c0.186-0.271,0.463-0.639,0.831-1.102l0.386,0.165C396.878,270.964,396.736,271.415,396.459,271.742z"/>
	<path fill="#010101" d="M398.487,263.856c0.412-0.018,0.82-0.044,1.229-0.08c0.476,0.008,0.881,0.119,1.216,0.331l0.129,0.532
		c-0.301,0.075-0.846,0.177-1.631,0.303c-0.483,0.052-0.887,0.165-1.209,0.344c-0.796,2.615-1.016,4.72-0.66,6.312
		c0.042,0.226,0.114,0.437,0.219,0.623c0.104,0.189,0.317,0.254,0.644,0.191c0.19-0.035,0.412-0.116,0.665-0.242
		c0.206-0.057,0.515-0.273,0.931-0.647c0.414-0.37,0.829-0.607,1.244-0.705c-0.15,1.096-0.898,1.955-2.243,2.579
		c-0.164,0.07-0.313,0.118-0.447,0.144c-0.515,0.095-0.946,0.006-1.292-0.266c-0.446-0.486-0.749-1.112-0.911-1.871
		c-0.235-1.044-0.2-2.342,0.103-3.897c0.127-0.381,0.247-0.964,0.356-1.754c-0.665,0.144-1.18,0.565-1.543,1.264
		c-0.339,0.084-0.663-0.172-0.971-0.768c-0.001-0.215,0.185-0.486,0.559-0.813c0.239-0.301,0.589-0.543,1.048-0.728
		c0.41-0.136,0.817-0.282,1.223-0.435c0.569-1.921,0.883-3.699,0.934-5.325c0.096-0.216,0.222-0.338,0.375-0.366
		c0.246-0.066,0.518,0.067,0.816,0.406c0.185,1.313-0.049,2.914-0.707,4.794C398.527,263.812,398.503,263.836,398.487,263.856z"/>
</g>
<g enable-background="new    ">
	<path fill="#010101" d="M382.382,297.035c-0.122,0.316-0.338,0.777-0.649,1.382c-0.667,0.588-1.173,0.9-1.521,0.941
		c-0.348,0.038-0.78-0.183-1.295-0.665c-0.097-0.337-0.176-0.679-0.234-1.023c-0.346-2.007-0.388-4.037-0.13-6.09
		c0.043-0.323,0.193-0.999,0.45-2.026c0.091-0.152,0.232-0.247,0.424-0.28c0.192-0.033,0.385,0.004,0.58,0.107
		c0.194,0.105,0.307,0.242,0.336,0.413c0.017,0.097,0.003,0.188-0.042,0.274c-0.249,0.616-0.45,1.396-0.601,2.349l-0.119,3.091
		c-0.025,0.654,0.083,1.455,0.323,2.396c0.057,0.108,0.18,0.244,0.366,0.41c0.08,0.007,0.185-0.076,0.312-0.246
		c0.128-0.17,0.22-0.269,0.273-0.298c0.204-0.192,0.468-0.543,0.794-1.052c0.327-0.509,0.631-0.856,0.914-1.042l0.527-0.891
		C382.943,295.995,382.707,296.743,382.382,297.035z M381.099,286.801l-0.076,0.073c-0.033,0.044-0.055,0.146-0.066,0.305
		c-0.906,0.235-1.431,0.099-1.577-0.408c-0.052-0.306,0.02-0.516,0.218-0.628c0.072-0.032,0.302-0.07,0.689-0.117
		c0.095-0.018,0.214-0.067,0.357-0.15c0.163,0.03,0.355,0.175,0.577,0.432C381.267,286.458,381.225,286.621,381.099,286.801z"/>
	<path fill="#010101" d="M384.344,289.197c0.29,0.304,0.483,0.743,0.581,1.32c0.112,0.647,0.06,1.374-0.157,2.181
		c0.043,0.248,0.048,0.656,0.019,1.223c-0.031,0.567-0.002,0.988,0.085,1.271c0.467-0.829,1.2-2.067,2.196-3.716
		c0.811-1.358,1.673-2.472,2.587-3.337c0.592,0.114,0.949,0.536,1.075,1.261c0.021,0.135,0.055,0.435,0.096,0.901
		c0.023,0.369,0.063,0.657,0.118,0.864c-0.097,0.806-0.2,2.042-0.306,3.714c0.021,0.017,0.05,0.012,0.085-0.015
		c0.45-0.588,0.955-1.511,1.517-2.771c0.563-1.257,1.028-2.124,1.4-2.603c0.726-0.932,1.154-1.478,1.284-1.638
		c0.2-0.212,0.584-0.553,1.153-1.025c0.307-0.052,0.545,0.074,0.715,0.378c0.179,0.7,0.193,1.533,0.045,2.504
		c-0.249,1.421-0.372,2.249-0.369,2.485c-0.04,2.174,0.021,3.63,0.189,4.369l0.026-0.004c0.078-0.014,0.208,0.003,0.394,0.048
		c0.004,0.257-0.07,0.456-0.222,0.601c-0.021,0.004-0.208,0.114-0.564,0.333c-0.527-0.323-0.859-0.878-0.995-1.661
		c-0.038-0.229-0.076-0.562-0.113-1c-0.036-0.438-0.074-0.771-0.112-0.999c0.016-0.694,0.103-1.605,0.258-2.734
		c0.209-1.354,0.334-2.259,0.375-2.719l-0.056,0.009c-0.052,0.049-0.104,0.146-0.158,0.292c-0.053,0.147-0.1,0.225-0.138,0.231
		c-0.301,0.309-0.548,0.646-0.74,1.014c-0.405,0.738-0.718,1.274-0.936,1.608c-0.435,0.803-1.059,1.925-1.874,3.364
		c-0.393,0.697-0.665,1.128-0.813,1.29c-0.522,0.642-0.939,0.959-1.255,0.954c-0.062-0.128-0.092-0.31-0.093-0.545
		c0.001-0.335-0.005-0.541-0.018-0.616c-0.047-0.269-0.085-0.9-0.12-1.9c0.005-0.314,0.066-0.936,0.183-1.862
		c0.04-0.223,0.048-0.461,0.026-0.714c-0.027-0.152-0.071-0.352-0.133-0.598c-0.062-0.244-0.099-0.406-0.112-0.482
		c-0.029-0.172-0.067-0.332-0.111-0.483c-0.345,0.296-0.721,0.854-1.131,1.673c-0.458,0.884-0.819,1.479-1.082,1.779
		c-0.289,0.621-0.776,1.394-1.464,2.319c-0.61,0.792-1.012,1.503-1.199,2.125c-0.027-0.035-0.092,0.017-0.196,0.151
		c-0.104,0.137-0.167,0.207-0.186,0.21c-0.038,0.007-0.086,0.014-0.144,0.023c-0.134,0.023-0.229,0.04-0.287,0.05
		c-0.153,0.025-0.305,0.002-0.456-0.069c-0.059-0.915,0.025-2.15,0.25-3.707c0.241-1.694,0.324-2.928,0.25-3.704
		c-0.121-0.47-0.305-0.91-0.553-1.321C383.436,289.176,383.831,289.069,384.344,289.197z"/>
	<path fill="#010101" d="M398.958,294.662c2.057-1.199,3.565-2.854,4.521-4.969c0.003-0.099,0.054-0.314,0.155-0.647
		c0.101-0.332,0.135-0.594,0.101-0.785c-0.111-0.649-0.618-1.025-1.522-1.127c-0.57,0-1.131,0.009-1.679,0.021
		c-0.085,0.074-0.525,0.327-1.317,0.759c-0.537,0.31-0.894,0.636-1.071,0.981c-0.023,0.102-0.168,0.344-0.438,0.726
		c-0.012,0.041-0.104,0.254-0.273,0.637c-0.317-0.929-0.481-1.481-0.492-1.659c0.527-1.171,1.563-2.078,3.106-2.718
		c1.348-0.291,2.633-0.156,3.85,0.401c0.713,0.705,1.115,1.337,1.21,1.891c0.057,0.326,0.024,0.654-0.095,0.991
		c-0.153,0.025-0.229,0.107-0.225,0.244c0.005,0.14-0.003,0.272-0.02,0.401c-0.017,0.132-0.099,0.229-0.244,0.294
		c-0.519,0.995-1.205,1.989-2.058,2.982c-0.975,1.093-1.897,1.852-2.769,2.277c-0.364,0.18-0.595,0.318-0.697,0.414
		c-0.203,0.192-0.257,0.458-0.159,0.795c-0.032,0.853-0.127,2.137-0.283,3.858c-0.096,0.137-0.129,0.455-0.101,0.963
		c-0.088,0.979-0.294,2.532-0.619,4.655c-0.042-0.014-0.234,0.009-0.578,0.068c-0.188,0.052-0.342-0.031-0.457-0.244
		c-0.079-0.341-0.054-0.834,0.072-1.475c0.125-0.642,0.163-1.115,0.11-1.424c-0.02-0.114-0.049-0.226-0.089-0.34
		c0.13-0.277,0.212-0.715,0.248-1.311c0.042-0.678,0.102-1.13,0.18-1.361c0.066-0.542,0.161-1.355,0.291-2.442
		c0.084-0.881,0.031-1.709-0.161-2.481c0.178-0.109,0.281-0.306,0.313-0.585c0.001-0.218,0.011-0.445,0.029-0.686
		c-0.074-0.32-0.081-0.705-0.019-1.146c0.064-0.546,0.091-0.904,0.081-1.08c-0.006-0.036-0.036-0.377-0.086-1.02
		c-0.035-0.425,0.053-0.726,0.258-0.899c0.172-0.147,0.479-0.142,0.919,0.02c0.083,0.025,0.204,0.044,0.364,0.057
		c-0.032,0.162-0.065,0.602-0.099,1.315c0.003,0.592-0.065,0.997-0.205,1.218c0.069,0.399,0.041,0.988-0.083,1.756
		C398.969,294.101,398.979,294.325,398.958,294.662z"/>
	<path fill="#010101" d="M411.309,290.387c-0.141,0.102-0.238,0.277-0.296,0.522c-0.077,0.349-0.133,0.546-0.163,0.59
		c-0.178,0.346-0.524,0.848-1.041,1.508c-0.434,0.92-1.193,1.533-2.285,1.839c-0.302,0.071-0.611,0.105-0.927,0.102
		c-0.808-0.235-1.407-0.861-1.798-1.876c-0.049-0.624,0-1.312,0.146-2.065c0.101-0.449,0.242-1.114,0.427-1.991
		c0.122-0.198,0.272-0.54,0.443-1.023c0.183-0.425,0.396-0.736,0.638-0.937c0.176-0.462,0.521-0.798,1.039-1.005
		c0.197,0.007,0.48-0.238,0.848-0.735c-0.032-0.074-0.004-0.196,0.084-0.369c0.208-0.055,0.396-0.096,0.568-0.127
		c0.287-0.05,0.523-0.061,0.704-0.032c0.88,0.42,1.431,1.279,1.654,2.58c0.057,0.325,0.091,0.669,0.103,1.032
		C411.467,288.761,411.417,289.423,411.309,290.387z M410.116,286.367c-0.131-0.411-0.371-0.664-0.723-0.762l-1.184,0.676
		l0.347,0.295c0.056,0.207,0.128,0.512,0.215,0.907c0.06,0.346,0,0.641-0.172,0.89c-0.087,0.072-0.177,0.128-0.27,0.16
		c-0.264,0.066-0.489-0.218-0.677-0.857c-0.159,0.107-0.346,0.347-0.557,0.716c-0.26,0.438-0.449,0.719-0.565,0.836
		c-0.339,1.24-0.511,1.959-0.518,2.157c-0.086,0.525-0.09,1.02-0.012,1.479c0.04,0.228,0.1,0.453,0.177,0.678
		c0.166,0.167,0.473,0.232,0.919,0.197c2.073-1.008,3.217-2.994,3.436-5.966C410.386,287.247,410.245,286.779,410.116,286.367z"/>
	<path fill="#010101" d="M413.997,286.439c0.475-0.907,0.985-1.77,1.535-2.581c0.551-0.813,1.22-1.328,2.009-1.541
		c0.357-0.103,0.701-0.102,1.034,0c0.26,0.249,0.437,0.535,0.53,0.853c0.03,0.173,0.044,0.713,0.042,1.617l-0.393,0.126
		c-0.076-0.104-0.2-0.476-0.368-1.118c-0.102-0.356-0.229-0.579-0.382-0.671c-0.887,0.446-1.646,1.186-2.276,2.222
		c-0.298,0.443-0.587,0.888-0.864,1.33c-0.323,0.526-0.516,1.013-0.576,1.457c-0.131,0.041-0.213,0.312-0.247,0.811
		c-0.037,0.358-0.084,0.596-0.143,0.703c-0.12,0.336-0.269,1.021-0.446,2.056c0.046,0.149,0.1,0.465,0.162,0.947
		c-0.006,0.414-0.155,0.694-0.444,0.843c-0.101-0.119-0.183-0.146-0.251-0.074c-0.081,0.093-0.161,0.145-0.238,0.157
		c-0.151,0.028-0.307-0.074-0.465-0.302c0.116-1.156,0.346-3.835,0.688-8.036c-0.104-0.158-0.169-0.296-0.188-0.409
		c-0.035-0.21,0.075-0.367,0.334-0.471c0.611-0.223,0.967-0.156,1.068,0.202c0.007,0.039-0.005,0.15-0.03,0.344
		c-0.027,0.191-0.005,0.431,0.062,0.712c-0.11,0.04-0.173,0.081-0.185,0.121c0.007,0.038,0.032,0.134,0.076,0.281L414,286.292
		C414.011,286.35,414.009,286.399,413.997,286.439z"/>
	<path fill="#010101" d="M420.709,282.7c0.41-0.014,0.82-0.034,1.229-0.065c0.475,0.017,0.881,0.133,1.212,0.349l0.122,0.535
		c-0.303,0.071-0.849,0.166-1.635,0.281c-0.484,0.045-0.89,0.153-1.215,0.325c-0.832,2.604-1.083,4.707-0.75,6.303
		c0.04,0.229,0.11,0.44,0.212,0.627c0.102,0.191,0.315,0.258,0.641,0.202c0.19-0.033,0.412-0.111,0.667-0.233
		c0.208-0.056,0.521-0.267,0.941-0.635c0.419-0.365,0.838-0.596,1.255-0.688c-0.168,1.094-0.927,1.941-2.281,2.55
		c-0.165,0.067-0.314,0.111-0.448,0.134c-0.517,0.088-0.946-0.006-1.289-0.28c-0.438-0.495-0.733-1.123-0.885-1.886
		c-0.219-1.045-0.166-2.343,0.159-3.896c0.131-0.377,0.258-0.959,0.378-1.747c-0.666,0.133-1.187,0.547-1.558,1.241
		c-0.343,0.079-0.661-0.18-0.963-0.78c0.003-0.217,0.193-0.486,0.571-0.807c0.245-0.298,0.597-0.535,1.059-0.713
		c0.411-0.131,0.82-0.271,1.229-0.419c0.598-1.913,0.933-3.684,1.008-5.311c0.1-0.216,0.228-0.335,0.382-0.361
		c0.243-0.06,0.515,0.077,0.81,0.417c0.166,1.318-0.091,2.914-0.773,4.789C420.749,282.652,420.725,282.677,420.709,282.7z"/>
	<path fill="#010101" d="M429.391,289.913c-0.195,0.131-0.509,0.372-0.941,0.721c-0.245,0.061-0.672-0.023-1.284-0.252
		c-0.045-0.149-0.165-0.395-0.361-0.734c-0.196-0.341-0.311-0.616-0.348-0.827c-0.125,0.198-0.203,0.369-0.237,0.513
		c-0.559,1.002-0.883,1.57-0.977,1.704c-0.474,0.572-1.034,0.865-1.682,0.88c-0.585-0.312-0.943-0.862-1.08-1.647
		c-0.232-1.357-0.276-2.412-0.13-3.165c0.354-1.953,1.406-3.797,3.155-5.535l0.459-0.078c0.44-0.075,0.704,0.145,0.793,0.662
		c0.029,0.171,0.032,0.523,0.006,1.062c-0.053,0.264-0.209,0.624-0.465,1.083c-0.034,0.143-0.24,0.318-0.62,0.519
		c0.011-0.512,0.099-0.921,0.264-1.226c0.008-0.062,0.029-0.222,0.063-0.483c0.014-0.041,0.014-0.101,0-0.178
		c-0.01-0.057-0.03-0.122-0.063-0.195c0.082-0.091,0.119-0.169,0.109-0.226c-0.119,0-0.291,0.198-0.518,0.59
		c-0.053,0.05-0.134,0.153-0.244,0.31c-1.583,2.595-2.235,4.813-1.958,6.656c0.172,0.54,0.396,0.819,0.673,0.829
		c0.622-0.284,1.101-0.879,1.438-1.782c0.453-0.569,0.784-1.512,0.992-2.829c0.126-0.514,0.31-1.795,0.551-3.845
		c0.045-0.186,0.231-0.364,0.556-0.539c0.205,0.163,0.329,0.358,0.368,0.588c0.022,0.134,0.014,0.321-0.022,0.564
		c-0.026,0.299-0.042,0.5-0.045,0.599c-0.403,2.235-0.548,3.696-0.428,4.384c0.152,0.9,0.44,1.48,0.859,1.743
		c0.073-0.03,0.293-0.198,0.653-0.495c0.312-0.251,0.505-0.383,0.581-0.396c0.036,0.093,0.062,0.186,0.079,0.282
		C429.649,289.533,429.583,289.78,429.391,289.913z"/>
	<path fill="#010101" d="M435.584,283.501c-0.025,0.654-0.042,1.299-0.053,1.929c-0.02,0.812,0.012,1.446,0.091,1.905
		c0.145,0.841,0.49,1.54,1.039,2.096c-0.182,0.091-0.349,0.148-0.502,0.176c-0.268,0.045-0.52,0.001-0.761-0.135
		c-0.473-0.569-0.784-1.294-0.935-2.174c-0.095-0.555-0.129-1.269-0.103-2.139l0.059-2.077l-0.039-0.052
		c-0.631,0.68-1.29,1.786-1.971,3.321c-0.725,1.621-1.329,2.747-1.811,3.382c-0.248,0.16-0.477,0.259-0.688,0.294
		c-0.114,0.021-0.231,0.022-0.354,0.004c-0.368-0.195-0.527-0.601-0.476-1.218c0.07-0.859,0.18-2.001,0.329-3.426
		c0.128-1.321,0.167-2.469,0.116-3.444c0.104-0.195,0.253-0.309,0.444-0.341c0.189-0.034,0.385,0.04,0.585,0.224
		c0.197,0.182,0.294,0.371,0.289,0.569l-0.361,5.288c0.039-0.221,0.185-0.521,0.436-0.9c0.742-1.524,1.229-2.484,1.455-2.878
		c0.609-1.029,1.282-1.875,2.018-2.531c0.631-0.107,1.005,0.172,1.118,0.84c0.023,0.136,0.034,0.35,0.037,0.644
		C435.549,283.153,435.561,283.369,435.584,283.501z"/>
	<path fill="#010101" d="M439.873,279.41c0.412-0.012,0.82-0.033,1.229-0.065c0.476,0.018,0.879,0.133,1.213,0.349l0.121,0.535
		c-0.304,0.071-0.849,0.166-1.636,0.28c-0.484,0.046-0.89,0.154-1.214,0.326c-0.832,2.604-1.083,4.706-0.749,6.303
		c0.038,0.229,0.109,0.439,0.211,0.627c0.102,0.19,0.313,0.259,0.64,0.202c0.191-0.033,0.414-0.111,0.669-0.233
		c0.206-0.056,0.519-0.269,0.938-0.636c0.419-0.365,0.838-0.595,1.256-0.687c-0.166,1.092-0.927,1.94-2.28,2.549
		c-0.164,0.066-0.315,0.111-0.449,0.134c-0.516,0.089-0.946-0.005-1.288-0.28c-0.439-0.495-0.734-1.125-0.884-1.886
		c-0.219-1.045-0.166-2.344,0.158-3.896c0.129-0.377,0.257-0.961,0.378-1.749c-0.666,0.134-1.187,0.548-1.56,1.242
		c-0.341,0.077-0.66-0.181-0.959-0.78c0.001-0.216,0.191-0.485,0.569-0.806c0.243-0.3,0.596-0.535,1.059-0.714
		c0.411-0.131,0.819-0.27,1.228-0.42c0.597-1.912,0.934-3.684,1.009-5.31c0.101-0.216,0.229-0.336,0.38-0.361
		c0.245-0.061,0.517,0.077,0.811,0.416c0.167,1.319-0.091,2.914-0.771,4.79C439.915,279.363,439.89,279.387,439.873,279.41z"/>
	<path fill="#010101" d="M450.715,281.495c0.1,0.004,0.139,0.006,0.12,0.009c-0.016,0.022-0.032,0.034-0.052,0.04l0.33,0.03
		c-0.003,0.098,0.057,0.156,0.178,0.177c0.021-0.003,0.062,0.011,0.125,0.037c0.033-0.024,0.081-0.043,0.139-0.053l0.2-0.034
		c0.126,0.155,0.405,0.266,0.84,0.328c0.433,0.062,0.72,0.151,0.858,0.267c0.913,0.276,1.487,0.699,1.723,1.27
		c0.07,0.401-0.047,0.865-0.352,1.387c-0.077,0.014-0.135,0.073-0.177,0.181c-0.041,0.105-0.077,0.181-0.108,0.227
		c-0.998,0.957-1.96,1.487-2.889,1.587c-0.579,0.06-1.117-0.036-1.615-0.285c-0.256-0.584-0.376-0.82-0.355-0.706
		c-0.033-0.19,0.061-0.396,0.278-0.608c0.077,0.104,0.295,0.342,0.655,0.714c0.171,0.188,0.374,0.231,0.614,0.132
		c0.896-0.39,1.459-0.665,1.688-0.822c0.641-0.404,1.033-0.877,1.176-1.413c-0.135-0.447-0.849-0.816-2.139-1.107
		c-0.409-0.09-0.925-0.227-1.549-0.416c-0.534-0.242-0.837-0.642-0.914-1.2c0.144-0.302,0.409-0.66,0.789-1.08
		c0.502-0.52,0.809-0.859,0.919-1.014c0.234-0.237,0.618-0.531,1.148-0.878c0.241-0.199,0.854-0.59,1.837-1.172
		c0.357,0.019,0.546,0.023,0.564,0.021c0.224,0.04,0.361,0.156,0.414,0.343c0.026,0.154-0.072,0.317-0.299,0.495
		c-0.129,0.061-0.311,0.174-0.547,0.343c-0.236,0.171-0.42,0.286-0.546,0.346c-0.058,0.011-0.455,0.276-1.192,0.798
		c-0.86,0.618-1.458,1.203-1.796,1.753c0.007,0.04-0.025,0.143-0.095,0.312L450.715,281.495z"/>
	<path fill="#010101" d="M459.183,276.096c0.409-0.013,0.819-0.034,1.229-0.065c0.474,0.017,0.88,0.134,1.211,0.348l0.122,0.535
		c-0.303,0.071-0.849,0.166-1.637,0.283c-0.484,0.043-0.888,0.151-1.214,0.324c-0.832,2.605-1.081,4.706-0.749,6.304
		c0.04,0.227,0.109,0.438,0.213,0.626c0.1,0.189,0.313,0.258,0.64,0.201c0.189-0.032,0.412-0.111,0.669-0.233
		c0.204-0.055,0.518-0.267,0.938-0.633c0.42-0.366,0.838-0.597,1.256-0.689c-0.166,1.093-0.928,1.94-2.28,2.549
		c-0.167,0.067-0.316,0.112-0.449,0.135c-0.516,0.088-0.946-0.006-1.288-0.281c-0.439-0.493-0.735-1.123-0.885-1.885
		c-0.22-1.046-0.168-2.344,0.157-3.896c0.132-0.376,0.259-0.959,0.379-1.747c-0.667,0.133-1.187,0.547-1.558,1.241
		c-0.343,0.079-0.662-0.181-0.963-0.78c0.003-0.217,0.193-0.484,0.571-0.807c0.243-0.299,0.598-0.535,1.06-0.713
		c0.411-0.132,0.819-0.27,1.228-0.42c0.597-1.912,0.933-3.684,1.008-5.311c0.102-0.216,0.227-0.335,0.381-0.361
		c0.245-0.061,0.515,0.079,0.811,0.417c0.166,1.319-0.092,2.914-0.772,4.789C459.223,276.049,459.195,276.073,459.183,276.096z"/>
	<path fill="#010101" d="M467.883,280.675c-0.142,0.102-0.239,0.275-0.294,0.521c-0.08,0.35-0.134,0.546-0.165,0.591
		c-0.177,0.345-0.523,0.848-1.041,1.508c-0.434,0.92-1.193,1.533-2.282,1.839c-0.304,0.071-0.613,0.105-0.929,0.102
		c-0.809-0.236-1.408-0.862-1.798-1.876c-0.048-0.624,0.001-1.312,0.146-2.065c0.101-0.449,0.242-1.115,0.426-1.993
		c0.124-0.198,0.271-0.538,0.446-1.021c0.183-0.425,0.394-0.737,0.635-0.937c0.178-0.462,0.523-0.798,1.039-1.005
		c0.198,0.006,0.481-0.24,0.848-0.736c-0.032-0.073-0.003-0.195,0.086-0.368c0.206-0.055,0.396-0.096,0.568-0.127
		c0.287-0.05,0.521-0.061,0.704-0.032c0.879,0.42,1.431,1.279,1.653,2.58c0.056,0.326,0.09,0.668,0.103,1.032
		C468.041,279.049,467.992,279.711,467.883,280.675z M466.691,276.655c-0.13-0.411-0.371-0.664-0.724-0.762l-1.183,0.676
		l0.348,0.294c0.054,0.209,0.126,0.512,0.215,0.908c0.059,0.346,0.001,0.641-0.175,0.887c-0.086,0.074-0.173,0.131-0.266,0.163
		c-0.266,0.064-0.491-0.219-0.68-0.857c-0.159,0.106-0.345,0.346-0.558,0.716c-0.258,0.439-0.447,0.716-0.562,0.836
		c-0.34,1.24-0.513,1.959-0.518,2.156c-0.087,0.526-0.092,1.02-0.012,1.479c0.039,0.228,0.098,0.454,0.174,0.679
		c0.167,0.167,0.476,0.232,0.92,0.195c2.073-1.006,3.22-2.992,3.438-5.964C466.961,277.535,466.819,277.067,466.691,276.655z"/>
	<path fill="#010101" d="M470.571,276.728c0.475-0.908,0.985-1.77,1.536-2.581c0.549-0.813,1.221-1.328,2.01-1.541
		c0.355-0.103,0.701-0.102,1.033-0.001c0.26,0.25,0.436,0.535,0.532,0.854c0.027,0.173,0.041,0.712,0.039,1.617l-0.39,0.126
		c-0.079-0.104-0.2-0.477-0.37-1.118c-0.103-0.356-0.229-0.58-0.382-0.673c-0.888,0.448-1.647,1.188-2.276,2.223
		c-0.297,0.444-0.586,0.889-0.864,1.33c-0.324,0.527-0.517,1.014-0.577,1.457c-0.132,0.042-0.211,0.312-0.244,0.81
		c-0.038,0.361-0.087,0.597-0.146,0.705c-0.12,0.336-0.269,1.019-0.445,2.055c0.046,0.15,0.1,0.466,0.164,0.946
		c-0.009,0.415-0.157,0.695-0.446,0.846c-0.099-0.12-0.183-0.146-0.249-0.076c-0.084,0.093-0.163,0.145-0.238,0.158
		c-0.154,0.026-0.31-0.074-0.468-0.302c0.119-1.156,0.348-3.835,0.689-8.036c-0.106-0.158-0.169-0.296-0.19-0.41
		c-0.035-0.209,0.074-0.367,0.335-0.47c0.61-0.223,0.968-0.156,1.068,0.201c0.006,0.039-0.004,0.151-0.029,0.345
		c-0.027,0.19-0.007,0.43,0.063,0.711c-0.111,0.039-0.175,0.081-0.188,0.122c0.008,0.038,0.033,0.134,0.08,0.281l-0.043,0.273
		C470.585,276.637,470.584,276.688,470.571,276.728z"/>
	<path fill="#010101" d="M478.073,284.979c-0.545,1.65-1.118,3.128-1.722,4.431c-0.222,0.314-0.587,0.82-1.097,1.52
		c-0.226,0.293-0.38,0.462-0.46,0.507c-0.081,0.043-0.365,0.137-0.854,0.279c0.831-1.128,1.565-2.701,2.203-4.721
		c0.562-1.769,0.914-3.394,1.053-4.877c-0.039-0.111-0.089-0.23-0.149-0.357c-0.114-0.197-0.276-0.346-0.492-0.448
		c-0.849-0.366-1.663-1.497-2.441-3.391c-0.151-0.644-0.493-1.786-1.032-3.425c0.011,0.058-0.031-0.123-0.123-0.543
		c-0.021-0.133,0.014-0.206,0.11-0.223c0.207-0.056,0.436,0.038,0.684,0.279c0.248,0.243,0.401,0.478,0.461,0.705
		c0.33,1.125,0.72,2.249,1.169,3.372c0.588,1.475,1.367,2.346,2.338,2.611c0.339-1.238,0.746-3.573,1.22-7.002
		c0.366-0.28,0.577-0.433,0.63-0.462c0.115-0.021,0.23,0.019,0.345,0.116l0.366,0.233c-0.008,0.533-0.14,1.254-0.396,2.165
		c-0.239,0.791-0.582,2.467-1.027,5.035C478.414,283.352,478.151,284.748,478.073,284.979z"/>
</g>
</svg>
