<?xml version="1.0" encoding="utf-8"?>
<!-- Generator: Adobe Illustrator 16.0.0, SVG Export Plug-In . SVG Version: 6.00 Build 0)  -->
<!DOCTYPE svg PUBLIC "-//W3C//DTD SVG 1.1//EN" "http://www.w3.org/Graphics/SVG/1.1/DTD/svg11.dtd">
<svg version="1.1" id="Layer_1" xmlns="http://www.w3.org/2000/svg" xmlns:xlink="http://www.w3.org/1999/xlink" x="0px" y="0px"
	 width="1000px" height="400px" viewBox="0 0 1000 400" enable-background="new 0 0 1000 400" xml:space="preserve">
<path fill="#BFDBDB" d="M659.345,116.603c0,0-0.707-23.646,9.312-23.145c10.544,0.528,12.126,4.746,12.126,4.746
	s-0.875-23.933,7.031-27.562c7.908-3.628,12.127,2.419,12.127,2.419s1.93-12.29,13.528-12.29c11.6,0,10.724,13.5,10.724,13.5
	s1.93-5.064,10.893-5.064s12.833,28.044,12.833,28.044s1.929-5.684,10.364-3.265s9.669,22.617,9.669,22.617H659.345z"/>
<circle fill="#F8BD4A" cx="958.033" cy="28.811" r="68.011"/>
<path fill="#BFDBDB" d="M843.849,160.572c0,0,9.669-19.941,15.469-19.941s11.6,4.082,11.6,4.082s2.984-12.797,10.892-15.246
	c7.909-2.449,11.601,3.164,11.601,3.164s2.107-14.236,13.708-14.236c11.599,0,19.506,11.6,19.506,11.6s1.582-6.854,10.545-6.854
	s13.18,14.235,13.18,14.235s3.163-3.215,11.6-1.582c8.436,1.633,21.089,25.307,21.089,25.307L843.849,160.572z"/>
<path fill="#E1EDEF" d="M923.764,123.182c0,0,3.691-20.416,9.49-20.416c5.8,0,11.6,4.083,11.6,4.083s-0.527-12.249,7.381-14.699
	c7.907-2.451,12.126,1.634,12.126,1.634s1.055-12.251,12.652-12.251c11.599,0,11.6,13.067,11.6,13.067s2.637-7.35,11.599-7.35
	c8.963,0,12.127,22.866,12.127,22.866s-0.527-8.983,7.908-7.35c8.435,1.634,12.125,20.416,12.125,20.416H923.764z"/>
<path fill="#E1EDEF" d="M744.512,69.406c0,0,9.668-19.942,15.469-19.942c5.8,0,11.599,4.083,11.599,4.083
	s2.984-12.796,10.893-15.247c7.907-2.45,11.601,3.164,11.601,3.164s2.106-14.235,13.706-14.235
	c11.601,0,19.508,11.599,19.508,11.599s1.582-6.853,10.545-6.853c8.962,0,13.18,14.234,13.18,14.234s3.163-3.215,11.6-1.582
	c8.435,1.633,21.088,25.306,21.088,25.306L744.512,69.406z"/>
<path fill="#E1EDEF" d="M707.564,141.582c0,0,4.279-20.416,11.009-20.416c6.729,0,13.458,4.082,13.458,4.082
	s-0.611-12.249,8.562-14.698c9.175-2.45,14.068,1.633,14.068,1.633s1.224-12.25,14.679-12.25c13.458,0,13.458,13.066,13.458,13.066
	s3.06-7.35,13.457-7.35c10.398,0,14.068,22.867,14.068,22.867s-0.612-8.984,9.175-7.351s14.068,20.416,14.068,20.416
	L707.564,141.582L707.564,141.582z"/>
<path fill="#E1EDEF" d="M492.692,59.4c0,0,6.835-19.534,10.936-19.534s8.2,4,8.2,4s2.109-12.535,7.7-14.935s8.2,3.099,8.2,3.099
	s1.49-13.943,9.689-13.943c8.2,0,13.791,11.361,13.791,11.361s1.119-6.713,7.455-6.713s9.317,13.943,9.317,13.943
	s2.235-3.149,8.199-1.549s14.909,24.788,14.909,24.788L492.692,59.4z"/>
<path fill="#BFDBDB" d="M279.488,63.34c0,0,9.668-19.942,15.468-19.942s11.599,4.083,11.599,4.083s2.984-12.797,10.892-15.247
	c7.909-2.451,11.6,3.164,11.6,3.164s2.109-14.236,13.708-14.236c11.599,0,19.506,11.599,19.506,11.599s1.582-6.854,10.545-6.854
	c8.963,0,13.179,14.235,13.179,14.235s3.164-3.216,11.599-1.582c8.435,1.633,21.088,25.307,21.088,25.307L279.488,63.34z"/>
<path fill="#E1EDEF" d="M217.445,82.066c0,0,4.281-20.417,11.01-20.417s13.457,4.083,13.457,4.083s-0.611-12.25,8.563-14.7
	c9.175-2.45,14.069,1.633,14.069,1.633s1.223-12.25,14.679-12.25c13.457,0,13.457,13.066,13.457,13.066s3.059-7.35,13.458-7.35
	c10.398,0,14.068,22.867,14.068,22.867s-0.612-8.983,9.175-7.35c9.787,1.634,14.068,20.417,14.068,20.417L217.445,82.066
	L217.445,82.066z"/>
<path fill="#E1EDEF" d="M181.345,125.539c0,0,6.835-19.534,10.936-19.534c4.101,0,8.2,4,8.2,4s2.109-12.534,7.7-14.935
	c5.591-2.401,8.2,3.099,8.2,3.099s1.491-13.943,9.69-13.943c8.2,0,13.791,11.361,13.791,11.361s1.119-6.714,7.455-6.714
	s9.317,13.943,9.317,13.943s2.236-3.148,8.2-1.549c5.963,1.6,14.909,24.787,14.909,24.787L181.345,125.539z"/>
<path fill="#BFDBDB" d="M-31.989,79.133c0,0-0.707-23.645,9.312-23.145c10.544,0.528,12.126,4.746,12.126,4.746
	S-11.426,36.8-3.519,33.172c7.908-3.628,12.126,2.419,12.126,2.419s1.93-12.29,13.529-12.29c11.599,0,10.723,13.5,10.723,13.5
	s1.93-5.064,10.893-5.064s12.833,28.044,12.833,28.044s1.929-5.685,10.364-3.265c8.435,2.42,9.669,22.617,9.669,22.617H-31.989z"/>
<path fill="#E1EDEF" d="M13.51,168.738c0,0,4.28-20.416,11.009-20.416s13.458,4.082,13.458,4.082s-0.611-12.248,8.563-14.699
	c9.175-2.449,14.068,1.635,14.068,1.635s1.224-12.25,14.679-12.25c13.458,0,13.458,13.066,13.458,13.066s3.059-7.35,13.457-7.35
	s14.068,22.867,14.068,22.867s-0.612-8.984,9.175-7.352c9.787,1.632,14.068,20.416,14.068,20.416L13.51,168.738L13.51,168.738z"/>
<path fill="#BFDBDB" d="M-45.934,252.512c0,0,6.835-19.533,10.936-19.533s8.2,4,8.2,4s2.109-12.535,7.7-14.936
	c5.591-2.4,8.2,3.1,8.2,3.1s1.491-13.943,9.69-13.943c8.2,0,13.792,11.361,13.792,11.361s1.119-6.715,7.455-6.715
	s9.316,13.943,9.316,13.943s2.236-3.148,8.201-1.549c5.963,1.6,14.908,24.787,14.908,24.787L-45.934,252.512z"/>
<path fill="#BFDBDB" d="M875.541,247.598c0,0,4.28-20.418,11.01-20.418s13.457,4.084,13.457,4.084s-0.611-12.25,8.563-14.699
	c9.174-2.451,14.067,1.634,14.067,1.634s1.225-12.25,14.681-12.25c13.457,0,13.457,13.065,13.457,13.065s3.06-7.351,13.458-7.351
	c10.396,0,14.067,22.866,14.067,22.866s-0.612-8.982,9.174-7.35c9.787,1.633,14.068,20.416,14.068,20.416H875.541V247.598z"/>
<path fill="#E1EDEF" d="M939.542,288.146c0,0-0.707-23.646,9.312-23.146c10.545,0.528,12.127,4.745,12.127,4.745
	s-0.875-23.934,7.031-27.562c7.908-3.627,12.126,2.42,12.126,2.42s1.931-12.289,13.529-12.289s10.723,13.498,10.723,13.498
	s1.931-5.063,10.894-5.063s12.833,28.044,12.833,28.044s1.929-5.684,10.364-3.264c8.436,2.418,9.668,22.617,9.668,22.617H939.542
	L939.542,288.146z"/>
<path fill="#E1EDEF" d="M39.501,289.898c0,0,6.835-19.533,10.936-19.533s8.2,4,8.2,4s2.109-12.534,7.7-14.936
	c5.591-2.4,8.2,3.1,8.2,3.1s1.491-13.943,9.69-13.943c8.2,0,13.792,11.361,13.792,11.361s1.119-6.715,7.455-6.715
	s9.316,13.943,9.316,13.943s2.236-3.148,8.201-1.549c5.963,1.6,14.908,24.787,14.908,24.787L39.501,289.898z"/>
<path fill="#E1EDEF" d="M-100.804,343.47c0,0,9.668-19.94,15.468-19.94c5.8,0,11.599,4.084,11.599,4.084s2.984-12.798,10.892-15.247
	c7.909-2.451,11.6,3.164,11.6,3.164s2.109-14.236,13.708-14.236s19.506,11.6,19.506,11.6s1.582-6.854,10.545-6.854
	c8.963,0,13.179,14.235,13.179,14.235s3.164-3.217,11.6-1.582C25.728,320.326,38.381,344,38.381,344L-100.804,343.47z"/>
<path fill="#E1EDEF" d="M979.875,388.691c0,0-0.707-23.646,9.312-23.146c10.544,0.528,12.125,4.745,12.125,4.745
	s-0.875-23.933,7.032-27.562c7.908-3.628,12.126,2.421,12.126,2.421s1.931-12.29,13.529-12.29s10.723,13.499,10.723,13.499
	s1.931-5.064,10.894-5.064s12.833,28.044,12.833,28.044s1.929-5.684,10.363-3.264c8.437,2.418,9.67,22.617,9.67,22.617
	L979.875,388.691L979.875,388.691z"/>
<g>
	<g>
		<path fill="#231F20" d="M452.361,116.853c1.297,0.105,2.488,0.46,3.576,1.064c1.086,0.605,1.989,1.548,2.708,2.827
			c0.491,0.878,0.71,1.842,0.657,2.894c0,0.104-0.009,0.184-0.026,0.236c-0.035,0.141-0.087,0.272-0.157,0.395
			c-0.07,0.123-0.185,0.202-0.342,0.237c-0.298,0.069-0.553-0.053-0.763-0.369c-0.193-0.333-0.399-0.657-0.618-0.973
			c-0.22-0.315-0.442-0.64-0.671-0.973c-0.315-0.456-0.692-0.824-1.13-1.105c-0.438-0.279-0.921-0.49-1.447-0.631
			c-0.298-0.087-0.582-0.087-0.854,0c-0.271,0.088-0.548,0.185-0.828,0.289c-0.736,0.299-1.337,0.729-1.802,1.289
			c-0.465,0.562-0.881,1.166-1.249,1.814c-0.368,0.649-0.661,1.315-0.881,1.999c-0.219,0.684-0.398,1.394-0.539,2.13
			s-0.254,1.469-0.342,2.195c-0.088,0.729-0.176,1.461-0.263,2.196c-0.053,0.456-0.092,0.903-0.118,1.341
			c-0.026,0.438-0.058,0.887-0.093,1.342c-0.018,0.456-0.035,0.907-0.052,1.354c-0.019,0.447-0.026,0.899-0.026,1.355
			c-0.019,0.929,0.008,1.85,0.078,2.761c0.07,0.912,0.185,1.823,0.342,2.735c0.07,0.42,0.141,0.846,0.211,1.275
			c0.069,0.429,0.175,0.846,0.315,1.248c0.158,0.491,0.354,0.951,0.592,1.382c0.236,0.429,0.565,0.802,0.986,1.117
			c0.14,0.088,0.275,0.166,0.407,0.236s0.268,0.123,0.408,0.158c0.245,0.069,0.477,0.078,0.696,0.025
			c0.219-0.052,0.435-0.192,0.645-0.42c0.561-0.596,1.017-1.24,1.367-1.933c0.351-0.693,0.622-1.434,0.815-2.222
			c0.21-0.842,0.368-1.719,0.474-2.63c0.034-0.229,0.092-0.435,0.171-0.618c0.079-0.185,0.188-0.363,0.328-0.54
			c0.175-0.192,0.382-0.267,0.618-0.223c0.237,0.044,0.407,0.18,0.513,0.407c0,0.036,0.005,0.058,0.014,0.065
			c0.009,0.01,0.013,0.031,0.013,0.065c0.018,0.422,0.079,0.838,0.185,1.25c0.105,0.411,0.122,0.837,0.053,1.275
			c-0.088,0.614-0.207,1.223-0.355,1.827c-0.149,0.604-0.347,1.188-0.592,1.749c-0.228,0.544-0.499,1.048-0.815,1.512
			c-0.315,0.465-0.657,0.917-1.025,1.354c-0.193,0.229-0.391,0.443-0.592,0.645c-0.201,0.202-0.399,0.408-0.591,0.618
			c-0.352,0.368-0.746,0.626-1.184,0.775c-0.438,0.149-0.895,0.268-1.368,0.354c-0.877,0.141-1.696,0.102-2.459-0.118
			c-0.763-0.219-1.512-0.556-2.248-1.012c-0.982-0.596-1.719-1.35-2.209-2.262c-0.491-0.911-0.859-1.902-1.104-2.972
			c-0.141-0.666-0.271-1.332-0.395-1.999c-0.123-0.666-0.202-1.341-0.237-2.024c-0.088-1.052-0.135-2.1-0.145-3.143
			c-0.009-1.043,0.022-2.091,0.092-3.143c0.07-1.157,0.167-2.297,0.289-3.418c0.123-1.123,0.298-2.245,0.526-3.366
			c0.175-0.965,0.363-1.916,0.565-2.854c0.201-0.938,0.513-1.854,0.934-2.748c0.455-0.947,0.99-1.806,1.604-2.577
			c0.614-0.771,1.35-1.455,2.209-2.052c0.736-0.509,1.525-0.872,2.367-1.091C450.441,117.015,451.361,116.888,452.361,116.853z"/>
		<path fill="#231F20" d="M478.343,138.627c-0.018,0.841-0.045,1.591-0.079,2.249c-0.036,0.657-0.132,1.292-0.29,1.905
			c-0.14,0.526-0.289,1.049-0.446,1.565c-0.158,0.518-0.359,1.03-0.604,1.538c-0.246,0.474-0.501,0.938-0.764,1.395
			s-0.525,0.911-0.788,1.367c-0.281,0.456-0.614,0.859-1,1.209c-0.386,0.352-0.788,0.676-1.21,0.974
			c-0.035,0.035-0.065,0.057-0.092,0.065s-0.057,0.031-0.092,0.066c-0.561,0.49-1.175,0.802-1.841,0.933
			c-0.667,0.132-1.35,0.197-2.051,0.197c-0.299,0-0.597-0.03-0.895-0.092s-0.596-0.118-0.894-0.171
			c-1.491-0.298-2.722-0.894-3.695-1.788c-0.973-0.895-1.749-2.007-2.327-3.34c-0.526-1.175-0.868-2.375-1.025-3.604
			c-0.158-1.227-0.175-2.471-0.053-3.733c0.088-0.946,0.228-1.875,0.421-2.788c0.192-0.911,0.446-1.813,0.763-2.708
			c0.455-1.332,1.042-2.572,1.762-3.722c0.719-1.147,1.621-2.186,2.709-3.116c1.437-1.227,3.111-1.884,5.022-1.972
			c0.894-0.053,1.696,0.102,2.405,0.461c0.711,0.358,1.346,0.88,1.907,1.563c0.631,0.789,1.117,1.636,1.46,2.538
			c0.342,0.903,0.626,1.827,0.854,2.774c0.14,0.578,0.249,1.156,0.328,1.735s0.162,1.166,0.251,1.762
			c0.087,0.51,0.161,1.009,0.223,1.499C478.364,137.883,478.378,138.294,478.343,138.627z M465.852,141.23
			c0.017,0.631,0.131,1.363,0.342,2.196c0.21,0.833,0.578,1.652,1.104,2.458c0.561,0.842,1.239,1.465,2.038,1.867
			c0.797,0.403,1.713,0.562,2.748,0.474c0.245-0.035,0.481-0.097,0.709-0.184c0.229-0.088,0.456-0.185,0.685-0.29
			c0.456-0.228,0.811-0.543,1.064-0.946s0.495-0.824,0.724-1.263c0.351-0.719,0.596-1.454,0.736-2.209
			c0.14-0.753,0.245-1.517,0.315-2.287c0.069-0.667,0.104-1.324,0.104-1.973s-0.069-1.297-0.21-1.946
			c-0.088-0.455-0.166-0.912-0.236-1.367c-0.07-0.456-0.158-0.911-0.263-1.368c-0.141-0.647-0.312-1.288-0.513-1.919
			c-0.202-0.631-0.479-1.227-0.829-1.788c-0.315-0.526-0.675-1-1.078-1.42c-0.403-0.421-0.902-0.754-1.499-1
			c-0.508-0.192-0.929-0.24-1.262-0.145c-0.334,0.097-0.667,0.364-1,0.803c-0.929,1.209-1.674,2.551-2.234,4.022
			c-0.456,1.246-0.803,2.529-1.039,3.853C466.022,138.123,465.887,139.6,465.852,141.23z"/>
		<path fill="#231F20" d="M484.232,142.571c0.105-0.351,0.21-0.705,0.315-1.064s0.202-0.714,0.289-1.065
			c0.141-0.596,0.298-1.179,0.474-1.749c0.176-0.569,0.386-1.134,0.631-1.695c0.246-0.614,0.504-1.232,0.776-1.854
			c0.271-0.622,0.557-1.24,0.854-1.854c0.263-0.543,0.539-1.077,0.829-1.604c0.289-0.526,0.582-1.043,0.88-1.552
			c0.245-0.421,0.491-0.832,0.737-1.235c0.245-0.403,0.508-0.807,0.788-1.21c0.176-0.264,0.372-0.514,0.592-0.75
			s0.435-0.478,0.645-0.723c0.123-0.141,0.241-0.268,0.354-0.381c0.114-0.114,0.232-0.241,0.355-0.382
			c0.228-0.28,0.535-0.421,0.92-0.421c0.193,0.019,0.373,0.036,0.54,0.053c0.166,0.018,0.337,0.026,0.513,0.026
			c0.21,0.018,0.377,0.092,0.499,0.224c0.123,0.132,0.236,0.268,0.342,0.407c0.141,0.176,0.251,0.359,0.329,0.553
			c0.079,0.192,0.145,0.394,0.197,0.604c0.193,0.859,0.303,1.714,0.329,2.564s0.004,1.714-0.066,2.59
			c-0.053,0.736-0.109,1.473-0.171,2.209s-0.109,1.473-0.145,2.209c-0.088,1.28-0.149,2.56-0.184,3.84
			c-0.036,1.279-0.026,2.56,0.026,3.84c0.034,0.613,0.065,1.227,0.092,1.84c0.026,0.614,0.092,1.228,0.197,1.841
			c0.035,0.193,0.065,0.373,0.092,0.539s0.057,0.337,0.092,0.513c0.035,0.141,0.058,0.275,0.066,0.407s-0.04,0.268-0.145,0.408
			c0,0.018-0.005,0.026-0.014,0.026c-0.01,0-0.013,0.01-0.013,0.026c0.035,0.299-0.031,0.518-0.197,0.657
			c-0.167,0.141-0.364,0.264-0.593,0.368c-0.228,0.088-0.446,0.18-0.656,0.276c-0.211,0.097-0.439,0.188-0.685,0.276
			c-0.351,0.122-0.723,0.122-1.117,0c-0.395-0.123-0.706-0.333-0.934-0.631c-0.053-0.07-0.083-0.149-0.092-0.237
			c-0.009-0.087-0.031-0.175-0.066-0.263c-0.018-0.07-0.026-0.136-0.026-0.197s-0.009-0.127-0.025-0.197
			c-0.368-1.911-0.526-3.856-0.474-5.838c0-0.386-0.005-0.768-0.013-1.145c-0.01-0.377,0.003-0.758,0.039-1.144
			c0.035-0.613,0.082-1.227,0.145-1.842c0.062-0.613,0.118-1.227,0.171-1.84c0.053-0.508,0.109-1.017,0.171-1.525
			s0.136-1.017,0.224-1.525c0.052-0.402,0.118-0.806,0.196-1.21c0.079-0.403,0.154-0.807,0.224-1.209
			c0.123-0.754,0.255-1.503,0.396-2.249c0.14-0.745,0.227-1.503,0.263-2.274c0.017-0.105,0.021-0.21,0.013-0.315
			s-0.013-0.228-0.013-0.369c-0.544,0.387-0.982,0.825-1.315,1.316c-0.192,0.298-0.372,0.6-0.538,0.906
			c-0.168,0.307-0.339,0.609-0.514,0.907c-0.192,0.334-0.39,0.667-0.592,0.999c-0.201,0.334-0.398,0.667-0.591,1
			c-0.211,0.368-0.396,0.736-0.553,1.104c-0.245,0.526-0.486,1.049-0.723,1.565c-0.237,0.518-0.479,1.039-0.724,1.564
			c-0.105,0.246-0.202,0.505-0.289,0.776c-0.088,0.272-0.176,0.539-0.264,0.802c-0.228,0.684-0.451,1.367-0.67,2.052
			c-0.22,0.684-0.435,1.367-0.645,2.051c-0.123,0.351-0.219,0.706-0.289,1.065s-0.158,0.715-0.263,1.064
			c-0.142,0.509-0.229,1.03-0.263,1.564c-0.036,0.536-0.098,1.065-0.186,1.592c-0.034,0.245-0.083,0.49-0.145,0.735
			c-0.061,0.246-0.109,0.491-0.145,0.736c-0.035,0.229-0.062,0.452-0.078,0.671c-0.018,0.22-0.062,0.435-0.132,0.645
			c-0.088,0.351-0.21,0.666-0.368,0.946c-0.07,0.141-0.145,0.246-0.224,0.315c-0.078,0.07-0.197,0.149-0.354,0.237
			c-0.123,0.052-0.25,0.083-0.382,0.092c-0.132,0.01-0.268,0.013-0.407,0.013c-0.141,0-0.268-0.003-0.382-0.013
			c-0.114-0.009-0.215-0.065-0.302-0.171c-0.387-0.403-0.676-0.841-0.868-1.314c-0.28-0.701-0.49-1.407-0.631-2.117
			s-0.255-1.434-0.343-2.169c-0.087-0.843-0.184-1.684-0.289-2.525c-0.104-0.842-0.184-1.683-0.236-2.524
			c-0.053-0.999-0.083-2.003-0.092-3.011s-0.014-2.021-0.014-3.037c0-0.789,0.022-1.579,0.066-2.367
			c0.044-0.789,0.083-1.586,0.118-2.394c0.053-0.999,0.131-2.032,0.236-3.104c0.035-0.298,0.097-0.596,0.184-0.894
			c0.088-0.298,0.229-0.578,0.422-0.841c0.192-0.28,0.429-0.43,0.71-0.447c0.245-0.034,0.473-0.026,0.684,0.026
			c0.21,0.052,0.395,0.202,0.552,0.447c0.158,0.245,0.285,0.486,0.382,0.723c0.096,0.236,0.162,0.504,0.196,0.802
			c0.035,0.352,0.079,0.688,0.132,1.013c0.053,0.325,0.105,0.662,0.158,1.013c0.087,0.49,0.153,0.973,0.197,1.445
			c0.043,0.475,0.074,0.966,0.092,1.474c0.035,0.736,0.075,1.464,0.119,2.183c0.043,0.719,0.082,1.446,0.118,2.183
			c0.035,0.789,0.069,1.574,0.104,2.354c0.035,0.78,0.07,1.564,0.105,2.354c0.018,0.245,0.035,0.486,0.053,0.723
			s0.044,0.478,0.079,0.723H484.232z"/>
		<path fill="#231F20" d="M506.479,122.06c-0.087-0.017-0.205-0.034-0.354-0.053c-0.148-0.017-0.268-0.026-0.354-0.026h-3.919
			c-0.298,0-0.601,0.014-0.907,0.04c-0.307,0.025-0.618,0.031-0.934,0.013c-0.157,0-0.319-0.017-0.486-0.053
			c-0.167-0.034-0.328-0.079-0.487-0.131c-0.14-0.053-0.271-0.119-0.394-0.197c-0.123-0.079-0.254-0.153-0.395-0.224
			c0.053-0.386,0.28-0.605,0.684-0.658c0.474-0.053,0.947-0.101,1.42-0.145c0.474-0.044,0.938-0.092,1.394-0.145
			c0.754-0.07,1.499-0.122,2.236-0.157c0.735-0.035,1.473-0.035,2.208,0c0.035,0,0.105-0.005,0.211-0.014
			c0.104-0.009,0.175-0.021,0.21-0.039c0.035-0.245,0.07-0.491,0.105-0.736s0.069-0.49,0.104-0.736
			c0.088-0.509,0.172-0.978,0.251-1.407s0.161-0.898,0.25-1.406c0.034-0.264,0.078-0.526,0.131-0.789
			c0.053-0.264,0.097-0.526,0.132-0.789v-0.237c-0.053-0.683,0.228-1.104,0.842-1.262c0.298-0.087,0.591-0.136,0.88-0.145
			s0.557,0.102,0.803,0.329c0.21,0.175,0.381,0.368,0.513,0.578s0.171,0.474,0.118,0.788c-0.035,0.246-0.048,0.5-0.039,0.764
			c0.009,0.263,0.013,0.518,0.013,0.763c0,0.525-0.03,1.021-0.092,1.485s-0.092,0.96-0.092,1.485v1.236c0.21,0,0.42,0,0.631,0
			c0.21,0,0.421,0.009,0.631,0.026c0.789,0,1.568,0.03,2.341,0.092c0.771,0.062,1.543,0.188,2.314,0.382
			c0.174,0.034,0.346,0.088,0.513,0.157c0.166,0.07,0.337,0.141,0.513,0.21c0.052,0.036,0.101,0.075,0.145,0.119
			c0.043,0.044,0.101,0.083,0.171,0.118c-0.176,0.193-0.355,0.307-0.539,0.342c-0.185,0.036-0.373,0.053-0.565,0.053
			c-0.403,0.018-0.794,0.022-1.17,0.014c-0.378-0.009-0.768,0.004-1.171,0.039c-0.578,0.036-1.153,0.075-1.723,0.118
			c-0.569,0.045-1.144,0.084-1.722,0.118c-0.053,0.019-0.105,0.031-0.158,0.04s-0.123,0.031-0.21,0.065c0,0.105,0,0.303,0,0.592
			s-0.005,0.636-0.014,1.038c-0.009,0.404-0.013,0.829-0.013,1.276s-0.005,0.872-0.014,1.275c-0.009,0.402-0.013,0.749-0.013,1.038
			c0,0.29,0,0.487,0,0.592v3.683c0,0.42,0.009,1.033,0.026,1.84c0.017,0.807,0.039,1.719,0.065,2.735s0.057,2.077,0.092,3.182
			s0.084,2.161,0.145,3.169c0.062,1.009,0.123,1.92,0.185,2.735c0.062,0.814,0.136,1.424,0.224,1.828
			c0.122,0.631,0.258,1.262,0.407,1.893c0.148,0.631,0.338,1.254,0.565,1.867c0.035,0.105,0.062,0.215,0.079,0.329
			c0.018,0.113,0.044,0.223,0.079,0.328c0.052,0.141,0.104,0.276,0.157,0.407c0.053,0.132,0.114,0.259,0.185,0.382
			c0.14,0.245,0.275,0.481,0.408,0.71c0.131,0.228,0.266,0.464,0.407,0.71c0.122,0.211,0.145,0.391,0.065,0.539
			c-0.079,0.149-0.241,0.259-0.486,0.329c-0.438,0.087-0.854,0.101-1.249,0.039c-0.396-0.062-0.794-0.162-1.197-0.302
			c-0.613-0.193-1.126-0.486-1.538-0.881c-0.412-0.396-0.776-0.873-1.092-1.435c-0.473-0.858-0.837-1.739-1.091-2.643
			c-0.255-0.902-0.478-1.827-0.671-2.773c-0.053-0.246-0.097-0.688-0.131-1.328c-0.035-0.64-0.066-1.381-0.093-2.223
			c-0.025-0.842-0.048-1.735-0.065-2.683c-0.018-0.946-0.035-1.84-0.053-2.682c-0.018-0.843-0.026-1.583-0.026-2.223
			s0-1.082,0-1.328c0.018-0.666,0.026-1.319,0.026-1.959s0.018-1.284,0.053-1.933c0.018-0.211,0.04-0.521,0.065-0.934
			c0.026-0.412,0.058-0.876,0.093-1.394c0.034-0.518,0.069-1.057,0.104-1.617s0.07-1.1,0.105-1.617s0.065-0.982,0.092-1.395
			c0.026-0.411,0.049-0.723,0.065-0.933V122.06z"/>
		<path fill="#231F20" d="M522.311,148.199c0.053,0.456,0.096,0.886,0.132,1.289c0.035,0.351,0.062,0.684,0.079,0.999
			s0.009,0.535-0.026,0.657c-0.089,0.333-0.229,0.587-0.421,0.763c-0.193,0.175-0.456,0.245-0.789,0.21
			c-0.509-0.069-0.907-0.259-1.197-0.565c-0.289-0.307-0.529-0.661-0.723-1.064c-0.141-0.263-0.236-0.517-0.289-0.763
			c-0.053-0.228-0.105-0.447-0.157-0.658c-0.053-0.21-0.098-0.429-0.132-0.657c-0.088-0.929-0.181-1.849-0.276-2.761
			c-0.097-0.911-0.18-1.831-0.25-2.762c-0.07-0.823-0.136-1.639-0.197-2.445c-0.062-0.806-0.083-1.63-0.065-2.472
			c0.018-0.474,0.021-0.946,0.013-1.421c-0.009-0.473-0.013-0.946-0.013-1.419c0.018-0.298,0.03-0.592,0.039-0.882
			c0.009-0.289,0.022-0.582,0.04-0.881c0-0.298-0.005-0.587-0.014-0.867s-0.004-0.569,0.014-0.867
			c0.018-0.351,0.069-0.701,0.157-1.054c0.105-0.42,0.354-0.731,0.75-0.933c0.395-0.201,0.784-0.206,1.17-0.014
			c0.14,0.07,0.258,0.162,0.355,0.276c0.096,0.114,0.188,0.233,0.275,0.354c0.158,0.246,0.276,0.501,0.355,0.764
			s0.153,0.535,0.224,0.815c0.157,0.666,0.267,1.327,0.328,1.985c0.062,0.657,0.083,1.319,0.065,1.985
			c-0.018,0.455-0.021,0.898-0.013,1.328s0.013,0.872,0.013,1.328h0.026c0.035,0.525,0.053,1.048,0.053,1.564
			c0,0.518,0.018,1.039,0.053,1.564l0.395,5.522c0.018,0.193,0.026,0.373,0.026,0.539
			C522.311,147.827,522.311,148.007,522.311,148.199z M520.285,127.635c-0.104,0.053-0.228,0.088-0.368,0.105
			c-0.14,0.018-0.275,0.004-0.407-0.04c-0.131-0.043-0.254-0.14-0.368-0.289c-0.114-0.148-0.196-0.372-0.249-0.671
			c-0.053-0.298-0.04-0.548,0.039-0.749s0.18-0.372,0.303-0.513c0.14-0.157,0.315-0.29,0.525-0.395
			c0.053-0.034,0.171-0.017,0.354,0.053c0.185,0.07,0.373,0.149,0.566,0.237c0.21,0.087,0.398,0.289,0.564,0.604
			c0.167,0.315,0.259,0.596,0.276,0.841c0,0.123-0.039,0.224-0.118,0.302c-0.079,0.079-0.184,0.154-0.315,0.224
			c-0.132,0.071-0.268,0.128-0.407,0.171C520.539,127.561,520.408,127.6,520.285,127.635z"/>
		<path fill="#231F20" d="M529.279,142.571c0.105-0.351,0.21-0.705,0.315-1.064s0.201-0.714,0.289-1.065
			c0.141-0.596,0.298-1.179,0.474-1.749c0.176-0.569,0.386-1.134,0.631-1.695c0.246-0.614,0.504-1.232,0.776-1.854
			c0.271-0.622,0.557-1.24,0.854-1.854c0.263-0.543,0.539-1.077,0.828-1.604s0.583-1.043,0.881-1.552
			c0.245-0.421,0.491-0.832,0.736-1.235c0.246-0.403,0.509-0.807,0.789-1.21c0.175-0.264,0.372-0.514,0.592-0.75
			s0.434-0.478,0.645-0.723c0.122-0.141,0.24-0.268,0.354-0.381c0.114-0.114,0.232-0.241,0.355-0.382
			c0.228-0.28,0.535-0.421,0.92-0.421c0.193,0.019,0.373,0.036,0.54,0.053c0.166,0.018,0.337,0.026,0.513,0.026
			c0.21,0.018,0.376,0.092,0.499,0.224s0.236,0.268,0.342,0.407c0.141,0.176,0.25,0.359,0.329,0.553
			c0.079,0.192,0.145,0.394,0.197,0.604c0.192,0.859,0.303,1.714,0.329,2.564c0.025,0.851,0.004,1.714-0.066,2.59
			c-0.053,0.736-0.109,1.473-0.171,2.209s-0.109,1.473-0.145,2.209c-0.088,1.28-0.149,2.56-0.184,3.84
			c-0.036,1.279-0.026,2.56,0.026,3.84c0.034,0.613,0.065,1.227,0.092,1.84c0.026,0.614,0.092,1.228,0.197,1.841
			c0.035,0.193,0.065,0.373,0.092,0.539s0.057,0.337,0.092,0.513c0.035,0.141,0.058,0.275,0.066,0.407
			c0.008,0.132-0.04,0.268-0.146,0.408c0,0.018-0.004,0.026-0.013,0.026c-0.01,0-0.013,0.01-0.013,0.026
			c0.034,0.299-0.031,0.518-0.197,0.657c-0.168,0.141-0.364,0.264-0.593,0.368c-0.228,0.088-0.446,0.18-0.657,0.276
			c-0.21,0.097-0.438,0.188-0.684,0.276c-0.351,0.122-0.723,0.122-1.117,0c-0.396-0.123-0.706-0.333-0.934-0.631
			c-0.053-0.07-0.084-0.149-0.093-0.237c-0.008-0.087-0.03-0.175-0.065-0.263c-0.018-0.07-0.026-0.136-0.026-0.197
			s-0.009-0.127-0.026-0.197c-0.367-1.911-0.525-3.856-0.473-5.838c0-0.386-0.005-0.768-0.014-1.145s0.004-0.758,0.04-1.144
			c0.035-0.613,0.082-1.227,0.145-1.842c0.062-0.613,0.118-1.227,0.171-1.84c0.053-0.508,0.109-1.017,0.171-1.525
			s0.136-1.017,0.223-1.525c0.053-0.402,0.119-0.806,0.197-1.21c0.079-0.403,0.153-0.807,0.224-1.209
			c0.123-0.754,0.254-1.503,0.396-2.249c0.14-0.745,0.227-1.503,0.263-2.274c0.017-0.105,0.021-0.21,0.013-0.315
			s-0.013-0.228-0.013-0.369c-0.544,0.387-0.982,0.825-1.315,1.316c-0.192,0.298-0.372,0.6-0.539,0.906s-0.338,0.609-0.513,0.907
			c-0.192,0.334-0.39,0.667-0.592,0.999c-0.201,0.334-0.398,0.667-0.591,1c-0.211,0.368-0.396,0.736-0.553,1.104
			c-0.246,0.526-0.486,1.049-0.723,1.565c-0.237,0.518-0.479,1.039-0.724,1.564c-0.105,0.246-0.202,0.505-0.29,0.776
			c-0.087,0.272-0.175,0.539-0.263,0.802c-0.228,0.684-0.451,1.367-0.67,2.052c-0.22,0.684-0.435,1.367-0.645,2.051
			c-0.123,0.351-0.22,0.706-0.289,1.065c-0.07,0.359-0.158,0.715-0.263,1.064c-0.142,0.509-0.229,1.03-0.264,1.564
			c-0.035,0.536-0.097,1.065-0.185,1.592c-0.035,0.245-0.083,0.49-0.145,0.735c-0.062,0.246-0.109,0.491-0.145,0.736
			c-0.035,0.229-0.062,0.452-0.079,0.671c-0.018,0.22-0.061,0.435-0.131,0.645c-0.088,0.351-0.211,0.666-0.368,0.946
			c-0.07,0.141-0.145,0.246-0.224,0.315c-0.078,0.07-0.197,0.149-0.354,0.237c-0.124,0.052-0.251,0.083-0.382,0.092
			c-0.132,0.01-0.268,0.013-0.407,0.013c-0.141,0-0.268-0.003-0.382-0.013c-0.114-0.009-0.215-0.065-0.302-0.171
			c-0.387-0.403-0.676-0.841-0.868-1.314c-0.28-0.701-0.491-1.407-0.631-2.117c-0.141-0.71-0.255-1.434-0.343-2.169
			c-0.087-0.843-0.184-1.684-0.289-2.525c-0.104-0.842-0.184-1.683-0.236-2.524c-0.053-0.999-0.083-2.003-0.092-3.011
			s-0.014-2.021-0.014-3.037c0-0.789,0.022-1.579,0.066-2.367c0.043-0.789,0.083-1.586,0.118-2.394
			c0.053-0.999,0.131-2.032,0.236-3.104c0.035-0.298,0.097-0.596,0.184-0.894c0.088-0.298,0.229-0.578,0.422-0.841
			c0.192-0.28,0.429-0.43,0.709-0.447c0.246-0.034,0.474-0.026,0.685,0.026c0.21,0.052,0.395,0.202,0.552,0.447
			c0.158,0.245,0.285,0.486,0.381,0.723c0.097,0.236,0.162,0.504,0.197,0.802c0.035,0.352,0.079,0.688,0.132,1.013
			c0.053,0.325,0.105,0.662,0.157,1.013c0.088,0.49,0.153,0.973,0.198,1.445c0.043,0.475,0.074,0.966,0.092,1.474
			c0.034,0.736,0.075,1.464,0.118,2.183s0.083,1.446,0.119,2.183c0.034,0.789,0.069,1.574,0.104,2.354
			c0.035,0.78,0.07,1.564,0.105,2.354c0.018,0.245,0.035,0.486,0.053,0.723s0.044,0.478,0.078,0.723H529.279z"/>
		<path fill="#231F20" d="M554.209,134.683c-0.088,0.193-0.171,0.386-0.249,0.578c-0.079,0.193-0.154,0.386-0.224,0.579
			c-0.246,0.788-0.482,1.583-0.711,2.38c-0.228,0.797-0.464,1.59-0.709,2.38c-0.158,0.491-0.308,0.986-0.448,1.485
			c-0.14,0.5-0.315,0.985-0.525,1.46c-0.228,0.456-0.499,0.859-0.815,1.21c-0.315,0.35-0.71,0.622-1.183,0.814
			c-0.089,0.035-0.171,0.088-0.25,0.157c-0.079,0.07-0.163,0.132-0.25,0.185c-0.299,0.176-0.592,0.312-0.881,0.408
			s-0.61,0.118-0.96,0.065c-0.579-0.105-1.052-0.368-1.421-0.789c-0.298-0.351-0.552-0.728-0.762-1.131
			c-0.211-0.402-0.386-0.832-0.526-1.288c-0.211-0.685-0.368-1.372-0.474-2.064c-0.104-0.692-0.184-1.398-0.236-2.117
			c-0.053-0.631-0.105-1.266-0.157-1.906c-0.053-0.641-0.088-1.275-0.105-1.906c-0.018-0.666-0.009-1.333,0.026-1.999
			s0.069-1.332,0.104-1.999c0.035-0.789,0.088-1.564,0.158-2.327s0.131-1.539,0.184-2.327c0.035-0.298,0.141-0.587,0.316-0.867
			c0.175-0.28,0.438-0.456,0.789-0.526c0.122-0.035,0.24-0.069,0.354-0.105c0.114-0.034,0.232-0.069,0.354-0.105
			c0.614-0.069,1.062,0.176,1.342,0.737c0.122,0.228,0.228,0.46,0.315,0.696c0.087,0.236,0.132,0.495,0.132,0.775
			c-0.019,0.334,0.014,0.662,0.092,0.986c0.079,0.325,0.136,0.653,0.171,0.986c0.035,0.245,0.062,0.5,0.079,0.763
			c0.017,0.263,0.035,0.518,0.053,0.762c0.035,0.737,0.065,1.47,0.092,2.196c0.026,0.729,0.057,1.46,0.092,2.196
			c0.035,0.456,0.057,0.898,0.065,1.327c0.009,0.431,0.031,0.873,0.066,1.328c0.018,0.352,0.03,0.711,0.039,1.079
			s0.04,0.735,0.092,1.104c0.07,0.51,0.097,1.018,0.079,1.526c-0.018,0.508,0.044,1.017,0.184,1.524
			c0.053,0.264,0.141,0.5,0.264,0.71c0.14,0.264,0.298,0.264,0.474,0c0.105-0.174,0.206-0.35,0.302-0.526
			c0.097-0.174,0.171-0.358,0.224-0.552c0.141-0.561,0.276-1.117,0.407-1.669c0.132-0.553,0.268-1.109,0.408-1.671
			c0.193-0.718,0.377-1.428,0.553-2.13c0.175-0.7,0.367-1.402,0.578-2.104c0.157-0.474,0.337-0.934,0.539-1.381
			c0.201-0.447,0.398-0.898,0.592-1.354c0.088-0.229,0.188-0.447,0.302-0.657c0.114-0.211,0.215-0.431,0.303-0.658
			c0.386-0.93,0.93-1.806,1.631-2.63c0.122-0.122,0.228-0.279,0.315-0.473c0.211-0.491,0.578-0.737,1.104-0.737
			c0.264,0,0.526,0,0.789,0s0.525,0.01,0.788,0.026c0.246,0.018,0.412,0.07,0.5,0.158s0.167,0.245,0.237,0.474
			c0.07,0.246,0.101,0.482,0.092,0.71c-0.009,0.229-0.013,0.465-0.013,0.71c0,0.386,0.017,0.771,0.052,1.156
			c0.035,0.387,0.035,0.781,0,1.185c-0.035,0.788-0.087,1.577-0.157,2.366s-0.132,1.578-0.185,2.366
			c-0.035,0.526-0.062,1.057-0.078,1.592c-0.018,0.535-0.044,1.064-0.079,1.591c-0.018,0.351-0.036,0.701-0.053,1.052
			c-0.019,0.352-0.036,0.702-0.053,1.052c-0.018,0.333-0.035,0.666-0.053,0.999c-0.018,0.334-0.018,0.667,0,1
			c0.018,0.579,0.044,1.161,0.079,1.748c0.034,0.588,0.069,1.181,0.105,1.776c0,0.192,0.009,0.377,0.026,0.552
			c0.017,0.175,0.053,0.359,0.104,0.552c0.088,0.28,0.128,0.552,0.119,0.815c-0.009,0.263-0.023,0.535-0.04,0.815
			c-0.018,0.088-0.035,0.18-0.053,0.275c-0.018,0.098-0.069,0.189-0.157,0.277c-0.089,0.087-0.167,0.197-0.236,0.328
			c-0.071,0.132-0.15,0.259-0.237,0.381c-0.035,0.035-0.066,0.075-0.093,0.119c-0.026,0.043-0.057,0.083-0.092,0.118
			c-0.28,0.245-0.565,0.451-0.854,0.617c-0.289,0.167-0.636,0.241-1.039,0.224c-0.525-0.018-0.92-0.236-1.183-0.657
			c-0.088-0.14-0.167-0.289-0.237-0.446c-0.069-0.158-0.131-0.315-0.184-0.474c-0.263-0.858-0.456-1.719-0.578-2.577
			c-0.124-0.858-0.185-1.736-0.185-2.63c0-1.297,0.014-2.587,0.04-3.865c0.026-1.28,0.108-2.561,0.249-3.84
			c0.053-0.403,0.109-0.793,0.171-1.171c0.062-0.377,0.127-0.767,0.197-1.17c0.018-0.087,0.031-0.184,0.04-0.289
			c0.009-0.104,0.021-0.201,0.039-0.289c-0.018,0-0.03-0.004-0.039-0.013S554.227,134.683,554.209,134.683z"/>
		<path fill="#231F20" d="M578.745,141.415c-0.334,0.735-0.671,1.464-1.013,2.183s-0.706,1.438-1.092,2.155
			c-0.351,0.685-0.749,1.338-1.196,1.96s-0.925,1.223-1.434,1.802c-0.771,0.911-1.644,1.6-2.616,2.063
			c-0.974,0.465-2.091,0.627-3.353,0.486c-1.315-0.14-2.438-0.552-3.367-1.235c-0.929-0.684-1.7-1.604-2.313-2.762
			c-0.421-0.841-0.749-1.695-0.986-2.563c-0.236-0.868-0.398-1.766-0.486-2.696c-0.088-0.718-0.127-1.428-0.118-2.13
			c0.009-0.7,0.03-1.411,0.065-2.13c0.035-0.735,0.114-1.464,0.236-2.183c0.123-0.719,0.289-1.437,0.5-2.156
			c0.299-1.052,0.662-2.068,1.091-3.051c0.43-0.981,0.995-1.901,1.696-2.761c0.422-0.526,0.885-0.995,1.395-1.407
			c0.508-0.412,1.061-0.775,1.656-1.091c0.508-0.263,1.03-0.478,1.564-0.645c0.535-0.166,1.083-0.267,1.644-0.303
			c0.632-0.035,1.254,0,1.868,0.105c0.613,0.105,1.2,0.359,1.762,0.763c0.14,0.105,0.284,0.206,0.434,0.303
			c0.148,0.096,0.303,0.188,0.46,0.275c0.543,0.351,1.013,0.772,1.407,1.263c0.395,0.491,0.758,1.018,1.092,1.578
			c0.332,0.561,0.543,1.156,0.631,1.788c0.087,0.631,0.069,1.279-0.053,1.945c-0.421,2.175-1.446,4.042-3.077,5.602
			c-0.473,0.456-0.956,0.898-1.446,1.328c-0.491,0.431-1.009,0.828-1.552,1.197c-0.771,0.508-1.573,0.92-2.405,1.235
			c-0.834,0.315-1.723,0.49-2.67,0.525c-0.018,0-0.097,0.019-0.236,0.053c0.122,0.755,0.307,1.465,0.552,2.131
			s0.605,1.279,1.078,1.841c0.403,0.456,0.854,0.798,1.354,1.025s1.047,0.359,1.644,0.395c0.245,0.018,0.46-0.031,0.645-0.145
			c0.184-0.114,0.372-0.241,0.565-0.382c0.403-0.35,0.771-0.731,1.104-1.144s0.64-0.846,0.92-1.302
			c0.403-0.613,0.771-1.235,1.105-1.867c0.332-0.632,0.631-1.28,0.894-1.946c0.14-0.315,0.302-0.582,0.486-0.802
			s0.451-0.355,0.802-0.407c0.211,0.017,0.395,0.069,0.553,0.157c0.122,0.089,0.219,0.207,0.289,0.355
			C578.893,140.973,578.867,141.17,578.745,141.415z M566.596,141.389c0.228-0.035,0.434-0.062,0.617-0.079
			c0.185-0.018,0.363-0.053,0.539-0.105c0.614-0.14,1.196-0.346,1.749-0.618c0.553-0.271,1.073-0.592,1.565-0.96
			c0.402-0.298,0.788-0.601,1.156-0.907s0.728-0.626,1.078-0.959c0.737-0.667,1.315-1.421,1.735-2.262
			c0.421-0.842,0.711-1.744,0.868-2.709c0.088-0.438,0.088-0.854,0-1.249s-0.281-0.767-0.579-1.118
			c-0.561-0.666-1.222-1.1-1.984-1.301c-0.763-0.202-1.539-0.11-2.327,0.275c-0.685,0.333-1.275,0.767-1.776,1.302
			c-0.499,0.535-0.916,1.136-1.248,1.802c-0.562,1.122-0.965,2.323-1.21,3.603c-0.141,0.684-0.241,1.367-0.303,2.052
			c-0.062,0.684-0.075,1.376-0.039,2.077c0.017,0.193,0.039,0.381,0.065,0.564C566.529,140.981,566.56,141.179,566.596,141.389z"/>
		<path fill="#231F20" d="M404.772,187.105c-0.79-0.048-1.561-0.077-2.315-0.089c-0.753-0.012-1.513-0.042-2.279-0.091
			c-1.292-0.047-2.59-0.083-3.894-0.106c-1.305-0.024-2.614-0.06-3.93-0.108c-0.12,0-0.228-0.012-0.323-0.036
			c-0.096-0.023-0.203-0.012-0.323,0.036c-0.55,0.12-1.065,0.103-1.543-0.054c-0.479-0.155-0.957-0.377-1.436-0.664
			c-0.502-0.31-0.838-0.777-1.004-1.399c-0.096-0.334-0.108-0.61-0.036-0.825c0.072-0.216,0.275-0.383,0.61-0.503
			c0.407-0.167,0.813-0.305,1.22-0.412c0.407-0.108,0.813-0.186,1.22-0.234c1.22-0.095,2.446-0.173,3.679-0.232
			c1.232-0.06,2.47-0.113,3.714-0.161c1.244-0.049,2.488-0.096,3.732-0.145c1.244-0.047,2.488-0.096,3.732-0.144
			c0.622-0.023,1.238-0.029,1.849-0.018c0.61,0.013,1.226-0.006,1.848-0.054c1.938-0.12,3.858-0.144,5.76-0.071
			c1.902,0.071,3.822,0.168,5.76,0.286c0.718,0.049,1.495,0.061,2.333,0.036c0.837-0.023,1.603,0.085,2.297,0.322
			c0.191,0.05,0.329,0.126,0.413,0.234c0.083,0.107,0.245,0.174,0.484,0.197c-0.024,0.12-0.036,0.21-0.036,0.27
			c0,0.061-0.012,0.113-0.036,0.161l-1.399,2.368c-0.287,0.527-0.706,0.826-1.256,0.897c-0.838,0.096-1.663,0.198-2.476,0.306
			c-0.814,0.106-1.628,0.185-2.441,0.232c-1.292,0.048-2.56,0.078-3.804,0.091c-1.245,0.012-2.513,0.029-3.804,0.053
			c-0.072,0-0.144,0.007-0.215,0.019s-0.156,0.03-0.251,0.054c0,0.12-0.006,0.228-0.019,0.323s-0.006,0.191,0.019,0.287
			c0.263,1.436,0.43,2.877,0.502,4.324s0.131,2.913,0.179,4.396c0.048,1.292,0.102,2.567,0.162,3.823
			c0.06,1.256,0.113,2.529,0.161,3.821c0.072,1.843,0.149,3.673,0.233,5.491c0.083,1.819,0.149,3.66,0.197,5.526
			c0.048,1.27,0.09,2.525,0.126,3.768c0.036,1.246,0.054,2.514,0.054,3.806c0,0.525-0.018,1.046-0.054,1.562
			c-0.036,0.514-0.066,1.045-0.09,1.596c-0.024,0.192-0.042,0.396-0.054,0.61c-0.013,0.215-0.019,0.431-0.019,0.646
			c0,0.311-0.024,0.604-0.071,0.879c-0.048,0.276-0.156,0.545-0.323,0.808c-0.215,0.359-0.461,0.61-0.735,0.755
			c-0.275,0.144-0.628,0.179-1.059,0.106c-0.766-0.119-1.394-0.405-1.884-0.861c-0.491-0.454-0.904-1.005-1.238-1.65
			c-0.335-0.622-0.58-1.256-0.736-1.902c-0.156-0.646-0.293-1.303-0.413-1.973c-0.192-1.196-0.317-2.381-0.376-3.553
			c-0.061-1.173-0.078-2.357-0.054-3.554c0-0.407-0.012-0.795-0.036-1.166c-0.024-0.371-0.048-0.76-0.072-1.167l-0.215-4.952
			c-0.12-2.226-0.227-4.432-0.323-6.622c-0.096-2.189-0.18-4.396-0.251-6.621c-0.071-2.751,0.108-5.478,0.539-8.182
			c0.024-0.071,0.03-0.149,0.018-0.233C404.778,187.327,404.772,187.226,404.772,187.105z"/>
		<path fill="#231F20" d="M434.595,218.293c0.047-0.479,0.107-0.957,0.179-1.436c0.072-0.479,0.131-0.957,0.18-1.436
			c0.119-0.934,0.221-1.866,0.305-2.8c0.083-0.933,0.197-1.866,0.34-2.799c0.167-0.981,0.341-1.957,0.521-2.925
			c0.18-0.97,0.389-1.944,0.628-2.925c0.263-1.054,0.58-2.081,0.951-3.088c0.371-1.004,0.831-1.973,1.382-2.905
			c0.359-0.599,0.723-1.179,1.094-1.741c0.371-0.562,0.832-1.07,1.382-1.525c0.191-0.167,0.388-0.329,0.592-0.483
			c0.203-0.156,0.412-0.294,0.628-0.413c0.264-0.167,0.538-0.258,0.825-0.27s0.586,0.018,0.897,0.09
			c0.526,0.119,1.022,0.305,1.489,0.556c0.467,0.252,0.915,0.533,1.346,0.845c0.191,0.095,0.3,0.178,0.323,0.251
			c0.263,0.454,0.521,0.896,0.771,1.327s0.449,0.885,0.592,1.364c0.191,0.622,0.342,1.244,0.449,1.866s0.221,1.256,0.341,1.901
			c0.071,0.359,0.113,0.729,0.126,1.112c0.012,0.383,0.065,0.754,0.161,1.113c0.191,0.79,0.245,1.586,0.161,2.386
			c-0.084,0.802-0.066,1.598,0.054,2.388c0.048,0.143,0.055,0.292,0.019,0.448s-0.054,0.316-0.054,0.484
			c0.023,0.551,0.041,1.111,0.054,1.687c0.012,0.574,0.041,1.137,0.09,1.688c0.071,0.909,0.155,1.829,0.251,2.763
			c0.095,0.933,0.191,1.854,0.287,2.763c0.071,0.909,0.138,1.825,0.197,2.745c0.06,0.922,0.149,1.837,0.27,2.747
			c0.047,0.334,0.131,0.657,0.251,0.968c0.119,0.312,0.228,0.634,0.322,0.97c0.072,0.263,0.108,0.551,0.108,0.86
			c0,0.287-0.03,0.569-0.09,0.844c-0.06,0.276-0.149,0.545-0.27,0.808c-0.215,0.599-0.622,0.825-1.22,0.682
			c-1.818-0.479-3.122-1.519-3.912-3.122c-0.718-1.436-1.273-2.913-1.668-4.432c-0.396-1.521-0.664-3.069-0.808-4.648
			c-0.192-1.938-0.318-3.875-0.377-5.812c-0.061-1.938-0.03-3.876,0.089-5.815c0.072-1.124,0.078-2.243,0.019-3.354
			c-0.061-1.112-0.113-2.23-0.161-3.355c0-0.097-0.019-0.186-0.054-0.271c-0.036-0.083-0.078-0.22-0.126-0.411
			c-0.216,0.334-0.413,0.646-0.592,0.933c-0.18,0.286-0.33,0.562-0.449,0.825c-0.502,1.053-0.951,2.111-1.346,3.176
			c-0.395,1.065-0.712,2.172-0.951,3.319c-0.071,0.408-0.167,0.813-0.287,1.221c-0.12,0.408-0.228,0.813-0.323,1.22
			c-0.12,0.479-0.222,0.97-0.305,1.472c-0.084,0.503-0.174,0.993-0.269,1.473c-0.264,1.219-0.479,2.439-0.646,3.659
			c-0.191,1.126-0.354,2.243-0.484,3.355c-0.132,1.113-0.282,2.231-0.449,3.355c-0.096,0.646-0.21,1.281-0.341,1.903
			c-0.132,0.622-0.317,1.244-0.557,1.866c-0.215,0.574-0.526,1.07-0.933,1.488c-0.407,0.419-0.825,0.82-1.256,1.203
			c-0.264,0.239-0.556,0.448-0.879,0.628c-0.323,0.18-0.652,0.354-0.987,0.52c-0.455,0.216-0.832,0.271-1.13,0.162
			c-0.299-0.108-0.592-0.365-0.879-0.772c-0.335-0.502-0.622-1.028-0.861-1.578c-0.24-0.551-0.407-1.125-0.503-1.724
			c-0.12-0.765-0.215-1.519-0.287-2.261c-0.072-0.741-0.156-1.495-0.251-2.26c-0.048-0.526-0.108-1.054-0.18-1.579
			c-0.071-0.527-0.144-1.053-0.215-1.58c-0.215-1.77-0.401-3.528-0.557-5.275c-0.156-1.745-0.246-3.517-0.269-5.312
			c-0.048-2.846-0.084-5.682-0.107-8.505c-0.024-2.822-0.048-5.658-0.072-8.506c-0.023-2.032-0.023-4.056,0-6.064
			c0.024-2.01,0.036-4.032,0.036-6.065c0-0.454,0.138-0.86,0.413-1.22s0.664-0.574,1.167-0.646c0.718-0.071,1.351,0.096,1.902,0.503
			c0.431,0.286,0.748,0.634,0.951,1.04c0.203,0.407,0.364,0.85,0.484,1.329c0.215,0.885,0.341,1.77,0.377,2.654
			c0.036,0.887,0.077,1.771,0.125,2.656c0.024,0.813,0.06,1.615,0.108,2.404c0.048,0.789,0.095,1.579,0.143,2.369
			c0.024,0.454,0.036,0.902,0.036,1.346c0,0.442,0.012,0.892,0.036,1.346c0.023,0.431,0.042,0.861,0.054,1.291
			c0.012,0.431,0.042,0.861,0.09,1.292c0.048,0.742,0.101,1.479,0.162,2.208c0.059,0.73,0.125,1.465,0.197,2.207
			c0.12,1.005,0.162,1.997,0.126,2.979s-0.078,1.975-0.126,2.979c-0.024,0.405-0.012,0.813,0.037,1.219
			c0.047,0.408,0.095,0.813,0.143,1.221c0.023,0.454,0.048,0.91,0.072,1.364s0.06,0.922,0.107,1.399
			c0.048,0.646,0.084,1.292,0.108,1.938c0.024,0.646,0.06,1.304,0.108,1.975c0.048,0.599,0.089,1.184,0.125,1.758
			c0.036,0.574,0.077,1.161,0.125,1.758c0.024,0.121,0.048,0.234,0.072,0.342c0.023,0.108,0.047,0.223,0.072,0.341
			C434.487,218.328,434.547,218.316,434.595,218.293z"/>
		<path fill="#231F20" d="M479.383,215.277c-0.455,1.006-0.915,1.999-1.382,2.979c-0.467,0.981-0.963,1.963-1.489,2.942
			c-0.479,0.934-1.022,1.826-1.633,2.674c-0.609,0.851-1.263,1.67-1.956,2.46c-1.053,1.244-2.243,2.183-3.57,2.816
			c-1.328,0.634-2.854,0.855-4.576,0.664c-1.794-0.19-3.325-0.753-4.594-1.687c-1.269-0.933-2.321-2.19-3.158-3.769
			c-0.574-1.147-1.022-2.314-1.346-3.499s-0.544-2.409-0.664-3.679c-0.119-0.981-0.173-1.949-0.161-2.907
			c0.013-0.956,0.042-1.925,0.09-2.906c0.048-1.006,0.155-1.997,0.322-2.979c0.168-0.981,0.396-1.961,0.683-2.942
			c0.406-1.436,0.902-2.823,1.489-4.163c0.586-1.341,1.357-2.597,2.314-3.77c0.574-0.717,1.208-1.356,1.902-1.92
			c0.693-0.561,1.447-1.059,2.261-1.488c0.693-0.359,1.405-0.652,2.136-0.881c0.729-0.226,1.477-0.363,2.243-0.411
			c0.86-0.049,1.71,0,2.548,0.143c0.837,0.144,1.639,0.491,2.404,1.042c0.191,0.143,0.389,0.281,0.592,0.411
			c0.203,0.133,0.413,0.259,0.628,0.377c0.741,0.479,1.382,1.055,1.921,1.723c0.538,0.671,1.034,1.39,1.488,2.154
			c0.455,0.766,0.742,1.579,0.861,2.44c0.12,0.861,0.096,1.746-0.071,2.654c-0.574,2.968-1.974,5.516-4.199,7.645
			c-0.646,0.622-1.304,1.227-1.974,1.812c-0.67,0.587-1.376,1.13-2.117,1.633c-1.054,0.695-2.147,1.257-3.284,1.688
			c-1.136,0.43-2.351,0.669-3.643,0.718c-0.023,0-0.131,0.024-0.322,0.071c0.167,1.029,0.418,1.997,0.753,2.907
			s0.826,1.746,1.472,2.512c0.551,0.622,1.167,1.09,1.849,1.4c0.682,0.312,1.429,0.49,2.243,0.537
			c0.334,0.025,0.628-0.041,0.879-0.197c0.251-0.154,0.508-0.328,0.771-0.52c0.55-0.479,1.053-0.999,1.507-1.561
			c0.454-0.562,0.874-1.155,1.256-1.777c0.551-0.837,1.053-1.687,1.508-2.549c0.454-0.861,0.861-1.744,1.221-2.654
			c0.191-0.431,0.412-0.796,0.663-1.096c0.251-0.299,0.616-0.484,1.095-0.556c0.288,0.024,0.539,0.096,0.754,0.216
			c0.167,0.12,0.299,0.28,0.395,0.483C479.586,214.674,479.55,214.943,479.383,215.277z M462.803,215.242
			c0.311-0.048,0.592-0.083,0.843-0.108c0.252-0.023,0.496-0.071,0.736-0.143c0.837-0.191,1.633-0.474,2.387-0.844
			c0.753-0.371,1.465-0.808,2.135-1.311c0.551-0.405,1.077-0.819,1.579-1.238c0.502-0.417,0.992-0.854,1.472-1.31
			c1.005-0.908,1.794-1.938,2.368-3.086c0.574-1.149,0.969-2.38,1.185-3.697c0.119-0.598,0.119-1.165,0-1.704
			c-0.12-0.539-0.383-1.046-0.789-1.524c-0.767-0.91-1.67-1.501-2.71-1.777c-1.04-0.274-2.1-0.148-3.176,0.377
			c-0.934,0.455-1.741,1.047-2.423,1.777c-0.682,0.729-1.25,1.549-1.704,2.457c-0.766,1.532-1.316,3.171-1.651,4.917
			c-0.191,0.934-0.329,1.866-0.412,2.8c-0.085,0.933-0.103,1.878-0.055,2.834c0.024,0.265,0.055,0.521,0.09,0.772
			C462.713,214.686,462.754,214.954,462.803,215.242z"/>
		<path fill="#231F20" d="M500.484,214.561c0.145-0.263,0.329-0.448,0.557-0.557s0.449-0.186,0.664-0.233
			c0.264-0.047,0.515-0.047,0.754,0c0.167,0.096,0.274,0.21,0.323,0.342c0.047,0.131,0.071,0.293,0.071,0.483
			c0,0.599,0,1.197,0,1.794c0,0.599,0.012,1.21,0.036,1.831c0.023,1.028,0.215,1.986,0.574,2.871
			c0.358,0.885,0.849,1.735,1.471,2.549c0.407,0.525,0.97,0.896,1.687,1.111c1.34,0.455,2.614,0.556,3.822,0.305
			s2.388-0.747,3.535-1.489c0.264-0.19,0.508-0.389,0.736-0.592c0.227-0.203,0.448-0.413,0.663-0.628
			c0.551-0.573,0.934-1.221,1.148-1.938c0.216-0.719,0.347-1.459,0.396-2.226c0.071-1.339,0.018-2.648-0.161-3.93
			c-0.18-1.279-0.51-2.542-0.987-3.786c-0.312-0.766-0.641-1.524-0.987-2.278c-0.347-0.753-0.795-1.454-1.346-2.1
			c-0.287-0.335-0.586-0.657-0.897-0.97c-0.311-0.31-0.634-0.598-0.969-0.86c-0.766-0.67-1.556-1.292-2.369-1.866
			c-0.812-0.575-1.675-1.089-2.584-1.543c-0.645-0.312-1.279-0.651-1.901-1.024c-0.622-0.369-1.197-0.808-1.723-1.31
			c-0.551-0.549-1.064-1.124-1.543-1.722c-0.479-0.599-0.861-1.268-1.148-2.011c-0.455-1.123-0.657-2.344-0.61-3.659
			c0.048-0.813,0.18-1.598,0.396-2.352c0.215-0.753,0.538-1.477,0.969-2.171c1.387-2.225,3.373-3.779,5.957-4.666
			c1.268-0.43,2.571-0.574,3.912-0.43c0.382,0.048,0.765,0.096,1.147,0.144s0.767,0.132,1.148,0.251
			c0.909,0.239,1.753,0.592,2.531,1.059c0.776,0.466,1.5,1.035,2.171,1.704c0.263,0.264,0.496,0.533,0.7,0.808
			c0.202,0.275,0.424,0.545,0.663,0.808c0.167,0.191,0.341,0.39,0.521,0.593s0.341,0.4,0.484,0.592
			c0.263,0.407,0.526,0.802,0.79,1.185c0.263,0.382,0.514,0.777,0.754,1.184c0.167,0.288,0.227,0.527,0.179,0.719
			c-0.049,0.191-0.179,0.383-0.395,0.574c-0.502,0.431-0.993,0.479-1.472,0.143c-0.335-0.215-0.646-0.437-0.933-0.664
			c-0.288-0.227-0.587-0.472-0.897-0.734c-0.479-0.407-0.999-0.748-1.561-1.024c-0.563-0.274-1.155-0.46-1.776-0.556
			c-0.981-0.167-1.927-0.161-2.836,0.018c-0.909,0.18-1.759,0.581-2.548,1.203c-1.148,0.885-1.544,1.89-1.185,3.014
			c0.12,0.407,0.323,0.73,0.61,0.97s0.598,0.454,0.933,0.646c0.551,0.336,1.107,0.646,1.669,0.934
			c0.562,0.287,1.118,0.599,1.669,0.933c1.675,0.981,3.146,2.202,4.414,3.661c0.479,0.551,0.934,1.106,1.364,1.669
			s0.837,1.153,1.22,1.775c0.431,0.742,0.85,1.496,1.257,2.261c0.405,0.767,0.729,1.568,0.969,2.405
			c0.215,0.742,0.436,1.478,0.663,2.206c0.228,0.73,0.389,1.479,0.485,2.243c0.287,2.369,0.203,4.679-0.252,6.928
			c-0.238,1.244-0.616,2.397-1.13,3.462c-0.515,1.065-1.154,2.101-1.92,3.104c-0.12,0.215-0.312,0.432-0.574,0.646
			c-0.958,0.767-1.956,1.424-2.997,1.975c-1.04,0.551-2.171,0.97-3.392,1.256c-1.65,0.359-3.193,0.354-4.63-0.018
			c-1.436-0.371-2.798-1.082-4.091-2.135c-0.335-0.288-0.676-0.593-1.022-0.916c-0.347-0.322-0.664-0.651-0.951-0.986
			c-0.479-0.574-0.855-1.19-1.131-1.849c-0.275-0.657-0.532-1.334-0.771-2.027c-0.455-1.173-0.694-2.38-0.718-3.624
			c0-0.526,0.029-1.054,0.09-1.58c0.059-0.526,0.112-1.052,0.161-1.579C500.342,214.812,500.389,214.703,500.484,214.561z"/>
		<path fill="#231F20" d="M536.623,188.864c-0.12-0.023-0.281-0.047-0.484-0.072c-0.203-0.023-0.365-0.035-0.484-0.035h-5.347
			c-0.407,0-0.82,0.018-1.238,0.054c-0.419,0.035-0.844,0.042-1.274,0.019c-0.216,0-0.437-0.023-0.664-0.072
			c-0.228-0.048-0.448-0.107-0.664-0.18c-0.191-0.071-0.371-0.162-0.538-0.27c-0.168-0.106-0.347-0.209-0.538-0.304
			c0.071-0.526,0.383-0.826,0.933-0.898c0.646-0.071,1.292-0.137,1.938-0.197c0.646-0.06,1.279-0.125,1.901-0.197
			c1.029-0.096,2.046-0.167,3.051-0.215s2.01-0.048,3.015,0c0.048,0,0.144-0.006,0.287-0.019c0.144-0.012,0.239-0.029,0.287-0.054
			c0.048-0.335,0.096-0.669,0.144-1.005c0.048-0.334,0.095-0.669,0.144-1.005c0.119-0.693,0.233-1.333,0.341-1.92
			c0.108-0.586,0.221-1.226,0.341-1.92c0.048-0.358,0.108-0.718,0.18-1.077c0.071-0.358,0.132-0.718,0.18-1.076v-0.322
			c-0.071-0.934,0.311-1.508,1.148-1.724c0.406-0.119,0.808-0.186,1.202-0.196c0.395-0.012,0.759,0.137,1.094,0.448
			c0.288,0.239,0.521,0.502,0.7,0.79c0.18,0.286,0.233,0.646,0.162,1.076c-0.049,0.336-0.066,0.682-0.055,1.041
			c0.012,0.358,0.019,0.705,0.019,1.04c0,0.718-0.042,1.395-0.126,2.027c-0.084,0.634-0.125,1.311-0.125,2.028v1.687
			c0.287,0,0.574,0,0.86,0c0.288,0,0.575,0.013,0.862,0.035c1.076,0,2.141,0.043,3.194,0.126c1.052,0.085,2.104,0.258,3.157,0.521
			c0.239,0.049,0.473,0.121,0.699,0.216c0.229,0.096,0.461,0.191,0.701,0.287c0.071,0.048,0.137,0.102,0.196,0.161
			c0.061,0.06,0.138,0.113,0.234,0.162c-0.24,0.263-0.485,0.418-0.736,0.466s-0.508,0.072-0.771,0.072
			c-0.551,0.023-1.083,0.029-1.597,0.018c-0.516-0.012-1.048,0.006-1.598,0.054c-0.789,0.048-1.573,0.103-2.351,0.161
			c-0.777,0.061-1.562,0.114-2.351,0.162c-0.071,0.023-0.144,0.042-0.215,0.054c-0.072,0.013-0.168,0.042-0.287,0.09
			c0,0.143,0,0.413,0,0.808c0,0.394-0.007,0.867-0.019,1.418c-0.013,0.55-0.018,1.13-0.018,1.74c0,0.609-0.007,1.19-0.019,1.741
			c-0.012,0.55-0.017,1.021-0.017,1.416c0,0.396,0,0.664,0,0.808v5.024c0,0.574,0.011,1.412,0.035,2.512
			c0.023,1.102,0.054,2.346,0.09,3.732c0.036,1.389,0.077,2.836,0.126,4.344c0.047,1.507,0.113,2.948,0.197,4.323
			c0.083,1.377,0.167,2.62,0.251,3.732c0.083,1.113,0.185,1.945,0.305,2.494c0.168,0.861,0.353,1.724,0.557,2.585
			c0.203,0.861,0.46,1.71,0.771,2.548c0.048,0.144,0.084,0.292,0.107,0.448s0.06,0.306,0.107,0.448
			c0.072,0.191,0.144,0.377,0.216,0.557s0.155,0.353,0.251,0.521c0.191,0.335,0.377,0.658,0.557,0.969
			c0.18,0.312,0.364,0.634,0.556,0.969c0.168,0.287,0.197,0.533,0.09,0.735c-0.107,0.203-0.329,0.354-0.663,0.449
			c-0.599,0.119-1.167,0.137-1.705,0.054s-1.083-0.221-1.634-0.412c-0.837-0.264-1.536-0.664-2.099-1.203
			c-0.562-0.537-1.059-1.19-1.489-1.955c-0.646-1.173-1.143-2.375-1.49-3.607c-0.347-1.232-0.651-2.494-0.914-3.786
			c-0.072-0.335-0.132-0.939-0.18-1.812c-0.049-0.873-0.09-1.884-0.126-3.031c-0.036-1.149-0.065-2.368-0.09-3.661
			c-0.024-1.292-0.048-2.513-0.071-3.661c-0.024-1.147-0.036-2.158-0.036-3.032s0-1.477,0-1.812
			c0.023-0.908,0.036-1.799,0.036-2.674c0-0.873,0.023-1.752,0.071-2.638c0.024-0.287,0.054-0.711,0.09-1.273
			c0.036-0.562,0.077-1.197,0.126-1.902c0.048-0.705,0.096-1.441,0.144-2.206c0.048-0.767,0.095-1.502,0.144-2.208
			c0.048-0.706,0.089-1.34,0.126-1.901c0.035-0.562,0.064-0.987,0.089-1.275V188.864z"/>
		<path fill="#231F20" d="M577.212,211.474c-0.023,1.148-0.06,2.171-0.107,3.069c-0.048,0.896-0.179,1.764-0.395,2.601
			c-0.191,0.719-0.395,1.431-0.609,2.137c-0.216,0.705-0.491,1.404-0.826,2.098c-0.335,0.647-0.682,1.281-1.04,1.903
			c-0.359,0.622-0.718,1.244-1.077,1.866c-0.383,0.622-0.838,1.173-1.364,1.65c-0.526,0.479-1.076,0.921-1.65,1.328
			c-0.049,0.049-0.089,0.078-0.126,0.09c-0.035,0.011-0.077,0.042-0.125,0.089c-0.767,0.67-1.604,1.095-2.512,1.274
			c-0.91,0.18-1.843,0.269-2.8,0.269c-0.407,0-0.814-0.041-1.22-0.125c-0.407-0.084-0.814-0.161-1.221-0.234
			c-2.034-0.405-3.715-1.219-5.042-2.439c-1.328-1.22-2.387-2.739-3.176-4.558c-0.718-1.603-1.185-3.242-1.4-4.917
			c-0.215-1.674-0.238-3.373-0.072-5.097c0.12-1.29,0.312-2.558,0.575-3.804c0.263-1.242,0.609-2.476,1.04-3.696
			c0.622-1.817,1.423-3.51,2.404-5.077c0.981-1.566,2.213-2.984,3.697-4.254c1.962-1.673,4.246-2.571,6.854-2.691
			c1.22-0.071,2.314,0.139,3.284,0.628c0.969,0.491,1.835,1.202,2.602,2.136c0.861,1.077,1.525,2.23,1.991,3.463
			c0.467,1.232,0.855,2.494,1.166,3.787c0.191,0.788,0.341,1.578,0.449,2.368c0.107,0.79,0.221,1.592,0.341,2.404
			c0.119,0.694,0.221,1.377,0.306,2.046C577.242,210.457,577.261,211.02,577.212,211.474z M560.166,215.026
			c0.023,0.861,0.18,1.86,0.466,2.996c0.287,1.138,0.79,2.256,1.508,3.355c0.766,1.149,1.692,1.999,2.781,2.549
			c1.088,0.55,2.338,0.767,3.75,0.646c0.335-0.048,0.658-0.131,0.969-0.251c0.312-0.12,0.622-0.251,0.934-0.396
			c0.622-0.312,1.106-0.74,1.453-1.293c0.347-0.549,0.676-1.123,0.987-1.722c0.479-0.98,0.812-1.985,1.005-3.015
			c0.191-1.028,0.335-2.069,0.431-3.122c0.095-0.909,0.144-1.807,0.144-2.691c0-0.886-0.096-1.771-0.287-2.655
			c-0.12-0.622-0.228-1.244-0.323-1.866s-0.215-1.244-0.358-1.866c-0.192-0.885-0.426-1.76-0.7-2.62
			c-0.275-0.861-0.652-1.675-1.131-2.441c-0.43-0.717-0.921-1.363-1.471-1.938c-0.551-0.574-1.232-1.028-2.046-1.364
			c-0.694-0.263-1.269-0.328-1.723-0.197c-0.455,0.132-0.91,0.497-1.364,1.096c-1.268,1.65-2.284,3.481-3.05,5.49
			c-0.622,1.698-1.095,3.451-1.418,5.258C560.399,210.787,560.213,212.802,560.166,215.026z"/>
		<path fill="#231F20" d="M598.565,198.123c0.144,0.981,0.257,1.951,0.341,2.908c0.084,0.956,0.113,1.938,0.09,2.942
			c0,0.214-0.013,0.431-0.036,0.646c-0.023,0.216-0.06,0.419-0.107,0.61l-0.215,2.046c-0.264,0.119-0.474,0.162-0.628,0.125
			c-0.156-0.036-0.317-0.174-0.485-0.413c-0.67-0.837-1.053-1.745-1.148-2.727c-0.096-0.693-0.161-1.4-0.197-2.117
			c-0.035-0.719-0.102-1.424-0.197-2.117c-0.071-0.503-0.174-1.011-0.305-1.526c-0.132-0.514-0.258-1.022-0.377-1.524
			c-0.049-0.168-0.113-0.328-0.197-0.484s-0.174-0.329-0.269-0.521c-0.24,0.191-0.474,0.364-0.701,0.521s-0.437,0.328-0.627,0.52
			c-0.838,0.813-1.628,1.669-2.369,2.565c-0.742,0.898-1.424,1.849-2.046,2.854c-0.574,0.934-1.071,1.902-1.489,2.907
			s-0.76,2.046-1.022,3.122c-0.048,0.12-0.072,0.257-0.072,0.413c0,0.155,0,0.304,0,0.448c0.072,0.623,0.149,1.239,0.233,1.848
			c0.084,0.61,0.186,1.227,0.306,1.849c0.166,0.767,0.292,1.544,0.377,2.334c0.083,0.788,0.185,1.578,0.304,2.368
			c0.049,0.239,0.09,0.466,0.126,0.682c0.036,0.215,0.077,0.43,0.126,0.646c0.048,0.503,0.102,1.005,0.162,1.508
			c0.059,0.502,0.113,0.992,0.161,1.472c0.071,0.479,0.143,0.968,0.215,1.471c0.072,0.502,0.144,0.992,0.216,1.472
			c0.048,0.215,0.095,0.431,0.144,0.646c0.048,0.216,0.096,0.431,0.144,0.646c0.047,0.167,0.059,0.335,0.035,0.503
			s-0.048,0.334-0.071,0.502c-0.023,0.312-0.066,0.616-0.125,0.914c-0.061,0.301-0.186,0.569-0.377,0.808l-0.216,0.216
			c-0.191,0.168-0.443,0.252-0.753,0.252c-0.24,0.119-0.563,0.228-0.97,0.322c-0.407,0.095-0.819,0.144-1.238,0.144
			s-0.802-0.066-1.148-0.197c-0.347-0.132-0.58-0.364-0.7-0.7c-0.311-0.98-0.616-2.225-0.914-3.732
			c-0.3-1.507-0.593-3.163-0.88-4.971c-0.286-1.806-0.562-3.695-0.825-5.67c-0.264-1.973-0.509-3.924-0.735-5.85
			c-0.228-1.925-0.431-3.762-0.61-5.509c-0.18-1.746-0.335-3.29-0.467-4.629c-0.132-1.341-0.228-2.417-0.287-3.23
			c-0.06-0.812-0.09-1.244-0.09-1.292c0.023-0.071,0.132-0.154,0.323-0.251c0.191-0.095,0.413-0.18,0.664-0.251
			c0.251-0.072,0.508-0.138,0.771-0.197c0.264-0.061,0.466-0.114,0.61-0.162c0.023-0.023,0.071-0.035,0.144-0.035
			c0.023,0,0.036-0.012,0.036-0.036v0.036c0.143-0.048,0.28-0.071,0.412-0.071s0.257,0,0.377,0c0.263,0,0.442,0.083,0.538,0.251
			c0.096,0.166,0.215,0.357,0.359,0.574c0.478,0.765,0.873,1.584,1.184,2.457c0.311,0.875,0.587,1.766,0.825,2.674
			c0.168,0.622,0.306,1.244,0.413,1.866s0.221,1.244,0.342,1.866c0,0.048,0.005,0.091,0.018,0.126
			c0.012,0.036,0.029,0.113,0.054,0.233c0.096-0.191,0.18-0.359,0.251-0.502c0.071-0.145,0.132-0.274,0.18-0.396
			c0.454-1.1,1.063-2.164,1.83-3.193c0.622-0.813,1.256-1.615,1.902-2.403c0.646-0.79,1.375-1.509,2.189-2.154
			c0.167-0.143,0.341-0.28,0.521-0.413c0.179-0.13,0.364-0.28,0.556-0.448c0.431-0.334,0.892-0.543,1.382-0.628
			c0.49-0.083,0.999-0.101,1.525-0.054c0.215,0.024,0.395,0.107,0.538,0.251c0.144,0.145,0.274,0.299,0.395,0.467
			c0.526,0.646,0.892,1.341,1.095,2.081C598.284,196.568,598.445,197.333,598.565,198.123z"/>
		<path fill="#231F20" d="M625.96,183.673c-0.359,0.622-0.724,1.225-1.095,1.812c-0.371,0.586-0.7,1.202-0.986,1.848
			c-0.575,1.292-1.138,2.591-1.688,3.895s-1.101,2.614-1.65,3.93c-0.264,0.622-0.49,1.244-0.682,1.866
			c-0.192,0.622-0.408,1.244-0.646,1.866c-0.216,0.551-0.431,1.082-0.646,1.596c-0.215,0.516-0.442,1.035-0.682,1.562
			c-0.264,0.599-0.616,1.083-1.059,1.454s-0.963,0.676-1.562,0.914c-0.311,0.121-0.598,0.114-0.86-0.018
			c-0.264-0.131-0.526-0.245-0.79-0.34c-0.934-0.312-1.663-0.957-2.189-1.938c-0.454-0.862-0.812-1.747-1.076-2.656
			c-0.264-0.91-0.515-1.83-0.754-2.764c-0.335-1.292-0.562-2.578-0.682-3.857c-0.12-1.281-0.239-2.579-0.358-3.895
			c-0.145-1.244-0.24-2.488-0.287-3.732c-0.049-1.243-0.072-2.488-0.072-3.732c0.023-0.598,0.054-1.189,0.09-1.776
			c0.035-0.585,0.077-1.167,0.125-1.74c0.024-0.312,0.096-0.634,0.216-0.97c0.144-0.454,0.4-0.748,0.771-0.879
			c0.371-0.132,0.76-0.066,1.166,0.197c0.479,0.264,0.873,0.682,1.185,1.257c0.503,1.005,0.837,2.021,1.005,3.051
			c0.168,1.028,0.299,2.081,0.395,3.157c0.072,1.053,0.162,2.1,0.27,3.141c0.107,1.04,0.197,2.087,0.27,3.14
			c0.119,1.244,0.287,2.465,0.502,3.661c0.216,1.196,0.454,2.403,0.718,3.624c0.048,0.263,0.119,0.539,0.216,0.825
			c0.095,0.288,0.203,0.599,0.322,0.934c0.072-0.144,0.132-0.258,0.18-0.341c0.048-0.084,0.095-0.174,0.144-0.27
			c0.406-1.125,0.796-2.243,1.167-3.354c0.37-1.113,0.783-2.231,1.238-3.355c0.765-1.89,1.572-3.756,2.422-5.599
			c0.849-1.844,1.884-3.602,3.104-5.276c0.167-0.238,0.347-0.472,0.538-0.699c0.191-0.229,0.382-0.448,0.574-0.665
			c0.263-0.334,0.574-0.614,0.934-0.843c0.358-0.228,0.741-0.413,1.148-0.556c0.358-0.145,0.729-0.323,1.111-0.539
			c0.383-0.238,0.76-0.317,1.132-0.233c0.37,0.084,0.65,0.33,0.843,0.735c0.191,0.479,0.358,0.951,0.502,1.418
			c0.144,0.466,0.275,0.939,0.395,1.418c0.455,2.033,0.771,4.067,0.951,6.102c0.18,2.032,0.329,4.078,0.448,6.136
			c0.145,2.537,0.234,5.06,0.27,7.573c0.036,2.512-0.006,5.036-0.125,7.571c-0.072,1.436-0.197,2.854-0.377,4.253
			c-0.18,1.4-0.4,2.805-0.664,4.217c-0.168,0.861-0.389,1.698-0.664,2.512s-0.58,1.627-0.915,2.441
			c-0.455,1.052-0.987,2.039-1.597,2.96c-0.61,0.922-1.334,1.789-2.172,2.603c-2.368,2.226-5.145,3.647-8.325,4.27
			c-1.675,0.312-3.249,0.257-4.72-0.16c-1.472-0.419-2.877-1.131-4.217-2.135c-1.459-1.102-2.65-2.376-3.571-3.823
			s-1.645-3.031-2.17-4.755c-0.264-0.838-0.39-1.675-0.378-2.512c0.013-0.838,0.126-1.675,0.341-2.513
			c0.096-0.383,0.264-0.742,0.503-1.076c0.239-0.336,0.454-0.671,0.646-1.005c0.263-0.456,0.587-0.831,0.969-1.131
			c0.383-0.299,0.767-0.616,1.148-0.952c0.145-0.118,0.287-0.237,0.432-0.357c0.144-0.12,0.298-0.239,0.466-0.359
			c0.12-0.048,0.258-0.095,0.413-0.143c0.155-0.049,0.27-0.049,0.341,0c0.12,0.071,0.209,0.186,0.27,0.34
			c0.059,0.156,0.113,0.306,0.161,0.448c0.023,0.145,0.019,0.288-0.019,0.431c-0.035,0.145-0.077,0.288-0.125,0.431
			c-0.431,1.866-0.401,3.607,0.09,5.223c0.49,1.615,1.346,3.128,2.566,4.54c1.1,1.292,2.476,2.081,4.127,2.368
			c1.1,0.191,2.117,0.112,3.05-0.233c0.934-0.348,1.807-0.879,2.62-1.598c0.789-0.717,1.418-1.524,1.885-2.421
			c0.466-0.898,0.843-1.849,1.13-2.854c0.502-1.724,0.861-3.481,1.076-5.276c0.167-1.578,0.306-3.163,0.413-4.755
			c0.107-1.591,0.209-3.188,0.306-4.791c0.071-1.172,0.107-2.345,0.107-3.518c0-1.171,0.023-2.344,0.071-3.517
			c0.048-1.459,0.108-2.911,0.18-4.36c0.071-1.447,0.144-2.899,0.215-4.36c0.023-0.502,0.042-1.005,0.055-1.507
			c0.012-0.502,0.029-0.993,0.053-1.472C626.043,183.732,625.983,183.695,625.96,183.673z"/>
	</g>
	<g>
		<g>
			<path fill="#231F20" d="M392.026,110.701c6.083,7.196,14.36,12.338,19.528,20.319c0.299-1.14,0.598-2.28,0.897-3.42
				c-6.781,3.183-12.937,6.714-18.162,12.16c-2.231,2.325,1.299,5.866,3.535,3.535c4.944-5.152,10.752-8.375,17.15-11.379
				c1.195-0.561,1.589-2.352,0.897-3.42c-5.429-8.383-13.934-13.787-20.311-21.331C393.477,104.7,389.958,108.256,392.026,110.701
				L392.026,110.701z"/>
		</g>
	</g>
	<g>
		<g>
			<path fill="#231F20" d="M391.53,111.673c32.634,0.08,65.12,3.081,97.78,2.561c16.286-0.26,32.564-0.848,48.845-1.334
				c7.818-0.233,15.638-0.435,23.458-0.583c7.395-0.14,14.976,0.342,22.334-0.391c2.479-0.247,4.944-0.567,7.433-0.722
				c2.996-0.187,4.017-0.056,4.957,3.01c1.758,5.728,2.08,12.083,3.6,17.931c1.502,5.782,4.471,11.588,5.125,17.543
				c0.371,3.388-11.715,4.213-13.758,4.566c-31.177,5.39-62.754,7.379-94.346,5.536c-34.584-2.018-68.958-8.786-101.594-20.433
				c-3.044-1.086-4.343,3.746-1.329,4.822c57.784,20.619,120.403,25.667,181.047,17.575c7.106-0.948,14.186-2.078,21.245-3.325
				c3.978-0.703,9.177-1.266,12.262-4.216c2.096-2.005,1.493-5.284,0.931-7.77c-1.589-7.028-4.395-13.77-6.042-20.814
				c-1.143-4.888-1.175-10.232-3.084-14.896c-1.668-4.077-5.01-4.648-9.014-4.53c-5.383,0.158-10.639,0.912-16.05,0.94
				c-8.485,0.045-16.97,0.22-25.452,0.431c-26.072,0.647-52.132,1.786-78.217,1.814c-26.737,0.029-53.393-2.651-80.13-2.717
				C388.305,106.665,388.306,111.665,391.53,111.673L391.53,111.673z"/>
		</g>
	</g>
	<g>
		<g>
			<path fill="#231F20" d="M657.759,213.323c-4.318,1.313-7.82,3.998-11.425,6.624c-5.252,3.827-11.05,5.779-17.195,7.722
				c-13.096,4.138-25.933,7.197-39.62,8.605c-28.226,2.904-56.147,3.354-84.436,1.035c-27.472-2.253-54.757-6.329-82.159-9.249
				c-25.89-2.758-52.223-5.608-76.56-15.437c0.498,1.225,0.996,2.449,1.494,3.673c6.143-11.583,9.737-24.201,15.239-36.058
				c2.436-5.25,10.253-23.768,18.448-20.116c2.311,1.029,4.338,2.93,6.396,4.373c2.237,1.569,4.989,2.369,7.487,3.412
				c6.783,2.833,13.636,4.303,20.874,5.432c15.204,2.373,30.359,4.243,45.731,5.159c30.933,1.844,61.955,0.047,92.9-0.454
				c30.507-0.493,61.661,3.295,91.864-2.222c3.168-0.579,1.822-5.397-1.33-4.822c-16.003,2.924-32.244,2.892-48.449,2.479
				c-15.978-0.405-31.912-0.639-47.896-0.333c-32.22,0.617-64.476,2.265-96.655-0.314c-15.658-1.256-31.72-2.868-47.002-6.639
				c-6.445-1.59-12.865-4.418-18.201-8.324c-3.548-2.597-6.999-3.997-11.287-2.396c-8.31,3.102-13.164,13.834-16.713,21.214
				c-5.831,12.124-9.406,25.172-15.724,37.086c-0.821,1.547-0.028,3.058,1.494,3.673c23.659,9.554,49.254,12.531,74.434,15.245
				c28.55,3.077,56.997,7.184,85.614,9.618c28.307,2.407,56.189,1.716,84.436-1.035c12.875-1.254,25.027-3.97,37.392-7.693
				c5.727-1.725,11.651-3.381,17.005-6.091c5.317-2.692,9.369-7.581,15.174-9.345C662.164,217.21,660.853,212.384,657.759,213.323
				L657.759,213.323z"/>
		</g>
	</g>
	<g>
		<g>
			<path fill="#231F20" d="M381.975,160.353c12.598,0.161,24.922,3.14,37.482,3.834c12.487,0.689,25.035-0.735,37.482-1.533
				c3.201-0.205,3.221-5.206,0-5c-12.486,0.801-24.956,2.021-37.482,1.533c-12.577-0.489-24.872-3.673-37.482-3.834
				C378.75,155.312,378.753,160.312,381.975,160.353L381.975,160.353z"/>
		</g>
	</g>
	<g>
		<g>
			<path fill="#231F20" d="M605.212,150.539c-6.089-0.11-11.123,2.991-16.202,5.995c-6.851,4.053-14.395,5.838-22.178,7.127
				c-7.849,1.3-15.72,1.97-23.526,3.581c-8.765,1.809-17.413,4.126-26.195,5.863c-3.161,0.626-1.819,5.445,1.33,4.822
				c7.541-1.492,14.997-3.354,22.492-5.057c7.869-1.788,15.767-2.726,23.737-3.86c7.29-1.038,14.844-2.291,21.59-5.385
				c6.134-2.812,11.89-8.215,18.952-8.087C608.438,155.598,608.433,150.598,605.212,150.539L605.212,150.539z"/>
		</g>
	</g>
	<g>
		<g>
			<path fill="#231F20" d="M643.686,173.27c4.571,13.348,15.552,26.406,13.245,41.226c-0.49,3.153,4.327,4.508,4.822,1.33
				c2.536-16.303-8.235-29.252-13.245-43.886C647.469,168.908,642.639,170.21,643.686,173.27L643.686,173.27z"/>
		</g>
	</g>
	<g>
		<g>
			<path fill="#231F20" d="M656.383,215.064c-8.059,4.524-15.333,10.26-23.264,14.989c-8.742,5.213-18.646,8.783-27.798,13.247
				c-9.716,4.738-19.276,9.817-29.309,13.866c-9.451,3.814-19.239,6.757-29.099,9.308c-19.034,4.924-38.503,7.967-57.817,11.542
				c-19.042,3.524-38.211,8.479-57.728,7.438c-3.224-0.172-3.207,4.829,0,5c18.825,1.003,37.507-3.449,55.862-7.01
				c20.366-3.951,40.879-7.064,61.012-12.149c19.892-5.024,37.97-13.041,56.304-22.061c9.282-4.566,18.881-8.539,28.102-13.205
				c9.254-4.684,17.221-11.575,26.258-16.649C661.718,217.803,659.197,213.483,656.383,215.064L656.383,215.064z"/>
		</g>
	</g>
	<g>
		<g>
			<path fill="#231F20" d="M486.241,236.082c-9.874-0.036-18.599,3.956-27.587,7.56c-11.174,4.479-22.604,5.62-34.529,4.351
				c-3.205-0.341-3.172,4.662,0,5c10.626,1.131,21.031,0.456,31.231-2.823c10.351-3.327,19.693-9.128,30.885-9.087
				C489.466,241.094,489.465,236.094,486.241,236.082L486.241,236.082z"/>
		</g>
	</g>
	<g>
		<g>
			<path fill="#231F20" d="M424.578,253.771c11.427,1.327,20.96,9.118,31.931,12.136c-0.498-1.225-0.995-2.449-1.493-3.673
				c-6.589,10.13-17.672,17.33-28.53,22.191c-2.938,1.314-0.393,5.622,2.523,4.316c11.655-5.217,23.268-13.137,30.323-23.984
				c0.889-1.365,0.009-3.26-1.493-3.673c-11.503-3.162-21.215-10.915-33.261-12.313C421.379,248.4,421.415,253.404,424.578,253.771
				L424.578,253.771z"/>
		</g>
	</g>
</g>
<g>
	<path fill="#231F20" d="M473.37,250.248c-0.046,0.338-0.078,0.558-0.095,0.659c-0.06,0.267-0.135,0.482-0.226,0.646
		c-0.013,0.062-0.099,0.835-0.258,2.319c-0.133,1.172-0.304,2.242-0.512,3.21l-0.292,1.354c-0.082,0.016-0.167,0.08-0.255,0.193
		c-0.088,0.115-0.187,0.17-0.296,0.165c-0.26-0.158-0.68-0.628-1.261-1.408c-0.101-0.212-0.233-0.474-0.4-0.782
		c-0.319-0.611-0.599-1.332-0.838-2.163c-0.149-0.543-0.277-0.97-0.384-1.278c-0.062,0.048-0.111,0.147-0.144,0.3
		c-0.038,0.189-0.07,0.306-0.099,0.347c-0.137,0.828-0.376,1.949-0.718,3.364c-0.157,0.65-0.285,1.137-0.383,1.459
		c-0.159,0.576-0.326,1.046-0.501,1.407c-0.032,0.018-0.119,0.069-0.261,0.157c-0.097,0.067-0.181,0.106-0.25,0.119
		c-0.047,0.009-0.101,0.013-0.161,0.012c-0.595-0.656-0.944-1.266-1.05-1.83c-0.021-0.117-0.042-0.229-0.062-0.335
		c-0.115-0.271-0.327-1.155-0.64-2.655c-0.229-1.102-0.515-1.948-0.856-2.542c-0.027-0.019-0.05-0.07-0.064-0.152
		c-0.013-0.07-0.023-0.16-0.03-0.268c0.069-0.025,0.17-0.093,0.302-0.202c0.13-0.11,0.257-0.134,0.383-0.071
		c0.073,0.059,0.147,0.207,0.224,0.441c0.075,0.235,0.149,0.383,0.223,0.442c0.074,0.059,0.121,0.142,0.141,0.248
		c0.009,0.048,0.01,0.117,0.003,0.209c-0.007,0.093-0.007,0.162,0.002,0.209c0.018,0.095,0.056,0.167,0.113,0.217
		c0.01,0.181,0.05,0.397,0.122,0.653c0.104,0.358,0.161,0.572,0.174,0.643c0.026,0.141,0.051,0.271,0.072,0.389
		c0.064,0.219,0.117,0.501,0.158,0.846c0.038,0.469,0.074,0.76,0.107,0.875c0.041,0.089,0.163,0.42,0.367,0.99
		c0.148,0.41,0.305,0.722,0.466,0.935c0.546-1.573,1.05-3.218,1.509-4.936c0.034-0.272,0.121-0.673,0.261-1.197
		s0.228-0.918,0.264-1.181c0.111-0.057,0.22-0.097,0.326-0.116c0.294-0.055,0.481,0.055,0.562,0.325
		c0.08,0.271,0.202,0.683,0.366,1.236c0.155,0.506,0.26,0.938,0.313,1.293c0.017,0.021,0.243,0.52,0.681,1.497
		c0.271,0.607,0.569,1.068,0.896,1.386c0.031-0.092,0.19-0.906,0.477-2.443c0.472-2.497,1.02-4.754,1.643-6.768
		c0.057-0.021,0.15-0.039,0.282-0.053l0.229-0.043c-0.106,0.473-0.185,0.799-0.236,0.979
		C473.664,249.711,473.531,250.011,473.37,250.248z"/>
	<path fill="#231F20" d="M475.1,256.883l1.291-2.462c0.515-0.958,1.069-1.697,1.664-2.222c0.147-0.125,0.358-0.164,0.635-0.118
		c0.121,0.062,0.221,0.172,0.298,0.327c0.084,0.192,0.148,0.308,0.192,0.349c-0.038,0.188-0.047,0.435-0.027,0.734
		c0.022,0.386,0.032,0.633,0.028,0.743c-0.061,1.18-0.094,1.849-0.101,2.009c-0.018,0.758,0.003,1.422,0.062,1.996
		c-0.413-0.19-0.655-0.48-0.728-0.868c-0.026-0.142-0.043-0.327-0.049-0.558c-0.007-0.291-0.011-0.479-0.014-0.563
		c-0.023-0.251,0.008-0.81,0.089-1.678c0.066-0.693,0.043-1.242-0.069-1.647c-0.089-0.021-0.25,0.126-0.484,0.437
		c-0.41,0.539-0.824,1.23-1.238,2.074l-1.071,2.188c-0.09,0.103-0.183,0.26-0.277,0.472c-0.111,0.252-0.195,0.42-0.253,0.503
		c-0.161,0.115-0.292,0.164-0.393,0.146c-0.144-0.18-0.235-0.382-0.277-0.605c-0.037-0.199-0.03-0.492,0.02-0.88
		c0.05-0.386,0.063-0.67,0.043-0.848c0.189-1.336,0.467-3.378,0.832-6.123c-0.053-0.148-0.021-0.312,0.091-0.491
		c-0.036-0.127-0.021-0.255,0.048-0.383c0.067-0.129,0.165-0.205,0.295-0.229c0.117-0.022,0.242,0.028,0.374,0.149
		c0.105,0.37,0.099,0.754-0.021,1.154c-0.184,0.632-0.28,1.154-0.287,1.57c-0.046,0.009-0.058,0.046-0.032,0.115
		c-0.145,0.816-0.274,1.643-0.392,2.478C475.305,255.062,475.222,255.805,475.1,256.883z"/>
	<path fill="#231F20" d="M484.033,256.672c-0.119,0.083-0.31,0.234-0.572,0.453c-0.151,0.041-0.416-0.008-0.794-0.144
		c-0.029-0.093-0.105-0.243-0.229-0.45c-0.124-0.209-0.198-0.378-0.223-0.508c-0.074,0.125-0.121,0.23-0.141,0.318
		c-0.335,0.623-0.531,0.976-0.588,1.059c-0.287,0.358-0.629,0.544-1.029,0.557c-0.363-0.188-0.589-0.521-0.679-1.005
		c-0.155-0.834-0.191-1.485-0.107-1.95c0.201-1.206,0.833-2.352,1.897-3.439l0.282-0.052c0.271-0.051,0.435,0.083,0.494,0.4
		c0.02,0.106,0.023,0.324,0.012,0.656c-0.03,0.163-0.122,0.388-0.276,0.671c-0.02,0.09-0.146,0.197-0.377,0.326
		c0.002-0.316,0.052-0.569,0.15-0.759c0.006-0.037,0.018-0.137,0.036-0.298c0.008-0.025,0.006-0.062-0.003-0.109
		c-0.006-0.035-0.02-0.076-0.04-0.121c0.05-0.058,0.071-0.104,0.065-0.14c-0.073,0.002-0.178,0.125-0.314,0.369
		c-0.031,0.031-0.08,0.095-0.147,0.191c-0.952,1.614-1.336,2.986-1.15,4.12c0.111,0.333,0.252,0.502,0.423,0.505
		c0.381-0.18,0.671-0.55,0.871-1.11c0.274-0.355,0.47-0.938,0.587-1.752c0.074-0.318,0.176-1.109,0.306-2.375
		c0.027-0.115,0.141-0.227,0.34-0.337c0.127,0.099,0.204,0.218,0.23,0.358c0.016,0.083,0.012,0.199-0.009,0.348
		c-0.015,0.186-0.021,0.31-0.022,0.37c-0.229,1.382-0.305,2.284-0.227,2.708c0.103,0.552,0.284,0.908,0.546,1.066
		c0.044-0.021,0.177-0.124,0.398-0.312c0.189-0.157,0.308-0.24,0.354-0.249c0.022,0.057,0.04,0.113,0.051,0.174
		C484.19,256.436,484.151,256.589,484.033,256.672z"/>
	<path fill="#231F20" d="M485.994,250.93c0.254-0.011,0.506-0.027,0.758-0.051c0.293,0.006,0.543,0.074,0.749,0.205l0.08,0.328
		c-0.187,0.048-0.521,0.11-1.006,0.188c-0.299,0.031-0.547,0.102-0.745,0.212c-0.491,1.612-0.627,2.908-0.408,3.891
		c0.025,0.141,0.071,0.27,0.136,0.385c0.064,0.116,0.196,0.155,0.396,0.118c0.117-0.021,0.255-0.071,0.411-0.149
		c0.127-0.035,0.317-0.168,0.573-0.398c0.255-0.23,0.512-0.376,0.769-0.435c-0.095,0.674-0.556,1.203-1.384,1.589
		c-0.102,0.044-0.193,0.072-0.275,0.088c-0.318,0.059-0.583,0.005-0.797-0.161c-0.275-0.303-0.463-0.688-0.562-1.155
		c-0.144-0.644-0.122-1.443,0.064-2.403c0.078-0.234,0.151-0.595,0.219-1.082c-0.409,0.09-0.727,0.35-0.95,0.78
		c-0.21,0.051-0.409-0.106-0.6-0.473c0-0.134,0.115-0.301,0.345-0.502c0.148-0.186,0.364-0.336,0.646-0.449
		c0.253-0.083,0.504-0.174,0.753-0.269c0.353-1.185,0.544-2.278,0.576-3.283c0.061-0.132,0.138-0.208,0.231-0.226
		c0.151-0.039,0.318,0.045,0.503,0.25c0.115,0.812-0.03,1.797-0.435,2.959C486.02,250.9,486.003,250.916,485.994,250.93z"/>
	<path fill="#231F20" d="M494.963,256.756c-0.321,1.021-0.662,1.936-1.022,2.745c-0.134,0.194-0.355,0.511-0.664,0.944
		c-0.137,0.184-0.229,0.289-0.278,0.317c-0.05,0.027-0.225,0.087-0.523,0.178c0.502-0.7,0.94-1.677,1.317-2.927
		c0.331-1.096,0.533-2.102,0.606-3.016c-0.025-0.067-0.057-0.141-0.095-0.219c-0.072-0.12-0.174-0.211-0.308-0.271
		c-0.526-0.219-1.038-0.907-1.533-2.069c-0.099-0.395-0.32-1.096-0.666-2.103c0.007,0.035-0.02-0.075-0.08-0.332
		c-0.015-0.082,0.006-0.129,0.065-0.141c0.127-0.035,0.269,0.021,0.424,0.169s0.252,0.29,0.29,0.429
		c0.213,0.69,0.464,1.381,0.75,2.069c0.375,0.903,0.862,1.434,1.463,1.589c0.198-0.767,0.43-2.209,0.692-4.326
		c0.223-0.176,0.351-0.271,0.384-0.291c0.071-0.014,0.142,0.011,0.214,0.07l0.227,0.14c0.001,0.329-0.075,0.774-0.225,1.338
		c-0.142,0.489-0.337,1.526-0.59,3.112S495.009,256.612,494.963,256.756z"/>
	<path fill="#231F20" d="M500.411,252c-0.085,0.064-0.144,0.173-0.177,0.324c-0.045,0.217-0.077,0.338-0.097,0.365
		c-0.106,0.214-0.315,0.527-0.628,0.938c-0.259,0.573-0.724,0.957-1.392,1.154c-0.187,0.047-0.377,0.07-0.571,0.07
		c-0.501-0.139-0.875-0.52-1.125-1.142c-0.035-0.384-0.011-0.807,0.073-1.273c0.058-0.278,0.14-0.689,0.245-1.232
		c0.074-0.123,0.163-0.333,0.266-0.633c0.109-0.264,0.237-0.458,0.385-0.583c0.104-0.286,0.314-0.497,0.631-0.628
		c0.122,0.002,0.294-0.152,0.517-0.462c-0.021-0.043-0.004-0.12,0.05-0.228c0.126-0.035,0.243-0.063,0.349-0.083
		c0.177-0.032,0.321-0.041,0.434-0.025c0.545,0.251,0.893,0.776,1.041,1.576c0.038,0.2,0.062,0.412,0.073,0.634
		C500.495,250.996,500.471,251.404,500.411,252z M499.642,249.534c-0.083-0.253-0.233-0.407-0.451-0.465l-0.724,0.427l0.216,0.179
		c0.036,0.128,0.083,0.314,0.141,0.558c0.039,0.213,0.006,0.396-0.1,0.549c-0.052,0.047-0.106,0.08-0.162,0.103
		c-0.163,0.044-0.305-0.131-0.427-0.522c-0.097,0.066-0.209,0.215-0.336,0.446c-0.157,0.272-0.271,0.445-0.342,0.519
		c-0.198,0.768-0.298,1.212-0.3,1.333c-0.049,0.327-0.047,0.631,0.006,0.913c0.026,0.141,0.063,0.279,0.113,0.416
		c0.104,0.103,0.294,0.141,0.569,0.114c1.269-0.638,1.957-1.874,2.066-3.708C499.815,250.073,499.726,249.785,499.642,249.534z"/>
	<path fill="#231F20" d="M505.932,251.849c-0.129,0.158-0.279,0.363-0.452,0.613c-0.272,0.233-0.515,0.371-0.727,0.41
		c-0.317,0.06-0.573-0.106-0.768-0.496c-0.03-0.031-0.068-0.104-0.113-0.216c-0.082-0.18-0.146-0.265-0.193-0.256
		c-0.012,0.002-0.29,0.437-0.834,1.304c-0.363,0.47-0.877,0.814-1.542,1.035c-0.398-0.314-0.646-0.726-0.739-1.23
		c-0.042-0.224-0.062-0.523-0.059-0.902c-0.009-0.436-0.022-0.737-0.041-0.904c0.013-0.916,0.182-1.836,0.509-2.761
		c0.125-0.047,0.273-0.031,0.446,0.046c0.053,0.087,0.086,0.167,0.099,0.236c0.018,0.096-0.006,0.232-0.068,0.416
		c-0.078,0.232-0.119,0.374-0.122,0.423c-0.085,0.588-0.167,1.395-0.243,2.418c0.03,0.299,0.066,0.554,0.105,0.766
		c0.063,0.341,0.138,0.576,0.223,0.706c0.297-0.104,0.522-0.23,0.678-0.381c0.009-0.014,0.175-0.203,0.496-0.567
		c0.052-0.179,0.271-0.64,0.656-1.382c0.286-0.551,0.423-1.027,0.41-1.427c0.175-0.822,0.366-1.492,0.575-2.006
		c0.176-0.165,0.318-0.155,0.426,0.031c0.055,0.1,0.091,0.196,0.108,0.29c0.033,0.177,0.01,0.412-0.068,0.706
		c-0.085,0.333-0.127,0.566-0.127,0.699c-0.25,0.485-0.335,1.14-0.255,1.964c0.022,0.057,0.07,0.213,0.142,0.467
		c0.062,0.196,0.147,0.3,0.26,0.316c0.158-0.066,0.294-0.152,0.408-0.259c0.174-0.179,0.282-0.283,0.324-0.316
		c0.115-0.166,0.286-0.393,0.513-0.679l0.238,0.103C506.189,251.37,506.101,251.647,505.932,251.849z"/>
	<path fill="#231F20" d="M500.184,266.772c-0.059,0.083-0.172,0.227-0.341,0.428c-0.377,0.459-0.859,0.744-1.447,0.854
		c-0.306,0.057-0.612,0.047-0.918-0.03c-0.514-0.208-0.849-0.735-1.007-1.583c0.036-1.965,0.507-3.325,1.413-4.078
		c0.413-0.003,0.704,0.155,0.874,0.476c0.036,0.067,0.038,0.14,0.004,0.22c-0.034,0.078-0.092,0.126-0.175,0.142
		c-0.035,0.007-0.083-0.006-0.144-0.037s-0.114-0.042-0.161-0.033c-0.024,0.004-0.052,0.016-0.085,0.034
		c-0.038,0.056-0.16,0.218-0.365,0.488c-0.146,0.196-0.229,0.377-0.247,0.538c-0.099,0.188-0.19,0.516-0.273,0.981
		c-0.123,0.254-0.17,0.555-0.142,0.902l0.167,0.9c0.191,0.377,0.476,0.531,0.853,0.462c0.306-0.058,0.91-0.438,1.813-1.141
		l0.015-0.021c0.057-0.084,0.167-0.116,0.328-0.098C500.388,266.399,500.334,266.599,500.184,266.772z"/>
	<path fill="#231F20" d="M504.116,266.624c-0.118,0.083-0.31,0.233-0.572,0.453c-0.151,0.04-0.415-0.007-0.794-0.144
		c-0.029-0.092-0.105-0.242-0.229-0.45s-0.198-0.377-0.223-0.507c-0.074,0.124-0.121,0.229-0.141,0.318
		c-0.335,0.622-0.53,0.975-0.589,1.059c-0.286,0.357-0.629,0.544-1.027,0.557c-0.363-0.188-0.59-0.523-0.68-1.006
		c-0.155-0.834-0.191-1.484-0.107-1.951c0.201-1.205,0.834-2.351,1.897-3.438l0.282-0.053c0.27-0.05,0.436,0.084,0.494,0.4
		c0.02,0.106,0.023,0.325,0.012,0.656c-0.03,0.164-0.122,0.387-0.276,0.672c-0.02,0.089-0.146,0.197-0.377,0.325
		c0.002-0.315,0.052-0.568,0.151-0.758c0.005-0.038,0.016-0.138,0.035-0.299c0.007-0.025,0.006-0.062-0.002-0.108
		c-0.007-0.036-0.021-0.076-0.041-0.121c0.051-0.058,0.072-0.104,0.065-0.14c-0.073,0.001-0.178,0.124-0.314,0.369
		c-0.031,0.03-0.08,0.094-0.147,0.191c-0.952,1.613-1.336,2.985-1.15,4.119c0.111,0.333,0.252,0.502,0.424,0.506
		c0.38-0.181,0.67-0.55,0.869-1.11c0.275-0.355,0.471-0.939,0.587-1.752c0.075-0.318,0.177-1.11,0.307-2.375
		c0.027-0.115,0.141-0.229,0.339-0.337c0.128,0.099,0.205,0.217,0.231,0.358c0.016,0.082,0.012,0.197-0.009,0.348
		c-0.014,0.186-0.021,0.31-0.022,0.37c-0.229,1.382-0.305,2.284-0.226,2.706c0.103,0.553,0.283,0.908,0.545,1.068
		c0.045-0.021,0.177-0.125,0.398-0.312c0.189-0.158,0.308-0.24,0.354-0.249c0.022,0.057,0.04,0.113,0.051,0.173
		C504.272,266.388,504.234,266.541,504.116,266.624z"/>
	<path fill="#231F20" d="M507.88,262.62c-0.011,0.403-0.016,0.8-0.017,1.189c-0.004,0.501,0.02,0.892,0.072,1.174
		c0.097,0.518,0.315,0.944,0.658,1.282c-0.111,0.058-0.214,0.094-0.308,0.111c-0.165,0.03-0.321,0.005-0.47-0.076
		c-0.297-0.346-0.494-0.79-0.595-1.331c-0.063-0.342-0.091-0.78-0.081-1.317l0.018-1.28l-0.024-0.033
		c-0.384,0.425-0.779,1.112-1.186,2.064c-0.435,1.005-0.796,1.706-1.088,2.101c-0.151,0.103-0.292,0.164-0.422,0.188
		c-0.07,0.014-0.143,0.015-0.218,0.006c-0.229-0.117-0.33-0.365-0.304-0.748c0.036-0.53,0.093-1.234,0.174-2.112
		c0.066-0.816,0.081-1.524,0.042-2.125c0.062-0.122,0.152-0.194,0.27-0.216c0.118-0.021,0.239,0.023,0.363,0.135
		s0.186,0.227,0.184,0.348l-0.178,3.265c0.023-0.139,0.11-0.324,0.261-0.561c0.444-0.945,0.735-1.542,0.872-1.786
		c0.367-0.64,0.775-1.166,1.223-1.578c0.387-0.072,0.619,0.098,0.696,0.51c0.015,0.082,0.024,0.214,0.028,0.396
		C507.854,262.406,507.864,262.538,507.88,262.62z"/>
	<path fill="#231F20" d="M515.287,263.487c-0.223,0.442-0.438,0.885-0.648,1.326c-0.297,0.492-0.652,0.778-1.063,0.854
		c-0.177,0.033-0.366,0.03-0.566-0.005c-0.328-0.193-0.53-0.496-0.607-0.908c-0.051-0.271-0.064-0.578-0.044-0.923
		c-0.019-0.362,0.025-1.069,0.135-2.124c0.019-0.224,0.115-0.558,0.287-1.004l0.307-0.805c0.157-0.395,0.396-0.621,0.713-0.68
		c0.188-0.035,0.479,0.118,0.87,0.458c0.03,0.093,0.088,0.179,0.177,0.26c-0.011-0.579,0.043-1.438,0.159-2.573
		c-0.015-0.082,0.03-0.429,0.136-1.042c0.046-0.142,0.134-0.225,0.263-0.249c0.212-0.039,0.379,0.039,0.501,0.234
		c0.225,1.016,0.285,2.224,0.182,3.627c-0.031,0.357-0.137,0.839-0.316,1.442c-0.105,0.348-0.12,0.728-0.043,1.138
		c0.078,0.423,0.23,0.788,0.459,1.098c0.144,0.119,0.287,0.165,0.428,0.139c0.07-0.014,0.137-0.049,0.198-0.109
		c0.153-0.089,0.302-0.245,0.443-0.466c0.101-0.177,0.206-0.359,0.316-0.551c0.065-0.11,0.209-0.252,0.433-0.428
		c0.043,0.102,0.072,0.193,0.087,0.276c-0.009,0.086-0.051,0.312-0.129,0.68c-0.285,0.431-0.457,0.682-0.517,0.754
		c-0.229,0.273-0.473,0.435-0.731,0.482c-0.118,0.022-0.245,0.021-0.384-0.001C515.926,264.244,515.578,263.943,515.287,263.487z
		 M514.872,261.356c-0.041-0.09-0.054-0.319-0.036-0.688c-0.188-0.025-0.365-0.125-0.531-0.302l-0.114-0.124
		c-0.079-0.095-0.164-0.159-0.255-0.19c-0.28,0.453-0.52,1.063-0.718,1.831l0.015,0.18c-0.11,0.191-0.175,0.629-0.193,1.313
		c0.041,0.675,0.07,1.063,0.09,1.169c0.028,0.154,0.073,0.298,0.135,0.432c0.023,0.057,0.104,0.073,0.246,0.047
		c0.59-0.427,1.073-1.265,1.449-2.515c-0.032-0.104-0.046-0.376-0.043-0.813C514.917,261.635,514.902,261.521,514.872,261.356z"/>
	<path fill="#231F20" d="M520.371,261.976c-0.086,0.064-0.145,0.172-0.178,0.325c-0.044,0.215-0.076,0.336-0.096,0.364
		c-0.106,0.215-0.315,0.527-0.628,0.938c-0.259,0.571-0.724,0.956-1.392,1.154c-0.187,0.046-0.377,0.069-0.571,0.068
		c-0.501-0.139-0.875-0.518-1.126-1.142c-0.034-0.383-0.01-0.807,0.074-1.272c0.058-0.278,0.139-0.688,0.245-1.231
		c0.074-0.123,0.163-0.335,0.265-0.634c0.109-0.264,0.238-0.457,0.385-0.584c0.105-0.286,0.315-0.496,0.632-0.627
		c0.122,0.002,0.294-0.152,0.517-0.463c-0.021-0.043-0.004-0.12,0.049-0.227c0.127-0.036,0.244-0.063,0.35-0.084
		c0.176-0.032,0.32-0.041,0.434-0.025c0.545,0.251,0.893,0.776,1.041,1.576c0.037,0.201,0.062,0.412,0.072,0.635
		C520.455,260.972,520.431,261.381,520.371,261.976z M519.602,259.509c-0.083-0.252-0.233-0.406-0.451-0.465l-0.724,0.427
		l0.216,0.18c0.035,0.127,0.082,0.313,0.141,0.559c0.039,0.211,0.006,0.394-0.1,0.548c-0.053,0.046-0.106,0.08-0.163,0.103
		c-0.163,0.043-0.305-0.131-0.426-0.522c-0.097,0.066-0.209,0.216-0.337,0.445c-0.156,0.272-0.27,0.446-0.341,0.521
		c-0.198,0.767-0.298,1.211-0.3,1.333c-0.049,0.325-0.047,0.629,0.005,0.911c0.026,0.142,0.064,0.28,0.114,0.417
		c0.104,0.104,0.294,0.141,0.568,0.113c1.269-0.638,1.958-1.872,2.067-3.706C519.775,260.049,519.686,259.761,519.602,259.509z"/>
	<path fill="#231F20" d="M527.422,256.911c0.254-0.011,0.506-0.028,0.758-0.051c0.293,0.006,0.543,0.073,0.75,0.204l0.079,0.328
		c-0.186,0.048-0.521,0.11-1.005,0.188c-0.299,0.032-0.547,0.102-0.746,0.212c-0.491,1.612-0.627,2.909-0.408,3.891
		c0.026,0.142,0.072,0.27,0.136,0.385c0.064,0.116,0.196,0.155,0.396,0.118c0.117-0.021,0.254-0.071,0.41-0.148
		c0.128-0.036,0.318-0.169,0.574-0.399c0.255-0.23,0.511-0.375,0.768-0.435c-0.094,0.674-0.555,1.204-1.384,1.59
		c-0.102,0.043-0.193,0.072-0.275,0.088c-0.318,0.059-0.583,0.005-0.797-0.162c-0.275-0.303-0.463-0.687-0.562-1.154
		c-0.144-0.644-0.123-1.443,0.064-2.403c0.078-0.234,0.15-0.594,0.218-1.081c-0.409,0.089-0.726,0.348-0.95,0.779
		c-0.209,0.051-0.409-0.106-0.599-0.473c-0.001-0.134,0.114-0.302,0.345-0.502c0.148-0.186,0.363-0.336,0.646-0.449
		c0.252-0.084,0.503-0.173,0.753-0.269c0.352-1.185,0.544-2.278,0.576-3.282c0.061-0.133,0.138-0.209,0.231-0.227
		c0.15-0.04,0.318,0.044,0.503,0.25c0.114,0.812-0.031,1.798-0.436,2.958C527.447,256.882,527.432,256.897,527.422,256.911z"/>
	<path fill="#231F20" d="M532.825,259.658c-0.086,0.064-0.145,0.173-0.177,0.325c-0.045,0.216-0.078,0.337-0.097,0.364
		c-0.105,0.215-0.315,0.527-0.628,0.938c-0.26,0.571-0.724,0.956-1.392,1.154c-0.187,0.047-0.377,0.07-0.571,0.068
		c-0.5-0.138-0.875-0.518-1.126-1.142c-0.034-0.382-0.009-0.806,0.074-1.272c0.058-0.278,0.14-0.688,0.245-1.231
		c0.074-0.123,0.163-0.335,0.266-0.634c0.108-0.264,0.237-0.457,0.384-0.583c0.105-0.287,0.315-0.496,0.632-0.628
		c0.122,0.002,0.294-0.152,0.517-0.462c-0.021-0.044-0.004-0.121,0.049-0.228c0.127-0.036,0.243-0.063,0.351-0.083
		c0.176-0.033,0.319-0.042,0.433-0.026c0.546,0.251,0.893,0.776,1.041,1.576c0.037,0.201,0.062,0.412,0.072,0.635
		C532.909,258.654,532.885,259.063,532.825,259.658z M532.056,257.191c-0.083-0.252-0.233-0.406-0.451-0.464l-0.724,0.427
		l0.216,0.18c0.036,0.127,0.083,0.312,0.14,0.558c0.04,0.211,0.007,0.394-0.098,0.548c-0.053,0.046-0.107,0.08-0.164,0.104
		c-0.162,0.042-0.305-0.132-0.426-0.523c-0.097,0.066-0.209,0.216-0.337,0.445c-0.156,0.273-0.271,0.447-0.341,0.521
		c-0.198,0.767-0.299,1.212-0.3,1.333c-0.049,0.325-0.047,0.629,0.005,0.911c0.026,0.142,0.064,0.28,0.114,0.417
		c0.104,0.104,0.294,0.141,0.569,0.114c1.268-0.639,1.957-1.873,2.066-3.707C532.229,257.731,532.139,257.444,532.056,257.191z"/>
	<path fill="#231F20" d="M537.802,258.906l1.292-2.462c0.514-0.959,1.069-1.698,1.664-2.223c0.147-0.124,0.358-0.163,0.635-0.118
		c0.12,0.063,0.22,0.172,0.298,0.329c0.084,0.19,0.148,0.307,0.192,0.347c-0.038,0.189-0.047,0.436-0.027,0.735
		c0.022,0.386,0.032,0.633,0.028,0.743c-0.062,1.179-0.094,1.849-0.101,2.008c-0.018,0.758,0.002,1.423,0.061,1.996
		c-0.413-0.189-0.654-0.48-0.727-0.868c-0.026-0.141-0.043-0.326-0.05-0.557c-0.006-0.291-0.01-0.479-0.013-0.564
		c-0.023-0.25,0.007-0.81,0.089-1.677c0.065-0.693,0.042-1.243-0.069-1.647c-0.089-0.021-0.25,0.125-0.484,0.437
		c-0.41,0.539-0.824,1.23-1.238,2.074l-1.071,2.188c-0.091,0.103-0.183,0.26-0.277,0.473c-0.111,0.251-0.196,0.418-0.253,0.503
		c-0.161,0.113-0.292,0.163-0.394,0.146c-0.143-0.181-0.234-0.382-0.276-0.605c-0.037-0.2-0.03-0.493,0.02-0.88
		c0.049-0.387,0.063-0.669,0.043-0.848c0.188-1.337,0.466-3.378,0.832-6.124c-0.053-0.147-0.022-0.311,0.09-0.491
		c-0.035-0.126-0.02-0.254,0.048-0.382c0.067-0.129,0.166-0.204,0.295-0.229c0.118-0.022,0.243,0.027,0.375,0.149
		c0.105,0.369,0.099,0.755-0.021,1.153c-0.185,0.632-0.28,1.155-0.287,1.571c-0.047,0.009-0.059,0.046-0.033,0.115
		c-0.145,0.816-0.274,1.643-0.391,2.478C538.008,257.085,537.924,257.828,537.802,258.906z"/>
	<path fill="#231F20" d="M546.426,258.004l-0.044,0.062c-0.053,0.047-0.064,0.11-0.038,0.19c-0.81,0.88-1.492,1.397-2.048,1.549
		c-0.314,0.071-0.638,0.07-0.968-0.003c-0.285-0.093-0.496-0.247-0.634-0.466c-0.117-0.172-0.234-0.473-0.351-0.901
		c0.019-1.927,0.63-3.543,1.836-4.851c0.044-0.021,0.176-0.068,0.393-0.146c0.181-0.07,0.344-0.064,0.486,0.019
		c0.144,0.083,0.232,0.219,0.268,0.407c0.005,0.156,0.015,0.307,0.029,0.45c-0.073,0.72-0.608,1.635-1.606,2.745
		c-0.06,0.071-0.243,0.166-0.55,0.284c-0.182,0.071-0.25,0.192-0.205,0.367c-0.104,0.287-0.125,0.54-0.06,0.76
		c0.018,0.094,0.097,0.261,0.239,0.503c0.253,0.245,0.603,0.325,1.05,0.242l0.061-0.065c0.188-0.035,0.435-0.148,0.74-0.338
		c0.291-0.263,0.763-0.642,1.412-1.14c0.021,0.045,0.034,0.084,0.041,0.119C546.49,257.865,546.473,257.935,546.426,258.004z
		 M544.687,254.349c-0.042-0.028-0.091-0.056-0.144-0.083c-0.551,0.506-0.972,1.252-1.262,2.243
		c0.059-0.011,0.119-0.047,0.181-0.107c0.243-0.325,0.488-0.649,0.731-0.975C544.467,254.998,544.631,254.64,544.687,254.349z"/>
	<path fill="#231F20" d="M547.855,248.722c-0.103,0.165-0.125,0.309-0.065,0.433c-0.128,0.229-0.203,0.573-0.229,1.027
		c-0.028,0.504-0.078,0.854-0.151,1.051c-0.034,0.273-0.085,0.722-0.151,1.342c0.051,0.076,0.046,0.155-0.011,0.239
		c-0.003,0.05-0.045,0.514-0.124,1.392c-0.06,0.535-0.071,0.994-0.036,1.376c-0.053,0.107-0.066,0.277-0.042,0.509
		c0.024,0.233,0.01,0.398-0.046,0.493c0.019,0.751,0.07,1.223,0.154,1.414c-0.012,0.136,0.053,0.318,0.193,0.548
		c0.115-0.033,0.232-0.123,0.352-0.267c0.16-0.188,0.261-0.298,0.304-0.33c0.116-0.095,0.288-0.151,0.517-0.169
		c-0.14,0.427-0.343,0.812-0.607,1.152c-0.07,0.014-0.157,0.054-0.261,0.121c-0.103,0.068-0.178,0.107-0.225,0.116
		c-0.07,0.013-0.158-0.002-0.263-0.042c-0.275-0.168-0.428-0.269-0.458-0.299c-0.124-0.146-0.22-0.397-0.285-0.749
		c-0.031-0.165-0.062-0.36-0.091-0.587c0.015-0.05,0.02-0.253,0.015-0.604c-0.012-0.849-0.005-1.568,0.019-2.157
		c0.033-1.199,0.113-2.467,0.241-3.804c0.031-0.358,0.103-0.762,0.214-1.209c0.127-0.56,0.194-0.852,0.201-0.877
		c0.021-0.15,0.098-0.358,0.23-0.627c0.082-0.148,0.188-0.236,0.316-0.26c0.117-0.022,0.249,0.027,0.393,0.146
		C548.029,248.282,547.995,248.489,547.855,248.722z"/>
	<path fill="#231F20" d="M549.4,257.907c1.258-0.757,2.173-1.792,2.744-3.104c0.001-0.061,0.031-0.193,0.09-0.398
		c0.06-0.206,0.078-0.368,0.057-0.485c-0.075-0.399-0.391-0.626-0.948-0.683c-0.353,0.005-0.698,0.015-1.035,0.029
		c-0.053,0.046-0.321,0.206-0.806,0.479c-0.328,0.194-0.546,0.398-0.652,0.613c-0.013,0.062-0.101,0.214-0.264,0.45
		c-0.007,0.026-0.062,0.157-0.163,0.395c-0.204-0.57-0.309-0.908-0.317-1.018c0.315-0.727,0.945-1.296,1.892-1.702
		c0.829-0.19,1.621-0.119,2.377,0.215c0.444,0.43,0.698,0.813,0.762,1.154c0.037,0.2,0.021,0.403-0.05,0.611
		c-0.095,0.018-0.141,0.069-0.136,0.154c0.003,0.084,0.001,0.166-0.009,0.248c-0.01,0.08-0.06,0.141-0.148,0.182
		c-0.312,0.618-0.726,1.236-1.243,1.855c-0.591,0.683-1.153,1.158-1.688,1.428c-0.222,0.114-0.364,0.201-0.426,0.262
		c-0.124,0.121-0.154,0.284-0.091,0.492c-0.012,0.524-0.059,1.318-0.142,2.38c-0.057,0.083-0.075,0.282-0.054,0.594
		c-0.045,0.604-0.159,1.562-0.342,2.876c-0.025-0.009-0.145,0.008-0.355,0.047c-0.115,0.033-0.209-0.016-0.282-0.148
		c-0.052-0.209-0.041-0.513,0.031-0.908c0.072-0.397,0.091-0.689,0.056-0.878c-0.014-0.07-0.032-0.14-0.058-0.209
		c0.078-0.172,0.125-0.442,0.142-0.811c0.021-0.417,0.053-0.698,0.1-0.841c0.035-0.334,0.087-0.838,0.157-1.507
		c0.045-0.544,0.005-1.054-0.12-1.529c0.108-0.068,0.172-0.189,0.188-0.364c0-0.132,0.004-0.273,0.013-0.421
		c-0.049-0.197-0.056-0.434-0.022-0.708c0.035-0.336,0.049-0.557,0.041-0.664c-0.004-0.024-0.024-0.232-0.062-0.627
		c-0.025-0.265,0.025-0.449,0.151-0.558c0.104-0.094,0.293-0.092,0.566,0.004c0.052,0.015,0.127,0.024,0.226,0.03
		c-0.019,0.102-0.035,0.371-0.05,0.812c0.006,0.363-0.032,0.615-0.116,0.752c0.046,0.246,0.034,0.608-0.036,1.083
		C549.402,257.561,549.41,257.698,549.4,257.907z"/>
	<path fill="#231F20" d="M554.855,257.604c-0.074,0.258-0.195,0.389-0.364,0.396c-0.312-0.039-0.486-0.158-0.523-0.358
		c-0.034-0.188,0.002-0.354,0.109-0.495c0.107-0.142,0.257-0.219,0.45-0.229l0.125,0.086l0.08,0.04
		c0.188,0.087,0.236,0.224,0.149,0.41C554.875,257.479,554.866,257.529,554.855,257.604z M555.526,249.338
		c-0.04,0.045-0.059,0.143-0.056,0.295c0.004,0.15-0.018,0.261-0.065,0.331c-0.006,0.231-0.033,0.542-0.083,0.928
		c-0.007,0.025-0.007,0.227,0.003,0.602c-0.003,0.244-0.045,0.447-0.125,0.607c0.021,0.178,0.004,0.413-0.052,0.704
		c-0.067,0.353-0.103,0.591-0.104,0.712c-0.042,0.105-0.088,0.284-0.138,0.537l-0.047,0.045c-0.038,0.056-0.081,0.088-0.128,0.097
		c-0.023,0.004-0.054,0.004-0.092-0.001c-0.094-0.116-0.12-0.324-0.079-0.625c0.005-0.036-0.011-0.118-0.046-0.246l0.053-0.01
		c0.049-0.52,0.078-1.311,0.088-2.37c0.063-0.316,0.067-0.622,0.013-0.916c0.026-0.054,0.051-0.186,0.072-0.396
		c0.065-0.694,0.082-1.421,0.051-2.181c0.019-0.028,0.034-0.208,0.046-0.538c0.027-0.115,0.029-0.23,0.008-0.348
		c-0.026-0.142-0.096-0.287-0.209-0.437c0.231-0.129,0.4-0.202,0.506-0.223c0.2-0.037,0.343,0.04,0.427,0.232
		c0.028,0.347,0.021,0.878-0.022,1.592C555.503,248.443,555.496,248.98,555.526,249.338z"/>
</g>
</svg>
