<?xml version="1.0" encoding="utf-8"?>
<!-- Generator: Adobe Illustrator 16.0.0, SVG Export Plug-In . SVG Version: 6.00 Build 0)  -->
<!DOCTYPE svg PUBLIC "-//W3C//DTD SVG 1.1//EN" "http://www.w3.org/Graphics/SVG/1.1/DTD/svg11.dtd">
<svg version="1.1" id="Layer_1" xmlns="http://www.w3.org/2000/svg" xmlns:xlink="http://www.w3.org/1999/xlink" x="0px" y="0px"
	 width="1000px" height="400px" viewBox="0 0 1000 400" enable-background="new 0 0 1000 400" xml:space="preserve">
<path fill="#BFDBDB" d="M659.345,116.603c0,0-0.707-23.646,9.312-23.145c10.544,0.528,12.126,4.746,12.126,4.746
	s-0.875-23.933,7.032-27.562c7.908-3.628,12.126,2.419,12.126,2.419s1.93-12.29,13.529-12.29c11.599,0,10.723,13.5,10.723,13.5
	s1.93-5.064,10.893-5.064s12.833,28.044,12.833,28.044s1.929-5.684,10.364-3.265c8.436,2.419,9.669,22.617,9.669,22.617H659.345z"/>
<circle fill="#F8BD4A" cx="958.033" cy="28.811" r="68.011"/>
<path fill="#BFDBDB" d="M843.849,160.572c0,0,9.669-19.941,15.468-19.941c5.8,0,11.6,4.082,11.6,4.082s2.984-12.797,10.892-15.246
	c7.909-2.449,11.6,3.164,11.6,3.164s2.108-14.236,13.708-14.236c11.599,0,19.506,11.6,19.506,11.6s1.582-6.854,10.545-6.854
	s13.18,14.235,13.18,14.235s3.163-3.215,11.599-1.582s21.089,25.307,21.089,25.307L843.849,160.572z"/>
<path fill="#E1EDEF" d="M923.764,123.182c0,0,3.691-20.416,9.49-20.416c5.8,0,11.6,4.083,11.6,4.083s-0.528-12.249,7.38-14.699
	c7.908-2.451,12.126,1.634,12.126,1.634s1.055-12.251,12.653-12.251s11.599,13.067,11.599,13.067s2.637-7.35,11.599-7.35
	c8.963,0,12.127,22.866,12.127,22.866s-0.527-8.983,7.908-7.35c8.435,1.634,12.125,20.416,12.125,20.416H923.764z"/>
<path fill="#E1EDEF" d="M744.512,69.406c0,0,9.668-19.942,15.468-19.942s11.599,4.083,11.599,4.083s2.984-12.796,10.893-15.247
	c7.907-2.45,11.6,3.164,11.6,3.164s2.107-14.235,13.706-14.235c11.601,0,19.508,11.599,19.508,11.599s1.582-6.853,10.545-6.853
	c8.962,0,13.18,14.234,13.18,14.234s3.163-3.215,11.599-1.582c8.435,1.633,21.088,25.306,21.088,25.306L744.512,69.406z"/>
<path fill="#E1EDEF" d="M707.564,141.582c0,0,4.28-20.416,11.009-20.416c6.729,0,13.458,4.082,13.458,4.082
	s-0.611-12.249,8.563-14.698c9.175-2.45,14.068,1.633,14.068,1.633s1.224-12.25,14.679-12.25c13.458,0,13.458,13.066,13.458,13.066
	s3.059-7.35,13.457-7.35s14.068,22.867,14.068,22.867s-0.612-8.984,9.175-7.351c9.787,1.633,14.068,20.416,14.068,20.416H707.564z"
	/>
<path fill="#E1EDEF" d="M492.692,59.4c0,0,6.835-19.534,10.936-19.534s8.2,4,8.2,4s2.109-12.535,7.7-14.935s8.2,3.099,8.2,3.099
	s1.491-13.943,9.69-13.943c8.2,0,13.791,11.361,13.791,11.361s1.119-6.713,7.455-6.713s9.317,13.943,9.317,13.943
	s2.236-3.149,8.2-1.549c5.963,1.6,14.909,24.788,14.909,24.788L492.692,59.4z"/>
<path fill="#BFDBDB" d="M279.488,63.34c0,0,9.668-19.942,15.468-19.942s11.599,4.083,11.599,4.083s2.984-12.797,10.892-15.247
	c7.909-2.451,11.6,3.164,11.6,3.164s2.109-14.236,13.708-14.236c11.599,0,19.506,11.599,19.506,11.599s1.582-6.854,10.545-6.854
	s13.179,14.235,13.179,14.235s3.164-3.216,11.599-1.582c8.435,1.633,21.088,25.307,21.088,25.307L279.488,63.34z"/>
<path fill="#E1EDEF" d="M217.445,82.066c0,0,4.281-20.417,11.01-20.417c6.729,0,13.457,4.083,13.457,4.083s-0.611-12.25,8.563-14.7
	c9.175-2.45,14.069,1.633,14.069,1.633s1.223-12.25,14.679-12.25c13.457,0,13.457,13.066,13.457,13.066s3.059-7.35,13.458-7.35
	c10.398,0,14.068,22.867,14.068,22.867s-0.612-8.983,9.175-7.35c9.787,1.634,14.068,20.417,14.068,20.417H217.445z"/>
<path fill="#E1EDEF" d="M181.345,125.539c0,0,6.835-19.534,10.936-19.534s8.2,4,8.2,4s2.109-12.534,7.7-14.935s8.2,3.099,8.2,3.099
	s1.491-13.943,9.69-13.943c8.2,0,13.791,11.361,13.791,11.361s1.119-6.714,7.455-6.714s9.317,13.943,9.317,13.943
	s2.236-3.148,8.2-1.549c5.963,1.6,14.909,24.787,14.909,24.787L181.345,125.539z"/>
<path fill="#BFDBDB" d="M-31.989,79.133c0,0-0.707-23.645,9.312-23.145c10.544,0.528,12.126,4.746,12.126,4.746
	s-0.875-23.934,7.032-27.562c7.908-3.628,12.126,2.419,12.126,2.419s1.93-12.29,13.529-12.29c11.599,0,10.723,13.5,10.723,13.5
	s1.93-5.064,10.893-5.064s12.833,28.044,12.833,28.044s1.929-5.685,10.364-3.265s9.669,22.617,9.669,22.617H-31.989z"/>
<path fill="#E1EDEF" d="M13.51,168.738c0,0,4.28-20.416,11.009-20.416c6.729,0,13.458,4.082,13.458,4.082
	s-0.611-12.248,8.563-14.699c9.175-2.449,14.068,1.635,14.068,1.635s1.224-12.25,14.679-12.25c13.458,0,13.458,13.066,13.458,13.066
	s3.059-7.35,13.457-7.35s14.068,22.867,14.068,22.867s-0.612-8.984,9.175-7.352s14.068,20.416,14.068,20.416H13.51z"/>
<path fill="#BFDBDB" d="M-45.934,252.512c0,0,6.835-19.534,10.936-19.534s8.2,4,8.2,4s2.109-12.534,7.7-14.935s8.2,3.099,8.2,3.099
	s1.491-13.943,9.69-13.943c8.2,0,13.792,11.361,13.792,11.361s1.119-6.714,7.455-6.714s9.316,13.943,9.316,13.943
	s2.236-3.148,8.201-1.549c5.963,1.6,14.908,24.787,14.908,24.787L-45.934,252.512z"/>
<path fill="#BFDBDB" d="M875.541,247.597c0,0,4.28-20.417,11.01-20.417c6.729,0,13.457,4.083,13.457,4.083
	s-0.611-12.249,8.563-14.699s14.068,1.634,14.068,1.634s1.224-12.25,14.68-12.25c13.457,0,13.457,13.066,13.457,13.066
	s3.06-7.351,13.458-7.351c10.397,0,14.068,22.867,14.068,22.867s-0.613-8.983,9.174-7.351c9.787,1.634,14.068,20.417,14.068,20.417
	H875.541z"/>
<path fill="#E1EDEF" d="M939.542,288.147c0,0-0.707-23.646,9.312-23.146c10.544,0.528,12.126,4.745,12.126,4.745
	s-0.875-23.933,7.032-27.562c7.908-3.628,12.126,2.42,12.126,2.42s1.93-12.29,13.529-12.29c11.599,0,10.723,13.499,10.723,13.499
	s1.93-5.064,10.893-5.064s12.833,28.044,12.833,28.044s1.929-5.684,10.364-3.264c8.436,2.418,9.669,22.617,9.669,22.617H939.542z"/>
<path fill="#E1EDEF" d="M39.501,289.899c0,0,6.835-19.534,10.936-19.534s8.2,4,8.2,4s2.109-12.534,7.7-14.935s8.2,3.099,8.2,3.099
	s1.491-13.943,9.69-13.943c8.2,0,13.792,11.361,13.792,11.361s1.119-6.714,7.455-6.714s9.316,13.943,9.316,13.943
	s2.236-3.148,8.201-1.549c5.963,1.6,14.908,24.787,14.908,24.787L39.501,289.899z"/>
<path fill="#E1EDEF" d="M-100.804,343.47c0,0,9.668-19.941,15.468-19.941s11.599,4.084,11.599,4.084s2.984-12.798,10.892-15.247
	c7.909-2.451,11.6,3.164,11.6,3.164s2.109-14.236,13.708-14.236s19.506,11.6,19.506,11.6s1.582-6.854,10.545-6.854
	s13.179,14.235,13.179,14.235s3.164-3.216,11.6-1.582c8.435,1.633,21.088,25.307,21.088,25.307L-100.804,343.47z"/>
<path fill="#E1EDEF" d="M979.875,388.691c0,0-0.707-23.646,9.312-23.146c10.544,0.528,12.126,4.745,12.126,4.745
	s-0.875-23.933,7.032-27.562c7.908-3.628,12.126,2.42,12.126,2.42s1.93-12.29,13.529-12.29c11.599,0,10.723,13.499,10.723,13.499
	s1.93-5.064,10.893-5.064s12.833,28.044,12.833,28.044s1.929-5.684,10.364-3.264c8.436,2.418,9.669,22.617,9.669,22.617H979.875z"/>
</svg>
