<?xml version="1.0" encoding="utf-8"?>
<!-- Generator: Adobe Illustrator 16.0.0, SVG Export Plug-In . SVG Version: 6.00 Build 0)  -->
<!DOCTYPE svg PUBLIC "-//W3C//DTD SVG 1.1//EN" "http://www.w3.org/Graphics/SVG/1.1/DTD/svg11.dtd">
<svg version="1.1" id="Layer_1" xmlns="http://www.w3.org/2000/svg" xmlns:xlink="http://www.w3.org/1999/xlink" x="0px" y="0px"
	 width="1000px" height="400px" viewBox="0 0 1000 400" enable-background="new 0 0 1000 400" xml:space="preserve">
<path fill="#BFDBDB" d="M659.345,116.603c0,0-0.707-23.646,9.312-23.145c10.544,0.528,12.126,4.746,12.126,4.746
	s-0.875-23.933,7.032-27.562c7.908-3.628,12.126,2.419,12.126,2.419s1.93-12.29,13.529-12.29c11.599,0,10.723,13.5,10.723,13.5
	s1.93-5.064,10.893-5.064s12.833,28.044,12.833,28.044s1.929-5.684,10.364-3.265c8.436,2.419,9.669,22.617,9.669,22.617H659.345z"/>
<circle fill="#F8BD4A" cx="958.033" cy="28.811" r="68.011"/>
<path fill="#BFDBDB" d="M843.849,160.572c0,0,9.669-19.941,15.468-19.941c5.8,0,11.6,4.082,11.6,4.082s2.984-12.797,10.892-15.246
	c7.909-2.449,11.6,3.164,11.6,3.164s2.108-14.236,13.708-14.236c11.599,0,19.506,11.6,19.506,11.6s1.582-6.854,10.545-6.854
	s13.18,14.235,13.18,14.235s3.163-3.215,11.599-1.582s21.089,25.307,21.089,25.307L843.849,160.572z"/>
<path fill="#E1EDEF" d="M923.764,123.182c0,0,3.691-20.416,9.49-20.416c5.8,0,11.6,4.083,11.6,4.083s-0.528-12.249,7.38-14.699
	c7.908-2.451,12.126,1.634,12.126,1.634s1.055-12.251,12.653-12.251s11.599,13.067,11.599,13.067s2.637-7.35,11.599-7.35
	c8.963,0,12.127,22.866,12.127,22.866s-0.527-8.983,7.908-7.35c8.435,1.634,12.125,20.416,12.125,20.416H923.764z"/>
<path fill="#E1EDEF" d="M744.512,69.406c0,0,9.668-19.942,15.468-19.942s11.599,4.083,11.599,4.083s2.984-12.796,10.893-15.247
	c7.907-2.45,11.6,3.164,11.6,3.164s2.107-14.235,13.706-14.235c11.601,0,19.508,11.599,19.508,11.599s1.582-6.853,10.545-6.853
	c8.962,0,13.18,14.234,13.18,14.234s3.163-3.215,11.599-1.582c8.435,1.633,21.088,25.306,21.088,25.306L744.512,69.406z"/>
<path fill="#E1EDEF" d="M707.564,141.582c0,0,4.28-20.416,11.009-20.416c6.729,0,13.458,4.082,13.458,4.082
	s-0.611-12.249,8.563-14.698c9.175-2.45,14.068,1.633,14.068,1.633s1.224-12.25,14.679-12.25c13.458,0,13.458,13.066,13.458,13.066
	s3.059-7.35,13.457-7.35s14.068,22.867,14.068,22.867s-0.612-8.984,9.175-7.351c9.787,1.633,14.068,20.416,14.068,20.416H707.564z"
	/>
<path fill="#E1EDEF" d="M492.692,59.4c0,0,6.835-19.534,10.936-19.534s8.2,4,8.2,4s2.109-12.535,7.7-14.935s8.2,3.099,8.2,3.099
	s1.491-13.943,9.69-13.943c8.2,0,13.791,11.361,13.791,11.361s1.119-6.713,7.455-6.713s9.317,13.943,9.317,13.943
	s2.236-3.149,8.2-1.549c5.963,1.6,14.909,24.788,14.909,24.788L492.692,59.4z"/>
<path fill="#BFDBDB" d="M279.488,63.34c0,0,9.668-19.942,15.468-19.942s11.599,4.083,11.599,4.083s2.984-12.797,10.892-15.247
	c7.909-2.451,11.6,3.164,11.6,3.164s2.109-14.236,13.708-14.236c11.599,0,19.506,11.599,19.506,11.599s1.582-6.854,10.545-6.854
	s13.179,14.235,13.179,14.235s3.164-3.216,11.599-1.582c8.435,1.633,21.088,25.307,21.088,25.307L279.488,63.34z"/>
<path fill="#E1EDEF" d="M217.445,82.066c0,0,4.281-20.417,11.01-20.417c6.729,0,13.457,4.083,13.457,4.083s-0.611-12.25,8.563-14.7
	c9.175-2.45,14.069,1.633,14.069,1.633s1.223-12.25,14.679-12.25c13.457,0,13.457,13.066,13.457,13.066s3.059-7.35,13.458-7.35
	c10.398,0,14.068,22.867,14.068,22.867s-0.612-8.983,9.175-7.35c9.787,1.634,14.068,20.417,14.068,20.417H217.445z"/>
<path fill="#E1EDEF" d="M181.345,125.539c0,0,6.835-19.534,10.936-19.534s8.2,4,8.2,4s2.109-12.534,7.7-14.935s8.2,3.099,8.2,3.099
	s1.491-13.943,9.69-13.943c8.2,0,13.791,11.361,13.791,11.361s1.119-6.714,7.455-6.714s9.317,13.943,9.317,13.943
	s2.236-3.148,8.2-1.549c5.963,1.6,14.909,24.787,14.909,24.787L181.345,125.539z"/>
<path fill="#BFDBDB" d="M-31.989,79.133c0,0-0.707-23.645,9.312-23.145c10.544,0.528,12.126,4.746,12.126,4.746
	s-0.875-23.934,7.032-27.562c7.908-3.628,12.126,2.419,12.126,2.419s1.93-12.29,13.529-12.29c11.599,0,10.723,13.5,10.723,13.5
	s1.93-5.064,10.893-5.064s12.833,28.044,12.833,28.044s1.929-5.685,10.364-3.265s9.669,22.617,9.669,22.617H-31.989z"/>
<path fill="#E1EDEF" d="M13.51,168.738c0,0,4.28-20.416,11.009-20.416c6.729,0,13.458,4.082,13.458,4.082
	s-0.611-12.248,8.563-14.699c9.175-2.449,14.068,1.635,14.068,1.635s1.224-12.25,14.679-12.25c13.458,0,13.458,13.066,13.458,13.066
	s3.059-7.35,13.457-7.35s14.068,22.867,14.068,22.867s-0.612-8.984,9.175-7.352s14.068,20.416,14.068,20.416H13.51z"/>
<g>
	<text transform="matrix(1 0 0 1 408.7295 150.5273)"><tspan x="0" y="0" font-family="'Luna'" font-size="25.5895">The Great</tspan><tspan x="-59.995" y="75.664" font-family="'Luna'" font-size="34.9218">Aquaventure</tspan></text>
	<g>
		<g>
			<path d="M376.075,107.578c6.655,7.889,15.734,13.509,21.385,22.26c0.299-1.14,0.598-2.28,0.897-3.42
				c-7.396,3.47-14.115,7.31-19.808,13.259c-2.228,2.328,1.303,5.869,3.535,3.535c5.403-5.646,11.792-9.191,18.796-12.477
				c1.196-0.562,1.587-2.352,0.897-3.42c-5.911-9.154-15.218-15.035-22.167-23.272C377.528,101.575,374.01,105.13,376.075,107.578
				L376.075,107.578z"/>
		</g>
	</g>
	<g>
		<g>
			<path d="M375.368,108.572c32.517,0.072,64.918,3.197,97.45,2.922c32.713-0.276,65.396-1.975,98.106-2.36
				c5.941-0.07,11.816,0.056,17.723-0.615c2.365-0.269,4.727-0.483,7.108-0.496c3.114-0.017,3.477,2.296,4.084,4.987
				c1.179,5.221,1.703,10.524,2.979,15.751c1.676,6.868,4.412,13.429,6.012,20.301c1.063,4.572-5.485,4.81-8.784,5.418
				c-8.057,1.485-16.151,2.755-24.266,3.876c-15.952,2.205-32.02,3.5-48.116,3.942c-50.17,1.378-100.868-6.111-148.167-23.003
				c-3.044-1.087-4.343,3.745-1.329,4.821c57.107,20.395,119.022,27.05,179.293,21.367c15.336-1.446,30.596-3.727,45.741-6.52
				c3.116-0.575,7.309-1.541,9.487-4.06c2.239-2.59,1.206-6.355,0.431-9.301c-1.762-6.695-4.258-13.158-5.904-19.904
				c-1.312-5.377-1.633-10.978-3.13-16.29c-2.664-9.456-13.379-5.877-20.624-5.365c-8.037,0.568-16.27,0.119-24.331,0.271
				c-8.501,0.161-17.001,0.403-25.499,0.657c-17.648,0.527-35.293,1.135-52.948,1.423c-35.174,0.573-70.169-2.746-105.316-2.824
				C372.143,103.564,372.144,108.564,375.368,108.572L375.368,108.572z"/>
		</g>
	</g>
	<g>
		<g>
			<path d="M691.31,214.598c-5.563,1.466-10.222,4.843-15.012,7.894c-6.39,4.067-13.671,5.954-20.904,7.961
				c-15.131,4.199-30.024,7.466-45.683,8.995c-32.17,3.141-64.25,4.021-96.521,2.079c-32.51-1.956-64.844-6.061-97.226-9.415
				c-29.869-3.095-59.93-5.06-89.179-12.28c-6.688-1.651-13.278-3.671-19.76-5.999c0.498,1.224,0.996,2.448,1.494,3.672
				c7.23-12.061,11.583-25.413,17.983-37.871c4.255-8.281,9.905-20.195,19.24-23.658c4.925-1.827,9.497,2.698,13.411,5.058
				c5.593,3.374,13.131,5.292,19.42,6.861c14.117,3.524,29.361,4.775,43.822,6.178c63.995,6.206,128.457,0.375,192.612,1.946
				c20.89,0.511,41.799,0.504,62.479-2.869c3.176-0.518,1.823-5.335-1.33-4.821c-32.293,5.267-65.233,2.063-97.77,2.124
				c-32.342,0.06-64.663,1.581-97.007,1.442c-31.716-0.137-63.332-2.442-94.652-7.491c-7.101-1.145-13.734-3.312-20.46-5.799
				c-5.324-1.968-9.563-5.782-14.874-7.696c-8.254-2.976-16.116,5.949-20.396,11.579c-11.987,15.765-16.693,35.644-26.795,52.494
				c-0.88,1.469,0.005,3.138,1.494,3.673c27.443,9.858,56.684,13.232,85.545,16.072c31.549,3.104,63.046,6.801,94.615,9.689
				c32.49,2.974,65.173,4.524,97.752,2.108c29.987-2.225,59.406-5.367,87.85-15.841c7.567-2.787,13.315-9.19,21.183-11.264
				C695.755,218.598,694.432,213.774,691.31,214.598L691.31,214.598z"/>
		</g>
	</g>
	<g>
		<g>
			<path d="M350.126,156.026c15.023,0.308,28.534,8.03,43.335,9.706c15.932,1.804,31.691-1.703,47.405-3.857
				c3.183-0.436,1.822-5.253-1.329-4.821c-16.117,2.209-32.519,6.043-48.805,3.23c-13.762-2.377-26.444-8.967-40.606-9.257
				C346.9,150.959,346.907,155.96,350.126,156.026L350.126,156.026z"/>
		</g>
	</g>
	<g>
		<g>
			<path d="M608.971,151.52c-6.635-0.077-12.273,3.016-18.084,5.853c-7.9,3.858-16.912,5.064-25.544,6.12
				c-16.526,2.021-32.672,5.198-49.093,7.914c-3.175,0.525-1.823,5.343,1.33,4.821c16.547-2.736,32.814-5.907,49.473-7.944
				c7.233-0.884,14.38-2.101,21.302-4.429c6.979-2.347,12.957-7.423,20.616-7.334C612.196,156.557,612.192,151.557,608.971,151.52
				L608.971,151.52z"/>
		</g>
	</g>
	<g>
		<g>
			<path d="M674.363,170.522c5.533,14.408,19.282,28.804,16.333,45.195c-0.566,3.151,4.252,4.499,4.822,1.329
				c3.249-18.06-10.272-32.069-16.333-47.853C678.042,166.215,673.206,167.507,674.363,170.522L674.363,170.522z"/>
		</g>
	</g>
	<g>
		<g>
			<path d="M689.371,215.707c-10.156,5.594-19.268,12.837-29.363,18.529c-10.812,6.098-22.824,10.457-34.018,15.855
				c-11.498,5.546-22.833,11.398-34.744,16.027c-11.066,4.301-22.485,7.656-33.989,10.562c-22.935,5.794-46.358,9.368-69.602,13.645
				c-22.656,4.169-45.526,9.935-68.734,8.68c-3.224-0.174-3.207,4.826,0,5c23.057,1.247,45.949-4.301,68.447-8.557
				c23.778-4.497,47.708-8.122,71.218-13.945c24.07-5.963,45.975-15.495,68.206-26.262c11.302-5.474,23.065-10.146,34.226-15.871
				c10.819-5.55,20.229-13.483,30.877-19.348C694.719,218.469,692.197,214.15,689.371,215.707L689.371,215.707z"/>
		</g>
	</g>
	<g>
		<g>
			<path d="M501.078,242.092c-15.033-0.164-28.483,6.096-42.381,10.97c-15.442,5.416-31.491,6.5-47.695,4.866
				c-3.208-0.323-3.176,4.68,0,5c15.539,1.566,30.927,0.617,45.889-4.004c14.71-4.545,28.403-12.004,44.188-11.832
				C504.304,247.127,504.301,242.127,501.078,242.092L501.078,242.092z"/>
		</g>
	</g>
	<g>
		<g>
			<path d="M411.497,263.918c12.524,1.42,22.948,9.994,34.97,13.274c-0.498-1.225-0.996-2.449-1.494-3.673
				c-7.198,11.106-19.377,19.031-31.273,24.344c-2.939,1.312-0.394,5.62,2.523,4.316c12.69-5.667,25.404-14.313,33.067-26.137
				c0.884-1.364,0.011-3.262-1.494-3.673c-12.552-3.425-23.154-11.962-36.299-13.452
				C408.296,258.555,408.331,263.559,411.497,263.918L411.497,263.918z"/>
		</g>
	</g>
</g>
<text transform="matrix(0.9831 -0.1829 0.1829 0.9831 462.8394 271.0107)" font-family="'Journal'" font-size="17.4609">A silly but </text>
<text transform="matrix(0.9856 -0.1692 0.1692 0.9856 490.8965 279.2051)" font-family="'Journal'" font-size="17.4609">important story</text>
<path fill="#BFDBDB" d="M-45.934,252.512c0,0,6.835-19.534,10.936-19.534s8.2,4,8.2,4s2.109-12.534,7.7-14.935s8.2,3.099,8.2,3.099
	s1.491-13.943,9.69-13.943c8.2,0,13.792,11.361,13.792,11.361s1.119-6.714,7.455-6.714s9.316,13.943,9.316,13.943
	s2.236-3.148,8.201-1.549c5.963,1.6,14.908,24.787,14.908,24.787L-45.934,252.512z"/>
<path fill="#BFDBDB" d="M875.541,247.597c0,0,4.28-20.417,11.01-20.417c6.729,0,13.457,4.083,13.457,4.083
	s-0.611-12.249,8.563-14.699s14.068,1.634,14.068,1.634s1.224-12.25,14.68-12.25c13.457,0,13.457,13.066,13.457,13.066
	s3.06-7.351,13.458-7.351c10.397,0,14.068,22.867,14.068,22.867s-0.613-8.983,9.174-7.351c9.787,1.634,14.068,20.417,14.068,20.417
	H875.541z"/>
<path fill="#E1EDEF" d="M939.542,288.147c0,0-0.707-23.646,9.312-23.146c10.544,0.528,12.126,4.745,12.126,4.745
	s-0.875-23.933,7.032-27.562c7.908-3.628,12.126,2.42,12.126,2.42s1.93-12.29,13.529-12.29c11.599,0,10.723,13.499,10.723,13.499
	s1.93-5.064,10.893-5.064s12.833,28.044,12.833,28.044s1.929-5.684,10.364-3.264c8.436,2.418,9.669,22.617,9.669,22.617H939.542z"/>
<path fill="#E1EDEF" d="M39.501,289.899c0,0,6.835-19.534,10.936-19.534s8.2,4,8.2,4s2.109-12.534,7.7-14.935s8.2,3.099,8.2,3.099
	s1.491-13.943,9.69-13.943c8.2,0,13.792,11.361,13.792,11.361s1.119-6.714,7.455-6.714s9.316,13.943,9.316,13.943
	s2.236-3.148,8.201-1.549c5.963,1.6,14.908,24.787,14.908,24.787L39.501,289.899z"/>
<path fill="#E1EDEF" d="M-100.804,343.47c0,0,9.668-19.941,15.468-19.941s11.599,4.084,11.599,4.084s2.984-12.798,10.892-15.247
	c7.909-2.451,11.6,3.164,11.6,3.164s2.109-14.236,13.708-14.236s19.506,11.6,19.506,11.6s1.582-6.854,10.545-6.854
	s13.179,14.235,13.179,14.235s3.164-3.216,11.6-1.582c8.435,1.633,21.088,25.307,21.088,25.307L-100.804,343.47z"/>
<path fill="#E1EDEF" d="M979.875,388.691c0,0-0.707-23.646,9.312-23.146c10.544,0.528,12.126,4.745,12.126,4.745
	s-0.875-23.933,7.032-27.562c7.908-3.628,12.126,2.42,12.126,2.42s1.93-12.29,13.529-12.29c11.599,0,10.723,13.499,10.723,13.499
	s1.93-5.064,10.893-5.064s12.833,28.044,12.833,28.044s1.929-5.684,10.364-3.264c8.436,2.418,9.669,22.617,9.669,22.617H979.875z"/>
</svg>
