<?xml version="1.0" encoding="utf-8"?>
<!-- Generator: Adobe Illustrator 16.0.0, SVG Export Plug-In . SVG Version: 6.00 Build 0)  -->
<!DOCTYPE svg PUBLIC "-//W3C//DTD SVG 1.1//EN" "http://www.w3.org/Graphics/SVG/1.1/DTD/svg11.dtd">
<svg version="1.1" id="Layer_1" xmlns="http://www.w3.org/2000/svg" xmlns:xlink="http://www.w3.org/1999/xlink" x="0px" y="0px"
	 width="500px" height="350px" viewBox="0 0 500 350" enable-background="new 0 0 500 350" xml:space="preserve">
<path id="body" fill="#C1DBD7" d="M186.575,335.769c3.938-10.601,1.574-54.762,2.665-81.415c1.212-28.896,3.028-57.367,8.42-86.626
	c7.633,8.966,13.146,20.536,19.445,30.592s23.262,37.376,27.684,26.957c3.393-7.996-26.835-57.064-38.951-76.509
	c-3.755-5.997-4.18-7.693-11.146-8.723c-6.179-0.909-28.169-0.727-30.229-3.089c-2.423-2.908-1.999-11.994-1.999-11.994h-10.298
	c0,0-0.424,7.572-1.999,11.207c-0.97,2.181-26.351,3.393-31.985,3.695c-8.784,0.424-10.843,4.725-16.356,11.57
	c-14.417,17.87-16.901,18.658-31.318,36.528c-8.784,10.782-28.35,30.53-19.082,37.315c9.269,6.784,42.707-42.404,58.094-57.549
	c12.358,52.157,17.567,155.199,10.177,160.166c-30.894,20.718,4.846,20.839,19.627,4.726c6.663-7.209-2.181-69.846,2.726-71.845
	c2.847-1.151,24.776-0.484,26.048,0.484c3.756,2.969,3.211,68.513-3.271,72.208C135.993,350.308,180.638,351.822,186.575,335.769z"
	/>
<path id="face" fill="#C1DBD7" d="M106.007,62.808c-2.786,17.81-2.968,41.011,12.479,53.55c7.814,6.36,21.323,8.359,31.077,9.329
	c18.839,1.817,40.223-0.727,51.066-18.476c4.301-7.027,6.239-15.508,7.329-23.867c0.485-3.877,0.849-7.693,1.091-11.328"/>
<path fill="#F5A84A" d="M155.983,237.089c-0.182,0-34.65-1.515-36.649-0.606c-3.756,1.575-1.575,1.575-1.514,2.787
	c0.242,11.994,3.029,39.98,2.544,44.948c-0.242,2.362,20.112,2.786,22.111,0.484c0.667-0.727,0.242-7.936,0.303-13.933
	c0-1.575,0.364-4.664,0.424-8.662c5.754-0.121,5.754-0.121,11.509-0.304c1.817-0.061,11.631,0.546,11.631,0.546
	s-0.363,9.146-0.363,10.479c-0.182,17.386,0.121-11.025-0.061,6.36c0,2.484,0.182,5.452,2.241,6.785
	c1.212,0.787,2.727,0.787,4.18,0.787c3.998,0,7.996-0.061,11.994-0.061c1.151,0,3.877-0.182,4.665-0.969
	c0.787-0.788,1.029-2.06,1.029-3.15c0.849-26.048,0.121-12.115,0.97-38.163c0.061-1.938,0.545-6.906-0.849-8.239
	c-1.029-1.029-3.028,1.394-4.482,1.333C174.641,237.331,172.278,236.119,155.983,237.089z"/>
<path fill="#157270" d="M83.169,173.119c1.393,2.423,6.239,11.328,12.721,10.177c1.333-0.242,8.481-8.238,10.48-10.177
	c3.816,20.899,9.753,61.122,11.449,67.059c2.241,7.633,66.513,6.543,73.48-0.908c4.664-4.968,3.211-46.281,6.058-68.331
	c4.18,5.028,7.088,12.176,11.934,15.326c1.212,0.787,12.176-9.147,13.63-12.055c0.909-1.878-2.544-4.846-5.634-9.692
	c-2.302-3.574-11.752-19.809-15.387-21.868c-8.783-4.907-30.651-5.331-32.954-6.3c-1.514-0.666-4.24,7.148-12.418,6.361
	c-5.815-0.545-6.179-7.087-9.753-6.603c-11.752,1.515-31.016,2.605-35.68,5.694c-7.754,5.088-7.814,5.27-13.933,12.297
	C97.042,154.037,81.716,170.696,83.169,173.119z"/>
<g>
	<path display="none" fill="#157270" d="M139.082,172.332c0.182,0.061,0.303,0.061,0.485,0.121c0,0.364,0,0.727,0,1.09
		c0,3.15-1.09,3.816-4.119,2.545c-0.424-0.182-0.969-0.182-1.212-0.485c-0.484-0.667-1.333-1.636-1.151-2.181
		c0.364-1.03,1.272-2.181,2.666-1.514c1.514,0.788,1.454-0.061,1.575-1.151c0.787-4.907,1.696-9.753,2.544-14.66
		c0.848-4.725,3.089-9.39,0.606-14.236c-0.242-0.424-0.182-1.03-0.121-1.515c0.061-1.09-0.485-1.211-1.394-1.03
		c-1.817,0.303-3.635,0.424-5.391,0.848c-1.817,0.424-3.756,0.788-5.331,1.757c-0.909,0.545-1.393,0.909-2.423,0.545
		c-1.878-0.545-3.938,0.424-4.301,1.877c-1.03,3.756-2.181,7.451-1.878,11.51c0.122,1.757-0.484,3.635-0.545,5.452
		c-0.242,5.997-0.303,11.994-0.667,17.931c-0.242,3.756-0.909,7.451-1.454,11.146c-0.485,3.21-1.757,6.481-1.515,9.632
		c0.424,5.513,1.757,10.964,2.787,16.416c0.788,4.119,1.636,8.238,2.605,12.358c0.182,0.848,0.969,2.181,1.514,2.181
		c1.817,0.121,3.635-0.242,5.452-0.425c1.151-0.121,1.757-0.727,1.817-1.999c0.303-4.059,0.727-8.178,1.09-12.236
		c0.121-1.515,0.605-2.423,2.423-2.726c9.511-1.696,19.143-2.423,28.774-2.605c2.726-0.061,5.392-0.242,8.117-0.363
		c1.454-0.061,2.241,0.484,1.757,2.12c-0.363,1.333-0.605,2.666-0.908,4.059c-0.849,3.998-0.849,7.936,0.787,11.812
		c0.484,1.151,1.029,1.515,2.362,1.03c1.636-0.545,3.393-0.848,5.149-1.091c4.846-0.727,6.481-3.271,5.088-7.936
		c-0.303-1.09-0.545-1.938,1.091-2.241c0.484-0.061,1.09-1.029,1.212-1.696c1.09-4.906,2.181-9.813,3.089-14.78
		c0.303-1.575,0.242-3.332,0.061-4.907c-0.424-3.331-1.333-6.603-1.636-9.935c-0.182-2.12-0.969-4.543,1.151-6.36
		c0.242-0.182,0.061-0.848,0.121-1.272c0.121-6.663-0.061-13.327,0.484-19.99c0.363-4.543,1.394-9.086,2.727-13.448
		c1.211-4.119,1.514-4.119-2.848-5.028c-0.061,0-0.121-0.061-0.242-0.061c-4.422-0.485-8.845-0.969-13.267-1.393
		c-0.303,0-0.969,0.787-0.908,0.969c1.211,2.605-0.363,4.483-1.575,6.421c-0.727,1.151-1.878,2.363-1.878,3.574
		c0.061,3.574,0.484,7.148,1.03,10.662c0.545,3.513,1.453,6.966,2.181,10.479c0.484,2.544,0,5.271,2.12,7.391
		c0.242,0.242-0.242,1.575-0.728,1.999c-0.666,0.545-1.696,0.787-2.544,0.787c-0.303,0-0.666-1.271-0.727-1.998
		c-0.364-3.817-0.485-7.694-1.03-11.45c-0.727-5.028-1.938-9.995-2.726-15.023c-0.242-1.757-0.849-2.242-2.484-1.999
		c-3.513,0.545-7.087,0.969-10.601,1.514c-3.393,0.485-6.724,0.545-9.511-1.938c-0.363-0.303-0.909-0.424-1.393-0.667
		c-1.09-0.666-1.636-0.182-1.817,0.909c-0.303,1.272-0.606,2.544-0.848,3.816C141.384,160.64,140.233,166.456,139.082,172.332z
		 M164.948,134.289c4.544,2.666,10.057,4.846,15.084,3.21c5.028-1.696,7.996-9.026,3.998-12.539
		c1.757-2.544,5.815-1.696,8.299,0.182c2.424,1.878,4.423,4.604,7.391,5.452c2.424,0.667,5.028,0,7.451,0.606
		c3.756,0.848,6.3,4.543,7.27,8.238c0.969,3.695,0.787,7.633,1.15,11.449c2.182,22.959,23.262,39.618,30.168,61.667
		c1.029,3.15,1.696,6.664,0.605,9.813c-1.09,3.15-4.543,5.694-7.693,4.665c-2.06-0.667-3.514-2.545-4.725-4.302
		c-8.784-12.6-16.478-25.927-22.959-39.859c-2.665,6.058-2.665,12.964-2.968,19.566c-0.304,6.603-0.97,13.63-4.726,19.082
		s-11.57,8.723-17.325,5.331c1.757,2.544,0.546,6.3-1.878,8.299c-2.362,1.999-5.573,2.665-8.662,3.149
		c-17.204,2.969-34.771,3.877-52.218,2.666c0.061,8.723,0.061,17.386,0.121,26.108c0.061,15.205,0.121,30.35,0.182,45.555
		c0,3.149,0.061,6.481,1.817,9.086c1.696,2.605,5.694,3.998,8.057,1.878c1.575-1.394,1.817-3.756,1.938-5.876
		c1.212-20.717,2.423-41.495,3.695-62.213c9.329,0.484,18.658,0.97,27.987,1.454c1.574,0.061,3.21,0.182,4.482,1.091
		c2.241,1.635,2.241,4.967,2.06,7.754c-1.333,16.113-2.665,32.227-3.998,48.34c-0.242,2.969-0.363,6.301,1.575,8.542
		c2.907,3.392,8.904,1.999,11.631-1.636c2.726-3.574,3.028-8.359,3.21-12.843c1.091-23.141,2.181-46.28,3.271-69.421
		c0.061,27.623-0.242,55.246-0.849,82.869c-0.121,6.058-0.363,12.357-3.331,17.628c-2.969,5.271-9.511,9.087-15.145,6.785
		c-4.543-1.817-6.967-7.027-7.148-11.994c-0.182-4.907,1.454-9.692,2.787-14.418c4.725-16.658,6.421-34.165,4.906-51.43
		c-0.242-2.545-0.605-5.21-2.302-7.088c-1.938-2.181-5.149-2.665-8.057-2.968c-6.058-0.667-13.206-0.97-17.144,3.695
		c-2.665,3.149-2.968,7.632-3.15,11.812c-0.484,12.902-1.03,25.806-1.514,38.769c-0.182,4.786-0.788,10.238-4.786,12.903
		c-2.181,1.454-4.967,1.636-7.451,2.544c-2.484,0.909-4.967,3.15-4.483,5.694c0.545,3.029,4.968,3.938,7.572,2.241
		c2.605-1.695,3.816-4.846,4.786-7.754c0.667,6.543-1.575,14.055-7.451,17.083c-5.876,3.029-14.841-1.757-13.63-8.299
		c0.667-3.756,4.059-6.3,6.179-9.45c3.332-4.967,3.513-11.328,3.453-17.325c-0.424-47.25-5.452-94.439-15.144-140.721
		c-13.509,16.174-27.078,32.288-40.587,48.462c-2.362,2.847-4.846,5.755-8.238,7.209c-4.301,1.817-12.116,0.061-9.935-5.937
		c1.999-5.331,5.391-10.42,8.723-14.963c6.846-9.632,15.145-18.112,23.201-26.654c7.391-7.814,14.66-15.811,20.657-24.836
		c4.12-6.239,7.633-13.084,12.903-18.416c5.27-5.331,12.903-9.147,20.232-7.451c-4.482,1.454-7.632,6.24-7.148,10.965
		c0.848-2.181,2.787-3.877,5.028-4.483c-1.211,1.09-1.999,2.605-2.181,4.24c4.362,0.969,9.147,1.212,13.206-0.666 M68.268,196.502
		c1.272,3.15,2.483,6.179,3.816,9.208c0.061,0.182,0.969,0.303,1.211,0.061c1.393-1.151,2.847-2.302,4.059-3.635
		c2.12-2.302,4.119-4.726,6.118-7.148c2.726-3.331,5.513-6.663,8.178-10.116c2.544-3.332,4.846-6.906,7.511-10.177
		c2.06-2.605,4.059-5.634,6.785-7.088c2.968-1.575,2.544-3.271,1.999-5.512c-0.121-0.485-0.061-1.03-0.061-1.515
		c-0.121-2.787-0.303-5.573-0.484-8.299c0-0.364-0.121-0.788-0.303-0.969c-0.182-0.121-0.727,0.061-0.909,0.242
		c-2.302,2.302-4.543,4.665-6.785,7.027c-2.181,2.302-4.241,4.604-6.421,6.845c-2.544,2.605-5.391,4.907-7.633,7.754
		c-5.512,6.967-10.722,14.175-16.053,21.263C68.812,195.048,68.631,195.836,68.268,196.502z M157.982,231.697
		c2.06-0.242,5.027-0.484,7.996-0.848c3.09-0.425,3.211-0.485,2.483-3.393c-0.908-3.756-0.727-7.512,0-11.268
		c0.484-2.665,0.182-3.15-2.604-3.028c-3.211,0.061-6.421,0.182-9.632,0.484c-6.846,0.666-13.63,1.393-20.475,2.181
		c-0.485,0.061-1.272,0.424-1.393,0.787c-0.727,2.605-2.363,4.968-1.938,7.875c0.182,1.212-0.122,2.484-0.364,3.695
		c-0.363,1.575,0.182,2.12,1.757,2.06c1.333-0.061,2.666-0.061,3.938,0.061C144.231,230.668,150.652,231.152,157.982,231.697z
		 M203.96,159.368c0,1.999,0.121,3.816,1.878,5.149c0.364,0.303,0.425,1.03,0.606,1.575c0.363,1.09,0.605,2.241,1.15,3.271
		c1.999,4.059,4.059,8.117,6.118,12.176c3.816,7.451,7.633,14.842,11.389,22.293c0.606,1.211,1.454,1.696,2.605,0.787
		c2.181-1.696,4.361-3.393,6.421-5.21c0.363-0.303,0.605-1.211,0.424-1.635c-0.727-1.636-1.636-3.271-2.544-4.847
		c-2.969-5.452-6.058-10.904-9.026-16.355c-1.817-3.393-3.514-6.906-5.331-10.298c-3.573-6.482-7.147-12.963-10.782-19.445
		c-0.182-0.363-0.424-0.727-0.605-1.09c-0.242,0.424-0.606,0.788-0.667,1.211C204.99,151.069,204.506,155.188,203.96,159.368z
		 M152.894,239.027c0,0.182,0.061,0.303,0.061,0.484c6.179-0.908,12.419-1.817,18.598-2.665c1.271-0.182,1.394-0.485,0.787-1.696
		c-1.09-2.181-2.786-2.302-4.906-2.12c-4.483,0.363-9.026,0.787-13.569,0.666c-6.967-0.182-13.994-0.787-20.96-1.272
		c-1.393-0.121-1.999,0.485-2.241,1.757c-0.061,0.485-0.243,0.97-0.424,1.454c-1.09,3.15-1.03,3.15,2.242,3.393
		c0.121,0,0.303,0,0.424,0C139.627,239.027,146.291,239.027,152.894,239.027z M186.575,323.411c-0.97,0.605-2.242,1.878-3.756,2.181
		c-3.574,0.788-7.27,1.272-10.965,1.454c-1.757,0.121-3.09,0.121-3.816,1.999c-0.908,2.241-1.938,4.361-2.969,6.542
		c-0.666,1.394-0.121,1.696,1.272,1.817c5.028,0.303,9.995,0.728,15.023,1.272c1.575,0.182,2.241-0.242,2.544-1.817
		C184.758,332.195,185.787,327.53,186.575,323.411z M149.077,138.651c0,0.182,0,0.424,0,0.605c-0.787-0.061-1.574-0.182-2.423-0.242
		c-0.424,0-0.788,0.121-1.211,0.182c0.182,0.364,0.302,0.788,0.606,1.09c2.12,2.242,4.18,4.483,6.36,6.664
		c0.363,0.364,1.03,0.485,1.575,0.667c2.06,0.909,3.938-0.061,5.937-0.424c3.635-0.666,7.026-1.514,7.391-6.118
		c0-0.061,0.061-0.121,0.061-0.182c0.908-2.241,0.908-2.181-1.636-2.181C160.163,138.711,154.59,138.651,149.077,138.651z
		 M245.456,220.066c-0.909-3.211-1.878-6.36-2.848-9.571c-0.061-0.242-0.787-0.484-0.969-0.363c-2.241,1.636-4.847,1.454-7.33,1.696
		c-1.757,0.182-2.423,1.15-1.696,2.726c1.575,3.332,3.271,6.604,5.089,9.874c0.303,0.485,1.211,0.909,1.817,0.97
		C242.124,225.337,245.396,223.701,245.456,220.066z M152.47,137.136c2.181,0.121,6.906-0.242,9.813-0.182
		c1.091,0,0.849-0.727,0.666-3.271c-0.182-2.726,0.122-4.12-0.303-6.482c-0.182-1.09-2.968-0.545-3.998-0.606
		c-1.757-0.061-3.453-0.363-5.209-0.424c-0.364,0-1.03,0.484-1.151,0.909c-0.666,2.604-1.212,5.209-1.878,7.814
		C149.926,136.652,150.289,137.015,152.47,137.136z M51.548,218.128c-0.667,2.423,1.756,2.483,2.604,3.695
		c0.788,1.212,1.878,1.272,2.847,0.666c1.03-0.666,1.999-1.575,2.726-2.604c1.09-1.515,1.817-3.271,2.908-4.725
		c0.363-0.546,1.272-0.788,1.999-1.03c0.545-0.242,1.151-0.303,1.696-0.424c-0.545-0.545-1.03-1.212-1.636-1.696
		c-0.788-0.605-1.696-1.091-2.666-1.515c-0.363-0.182-0.909-0.242-1.272-0.061c-1.515,0.728-2.968,1.515-4.422,2.241
		C53.911,213.706,52.093,215.463,51.548,218.128z M196.267,177.178c0.122,0,0.243,0.061,0.364,0.061c0,0.242-0.061,0.424,0,0.666
		c0.061,0.484,0.242,0.909,0.363,1.333c0.303-0.363,0.727-0.727,0.848-1.151c0.788-2.241,1.878-4.482,2.241-6.845
		c0.909-5.149,1.575-10.359,2.182-15.508c0.424-3.271,0.666-6.542,0.908-9.813c0.061-0.424-0.242-0.848-0.424-1.333
		c-0.363,0.363-0.728,0.666-1.03,1.03c-0.182,0.303-0.242,0.666-0.303,1.03c-0.545,2.787-1.029,5.512-1.515,8.299
		C198.751,162.336,197.539,169.788,196.267,177.178z M204.143,177.723c-0.304-1.029-0.728-1.938-0.728-2.907
		c0-0.545,0.605-1.151,0.909-1.696c0.363,0.424,0.969,0.788,1.09,1.272c0.303,1.212,0.424,2.423,0.484,3.695
		c0,0.546-0.303,1.455-0.605,1.516c-2.06,0.242-0.848,1.332-0.545,2.059c0.303,0.788,0.908,1.515,1.15,2.363
		c0.183,0.545,0,1.211,0,1.817c-0.605-0.243-1.514-0.364-1.695-0.788c-0.97-1.878-1.757-3.816-2.605-5.755
		c-0.242-0.545-0.545-1.091-0.848-1.636c-0.182,0.727-0.484,1.394-0.545,2.121c-0.062,0.424,0.121,0.848,0.242,1.271
		c1.09,2.848,2.12,5.694,3.331,8.541c0.425,1.03,1.151,1.999,1.757,2.969c0.303-1.151,0.606-2.241,0.909-3.393
		c0.969-3.816,0.061-7.996,2.12-11.631c0.182-0.303-0.061-0.848-0.242-1.211c-1.212-2.544-2.484-5.089-3.816-7.572
		c-0.121-0.303-0.485-0.485-0.728-0.667c-0.182,0.242-0.484,0.545-0.605,0.848C201.961,171.908,200.932,174.997,204.143,177.723z
		 M187.726,124.354c2.666,3.574,3.514,8.238,2.06,11.328c-1.211,2.604-1.211,2.604,1.575,3.513c0.303,0.061,0.545,0.242,0.848,0.303
		c3.514,0.969,3.635,0.969,3.756-2.544c0.121-3.089-0.182-6.118-2.786-8.299C191.481,127.202,189.664,125.869,187.726,124.354z
		 M170.34,339.403c0,0.061-0.061,0.182-0.061,0.242c-1.817,0.121-3.695,0-5.452,0.364c-0.848,0.121-1.514,1.09-2.302,1.635
		c0.788,0.546,1.575,1.515,2.423,1.575c3.877,0.303,7.693,0.424,11.57,0.424c1.454,0,2.908-0.424,4.302-0.787
		c0.363-0.121,0.666-0.727,0.848-1.151c0.061-0.061-0.363-0.605-0.605-0.605C177.488,340.494,173.914,339.949,170.34,339.403z
		 M121.636,344.795c1.757-0.545,3.453-0.787,4.907-1.575c0.727-0.363,1.03-1.575,1.514-2.423c-0.667-0.182-1.393-0.545-2.06-0.545
		c-3.271,0.061-6.542,0.242-9.813,0.424c-0.606,0.061-1.211,0.303-1.757,0.484c0.424,0.605,0.727,1.636,1.272,1.817
		C117.517,343.765,119.576,344.25,121.636,344.795z M232.492,208.436c0,0,0.484,0.121,0.545,0c1.091-1.878,3.211-1.696,4.847-2.483
		c0.303-0.182,0.727-0.728,0.666-0.909c-0.484-1.09-0.908-2.362-1.757-3.089c-0.363-0.303-1.817,0.424-2.604,0.969
		c-1.272,0.849-2.302,2.06-3.574,2.848c-2.483,1.575-2.544,1.515-1.272,4.24c0.183,0.363,0.667,0.605,0.97,0.908
		c0.242-0.363,0.727-0.787,0.727-1.15C231.038,208.799,230.856,207.951,232.492,208.436z M202.265,215.523
		c-0.667-1.636-1.454-3.332-2.06-5.028c-1.03-2.907-1.938-5.815-2.969-8.662c-0.121-0.425-0.605-0.667-0.908-1.03
		c-0.183,0.424-0.425,0.849-0.485,1.272c-0.363,4.059,1.272,7.693,2.908,11.268c0.484,1.029,1.211,1.999,1.878,2.907
		c0.182,0.303,0.727,0.363,1.09,0.484C201.84,216.432,202.021,216.068,202.265,215.523z M199.417,194.624
		c-0.303,0.121-0.545,0.182-0.848,0.303c0.424,0.909,0.848,1.817,1.271,2.727c0.121,0.303,0.242,0.666,0.242,0.969
		c-0.484,4.725,1.212,8.966,2.848,13.267c0.061,0.242,0.363,0.363,0.605,0.545c0.182-0.303,0.424-0.605,0.484-0.969
		c0.122-2.181,0.304-4.362,0.304-6.543c0-0.363-0.364-0.787-0.546-1.15c-0.666-1.091-1.393-2.181-1.938-3.332
		C200.992,198.501,200.205,196.562,199.417,194.624z M70.569,207.467c-1.333-2.908-2.483-5.452-3.695-7.936
		c-0.121-0.183-1.03-0.304-1.211-0.122c-0.969,1.272-2.302,2.545-1.211,4.423c0.848,1.515,1.575,3.089,2.544,4.543
		c0.243,0.363,1.151,0.545,1.575,0.424C69.297,208.557,69.903,207.951,70.569,207.467z M190.937,206.497
		c-0.303,0.788-0.667,1.272-0.667,1.757c0.364,5.028,2.121,9.511,5.331,13.448c0.242,0.242,0.728,0.303,1.091,0.424
		c0.121-0.363,0.303-0.787,0.303-1.15c0-0.425-0.242-0.849-0.424-1.212c-1.272-2.969-2.545-5.937-3.756-8.845
		c-0.424-1.029-0.788-2.06-1.212-3.028C191.481,207.467,191.3,207.163,190.937,206.497z M160.647,149.434
		c0.061,0.121,0.061,0.242,0.121,0.424c1.999-0.242,3.998-0.484,5.997-0.667c3.816-0.363,4.907-3.392,6.119-6.239
		c0.182-0.424,0.061-1.211-0.243-1.636c-0.363-0.545-0.969-1.09-1.574-1.272c-0.304-0.061-0.97,0.727-1.212,1.211
		c-0.545,1.272-0.909,2.605-1.333,3.938c-0.545,1.999-1.817,3.029-3.877,3.332C163.313,148.707,161.98,149.13,160.647,149.434z
		 M205.414,198.077c-0.121-0.424-0.121-0.849-0.242-1.151c-1.454-2.968-2.968-5.937-4.361-8.965
		c-0.667-1.394-1.03-2.848-1.575-4.302c-0.121-0.303-0.605-0.545-0.908-0.787c-0.183,0.303-0.606,0.605-0.606,0.848
		c0.182,1.091,0.242,2.303,0.728,3.332c1.635,3.816,3.392,7.572,5.088,11.328c0.303,0.727,0.667,1.394,0.97,2.12
		C204.748,199.713,205.111,198.864,205.414,198.077z M178.578,235.938c0.304,0,0.606,0,0.849,0c2.968-0.061,3.756-0.848,3.332-4.059
		c-0.364-2.665-2.242-0.605-3.393-0.787c-0.424-0.061-0.849,0.121-1.272,0.182c-2.181,0.424-2.544,1.029-2.12,3.998
		c0.242,1.817,1.636,0.242,2.362,0.666C178.396,235.998,178.457,235.938,178.578,235.938z M124.543,137.5
		c-0.182-0.909-0.363-2.362-0.787-3.755c-0.121-0.424-1.03-1.091-1.212-1.03c-2.06,1.03-4.059,2.12-6.058,3.271
		c-0.121,0.061,0,1.03,0.121,1.03c1.636,0.242,3.271,0.606,4.907,0.484c1.394-0.061,2.302-0.121,2.242,1.636
		c0,0.242,0.182,0.485,0.303,0.727c0.182-0.242,0.424-0.545,0.484-0.788C124.604,138.772,124.543,138.348,124.543,137.5z
		 M152.772,150.948c0.121-0.061,0.484-0.121,0.788-0.242c-0.243-0.303-0.425-0.727-0.728-0.909
		c-2.847-1.393-5.088-3.332-6.663-6.058c-0.364-0.606-0.909-1.151-1.454-1.636c-0.363-0.303-0.848-0.424-1.333-0.605
		c-0.061,0.545-0.303,1.09-0.182,1.575C144.049,147.01,148.229,150.463,152.772,150.948z M128.118,233.454
		c-0.363-0.121-0.848-0.424-1.272-0.424c-1.09,0-2.181,0.121-3.21,0.303c-0.545,0.061-1.03,0.363-1.515,0.545
		c0.303,0.363,0.667,0.728,0.909,1.151c0.303,0.484,0.363,1.211,0.727,1.453c1.03,0.485,2.181,0.788,3.271,1.151
		C127.33,236.301,127.694,235.029,128.118,233.454z M203.415,140.468c-0.061,1.091,2.241,3.029,3.211,2.605
		c0.182-0.061,0.303-0.667,0.182-0.788c-1.938-2.847-4.361-5.209-7.451-6.785c-0.182-0.121-0.727,0.061-0.727,0.122
		c-0.061,0.908-0.121,1.877-0.121,2.786c0.545,0,1.15,0.121,1.696-0.061C202.144,137.863,203.476,138.772,203.415,140.468z
		 M214.259,142.406c0.121-0.061,0.303-0.121,0.424-0.182c-0.666-1.817-1.333-3.634-2.12-5.391c-0.121-0.303-0.728-0.364-1.091-0.606
		c-0.061,0.182-0.303,0.424-0.242,0.545c0.849,1.938-0.727,4.361,1.151,6.118c0.545,0.545,0.908,1.333,1.332,1.999
		C213.956,144.042,214.077,143.254,214.259,142.406z M109.521,152.705c0.061,0,0.121,0,0.121,0c0,1.09-0.061,2.181,0,3.271
		c0,0.303,0.242,0.606,0.424,0.909c0.182-0.303,0.424-0.545,0.484-0.848c0.485-2.362,0.969-4.725,1.333-7.087
		c0.061-0.424-0.242-0.969-0.363-1.454c-0.545,0.363-1.393,0.605-1.514,1.09C109.702,149.918,109.642,151.372,109.521,152.705z
		 M60.635,207.406c-0.363-1.03-0.667-1.757-0.909-2.424c-0.606,0.425-1.272,0.788-1.817,1.333c-0.424,0.363-0.788,0.848-1.09,1.333
		c-0.363,0.605-0.667,1.211-1.03,1.878c0.727-0.182,1.393-0.364,2.12-0.546c0.485-0.121,1.03-0.182,1.454-0.424
		C59.847,208.254,60.21,207.83,60.635,207.406z M189.301,215.523c-0.121,3.331,1.272,5.694,2.726,8.057
		c0.121,0.182,0.728,0.121,1.151,0.121c0.061-0.363,0.242-0.787,0.061-1.091C192.026,220.369,190.755,218.188,189.301,215.523z
		 M114.609,140.104c-0.484-0.424-0.666-0.605-0.848-0.788c-0.787,1.09-1.575,2.181-2.241,3.271
		c-0.061,0.061,0.485,0.484,0.788,0.787C113.034,142.346,113.821,141.255,114.609,140.104z M195.298,172.756
		c-0.424-0.848-0.605-1.333-0.848-1.817c-0.606,0.848-1.272,1.696-1.817,2.604c-0.061,0.061,1.029,0.969,1.09,0.909
		C194.329,173.967,194.813,173.361,195.298,172.756z M115.094,180.086c-0.242-1.091-0.424-1.818-0.545-2.545
		c-0.303,0.727-0.848,1.454-0.909,2.242c-0.061,1.029,0.243,2.119,0.424,3.149C114.427,181.842,114.791,180.873,115.094,180.086z
		 M114.125,164.457c-0.182,0-0.424-0.061-0.606-0.061c-0.242,2.181-0.484,4.362-0.727,6.542c0.243,0,0.485,0.061,0.788,0.061
		C113.761,168.879,113.943,166.637,114.125,164.457z M196.328,196.502c-0.425-0.666-0.728-1.212-1.091-1.757
		c-0.484,0.424-0.97,0.909-1.515,1.333c0.545,0.545,1.151,1.029,1.696,1.575C195.722,197.289,195.964,196.986,196.328,196.502z"/>
	<path fill="#157270" d="M129.814,94.49c0.061,0.182,0.061,0.424,0.061,0.667c0,1.272-0.667,2.544-1.575,3.393
		c-0.848,0.787-1.938,1.333-3.029,1.393c-3.392,0.182-4.967-4.059-3.513-6.724c0.909-1.636,3.029-2.605,4.846-2.181
		C128.178,91.34,129.511,92.794,129.814,94.49z"/>
	<path fill="#157270" d="M183.909,99.821c-2.06-0.364-3.756-2.06-2.726-4.604c0.424-1.09,1.332-2.06,2.241-2.726
		c0.727-0.484,1.636-0.848,2.544-0.666c0.97,0.121,1.817,0.787,2.423,1.514c1.333,1.636,1.151,3.938-0.424,5.392
		C186.938,99.76,185.303,100.063,183.909,99.821z"/>
</g>
<path fill="#157270" d="M163.132,70.32c-4.665-3.938-13.873-4.12-19.204-1.333c-1.696,0.909-2.908,2.423-3.634,4.241
	c-1.212,3.21-0.788,6.603-0.303,9.935c-7.208-1.636-13.872-5.634-18.718-11.268c-1.454-1.696-3.695-4.301-6.239-3.453
	c-2.302,0.787-3.574,4.301-4.241,6.421c-3.21,9.692-2.241,19.93-1.514,29.925c-1.03-2.363-1.515-3.938-2.181-5.876
	c-0.788-2.362-1.394-5.271-1.757-7.754c-0.788-5.028-1.151-10.056-0.969-15.205c0.363-9.026,2.241-18.597,7.33-26.291
	c0.667-0.969,1.333-1.877,2.06-2.786c9.208-10.783,22.717-17.022,36.407-20.778s27.865-5.452,41.616-8.965
	c-3.089,9.269,0.182,19.385,4.604,28.108c4.422,8.723,10.056,17.022,11.934,26.593c2.241,11.268,0.121,19.445-6.543,33.257
	c2.424-7.572,1.394-18.173-0.484-21.747c-1.938-3.756-3.756-6.058-7.391-8.238c-2.12-1.272-3.695-1.938-6.3-1.575
	c-4.24,0.545-5.331,6.603-5.513,10.056c0,0.606,0,3.332,0.242,3.877C182.395,87.402,166.16,72.864,163.132,70.32z"/>
<path fill="#2CBBB6" d="M122.242,319.171l19.385,5.997l0.545,7.33c0.121,2.241-16.417,9.207-22.353,12.115
	c-7.572,3.635-17.81-0.061-11.934-9.39C110.066,331.831,120.303,324.077,122.242,319.171z"/>
<path fill="#2CBBB6" d="M167.856,322.987l19.264,5.392v8.42c0,0-4.907,5.815-11.328,8.541c-12.236,5.271-25.685,2.181-19.688-6.3
	C158.346,335.769,165.979,327.894,167.856,322.987z"/>
<path fill="#157270" d="M120.97,326.864c0.969-0.121,5.27-0.788,7.33,4.482"/>
<path fill="#157270" d="M117.517,329.287c0.969-0.121,5.271-0.787,7.33,4.482"/>
<path fill="#157270" d="M167.433,330.741c0.969-0.303,5.027-1.757,7.996,3.028"/>
<path fill="#157270" d="M164.464,333.709c0.97-0.303,5.089-1.696,7.996,3.15"/>
<path opacity="0.47" fill="#EF695B" enable-background="new    " d="M116.547,103.152c-2.362,0-4.18,0.424-4.18,1.999
	c0,1.575,1.999,2.544,4.18,2.544c2.181,0,4.907-0.848,4.543-2.302C120.728,104,118.91,103.152,116.547,103.152z"/>
<path opacity="0.47" fill="#EF695B" enable-background="new    " d="M194.632,102.547c-2.06,0-3.635,0.484-3.635,2.362
	s1.757,2.968,3.635,2.968s4.301-1.03,3.998-2.666C198.267,103.577,196.691,102.547,194.632,102.547z"/>
<g>
	<g>
		<path fill="#157270" d="M155.135,93.763c0,1.393,0.243,2.968,0,4.301c0.122,0.727-0.182,1.272-0.908,1.636
			c-0.363-0.061-0.666-0.061-1.03,0c-0.242,0.061-0.484,0.121-0.666,0.303c-0.969,0.788-0.666,2.362,0.363,2.908
			c0.788,0.424,1.454-0.788,0.667-1.151c-0.182-0.606-0.061-0.848,0.363-0.727c0.242,0,0.484,0.061,0.787,0.061
			c0.242,0,0.484-0.061,0.728-0.182c0.424-0.242,0.727-0.667,0.908-1.151c0.545-1.757,0.121-4.18,0.061-5.997
			C156.528,92.854,155.135,92.854,155.135,93.763L155.135,93.763z"/>
	</g>
</g>
<g>
	<g>
		<path fill="#157270" d="M145.866,108.786c1.213,6.664,16.235,5.694,18.779,0.667c0.363-0.788-0.787-1.454-1.15-0.667
			c-1.938,3.877-15.326,5.149-16.295-0.303C147.018,107.575,145.685,107.938,145.866,108.786L145.866,108.786z"/>
	</g>
</g>
<path id="body_1_" fill="#C1DBD7" d="M377.312,337.835c3.938-10.601,1.574-54.762,2.665-81.415
	c1.212-28.896,3.028-57.367,8.42-86.626c7.633,8.966,13.146,20.536,19.445,30.592s23.262,37.376,27.684,26.957
	c3.393-7.996-26.835-57.064-38.951-76.509c-3.755-5.997-4.18-7.693-11.146-8.723c-6.179-0.909-28.169-0.727-30.229-3.089
	c-2.423-2.908-1.999-11.994-1.999-11.994h-10.298c0,0-0.424,7.572-1.999,11.207c-0.97,2.181-26.351,3.393-31.985,3.695
	c-8.783,0.424-10.843,4.725-16.355,11.57c-14.418,17.87-16.9,18.658-31.318,36.528c-8.783,10.782-28.35,30.53-19.082,37.315
	c9.269,6.784,42.707-42.404,58.094-57.549c12.357,52.157,17.567,155.199,10.177,160.166c-30.894,20.718,4.847,20.839,19.628,4.726
	c6.662-7.209-2.182-69.846,2.725-71.845c2.848-1.151,24.776-0.484,26.049,0.484c3.756,2.969,3.211,68.513-3.271,72.208
	C326.729,352.374,371.374,353.889,377.312,337.835z"/>
<path id="face_1_" fill="#C1DBD7" d="M296.743,64.875c-2.786,17.81-2.969,41.011,12.479,53.55c7.814,6.36,21.324,8.359,31.077,9.329
	c18.839,1.817,40.223-0.727,51.066-18.476c4.301-7.027,6.239-15.508,7.329-23.867c0.485-3.877,0.849-7.693,1.091-11.328"/>
<path fill="#F5A84A" d="M346.72,239.155c-0.182,0-34.65-1.515-36.649-0.606c-3.756,1.575-1.575,1.575-1.515,2.787
	c0.242,11.994,3.029,39.98,2.545,44.948c-0.242,2.362,20.111,2.786,22.11,0.484c0.667-0.727,0.242-7.936,0.303-13.933
	c0-1.575,0.364-4.664,0.425-8.662c5.754-0.121,5.754-0.121,11.509-0.304c1.817-0.061,11.631,0.546,11.631,0.546
	s-0.363,9.146-0.363,10.479c-0.182,17.386,0.121-11.025-0.061,6.36c0,2.484,0.182,5.452,2.241,6.785
	c1.212,0.787,2.727,0.787,4.18,0.787c3.998,0,7.996-0.061,11.994-0.061c1.151,0,3.877-0.182,4.665-0.969
	c0.787-0.788,1.029-2.06,1.029-3.15c0.849-26.048,0.121-12.115,0.97-38.163c0.061-1.938,0.545-6.906-0.849-8.239
	c-1.029-1.029-3.028,1.394-4.482,1.333C365.377,239.397,363.015,238.186,346.72,239.155z"/>
<path fill="#157270" d="M273.905,175.186c1.394,2.423,6.24,11.328,12.722,10.177c1.333-0.242,8.481-8.238,10.479-10.177
	c3.816,20.899,9.754,61.122,11.449,67.059c2.242,7.633,66.514,6.543,73.48-0.908c4.664-4.968,3.211-46.281,6.058-68.331
	c4.18,5.028,7.088,12.176,11.934,15.326c1.212,0.787,12.176-9.147,13.63-12.056c0.909-1.877-2.544-4.846-5.634-9.692
	c-2.302-3.574-11.752-19.809-15.387-21.868c-8.783-4.907-30.651-5.331-32.954-6.3c-1.514-0.666-4.24,7.148-12.418,6.361
	c-5.815-0.545-6.179-7.087-9.753-6.603c-11.752,1.515-31.016,2.605-35.68,5.694c-7.754,5.088-7.814,5.27-13.933,12.297
	C287.778,156.104,272.452,172.763,273.905,175.186z"/>
<g>
	<path display="none" fill="#157270" d="M329.818,174.398c0.183,0.061,0.304,0.061,0.485,0.121c0,0.364,0,0.727,0,1.09
		c0,3.15-1.091,3.816-4.119,2.545c-0.425-0.182-0.97-0.182-1.213-0.484c-0.484-0.667-1.332-1.637-1.15-2.182
		c0.363-1.03,1.272-2.181,2.666-1.514c1.514,0.788,1.453-0.061,1.574-1.151c0.787-4.907,1.696-9.753,2.545-14.66
		c0.848-4.725,3.089-9.39,0.605-14.236c-0.242-0.424-0.182-1.03-0.121-1.515c0.061-1.09-0.484-1.211-1.394-1.03
		c-1.817,0.303-3.635,0.424-5.392,0.848c-1.816,0.424-3.756,0.788-5.33,1.757c-0.909,0.545-1.394,0.909-2.424,0.545
		c-1.877-0.545-3.938,0.424-4.301,1.877c-1.029,3.756-2.181,7.451-1.878,11.51c0.122,1.757-0.484,3.635-0.545,5.452
		c-0.242,5.997-0.303,11.994-0.667,17.931c-0.242,3.756-0.908,7.451-1.453,11.146c-0.484,3.21-1.757,6.481-1.515,9.632
		c0.425,5.513,1.757,10.964,2.786,16.416c0.788,4.119,1.637,8.238,2.605,12.358c0.182,0.848,0.969,2.181,1.514,2.181
		c1.818,0.121,3.635-0.242,5.453-0.425c1.15-0.121,1.756-0.727,1.816-1.999c0.303-4.059,0.727-8.178,1.091-12.236
		c0.121-1.515,0.605-2.423,2.423-2.726c9.511-1.696,19.143-2.423,28.774-2.605c2.726-0.061,5.392-0.242,8.117-0.363
		c1.454-0.061,2.241,0.484,1.757,2.12c-0.363,1.333-0.605,2.666-0.908,4.059c-0.849,3.998-0.849,7.936,0.787,11.812
		c0.484,1.151,1.029,1.515,2.362,1.03c1.636-0.545,3.393-0.848,5.149-1.091c4.846-0.727,6.481-3.271,5.088-7.936
		c-0.303-1.09-0.545-1.938,1.091-2.241c0.484-0.061,1.09-1.029,1.212-1.696c1.09-4.906,2.181-9.813,3.089-14.78
		c0.303-1.575,0.242-3.332,0.061-4.907c-0.424-3.331-1.333-6.603-1.636-9.935c-0.182-2.12-0.969-4.543,1.151-6.36
		c0.242-0.182,0.061-0.848,0.121-1.272c0.121-6.663-0.061-13.327,0.484-19.99c0.363-4.543,1.394-9.086,2.727-13.448
		c1.211-4.119,1.514-4.119-2.848-5.028c-0.061,0-0.121-0.061-0.242-0.061c-4.422-0.485-8.845-0.969-13.267-1.393
		c-0.303,0-0.969,0.787-0.908,0.969c1.211,2.605-0.363,4.483-1.575,6.421c-0.727,1.151-1.878,2.363-1.878,3.574
		c0.061,3.574,0.484,7.148,1.03,10.662c0.545,3.513,1.453,6.966,2.181,10.479c0.484,2.544,0,5.271,2.12,7.391
		c0.242,0.242-0.242,1.575-0.728,1.999c-0.666,0.545-1.696,0.787-2.544,0.787c-0.303,0-0.666-1.271-0.727-1.998
		c-0.364-3.816-0.485-7.694-1.03-11.45c-0.727-5.028-1.938-9.995-2.726-15.023c-0.242-1.757-0.849-2.242-2.484-1.999
		c-3.513,0.545-7.087,0.969-10.601,1.514c-3.393,0.485-6.724,0.545-9.511-1.938c-0.363-0.303-0.909-0.424-1.394-0.667
		c-1.09-0.666-1.635-0.182-1.816,0.909c-0.303,1.272-0.606,2.544-0.849,3.816C332.12,162.707,330.97,168.522,329.818,174.398z
		 M355.685,136.355c4.544,2.666,10.057,4.846,15.084,3.21c5.028-1.696,7.996-9.026,3.998-12.539
		c1.757-2.544,5.815-1.696,8.299,0.182c2.424,1.878,4.423,4.604,7.391,5.452c2.424,0.667,5.028,0,7.451,0.606
		c3.756,0.848,6.3,4.543,7.27,8.238c0.969,3.695,0.787,7.633,1.15,11.449c2.182,22.959,23.262,39.618,30.168,61.667
		c1.029,3.15,1.696,6.664,0.605,9.813c-1.09,3.15-4.543,5.694-7.693,4.665c-2.06-0.667-3.514-2.545-4.725-4.302
		c-8.784-12.6-16.478-25.927-22.959-39.859c-2.665,6.058-2.665,12.964-2.968,19.566c-0.304,6.603-0.97,13.63-4.726,19.082
		s-11.57,8.723-17.325,5.331c1.757,2.544,0.546,6.3-1.878,8.299c-2.362,1.999-5.573,2.665-8.662,3.149
		c-17.204,2.969-34.771,3.877-52.218,2.666c0.061,8.723,0.061,17.386,0.121,26.108c0.061,15.205,0.121,30.35,0.182,45.555
		c0,3.149,0.061,6.481,1.817,9.086c1.696,2.605,5.694,3.998,8.057,1.878c1.575-1.394,1.817-3.756,1.938-5.876
		c1.212-20.717,2.423-41.495,3.695-62.213c9.329,0.484,18.658,0.97,27.987,1.454c1.574,0.061,3.21,0.182,4.482,1.091
		c2.241,1.635,2.241,4.967,2.06,7.754c-1.333,16.113-2.665,32.227-3.998,48.34c-0.242,2.969-0.363,6.301,1.575,8.542
		c2.907,3.392,8.904,1.999,11.631-1.636c2.726-3.574,3.028-8.359,3.21-12.843c1.091-23.141,2.181-46.28,3.271-69.421
		c0.061,27.623-0.242,55.246-0.849,82.869c-0.121,6.058-0.363,12.357-3.331,17.628c-2.969,5.271-9.511,9.087-15.145,6.785
		c-4.543-1.817-6.967-7.027-7.148-11.994c-0.182-4.907,1.454-9.692,2.787-14.418c4.725-16.658,6.421-34.165,4.906-51.43
		c-0.242-2.545-0.605-5.21-2.302-7.088c-1.938-2.181-5.149-2.665-8.057-2.968c-6.058-0.667-13.206-0.97-17.144,3.695
		c-2.665,3.149-2.968,7.632-3.149,11.812c-0.484,12.902-1.03,25.806-1.515,38.769c-0.183,4.786-0.788,10.238-4.786,12.903
		c-2.181,1.454-4.967,1.636-7.451,2.544c-2.483,0.909-4.967,3.15-4.482,5.694c0.545,3.029,4.968,3.938,7.572,2.241
		c2.605-1.695,3.816-4.846,4.785-7.754c0.667,6.543-1.574,14.055-7.451,17.083c-5.875,3.029-14.841-1.757-13.629-8.299
		c0.666-3.756,4.059-6.3,6.179-9.45c3.331-4.967,3.513-11.328,3.452-17.325c-0.424-47.25-5.451-94.439-15.144-140.721
		c-13.509,16.174-27.078,32.288-40.587,48.462c-2.362,2.847-4.846,5.755-8.238,7.209c-4.301,1.817-12.115,0.061-9.935-5.937
		c1.999-5.331,5.392-10.42,8.723-14.963c6.846-9.632,15.145-18.112,23.201-26.654c7.391-7.814,14.659-15.811,20.657-24.836
		c4.119-6.239,7.633-13.084,12.902-18.416c5.271-5.331,12.903-9.147,20.232-7.451c-4.482,1.454-7.632,6.24-7.147,10.965
		c0.849-2.181,2.786-3.877,5.028-4.483c-1.212,1.09-2,2.605-2.182,4.24c4.362,0.969,9.147,1.212,13.207-0.666 M259.004,198.568
		c1.272,3.15,2.483,6.179,3.816,9.208c0.061,0.182,0.97,0.303,1.212,0.061c1.393-1.151,2.847-2.302,4.059-3.635
		c2.119-2.302,4.119-4.726,6.117-7.148c2.727-3.331,5.514-6.663,8.179-10.116c2.544-3.332,4.847-6.906,7.511-10.177
		c2.061-2.605,4.06-5.634,6.785-7.088c2.969-1.575,2.545-3.271,1.999-5.512c-0.121-0.485-0.061-1.03-0.061-1.515
		c-0.121-2.787-0.303-5.573-0.484-8.299c0-0.364-0.121-0.788-0.303-0.969c-0.183-0.121-0.728,0.061-0.909,0.242
		c-2.302,2.302-4.543,4.665-6.784,7.027c-2.181,2.302-4.241,4.604-6.421,6.845c-2.545,2.605-5.392,4.907-7.633,7.754
		c-5.513,6.967-10.723,14.175-16.053,21.263C259.549,197.114,259.367,197.902,259.004,198.568z M348.719,233.764
		c2.06-0.242,5.027-0.484,7.996-0.848c3.09-0.425,3.211-0.485,2.483-3.393c-0.908-3.756-0.727-7.512,0-11.268
		c0.484-2.665,0.182-3.15-2.604-3.028c-3.211,0.061-6.421,0.182-9.632,0.484c-6.846,0.666-13.63,1.393-20.475,2.181
		c-0.485,0.061-1.272,0.424-1.394,0.787c-0.728,2.605-2.362,4.968-1.938,7.875c0.182,1.212-0.121,2.484-0.363,3.695
		c-0.363,1.575,0.182,2.12,1.756,2.06c1.333-0.061,2.666-0.061,3.938,0.061C334.968,232.734,341.389,233.219,348.719,233.764z
		 M394.696,161.435c0,1.999,0.121,3.816,1.878,5.149c0.364,0.303,0.425,1.03,0.606,1.575c0.363,1.09,0.605,2.241,1.15,3.271
		c1.999,4.059,4.059,8.117,6.118,12.176c3.816,7.451,7.633,14.842,11.389,22.293c0.606,1.211,1.454,1.696,2.605,0.787
		c2.181-1.696,4.361-3.393,6.421-5.21c0.363-0.303,0.605-1.211,0.424-1.635c-0.727-1.636-1.636-3.271-2.544-4.847
		c-2.969-5.452-6.058-10.904-9.026-16.355c-1.817-3.393-3.514-6.906-5.331-10.298c-3.573-6.482-7.147-12.963-10.782-19.445
		c-0.182-0.363-0.424-0.727-0.605-1.09c-0.242,0.424-0.606,0.788-0.667,1.211C395.727,153.135,395.242,157.255,394.696,161.435z
		 M343.63,241.094c0,0.182,0.061,0.303,0.061,0.484c6.179-0.908,12.419-1.817,18.598-2.665c1.271-0.182,1.394-0.485,0.787-1.696
		c-1.09-2.181-2.786-2.302-4.906-2.12c-4.483,0.363-9.026,0.787-13.569,0.666c-6.967-0.182-13.993-0.787-20.96-1.272
		c-1.393-0.121-1.999,0.485-2.241,1.757c-0.061,0.485-0.243,0.97-0.425,1.454c-1.09,3.15-1.029,3.15,2.242,3.393
		c0.121,0,0.303,0,0.424,0C330.364,241.094,337.027,241.094,343.63,241.094z M377.312,325.478c-0.97,0.605-2.242,1.878-3.756,2.181
		c-3.574,0.788-7.27,1.272-10.965,1.454c-1.757,0.121-3.09,0.121-3.816,1.999c-0.908,2.241-1.938,4.361-2.969,6.542
		c-0.666,1.394-0.121,1.696,1.272,1.817c5.028,0.303,9.995,0.728,15.023,1.272c1.575,0.182,2.241-0.242,2.544-1.817
		C375.494,334.262,376.523,329.597,377.312,325.478z M339.813,140.717c0,0.182,0,0.424,0,0.605
		c-0.787-0.061-1.574-0.182-2.423-0.242c-0.424,0-0.788,0.121-1.212,0.182c0.182,0.364,0.303,0.788,0.606,1.09
		c2.12,2.242,4.18,4.483,6.36,6.664c0.363,0.364,1.03,0.485,1.575,0.667c2.06,0.909,3.938-0.061,5.937-0.424
		c3.635-0.666,7.026-1.514,7.391-6.118c0-0.061,0.061-0.121,0.061-0.182c0.908-2.241,0.908-2.181-1.636-2.181
		C350.899,140.778,345.326,140.717,339.813,140.717z M436.192,222.133c-0.909-3.211-1.878-6.36-2.848-9.571
		c-0.061-0.242-0.787-0.484-0.969-0.363c-2.241,1.636-4.847,1.454-7.33,1.696c-1.757,0.182-2.423,1.15-1.696,2.726
		c1.575,3.332,3.271,6.604,5.089,9.874c0.303,0.485,1.211,0.909,1.817,0.97C432.86,227.403,436.132,225.768,436.192,222.133z
		 M343.206,139.203c2.181,0.121,6.906-0.242,9.813-0.182c1.091,0,0.849-0.727,0.666-3.271c-0.182-2.726,0.122-4.12-0.303-6.482
		c-0.182-1.09-2.968-0.545-3.998-0.606c-1.757-0.061-3.453-0.363-5.209-0.424c-0.364,0-1.03,0.484-1.151,0.909
		c-0.666,2.604-1.212,5.209-1.878,7.814C340.662,138.718,341.025,139.082,343.206,139.203z M242.284,220.194
		c-0.666,2.423,1.757,2.483,2.605,3.695c0.787,1.212,1.877,1.272,2.847,0.666c1.03-0.666,1.999-1.575,2.726-2.604
		c1.091-1.515,1.818-3.271,2.908-4.725c0.363-0.546,1.271-0.788,1.999-1.03c0.546-0.242,1.151-0.303,1.696-0.424
		c-0.545-0.545-1.029-1.212-1.636-1.696c-0.788-0.605-1.696-1.091-2.665-1.515c-0.363-0.182-0.909-0.242-1.272-0.061
		c-1.515,0.728-2.968,1.515-4.422,2.241C244.647,215.772,242.829,217.529,242.284,220.194z M387.003,179.244
		c0.122,0,0.243,0.061,0.364,0.061c0,0.242-0.061,0.424,0,0.666c0.061,0.484,0.242,0.909,0.363,1.333
		c0.303-0.363,0.727-0.727,0.848-1.151c0.788-2.24,1.878-4.482,2.241-6.845c0.909-5.149,1.575-10.359,2.182-15.508
		c0.424-3.271,0.666-6.542,0.908-9.813c0.061-0.424-0.242-0.848-0.424-1.333c-0.363,0.363-0.728,0.666-1.03,1.03
		c-0.182,0.303-0.242,0.666-0.303,1.03c-0.545,2.787-1.029,5.512-1.515,8.299C389.487,164.403,388.275,171.854,387.003,179.244z
		 M394.879,179.789c-0.304-1.029-0.728-1.938-0.728-2.907c0-0.546,0.605-1.151,0.909-1.696c0.363,0.424,0.969,0.788,1.09,1.271
		c0.303,1.213,0.424,2.424,0.484,3.695c0,0.546-0.303,1.455-0.605,1.516c-2.06,0.242-0.848,1.332-0.545,2.059
		c0.303,0.788,0.908,1.515,1.15,2.363c0.183,0.545,0,1.211,0,1.817c-0.605-0.243-1.514-0.364-1.695-0.788
		c-0.97-1.878-1.757-3.816-2.605-5.755c-0.242-0.545-0.545-1.091-0.848-1.636c-0.182,0.727-0.484,1.394-0.545,2.121
		c-0.062,0.424,0.121,0.848,0.242,1.271c1.09,2.848,2.12,5.694,3.331,8.541c0.425,1.03,1.151,1.999,1.757,2.969
		c0.303-1.151,0.606-2.241,0.909-3.393c0.969-3.816,0.061-7.996,2.12-11.631c0.182-0.303-0.061-0.848-0.242-1.211
		c-1.212-2.544-2.484-5.089-3.816-7.572c-0.121-0.303-0.485-0.485-0.728-0.667c-0.182,0.242-0.484,0.545-0.605,0.848
		C392.697,173.974,391.668,177.063,394.879,179.789z M378.462,126.421c2.666,3.574,3.514,8.238,2.06,11.328
		c-1.211,2.604-1.211,2.604,1.575,3.513c0.303,0.061,0.545,0.242,0.848,0.303c3.514,0.969,3.635,0.969,3.756-2.544
		c0.121-3.089-0.182-6.118-2.786-8.299C382.218,129.268,380.4,127.936,378.462,126.421z M361.076,341.47
		c0,0.061-0.061,0.182-0.061,0.242c-1.817,0.121-3.695,0-5.452,0.364c-0.848,0.121-1.514,1.09-2.302,1.635
		c0.788,0.546,1.575,1.515,2.423,1.575c3.877,0.303,7.693,0.424,11.57,0.424c1.454,0,2.908-0.424,4.302-0.787
		c0.363-0.121,0.666-0.727,0.848-1.151c0.061-0.061-0.363-0.605-0.605-0.605C368.225,342.561,364.65,342.016,361.076,341.47z
		 M312.372,346.861c1.757-0.545,3.453-0.787,4.907-1.575c0.727-0.363,1.03-1.575,1.515-2.423c-0.667-0.182-1.394-0.545-2.061-0.545
		c-3.271,0.061-6.542,0.242-9.812,0.424c-0.606,0.061-1.212,0.303-1.758,0.484c0.425,0.605,0.728,1.636,1.272,1.817
		C308.253,345.831,310.312,346.316,312.372,346.861z M423.229,210.502c0,0,0.484,0.121,0.545,0c1.091-1.878,3.211-1.696,4.847-2.483
		c0.303-0.182,0.727-0.728,0.666-0.909c-0.484-1.09-0.908-2.362-1.757-3.089c-0.363-0.303-1.817,0.424-2.604,0.969
		c-1.272,0.849-2.302,2.06-3.574,2.848c-2.483,1.575-2.544,1.515-1.272,4.24c0.183,0.363,0.667,0.605,0.97,0.908
		c0.242-0.363,0.727-0.787,0.727-1.15C421.774,210.865,421.593,210.018,423.229,210.502z M393.001,217.59
		c-0.667-1.636-1.454-3.332-2.06-5.028c-1.03-2.907-1.938-5.815-2.969-8.662c-0.121-0.425-0.605-0.667-0.908-1.03
		c-0.183,0.424-0.425,0.849-0.485,1.272c-0.363,4.059,1.272,7.693,2.908,11.268c0.484,1.029,1.211,1.999,1.878,2.907
		c0.182,0.303,0.727,0.363,1.09,0.484C392.576,218.498,392.758,218.135,393.001,217.59z M390.153,196.69
		c-0.303,0.121-0.545,0.182-0.848,0.303c0.424,0.909,0.848,1.817,1.271,2.727c0.121,0.303,0.242,0.666,0.242,0.969
		c-0.484,4.725,1.212,8.966,2.848,13.267c0.061,0.242,0.363,0.363,0.605,0.545c0.182-0.303,0.424-0.605,0.484-0.969
		c0.122-2.181,0.304-4.362,0.304-6.543c0-0.363-0.364-0.787-0.546-1.15c-0.666-1.091-1.393-2.181-1.938-3.332
		C391.729,200.567,390.941,198.629,390.153,196.69z M261.306,209.533c-1.332-2.908-2.483-5.452-3.695-7.936
		c-0.121-0.183-1.029-0.304-1.211-0.122c-0.97,1.272-2.303,2.545-1.212,4.423c0.849,1.515,1.575,3.089,2.544,4.543
		c0.242,0.363,1.151,0.545,1.575,0.424C260.034,210.623,260.64,210.018,261.306,209.533z M381.673,208.563
		c-0.303,0.788-0.667,1.272-0.667,1.757c0.364,5.028,2.121,9.511,5.331,13.448c0.242,0.242,0.728,0.303,1.091,0.424
		c0.121-0.363,0.303-0.787,0.303-1.15c0-0.425-0.242-0.849-0.424-1.212c-1.272-2.969-2.545-5.937-3.756-8.845
		c-0.424-1.029-0.788-2.06-1.212-3.028C382.218,209.533,382.036,209.229,381.673,208.563z M351.384,151.5
		c0.061,0.121,0.061,0.242,0.121,0.424c1.999-0.242,3.998-0.484,5.997-0.667c3.816-0.363,4.907-3.392,6.119-6.239
		c0.182-0.424,0.061-1.211-0.243-1.636c-0.363-0.545-0.969-1.09-1.574-1.272c-0.304-0.061-0.97,0.727-1.212,1.211
		c-0.545,1.272-0.909,2.605-1.333,3.938c-0.545,1.999-1.817,3.029-3.877,3.332C354.05,150.773,352.717,151.197,351.384,151.5z
		 M396.15,200.144c-0.121-0.424-0.121-0.849-0.242-1.151c-1.454-2.968-2.968-5.937-4.361-8.965c-0.667-1.394-1.03-2.848-1.575-4.302
		c-0.121-0.303-0.605-0.545-0.908-0.787c-0.183,0.303-0.606,0.605-0.606,0.848c0.182,1.091,0.242,2.303,0.728,3.332
		c1.635,3.816,3.392,7.572,5.088,11.328c0.303,0.727,0.667,1.394,0.97,2.12C395.484,201.779,395.848,200.931,396.15,200.144z
		 M369.314,238.004c0.304,0,0.606,0,0.849,0c2.968-0.061,3.756-0.848,3.332-4.059c-0.364-2.665-2.242-0.605-3.393-0.787
		c-0.424-0.061-0.849,0.121-1.272,0.182c-2.181,0.424-2.544,1.029-2.12,3.998c0.242,1.817,1.636,0.242,2.362,0.666
		C369.133,238.064,369.193,238.004,369.314,238.004z M315.28,139.566c-0.182-0.909-0.363-2.362-0.787-3.755
		c-0.121-0.424-1.03-1.091-1.213-1.03c-2.059,1.03-4.059,2.12-6.057,3.271c-0.121,0.061,0,1.03,0.121,1.03
		c1.635,0.242,3.271,0.606,4.906,0.484c1.394-0.061,2.303-0.121,2.242,1.636c0,0.242,0.182,0.485,0.303,0.727
		c0.182-0.242,0.424-0.545,0.484-0.788C315.341,140.838,315.28,140.414,315.28,139.566z M343.509,153.014
		c0.121-0.061,0.484-0.121,0.788-0.242c-0.243-0.303-0.425-0.727-0.728-0.909c-2.847-1.393-5.088-3.332-6.663-6.058
		c-0.364-0.606-0.909-1.151-1.454-1.636c-0.363-0.303-0.848-0.424-1.332-0.605c-0.061,0.545-0.304,1.09-0.182,1.575
		C334.786,149.077,338.966,152.53,343.509,153.014z M318.854,235.521c-0.363-0.121-0.849-0.424-1.272-0.424
		c-1.091,0-2.181,0.121-3.21,0.303c-0.546,0.061-1.031,0.363-1.516,0.545c0.303,0.363,0.667,0.728,0.909,1.151
		c0.303,0.484,0.363,1.211,0.728,1.453c1.029,0.485,2.18,0.788,3.271,1.151C318.066,238.367,318.431,237.096,318.854,235.521z
		 M394.151,142.534c-0.061,1.091,2.241,3.029,3.211,2.605c0.182-0.061,0.303-0.667,0.182-0.788
		c-1.938-2.847-4.361-5.209-7.451-6.785c-0.182-0.121-0.727,0.061-0.727,0.122c-0.061,0.908-0.121,1.877-0.121,2.786
		c0.545,0,1.15,0.121,1.696-0.061C392.88,139.93,394.212,140.838,394.151,142.534z M404.995,144.473
		c0.121-0.061,0.303-0.121,0.424-0.182c-0.666-1.817-1.333-3.634-2.12-5.391c-0.121-0.303-0.728-0.364-1.091-0.606
		c-0.061,0.182-0.303,0.424-0.242,0.545c0.849,1.938-0.727,4.361,1.151,6.118c0.545,0.545,0.908,1.333,1.332,1.999
		C404.692,146.108,404.813,145.321,404.995,144.473z M300.257,154.771c0.061,0,0.121,0,0.121,0c0,1.09-0.061,2.181,0,3.271
		c0,0.303,0.242,0.606,0.424,0.909c0.182-0.303,0.424-0.545,0.484-0.848c0.485-2.362,0.97-4.725,1.333-7.087
		c0.062-0.424-0.242-0.969-0.363-1.454c-0.545,0.363-1.394,0.605-1.515,1.09C300.438,151.984,300.378,153.438,300.257,154.771z
		 M251.371,209.473c-0.363-1.03-0.667-1.757-0.909-2.424c-0.605,0.425-1.271,0.788-1.816,1.333
		c-0.424,0.363-0.788,0.848-1.091,1.333c-0.363,0.605-0.667,1.211-1.03,1.878c0.728-0.182,1.394-0.364,2.121-0.546
		c0.484-0.121,1.029-0.182,1.453-0.424C250.583,210.32,250.946,209.896,251.371,209.473z M380.037,217.59
		c-0.121,3.331,1.272,5.694,2.726,8.057c0.121,0.182,0.728,0.121,1.151,0.121c0.061-0.363,0.242-0.787,0.061-1.091
		C382.763,222.436,381.491,220.255,380.037,217.59z M305.345,142.171c-0.484-0.424-0.666-0.605-0.848-0.788
		c-0.787,1.09-1.574,2.181-2.241,3.271c-0.061,0.061,0.485,0.484,0.788,0.787C303.771,144.412,304.558,143.322,305.345,142.171z
		 M386.034,174.822c-0.424-0.848-0.605-1.333-0.848-1.817c-0.606,0.848-1.272,1.696-1.817,2.604
		c-0.061,0.061,1.029,0.969,1.09,0.908C385.065,176.033,385.55,175.428,386.034,174.822z M305.83,182.152
		c-0.242-1.091-0.425-1.818-0.546-2.545c-0.303,0.727-0.848,1.454-0.908,2.242c-0.061,1.029,0.242,2.119,0.424,3.149
		C305.163,183.908,305.526,182.939,305.83,182.152z M304.86,166.523c-0.182,0-0.424-0.061-0.605-0.061
		c-0.242,2.181-0.484,4.362-0.727,6.542c0.242,0,0.484,0.061,0.787,0.061C304.497,170.945,304.679,168.704,304.86,166.523z
		 M387.064,198.568c-0.425-0.666-0.728-1.212-1.091-1.757c-0.484,0.424-0.97,0.909-1.515,1.333c0.545,0.545,1.151,1.029,1.696,1.575
		C386.458,199.355,386.7,199.053,387.064,198.568z"/>
	<path fill="#157270" d="M320.55,96.556c0.061,0.182,0.061,0.424,0.061,0.667c0,1.272-0.666,2.544-1.574,3.393
		c-0.849,0.787-1.939,1.333-3.029,1.393c-3.393,0.182-4.967-4.059-3.514-6.724c0.909-1.636,3.029-2.605,4.847-2.181
		C318.915,93.406,320.247,94.86,320.55,96.556z"/>
	<path fill="#157270" d="M374.646,101.887c-2.06-0.364-3.756-2.06-2.726-4.604c0.424-1.09,1.332-2.06,2.241-2.726
		c0.727-0.484,1.636-0.848,2.544-0.666c0.97,0.121,1.817,0.787,2.423,1.514c1.333,1.636,1.151,3.938-0.424,5.392
		C377.675,101.827,376.039,102.129,374.646,101.887z"/>
</g>
<path fill="#157270" d="M353.868,72.386c-4.665-3.938-13.873-4.12-19.203-1.333c-1.696,0.909-2.908,2.423-3.635,4.241
	c-1.212,3.21-0.787,6.603-0.303,9.935c-7.209-1.636-13.873-5.634-18.719-11.268c-1.453-1.696-3.695-4.301-6.239-3.453
	c-2.302,0.787-3.574,4.301-4.241,6.421c-3.21,9.692-2.24,19.93-1.514,29.925c-1.029-2.363-1.515-3.938-2.181-5.876
	c-0.788-2.362-1.394-5.271-1.757-7.754c-0.787-5.028-1.15-10.056-0.969-15.205c0.363-9.026,2.24-18.597,7.329-26.291
	c0.667-0.969,1.333-1.877,2.06-2.786c9.208-10.783,22.717-17.022,36.407-20.778s27.865-5.452,41.616-8.965
	c-3.089,9.269,0.182,19.385,4.604,28.108c4.422,8.723,10.056,17.022,11.934,26.593c2.241,11.268,0.121,19.445-6.543,33.257
	c2.424-7.572,1.394-18.173-0.484-21.747c-1.938-3.756-3.756-6.058-7.391-8.238c-2.12-1.272-3.695-1.938-6.3-1.575
	c-4.24,0.545-5.331,6.603-5.513,10.056c0,0.606,0,3.332,0.242,3.877C373.131,89.469,356.896,74.93,353.868,72.386z"/>
<path fill="#2CBBB6" d="M312.978,321.237l19.385,5.997l0.546,7.33c0.121,2.241-16.417,9.207-22.353,12.115
	c-7.572,3.635-17.811-0.061-11.935-9.39C300.802,333.897,311.04,326.144,312.978,321.237z"/>
<path fill="#2CBBB6" d="M358.593,325.054l19.264,5.392v8.42c0,0-4.907,5.815-11.328,8.541c-12.236,5.271-25.685,2.181-19.688-6.3
	C349.082,337.835,356.715,329.96,358.593,325.054z"/>
<path fill="#157270" d="M311.706,328.931c0.969-0.121,5.27-0.788,7.33,4.482"/>
<path fill="#157270" d="M308.253,331.354c0.969-0.121,5.271-0.787,7.33,4.482"/>
<path fill="#157270" d="M358.169,332.808c0.969-0.303,5.027-1.757,7.996,3.028"/>
<path fill="#157270" d="M355.2,335.775c0.97-0.303,5.089-1.696,7.996,3.15"/>
<path opacity="0.47" fill="#EF695B" enable-background="new    " d="M307.284,105.219c-2.363,0-4.18,0.424-4.18,1.999
	c0,1.575,1.998,2.544,4.18,2.544c2.181,0,4.906-0.848,4.543-2.302C311.464,106.067,309.646,105.219,307.284,105.219z"/>
<path opacity="0.47" fill="#EF695B" enable-background="new    " d="M385.368,104.613c-2.06,0-3.635,0.484-3.635,2.362
	s1.757,2.968,3.635,2.968s4.301-1.03,3.998-2.666C389.003,105.643,387.428,104.613,385.368,104.613z"/>
<g>
	<g>
		<path fill="#157270" d="M345.871,95.83c0,1.393,0.243,2.968,0,4.301c0.122,0.727-0.182,1.272-0.908,1.636
			c-0.363-0.061-0.666-0.061-1.03,0c-0.242,0.061-0.484,0.121-0.666,0.303c-0.969,0.788-0.666,2.362,0.363,2.908
			c0.788,0.424,1.454-0.788,0.667-1.151c-0.182-0.606-0.061-0.848,0.363-0.727c0.242,0,0.484,0.061,0.787,0.061
			c0.242,0,0.484-0.061,0.728-0.182c0.424-0.242,0.727-0.667,0.908-1.151c0.545-1.757,0.121-4.18,0.061-5.997
			C347.265,94.921,345.871,94.921,345.871,95.83L345.871,95.83z"/>
	</g>
</g>
<g>
	<g>
		<path fill="#157270" d="M336.603,110.853c1.213,6.664,16.235,5.694,18.779,0.667c0.363-0.788-0.787-1.454-1.15-0.667
			c-1.938,3.877-15.326,5.149-16.295-0.303C337.754,109.641,336.421,110.004,336.603,110.853L336.603,110.853z"/>
	</g>
</g>
</svg>
